<svg xmlns="http://www.w3.org/2000/svg" xmlns:xlink="http://www.w3.org/1999/xlink" width="600" zoomAndPan="magnify" viewBox="0 0 450 225" height="300" preserveAspectRatio="xMidYMid meet" version="1.0"><defs><g/><clipPath id="06340dcc5d"><path d="M 0 17.4375 L 450 17.4375 L 450 207.9375 L 0 207.9375 Z M 0 17.4375 " clip-rule="nonzero"/></clipPath></defs><path fill="#3b28cc" d="M 440.03125 182.257812 C 440.679688 180.9375 441.230469 179.578125 441.742188 178.1875 C 433.78125 194.027344 417.457031 204.945312 398.511719 205.019531 C 374.195312 205.082031 354.171875 187.222656 350.550781 163.875 L 99.339844 162.347656 C 95.449219 185.644531 75.210938 203.273438 50.882812 202.914062 C 45.96875 202.847656 41.246094 202.023438 36.808594 200.597656 C 37.976562 201.261719 39.101562 201.960938 40.316406 202.527344 C 20.449219 197.773438 5.550781 180.828125 3.453125 160.207031 C 3.277344 158.703125 3.152344 157.1875 3.121094 155.648438 C 3.109375 155.28125 3.03125 154.929688 3.042969 154.558594 L 3.066406 154.230469 C 3.066406 154.011719 3.035156 153.804688 3.046875 153.597656 C 3.351562 135.191406 13.976562 119.5625 29.195312 111.566406 C 14.246094 103.089844 4.117188 87.164062 4.414062 68.746094 C 4.402344 68.574219 4.429688 68.421875 4.433594 68.25 C 4.429688 68.089844 4.414062 67.933594 4.414062 67.773438 C 4.851562 40.972656 26.914062 19.546875 53.71875 19.984375 C 77.941406 20.371094 97.5625 38.453125 100.863281 61.648438 L 350.253906 63.160156 C 353.84375 39.992188 373.675781 22.160156 397.890625 22.066406 C 424.742188 21.957031 446.511719 43.648438 446.632812 70.460938 C 446.628906 70.621094 446.601562 70.769531 446.59375 70.953125 C 446.605469 71.113281 446.628906 71.261719 446.628906 71.421875 C 446.640625 77.9375 445.289062 84.070312 443 89.722656 C 443.175781 89.042969 443.25 88.335938 443.40625 87.648438 C 439.175781 98.773438 431.011719 107.941406 420.539062 113.457031 C 436.09375 121.503906 446.894531 137.550781 446.953125 156.273438 C 446.957031 156.484375 446.933594 156.691406 446.902344 156.890625 C 446.921875 157 446.949219 157.117188 446.949219 157.234375 C 446.941406 157.953125 446.828125 158.617188 446.796875 159.320312 C 446.761719 160.117188 446.730469 160.914062 446.636719 161.699219 C 445.964844 169.15625 443.683594 176.160156 440.03125 182.257812 " fill-opacity="1" fill-rule="evenodd"/><g clip-path="url(#06340dcc5d)"><path fill="#3b28cc" d="M 440.03125 182.257812 L 442.332031 183.390625 C 443.035156 181.960938 443.621094 180.519531 444.144531 179.070312 C 444.617188 177.792969 444.007812 176.375 442.757812 175.832031 C 441.503906 175.292969 440.058594 175.816406 439.445312 177.035156 C 431.902344 192.050781 416.445312 202.382812 398.5 202.453125 L 398.511719 202.453125 L 398.382812 202.453125 C 386.886719 202.453125 376.4375 198.234375 368.410156 191.253906 C 360.382812 184.265625 354.800781 174.523438 353.085938 163.484375 C 352.890625 162.238281 351.828125 161.320312 350.566406 161.308594 L 99.351562 159.78125 C 98.09375 159.773438 97.019531 160.679688 96.808594 161.921875 C 94.984375 172.851562 89.367188 182.457031 81.363281 189.339844 C 73.351562 196.214844 62.988281 200.351562 51.617188 200.351562 C 51.386719 200.351562 51.148438 200.351562 50.914062 200.347656 C 46.269531 200.28125 41.804688 199.507812 37.589844 198.152344 C 36.335938 197.753906 34.984375 198.363281 34.457031 199.566406 C 33.929688 200.773438 34.398438 202.175781 35.539062 202.828125 C 36.648438 203.449219 37.828125 204.203125 39.238281 204.851562 L 40.316406 202.527344 L 40.910156 200.03125 C 22.113281 195.53125 7.992188 179.484375 6.003906 159.945312 L 5.996094 159.910156 C 5.832031 158.46875 5.71875 157.03125 5.6875 155.59375 L 5.6875 155.558594 C 5.671875 155.242188 5.640625 155.007812 5.628906 154.851562 C 5.605469 154.699219 5.605469 154.628906 5.605469 154.628906 L 5.605469 154.609375 L 3.722656 154.609375 L 5.601562 154.746094 L 5.605469 154.609375 L 3.722656 154.609375 L 5.601562 154.746094 L 3.042969 154.558594 L 5.597656 154.773438 L 5.628906 154.445312 L 5.632812 154.230469 C 5.632812 154.011719 5.621094 153.851562 5.613281 153.761719 L 5.605469 153.667969 L 5.605469 153.65625 L 5.152344 153.671875 L 5.605469 153.671875 L 5.605469 153.65625 L 5.152344 153.671875 L 5.605469 153.671875 L 4.109375 153.671875 L 5.601562 153.78125 L 5.605469 153.671875 L 4.109375 153.671875 L 5.601562 153.78125 L 5.605469 153.636719 C 5.757812 144.917969 8.339844 136.886719 12.691406 130.058594 C 17.042969 123.234375 23.171875 117.632812 30.394531 113.839844 C 31.226562 113.402344 31.746094 112.550781 31.761719 111.609375 C 31.777344 110.664062 31.28125 109.800781 30.464844 109.332031 C 23.472656 105.367188 17.59375 99.691406 13.46875 92.871094 C 9.34375 86.046875 6.976562 78.097656 6.976562 69.53125 C 6.976562 69.28125 6.976562 69.035156 6.980469 68.800781 L 6.976562 68.574219 L 5.660156 68.667969 L 6.976562 68.667969 L 6.976562 68.574219 L 5.660156 68.667969 L 6.980469 68.667969 C 6.980469 68.621094 6.988281 68.519531 7 68.375 L 7 68.171875 C 6.996094 68.023438 6.988281 67.925781 6.984375 67.871094 L 6.980469 67.8125 L 6.980469 67.808594 L 6.46875 67.824219 L 6.980469 67.824219 L 6.980469 67.808594 L 6.46875 67.824219 L 6.980469 67.824219 L 6.980469 67.808594 L 4.855469 67.808594 L 6.96875 68 C 6.984375 67.878906 6.980469 67.8125 6.980469 67.808594 L 4.855469 67.808594 L 6.96875 68 L 6.980469 67.8125 C 7.386719 42.6875 27.871094 22.542969 52.910156 22.546875 C 53.164062 22.546875 53.417969 22.546875 53.675781 22.550781 L 53.679688 22.550781 C 65.15625 22.738281 75.519531 27.101562 83.425781 34.179688 C 91.332031 41.253906 96.757812 51.027344 98.320312 62.011719 C 98.496094 63.269531 99.574219 64.210938 100.84375 64.214844 L 350.238281 65.722656 C 351.507812 65.734375 352.59375 64.808594 352.789062 63.554688 C 354.488281 52.578125 360.035156 42.871094 368.023438 35.890625 C 376.019531 28.917969 386.425781 24.675781 397.902344 24.632812 L 398.09375 24.632812 C 423.429688 24.625 443.949219 45.136719 444.066406 70.46875 L 446.632812 70.460938 L 444.070312 70.378906 L 444.738281 70.398438 L 444.070312 70.355469 L 444.070312 70.378906 L 444.738281 70.398438 L 444.070312 70.355469 L 444.070312 70.375 C 444.066406 70.425781 444.042969 70.589844 444.03125 70.839844 L 444.035156 71.105469 C 444.042969 71.257812 444.054688 71.355469 444.054688 71.402344 L 444.0625 71.425781 L 444.832031 71.382812 L 444.0625 71.382812 L 444.0625 71.425781 L 444.832031 71.382812 L 444.0625 71.382812 L 445.347656 71.382812 L 444.0625 71.371094 L 444.0625 71.382812 L 445.347656 71.382812 L 444.0625 71.371094 L 444.0625 71.546875 C 444.054688 77.65625 442.789062 83.414062 440.625 88.757812 L 443 89.722656 L 445.480469 90.371094 C 445.71875 89.433594 445.789062 88.695312 445.90625 88.199219 C 446.195312 86.886719 445.429688 85.574219 444.136719 85.1875 C 442.847656 84.800781 441.480469 85.472656 441.003906 86.738281 C 437 97.269531 429.261719 105.960938 419.339844 111.1875 C 418.492188 111.632812 417.96875 112.511719 417.972656 113.46875 C 417.972656 114.425781 418.507812 115.296875 419.355469 115.738281 C 426.730469 119.550781 432.984375 125.265625 437.386719 132.234375 C 441.792969 139.199219 444.355469 147.414062 444.386719 156.277344 L 444.386719 156.273438 L 444.386719 156.296875 C 444.390625 156.296875 444.386719 156.378906 444.363281 156.539062 C 444.332031 156.78125 444.332031 156.984375 444.363281 157.222656 C 444.382812 157.382812 444.398438 157.453125 444.398438 157.453125 L 445.859375 157.222656 L 444.382812 157.222656 C 444.382812 157.375 444.398438 157.453125 444.398438 157.453125 L 445.859375 157.222656 L 444.382812 157.222656 L 446.738281 157.222656 L 444.382812 157.179688 L 444.382812 157.222656 L 446.738281 157.222656 L 444.382812 157.179688 C 444.382812 157.1875 444.371094 157.320312 444.402344 157.566406 L 446.949219 157.234375 L 444.382812 157.210938 C 444.382812 157.660156 444.28125 158.296875 444.230469 159.210938 C 444.203125 160.023438 444.171875 160.753906 444.089844 161.386719 L 444.082031 161.46875 C 443.441406 168.550781 441.28125 175.175781 437.828125 180.9375 L 440.03125 182.257812 L 442.332031 183.390625 L 440.03125 182.257812 L 442.230469 183.574219 C 446.089844 177.136719 448.484375 169.757812 449.191406 161.929688 L 446.636719 161.699219 L 449.183594 162.015625 C 449.296875 161.078125 449.328125 160.210938 449.359375 159.429688 C 449.375 158.933594 449.5 158.234375 449.511719 157.265625 L 449.492188 156.910156 L 447.003906 157.230469 L 449.511719 157.230469 C 449.511719 157.175781 449.511719 157.066406 449.492188 156.910156 L 447.003906 157.230469 L 449.511719 157.230469 L 447.164062 157.230469 L 449.511719 157.269531 L 449.511719 157.230469 L 447.164062 157.230469 L 449.511719 157.269531 L 449.511719 157.222656 C 449.511719 156.957031 449.484375 156.765625 449.464844 156.65625 L 449.449219 156.542969 L 449.449219 156.535156 L 448.632812 156.660156 L 449.449219 156.554688 L 449.449219 156.535156 L 448.632812 156.660156 L 449.449219 156.554688 L 446.902344 156.890625 L 449.449219 157.234375 C 449.472656 157.019531 449.519531 156.710938 449.519531 156.296875 L 449.519531 156.265625 C 449.488281 146.410156 446.628906 137.234375 441.726562 129.488281 C 436.824219 121.742188 429.894531 115.410156 421.714844 111.175781 L 420.539062 113.457031 L 421.730469 115.726562 C 432.753906 109.917969 441.351562 100.273438 445.800781 88.5625 L 443.40625 87.648438 L 440.898438 87.09375 C 440.707031 87.976562 440.632812 88.652344 440.519531 89.070312 C 440.171875 90.378906 440.902344 91.726562 442.1875 92.160156 C 443.476562 92.585938 444.867188 91.945312 445.378906 90.6875 C 447.765625 84.800781 449.191406 78.371094 449.1875 71.546875 L 449.1875 71.421875 L 447.984375 71.421875 L 449.1875 71.433594 L 449.1875 71.421875 L 447.984375 71.421875 L 449.1875 71.433594 L 449.191406 71.382812 C 449.183594 70.976562 449.148438 70.796875 449.152344 70.789062 L 446.59375 70.953125 L 449.15625 71.054688 L 449.066406 71.054688 L 449.15625 71.0625 L 449.15625 71.054688 L 449.066406 71.054688 L 449.15625 71.0625 C 449.152344 71.050781 449.183594 70.894531 449.199219 70.539062 L 449.199219 70.445312 C 449.066406 42.296875 426.265625 19.5 398.09375 19.5 L 397.882812 19.5 C 385.144531 19.550781 373.527344 24.277344 364.652344 32.027344 C 355.773438 39.78125 349.609375 50.570312 347.71875 62.769531 L 350.253906 63.160156 L 350.269531 60.59375 L 100.875 59.085938 L 100.863281 61.648438 L 103.398438 61.289062 C 101.664062 49.078125 95.636719 38.210938 86.851562 30.355469 C 78.066406 22.492188 66.503906 17.621094 53.761719 17.421875 L 53.765625 17.421875 C 53.476562 17.414062 53.1875 17.414062 52.910156 17.414062 C 25.0625 17.414062 2.308594 39.804688 1.851562 67.730469 L 4.414062 67.773438 L 1.859375 67.542969 L 1.847656 67.765625 L 1.847656 67.824219 C 1.851562 68.171875 1.875 68.335938 1.875 68.335938 L 4.433594 68.25 L 1.875 68.125 L 1.863281 68.253906 C 1.859375 68.339844 1.84375 68.480469 1.84375 68.667969 L 1.851562 68.917969 L 4.414062 68.746094 L 1.847656 68.695312 C 1.84375 68.980469 1.84375 69.261719 1.84375 69.53125 C 1.839844 79.050781 4.488281 87.941406 9.078125 95.523438 C 13.664062 103.109375 20.183594 109.40625 27.933594 113.796875 L 29.195312 111.566406 L 28.003906 109.296875 C 20.003906 113.496094 13.210938 119.707031 8.363281 127.296875 C 3.523438 134.886719 0.636719 143.867188 0.480469 153.550781 L 3.046875 153.597656 L 0.484375 153.40625 C 0.476562 153.542969 0.476562 153.628906 0.476562 153.671875 C 0.476562 153.894531 0.492188 154.046875 0.496094 154.140625 L 0.5 154.230469 L 3.066406 154.230469 L 0.511719 154.019531 L 0.484375 154.347656 L 0.480469 154.378906 C 0.46875 154.550781 0.476562 154.628906 0.476562 154.628906 C 0.484375 155.320312 0.566406 155.683594 0.554688 155.734375 L 3.121094 155.648438 L 0.554688 155.703125 C 0.589844 157.339844 0.722656 158.941406 0.902344 160.5 L 3.453125 160.207031 L 0.894531 160.46875 C 3.109375 182.175781 18.785156 200.007812 39.71875 205.019531 C 40.996094 205.328125 42.308594 204.613281 42.742188 203.363281 C 43.171875 202.121094 42.585938 200.75 41.394531 200.199219 C 40.371094 199.726562 39.304688 199.066406 38.074219 198.363281 L 36.808594 200.597656 L 36.019531 203.039062 C 40.695312 204.539062 45.667969 205.410156 50.84375 205.480469 C 51.097656 205.484375 51.355469 205.484375 51.617188 205.484375 C 64.246094 205.488281 75.808594 200.875 84.707031 193.226562 C 93.601562 185.585938 99.84375 174.90625 101.871094 162.769531 L 99.339844 162.347656 L 99.324219 164.914062 L 350.535156 166.441406 L 350.550781 163.875 L 348.015625 164.273438 C 349.917969 176.535156 356.121094 187.363281 365.042969 195.121094 C 373.957031 202.882812 385.621094 207.589844 398.382812 207.585938 L 398.523438 207.585938 C 418.464844 207.503906 435.664062 196.007812 444.03125 179.339844 L 441.742188 178.1875 L 439.332031 177.304688 C 438.839844 178.640625 438.316406 179.917969 437.726562 181.125 C 437.121094 182.367188 437.589844 183.851562 438.804688 184.511719 C 440.011719 185.167969 441.519531 184.757812 442.230469 183.574219 L 440.03125 182.257812 " fill-opacity="1" fill-rule="nonzero"/></g><g fill="#ffffff" fill-opacity="1"><g transform="translate(137.525384, 130.125005)"><g><path d="M 4.5625 0.1875 C 4.113281 0.1875 3.628906 0.171875 3.109375 0.140625 C 2.597656 0.109375 2.171875 0.0625 1.828125 0 C 1.410156 -0.0625 1.101562 -0.210938 0.90625 -0.453125 C 0.71875 -0.691406 0.703125 -1.003906 0.859375 -1.390625 C 1.921875 -5.191406 3.113281 -9.003906 4.4375 -12.828125 C 5.757812 -16.648438 7.132812 -20.28125 8.5625 -23.71875 C 9.988281 -27.15625 11.351562 -30.171875 12.65625 -32.765625 C 12.914062 -33.210938 13.316406 -33.484375 13.859375 -33.578125 C 14.335938 -33.671875 14.847656 -33.722656 15.390625 -33.734375 C 15.941406 -33.753906 16.410156 -33.765625 16.796875 -33.765625 C 17.171875 -33.765625 17.628906 -33.753906 18.171875 -33.734375 C 18.722656 -33.722656 19.253906 -33.671875 19.765625 -33.578125 C 20.304688 -33.484375 20.707031 -33.210938 20.96875 -32.765625 C 22.3125 -30.171875 23.6875 -27.15625 25.09375 -23.71875 C 26.5 -20.28125 27.863281 -16.640625 29.1875 -12.796875 C 30.519531 -8.960938 31.695312 -5.144531 32.71875 -1.34375 C 32.875 -0.957031 32.867188 -0.644531 32.703125 -0.40625 C 32.546875 -0.164062 32.242188 -0.015625 31.796875 0.046875 C 31.578125 0.078125 31.242188 0.0976562 30.796875 0.109375 C 30.347656 0.128906 29.921875 0.144531 29.515625 0.15625 C 29.117188 0.175781 28.84375 0.1875 28.6875 0.1875 C 28.425781 0.1875 27.925781 0.171875 27.1875 0.140625 C 26.457031 0.109375 25.867188 0.0625 25.421875 0 C 25.203125 -0.0625 25.003906 -0.164062 24.828125 -0.3125 C 24.648438 -0.457031 24.5625 -0.671875 24.5625 -0.953125 C 24.59375 -1.921875 24.539062 -2.875 24.40625 -3.8125 C 24.28125 -4.757812 24.09375 -5.644531 23.84375 -6.46875 C 23.488281 -7.082031 22.925781 -7.570312 22.15625 -7.9375 C 21.394531 -8.300781 20.4375 -8.5 19.28125 -8.53125 C 18.550781 -8.570312 17.71875 -8.59375 16.78125 -8.59375 C 15.851562 -8.59375 15.023438 -8.570312 14.296875 -8.53125 C 13.109375 -8.5 12.15625 -8.289062 11.4375 -7.90625 C 10.71875 -7.53125 10.164062 -7.050781 9.78125 -6.46875 C 9.5625 -5.707031 9.378906 -4.847656 9.234375 -3.890625 C 9.085938 -2.929688 9.03125 -1.953125 9.0625 -0.953125 C 9.0625 -0.671875 8.960938 -0.457031 8.765625 -0.3125 C 8.578125 -0.164062 8.359375 -0.0625 8.109375 0 C 7.691406 0.0625 7.128906 0.109375 6.421875 0.140625 C 5.722656 0.171875 5.101562 0.1875 4.5625 0.1875 Z M 15.734375 -12.28125 C 15.992188 -12.25 16.34375 -12.234375 16.78125 -12.234375 C 17.226562 -12.234375 17.582031 -12.25 17.84375 -12.28125 C 19 -12.34375 19.804688 -12.613281 20.265625 -13.09375 C 20.734375 -13.570312 20.820312 -14.210938 20.53125 -15.015625 C 20.238281 -16.421875 19.867188 -17.84375 19.421875 -19.28125 C 18.972656 -20.71875 18.476562 -22.222656 17.9375 -23.796875 C 17.175781 -25.648438 16.394531 -25.648438 15.59375 -23.796875 C 15.082031 -22.222656 14.609375 -20.722656 14.171875 -19.296875 C 13.742188 -17.878906 13.382812 -16.453125 13.09375 -15.015625 C 12.457031 -13.285156 13.335938 -12.375 15.734375 -12.28125 Z M 15.734375 -12.28125 "/></g></g></g><g fill="#ffffff" fill-opacity="1"><g transform="translate(171.092529, 130.125005)"><g><path d="M 13.8125 11.421875 C 12.632812 11.421875 11.335938 11.378906 9.921875 11.296875 C 8.515625 11.210938 7.148438 11.082031 5.828125 10.90625 C 4.503906 10.738281 3.328125 10.492188 2.296875 10.171875 C 1.503906 9.847656 1.15625 9.285156 1.25 8.484375 L 1.671875 3.265625 C 1.742188 2.722656 1.984375 2.378906 2.390625 2.234375 C 2.804688 2.085938 3.175781 2.207031 3.5 2.59375 C 4.625 3.351562 5.972656 3.941406 7.546875 4.359375 C 9.128906 4.773438 10.660156 4.984375 12.140625 4.984375 C 13.796875 4.984375 15.296875 4.671875 16.640625 4.046875 C 17.984375 3.429688 19.054688 2.5625 19.859375 1.4375 C 20.660156 0.320312 21.0625 -0.988281 21.0625 -2.5 L 21.0625 -3.3125 C 21.0625 -3.914062 20.890625 -4.234375 20.546875 -4.265625 C 20.210938 -4.296875 19.921875 -4.054688 19.671875 -3.546875 C 18.804688 -2.171875 17.660156 -1.160156 16.234375 -0.515625 C 14.816406 0.117188 13.226562 0.4375 11.46875 0.4375 C 9.476562 0.4375 7.703125 -0.0703125 6.140625 -1.09375 C 4.578125 -2.125 3.347656 -3.640625 2.453125 -5.640625 C 1.554688 -7.640625 1.109375 -10.09375 1.109375 -13 C 1.109375 -15.84375 1.554688 -18.265625 2.453125 -20.265625 C 3.347656 -22.265625 4.578125 -23.800781 6.140625 -24.875 C 7.703125 -25.945312 9.476562 -26.484375 11.46875 -26.484375 C 13.195312 -26.484375 14.78125 -26.097656 16.21875 -25.328125 C 17.65625 -24.554688 18.835938 -23.453125 19.765625 -22.015625 C 19.984375 -21.628906 20.195312 -21.460938 20.40625 -21.515625 C 20.613281 -21.566406 20.703125 -21.847656 20.671875 -22.359375 C 20.640625 -22.703125 20.59375 -23.097656 20.53125 -23.546875 C 20.46875 -23.992188 20.40625 -24.425781 20.34375 -24.84375 C 20.3125 -25.195312 20.398438 -25.476562 20.609375 -25.6875 C 20.816406 -25.894531 21.078125 -26.03125 21.390625 -26.09375 C 21.679688 -26.15625 22.070312 -26.203125 22.5625 -26.234375 C 23.0625 -26.265625 23.550781 -26.28125 24.03125 -26.28125 C 24.476562 -26.28125 24.910156 -26.265625 25.328125 -26.234375 C 25.742188 -26.203125 26.113281 -26.15625 26.4375 -26.09375 C 27.070312 -25.9375 27.4375 -25.535156 27.53125 -24.890625 C 27.851562 -22.078125 28.046875 -18.710938 28.109375 -14.796875 C 28.171875 -10.878906 28.203125 -6.585938 28.203125 -1.921875 C 28.203125 1.335938 27.585938 3.941406 26.359375 5.890625 C 25.128906 7.847656 23.429688 9.257812 21.265625 10.125 C 19.109375 10.988281 16.625 11.421875 13.8125 11.421875 Z M 14.390625 -5.234375 C 16.210938 -5.234375 17.738281 -5.925781 18.96875 -7.3125 C 20.195312 -8.707031 20.8125 -10.632812 20.8125 -13.09375 C 20.8125 -15.457031 20.210938 -17.3125 19.015625 -18.65625 C 17.816406 -20 16.273438 -20.6875 14.390625 -20.71875 C 12.503906 -20.71875 10.960938 -20.035156 9.765625 -18.671875 C 8.566406 -17.316406 7.96875 -15.457031 7.96875 -13.09375 C 7.96875 -10.632812 8.570312 -8.707031 9.78125 -7.3125 C 11 -5.925781 12.535156 -5.234375 14.390625 -5.234375 Z M 14.390625 -5.234375 "/></g></g></g><g fill="#ffffff" fill-opacity="1"><g transform="translate(200.439803, 130.125005)"><g><path d="M 14.828125 0.390625 C 12.003906 0.390625 9.546875 -0.144531 7.453125 -1.21875 C 5.359375 -2.289062 3.734375 -3.847656 2.578125 -5.890625 C 1.429688 -7.941406 0.859375 -10.421875 0.859375 -13.328125 C 0.859375 -16.148438 1.410156 -18.535156 2.515625 -20.484375 C 3.617188 -22.429688 5.128906 -23.914062 7.046875 -24.9375 C 8.960938 -25.96875 11.140625 -26.484375 13.578125 -26.484375 C 16.960938 -26.484375 19.703125 -25.722656 21.796875 -24.203125 C 23.890625 -22.679688 24.9375 -20.453125 24.9375 -17.515625 C 24.9375 -15.941406 24.515625 -14.554688 23.671875 -13.359375 C 22.828125 -12.160156 21.707031 -11.234375 20.3125 -10.578125 C 18.925781 -9.921875 17.429688 -9.59375 15.828125 -9.59375 C 14.515625 -9.59375 13.242188 -9.703125 12.015625 -9.921875 C 10.785156 -10.148438 9.707031 -10.519531 8.78125 -11.03125 C 8.300781 -11.351562 7.945312 -11.378906 7.71875 -11.109375 C 7.5 -10.835938 7.546875 -10.476562 7.859375 -10.03125 C 8.242188 -9.132812 8.859375 -8.332031 9.703125 -7.625 C 10.554688 -6.925781 11.523438 -6.375 12.609375 -5.96875 C 13.703125 -5.570312 14.789062 -5.375 15.875 -5.375 C 17.125 -5.375 18.453125 -5.644531 19.859375 -6.1875 C 21.265625 -6.726562 22.414062 -7.414062 23.3125 -8.25 C 23.664062 -8.695312 24.039062 -8.847656 24.4375 -8.703125 C 24.84375 -8.554688 25.0625 -8.164062 25.09375 -7.53125 C 25.15625 -6.820312 25.191406 -6.097656 25.203125 -5.359375 C 25.222656 -4.628906 25.25 -3.914062 25.28125 -3.21875 C 25.28125 -2.601562 25.070312 -2.171875 24.65625 -1.921875 C 23.46875 -1.117188 21.953125 -0.53125 20.109375 -0.15625 C 18.273438 0.207031 16.515625 0.390625 14.828125 0.390625 Z M 13.953125 -13.28125 C 15.328125 -13.28125 16.414062 -13.625 17.21875 -14.3125 C 18.019531 -15 18.421875 -15.9375 18.421875 -17.125 C 18.421875 -18.375 18.050781 -19.347656 17.3125 -20.046875 C 16.582031 -20.753906 15.367188 -21.109375 13.671875 -21.109375 C 12.710938 -21.109375 11.769531 -20.90625 10.84375 -20.5 C 9.914062 -20.101562 9.15625 -19.535156 8.5625 -18.796875 C 7.96875 -18.066406 7.671875 -17.175781 7.671875 -16.125 C 7.671875 -15.476562 8.019531 -14.9375 8.71875 -14.5 C 9.425781 -14.070312 10.269531 -13.757812 11.25 -13.5625 C 12.226562 -13.375 13.128906 -13.28125 13.953125 -13.28125 Z M 13.953125 -13.28125 "/></g></g></g><g fill="#ffffff" fill-opacity="1"><g transform="translate(226.622179, 130.125005)"><g><path d="M 5.03125 0.1875 C 4.613281 0.1875 4.148438 0.171875 3.640625 0.140625 C 3.128906 0.109375 2.679688 0.0625 2.296875 0 C 2.015625 -0.0625 1.757812 -0.203125 1.53125 -0.421875 C 1.3125 -0.648438 1.21875 -0.972656 1.25 -1.390625 C 1.25 -4.296875 1.253906 -6.820312 1.265625 -8.96875 C 1.285156 -11.113281 1.328125 -13.046875 1.390625 -14.765625 C 1.453125 -16.492188 1.53125 -18.15625 1.625 -19.75 C 1.726562 -21.351562 1.875 -23.050781 2.0625 -24.84375 C 2.15625 -25.582031 2.507812 -26 3.125 -26.09375 C 3.46875 -26.15625 3.847656 -26.203125 4.265625 -26.234375 C 4.679688 -26.265625 5.097656 -26.28125 5.515625 -26.28125 C 5.960938 -26.28125 6.410156 -26.265625 6.859375 -26.234375 C 7.304688 -26.203125 7.753906 -26.15625 8.203125 -26.09375 C 8.523438 -26.0625 8.789062 -25.925781 9 -25.6875 C 9.207031 -25.445312 9.257812 -25.148438 9.15625 -24.796875 C 9.03125 -24.378906 8.925781 -23.960938 8.84375 -23.546875 C 8.769531 -23.128906 8.71875 -22.765625 8.6875 -22.453125 C 8.65625 -21.910156 8.742188 -21.613281 8.953125 -21.5625 C 9.160156 -21.507812 9.40625 -21.707031 9.6875 -22.15625 C 10.8125 -23.695312 12.019531 -24.800781 13.3125 -25.46875 C 14.601562 -26.144531 16.082031 -26.484375 17.75 -26.484375 C 19.695312 -26.484375 21.429688 -25.96875 22.953125 -24.9375 C 24.472656 -23.914062 25.6875 -22.453125 26.59375 -20.546875 C 27.507812 -18.648438 28.015625 -16.390625 28.109375 -13.765625 C 28.171875 -12.515625 28.222656 -11.304688 28.265625 -10.140625 C 28.316406 -8.972656 28.359375 -7.691406 28.390625 -6.296875 C 28.429688 -4.910156 28.453125 -3.273438 28.453125 -1.390625 C 28.453125 -0.972656 28.347656 -0.648438 28.140625 -0.421875 C 27.929688 -0.203125 27.648438 -0.0625 27.296875 0 C 26.910156 0.0625 26.460938 0.109375 25.953125 0.140625 C 25.441406 0.171875 25.054688 0.1875 24.796875 0.1875 C 24.515625 0.1875 24.078125 0.171875 23.484375 0.140625 C 22.890625 0.109375 22.367188 0.0625 21.921875 0 C 21.597656 -0.0625 21.316406 -0.203125 21.078125 -0.421875 C 20.835938 -0.648438 20.734375 -0.957031 20.765625 -1.34375 C 20.898438 -2.457031 21 -3.675781 21.0625 -5 C 21.125 -6.332031 21.171875 -7.625 21.203125 -8.875 C 21.234375 -10.125 21.234375 -11.164062 21.203125 -12 C 21.171875 -14.550781 20.578125 -16.585938 19.421875 -18.109375 C 18.273438 -19.628906 16.726562 -20.390625 14.78125 -20.390625 C 12.925781 -20.390625 11.394531 -19.617188 10.1875 -18.078125 C 8.988281 -16.546875 8.390625 -14.484375 8.390625 -11.890625 C 8.421875 -10.515625 8.46875 -8.859375 8.53125 -6.921875 C 8.601562 -4.992188 8.75 -3.132812 8.96875 -1.34375 C 9.03125 -0.957031 8.941406 -0.648438 8.703125 -0.421875 C 8.460938 -0.203125 8.179688 -0.0625 7.859375 0 C 7.515625 0.0625 7.050781 0.109375 6.46875 0.140625 C 5.894531 0.171875 5.414062 0.1875 5.03125 0.1875 Z M 5.03125 0.1875 "/></g></g></g><g fill="#ffffff" fill-opacity="1"><g transform="translate(256.161267, 130.125005)"><g><path d="M 11.375 0.390625 C 9.351562 0.390625 7.550781 -0.113281 5.96875 -1.125 C 4.382812 -2.132812 3.132812 -3.617188 2.21875 -5.578125 C 1.3125 -7.546875 0.859375 -9.988281 0.859375 -12.90625 C 0.859375 -15.78125 1.3125 -18.222656 2.21875 -20.234375 C 3.132812 -22.253906 4.382812 -23.789062 5.96875 -24.84375 C 7.550781 -25.90625 9.351562 -26.4375 11.375 -26.4375 C 13.0625 -26.4375 14.609375 -26.082031 16.015625 -25.375 C 17.421875 -24.664062 18.554688 -23.609375 19.421875 -22.203125 C 19.679688 -21.828125 19.921875 -21.671875 20.140625 -21.734375 C 20.367188 -21.796875 20.46875 -22.066406 20.4375 -22.546875 C 20.40625 -24.460938 20.257812 -26.363281 20 -28.25 C 19.75 -30.132812 19.492188 -31.78125 19.234375 -33.1875 C 19.203125 -33.539062 19.296875 -33.835938 19.515625 -34.078125 C 19.742188 -34.316406 20.003906 -34.46875 20.296875 -34.53125 C 20.609375 -34.601562 21.019531 -34.65625 21.53125 -34.6875 C 22.050781 -34.71875 22.582031 -34.734375 23.125 -34.734375 C 23.664062 -34.734375 24.191406 -34.722656 24.703125 -34.703125 C 25.210938 -34.691406 25.644531 -34.632812 26 -34.53125 C 26.664062 -34.375 27.015625 -33.976562 27.046875 -33.34375 C 27.242188 -31.675781 27.390625 -29.625 27.484375 -27.1875 C 27.578125 -24.757812 27.65625 -22.109375 27.71875 -19.234375 C 27.789062 -16.359375 27.832031 -13.390625 27.84375 -10.328125 C 27.863281 -7.273438 27.875 -4.28125 27.875 -1.34375 C 27.875 -0.601562 27.519531 -0.15625 26.8125 0 C 26.425781 0.0625 25.953125 0.109375 25.390625 0.140625 C 24.835938 0.171875 24.414062 0.1875 24.125 0.1875 C 23.738281 0.1875 23.265625 0.171875 22.703125 0.140625 C 22.148438 0.109375 21.695312 0.078125 21.34375 0.046875 C 21.019531 -0.015625 20.742188 -0.164062 20.515625 -0.40625 C 20.296875 -0.644531 20.222656 -0.957031 20.296875 -1.34375 C 20.359375 -1.695312 20.40625 -2.023438 20.4375 -2.328125 C 20.46875 -2.628906 20.5 -2.988281 20.53125 -3.40625 C 20.59375 -3.914062 20.507812 -4.203125 20.28125 -4.265625 C 20.0625 -4.328125 19.828125 -4.132812 19.578125 -3.6875 C 18.679688 -2.382812 17.507812 -1.378906 16.0625 -0.671875 C 14.625 0.0351562 13.0625 0.390625 11.375 0.390625 Z M 14.15625 -5.421875 C 15.945312 -5.421875 17.460938 -6.109375 18.703125 -7.484375 C 19.953125 -8.859375 20.578125 -10.773438 20.578125 -13.234375 C 20.578125 -15.609375 19.96875 -17.445312 18.75 -18.75 C 17.539062 -20.0625 16.007812 -20.71875 14.15625 -20.71875 C 12.269531 -20.71875 10.722656 -20.046875 9.515625 -18.703125 C 8.316406 -17.359375 7.71875 -15.503906 7.71875 -13.140625 C 7.71875 -10.710938 8.328125 -8.816406 9.546875 -7.453125 C 10.765625 -6.097656 12.300781 -5.421875 14.15625 -5.421875 Z M 14.15625 -5.421875 "/></g></g></g><g fill="#ffffff" fill-opacity="1"><g transform="translate(285.364688, 130.125005)"><g><path d="M 8.96875 0.390625 C 6.539062 0.390625 4.582031 -0.179688 3.09375 -1.328125 C 1.601562 -2.484375 0.859375 -4.421875 0.859375 -7.140625 C 0.859375 -9.546875 1.710938 -11.441406 3.421875 -12.828125 C 5.140625 -14.222656 7.5 -15.175781 10.5 -15.6875 C 13.25 -16.070312 15.179688 -16.460938 16.296875 -16.859375 C 17.421875 -17.253906 17.984375 -17.882812 17.984375 -18.75 C 17.984375 -19.257812 17.628906 -19.738281 16.921875 -20.1875 C 16.222656 -20.632812 15.023438 -20.859375 13.328125 -20.859375 C 11.890625 -20.859375 10.40625 -20.632812 8.875 -20.1875 C 7.34375 -19.738281 6 -19.003906 4.84375 -17.984375 C 4.488281 -17.472656 4.078125 -17.328125 3.609375 -17.546875 C 3.148438 -17.773438 2.9375 -18.242188 2.96875 -18.953125 C 3 -19.296875 3.046875 -19.78125 3.109375 -20.40625 C 3.179688 -21.03125 3.253906 -21.660156 3.328125 -22.296875 C 3.410156 -22.941406 3.46875 -23.425781 3.5 -23.75 C 3.59375 -24.507812 3.914062 -25.003906 4.46875 -25.234375 C 7.113281 -26.066406 9.988281 -26.484375 13.09375 -26.484375 C 16.769531 -26.484375 19.625 -25.691406 21.65625 -24.109375 C 23.6875 -22.523438 24.863281 -19.988281 25.1875 -16.5 C 25.28125 -15.28125 25.375 -13.773438 25.46875 -11.984375 C 25.5625 -10.203125 25.65625 -8.378906 25.75 -6.515625 C 25.851562 -4.660156 25.9375 -3 26 -1.53125 C 26 -0.695312 25.550781 -0.203125 24.65625 -0.046875 C 24.332031 0.046875 23.929688 0.109375 23.453125 0.140625 C 22.972656 0.171875 22.507812 0.1875 22.0625 0.1875 C 21.675781 0.1875 21.1875 0.171875 20.59375 0.140625 C 20.007812 0.109375 19.523438 0.046875 19.140625 -0.046875 C 18.722656 -0.109375 18.382812 -0.289062 18.125 -0.59375 C 17.875 -0.90625 17.78125 -1.265625 17.84375 -1.671875 C 17.90625 -1.992188 17.976562 -2.410156 18.0625 -2.921875 C 18.144531 -3.429688 18.203125 -3.945312 18.234375 -4.46875 C 18.296875 -4.90625 18.191406 -5.164062 17.921875 -5.25 C 17.648438 -5.332031 17.414062 -5.164062 17.21875 -4.75 C 16.488281 -3.1875 15.351562 -1.9375 13.8125 -1 C 12.28125 -0.0703125 10.664062 0.390625 8.96875 0.390625 Z M 12.234375 -5.5625 C 13.035156 -5.5625 13.875 -5.769531 14.75 -6.1875 C 15.625 -6.601562 16.363281 -7.203125 16.96875 -7.984375 C 17.582031 -8.765625 17.890625 -9.71875 17.890625 -10.84375 C 17.890625 -11.613281 17.65625 -12.242188 17.1875 -12.734375 C 16.726562 -13.234375 15.941406 -13.484375 14.828125 -13.484375 C 13.703125 -13.484375 12.628906 -13.273438 11.609375 -12.859375 C 10.585938 -12.441406 9.753906 -11.875 9.109375 -11.15625 C 8.472656 -10.4375 8.15625 -9.582031 8.15625 -8.59375 C 8.15625 -7.5 8.472656 -6.71875 9.109375 -6.25 C 9.753906 -5.789062 10.796875 -5.5625 12.234375 -5.5625 Z M 12.234375 -5.5625 "/></g></g></g></svg>