<svg xmlns="http://www.w3.org/2000/svg" xmlns:xlink="http://www.w3.org/1999/xlink" width="600" zoomAndPan="magnify" viewBox="0 0 450 225" height="300" preserveAspectRatio="xMidYMid meet" version="1.0"><defs><g/><clipPath id="ec7de8f0d6"><path d="M 0 17.4375 L 450 17.4375 L 450 207.9375 L 0 207.9375 Z M 0 17.4375 " clip-rule="nonzero"/></clipPath><clipPath id="63a9985beb"><path d="M 102.339844 74.359375 L 347.871094 74.359375 L 347.871094 150.640625 L 102.339844 150.640625 Z M 102.339844 74.359375 " clip-rule="nonzero"/></clipPath><clipPath id="f232b6d167"><path d="M 119.589844 74.359375 L 330.410156 74.359375 C 339.9375 74.359375 347.660156 82.082031 347.660156 91.609375 L 347.660156 133.390625 C 347.660156 142.917969 339.9375 150.640625 330.410156 150.640625 L 119.589844 150.640625 C 110.0625 150.640625 102.339844 142.917969 102.339844 133.390625 L 102.339844 91.609375 C 102.339844 82.082031 110.0625 74.359375 119.589844 74.359375 Z M 119.589844 74.359375 " clip-rule="nonzero"/></clipPath></defs><path fill="#3b28cc" d="M 440.03125 182.257812 C 440.679688 180.9375 441.230469 179.578125 441.742188 178.1875 C 433.78125 194.027344 417.457031 204.945312 398.511719 205.019531 C 374.195312 205.082031 354.171875 187.222656 350.550781 163.875 L 99.339844 162.347656 C 95.449219 185.644531 75.210938 203.273438 50.882812 202.914062 C 45.96875 202.847656 41.246094 202.023438 36.808594 200.597656 C 37.976562 201.261719 39.101562 201.960938 40.316406 202.527344 C 20.449219 197.773438 5.550781 180.828125 3.453125 160.207031 C 3.277344 158.703125 3.152344 157.1875 3.121094 155.648438 C 3.109375 155.28125 3.03125 154.929688 3.042969 154.558594 L 3.066406 154.230469 C 3.066406 154.011719 3.035156 153.804688 3.046875 153.597656 C 3.351562 135.191406 13.976562 119.5625 29.195312 111.566406 C 14.246094 103.089844 4.117188 87.164062 4.414062 68.746094 C 4.402344 68.574219 4.429688 68.421875 4.433594 68.25 C 4.429688 68.089844 4.414062 67.933594 4.414062 67.773438 C 4.851562 40.972656 26.914062 19.546875 53.71875 19.984375 C 77.941406 20.371094 97.5625 38.453125 100.863281 61.648438 L 350.253906 63.160156 C 353.84375 39.992188 373.675781 22.160156 397.890625 22.066406 C 424.742188 21.957031 446.511719 43.648438 446.632812 70.460938 C 446.628906 70.621094 446.601562 70.769531 446.59375 70.953125 C 446.605469 71.113281 446.628906 71.261719 446.628906 71.421875 C 446.640625 77.9375 445.289062 84.070312 443 89.722656 C 443.175781 89.042969 443.25 88.335938 443.40625 87.648438 C 439.175781 98.773438 431.011719 107.941406 420.539062 113.457031 C 436.09375 121.503906 446.894531 137.550781 446.953125 156.273438 C 446.957031 156.484375 446.933594 156.691406 446.902344 156.890625 C 446.921875 157 446.949219 157.117188 446.949219 157.234375 C 446.941406 157.953125 446.828125 158.617188 446.796875 159.320312 C 446.761719 160.117188 446.730469 160.914062 446.636719 161.699219 C 445.964844 169.15625 443.683594 176.160156 440.03125 182.257812 " fill-opacity="1" fill-rule="evenodd"/><g clip-path="url(#ec7de8f0d6)"><path fill="#3b28cc" d="M 440.03125 182.257812 L 442.332031 183.390625 C 443.035156 181.960938 443.621094 180.519531 444.144531 179.070312 C 444.617188 177.792969 444.007812 176.375 442.757812 175.832031 C 441.503906 175.292969 440.058594 175.816406 439.445312 177.035156 C 431.902344 192.050781 416.445312 202.382812 398.5 202.453125 L 398.511719 202.453125 L 398.382812 202.453125 C 386.886719 202.453125 376.4375 198.234375 368.410156 191.253906 C 360.382812 184.265625 354.800781 174.523438 353.085938 163.484375 C 352.890625 162.238281 351.828125 161.320312 350.566406 161.308594 L 99.351562 159.78125 C 98.09375 159.773438 97.019531 160.679688 96.808594 161.921875 C 94.984375 172.851562 89.367188 182.457031 81.363281 189.339844 C 73.351562 196.214844 62.988281 200.351562 51.617188 200.351562 C 51.386719 200.351562 51.148438 200.351562 50.914062 200.347656 C 46.269531 200.28125 41.804688 199.507812 37.589844 198.152344 C 36.335938 197.753906 34.984375 198.363281 34.457031 199.566406 C 33.929688 200.773438 34.398438 202.175781 35.539062 202.828125 C 36.648438 203.449219 37.828125 204.203125 39.238281 204.851562 L 40.316406 202.527344 L 40.910156 200.03125 C 22.113281 195.53125 7.992188 179.484375 6.003906 159.945312 L 5.996094 159.910156 C 5.832031 158.46875 5.71875 157.03125 5.6875 155.59375 L 5.6875 155.558594 C 5.671875 155.242188 5.640625 155.007812 5.628906 154.851562 C 5.605469 154.699219 5.605469 154.628906 5.605469 154.628906 L 5.605469 154.609375 L 3.722656 154.609375 L 5.601562 154.746094 L 5.605469 154.609375 L 3.722656 154.609375 L 5.601562 154.746094 L 3.042969 154.558594 L 5.597656 154.773438 L 5.628906 154.445312 L 5.632812 154.230469 C 5.632812 154.011719 5.621094 153.851562 5.613281 153.761719 L 5.605469 153.667969 L 5.605469 153.65625 L 5.152344 153.671875 L 5.605469 153.671875 L 5.605469 153.65625 L 5.152344 153.671875 L 5.605469 153.671875 L 4.109375 153.671875 L 5.601562 153.78125 L 5.605469 153.671875 L 4.109375 153.671875 L 5.601562 153.78125 L 5.605469 153.636719 C 5.757812 144.917969 8.339844 136.886719 12.691406 130.058594 C 17.042969 123.234375 23.171875 117.632812 30.394531 113.839844 C 31.226562 113.402344 31.746094 112.550781 31.761719 111.609375 C 31.777344 110.664062 31.28125 109.800781 30.464844 109.332031 C 23.472656 105.367188 17.59375 99.691406 13.46875 92.871094 C 9.34375 86.046875 6.976562 78.097656 6.976562 69.53125 C 6.976562 69.28125 6.976562 69.035156 6.980469 68.800781 L 6.976562 68.574219 L 5.660156 68.667969 L 6.976562 68.667969 L 6.976562 68.574219 L 5.660156 68.667969 L 6.980469 68.667969 C 6.980469 68.621094 6.988281 68.519531 7 68.375 L 7 68.171875 C 6.996094 68.023438 6.988281 67.925781 6.984375 67.871094 L 6.980469 67.8125 L 6.980469 67.808594 L 6.46875 67.824219 L 6.980469 67.824219 L 6.980469 67.808594 L 6.46875 67.824219 L 6.980469 67.824219 L 6.980469 67.808594 L 4.855469 67.808594 L 6.96875 68 C 6.984375 67.878906 6.980469 67.8125 6.980469 67.808594 L 4.855469 67.808594 L 6.96875 68 L 6.980469 67.8125 C 7.386719 42.6875 27.871094 22.542969 52.910156 22.546875 C 53.164062 22.546875 53.417969 22.546875 53.675781 22.550781 L 53.679688 22.550781 C 65.15625 22.738281 75.519531 27.101562 83.425781 34.179688 C 91.332031 41.253906 96.757812 51.027344 98.320312 62.011719 C 98.496094 63.269531 99.574219 64.210938 100.84375 64.214844 L 350.238281 65.722656 C 351.507812 65.734375 352.59375 64.808594 352.789062 63.554688 C 354.488281 52.578125 360.035156 42.871094 368.023438 35.890625 C 376.019531 28.917969 386.425781 24.675781 397.902344 24.632812 L 398.09375 24.632812 C 423.429688 24.625 443.949219 45.136719 444.066406 70.46875 L 446.632812 70.460938 L 444.070312 70.378906 L 444.738281 70.398438 L 444.070312 70.355469 L 444.070312 70.378906 L 444.738281 70.398438 L 444.070312 70.355469 L 444.070312 70.375 C 444.066406 70.425781 444.042969 70.589844 444.03125 70.839844 L 444.035156 71.105469 C 444.042969 71.257812 444.054688 71.355469 444.054688 71.402344 L 444.0625 71.425781 L 444.832031 71.382812 L 444.0625 71.382812 L 444.0625 71.425781 L 444.832031 71.382812 L 444.0625 71.382812 L 445.347656 71.382812 L 444.0625 71.371094 L 444.0625 71.382812 L 445.347656 71.382812 L 444.0625 71.371094 L 444.0625 71.546875 C 444.054688 77.65625 442.789062 83.414062 440.625 88.757812 L 443 89.722656 L 445.480469 90.371094 C 445.71875 89.433594 445.789062 88.695312 445.90625 88.199219 C 446.195312 86.886719 445.429688 85.574219 444.136719 85.1875 C 442.847656 84.800781 441.480469 85.472656 441.003906 86.738281 C 437 97.269531 429.261719 105.960938 419.339844 111.1875 C 418.492188 111.632812 417.96875 112.511719 417.972656 113.46875 C 417.972656 114.425781 418.507812 115.296875 419.355469 115.738281 C 426.730469 119.550781 432.984375 125.265625 437.386719 132.234375 C 441.792969 139.199219 444.355469 147.414062 444.386719 156.277344 L 444.386719 156.273438 L 444.386719 156.296875 C 444.390625 156.296875 444.386719 156.378906 444.363281 156.539062 C 444.332031 156.78125 444.332031 156.984375 444.363281 157.222656 C 444.382812 157.382812 444.398438 157.453125 444.398438 157.453125 L 445.859375 157.222656 L 444.382812 157.222656 C 444.382812 157.375 444.398438 157.453125 444.398438 157.453125 L 445.859375 157.222656 L 444.382812 157.222656 L 446.738281 157.222656 L 444.382812 157.179688 L 444.382812 157.222656 L 446.738281 157.222656 L 444.382812 157.179688 C 444.382812 157.1875 444.371094 157.320312 444.402344 157.566406 L 446.949219 157.234375 L 444.382812 157.210938 C 444.382812 157.660156 444.28125 158.296875 444.230469 159.210938 C 444.203125 160.023438 444.171875 160.753906 444.089844 161.386719 L 444.082031 161.46875 C 443.441406 168.550781 441.28125 175.175781 437.828125 180.9375 L 440.03125 182.257812 L 442.332031 183.390625 L 440.03125 182.257812 L 442.230469 183.574219 C 446.089844 177.136719 448.484375 169.757812 449.191406 161.929688 L 446.636719 161.699219 L 449.183594 162.015625 C 449.296875 161.078125 449.328125 160.210938 449.359375 159.429688 C 449.375 158.933594 449.5 158.234375 449.511719 157.265625 L 449.492188 156.910156 L 447.003906 157.230469 L 449.511719 157.230469 C 449.511719 157.175781 449.511719 157.066406 449.492188 156.910156 L 447.003906 157.230469 L 449.511719 157.230469 L 447.164062 157.230469 L 449.511719 157.269531 L 449.511719 157.230469 L 447.164062 157.230469 L 449.511719 157.269531 L 449.511719 157.222656 C 449.511719 156.957031 449.484375 156.765625 449.464844 156.65625 L 449.449219 156.542969 L 449.449219 156.535156 L 448.632812 156.660156 L 449.449219 156.554688 L 449.449219 156.535156 L 448.632812 156.660156 L 449.449219 156.554688 L 446.902344 156.890625 L 449.449219 157.234375 C 449.472656 157.019531 449.519531 156.710938 449.519531 156.296875 L 449.519531 156.265625 C 449.488281 146.410156 446.628906 137.234375 441.726562 129.488281 C 436.824219 121.742188 429.894531 115.410156 421.714844 111.175781 L 420.539062 113.457031 L 421.730469 115.726562 C 432.753906 109.917969 441.351562 100.273438 445.800781 88.5625 L 443.40625 87.648438 L 440.898438 87.09375 C 440.707031 87.976562 440.632812 88.652344 440.519531 89.070312 C 440.171875 90.378906 440.902344 91.726562 442.1875 92.160156 C 443.476562 92.585938 444.867188 91.945312 445.378906 90.6875 C 447.765625 84.800781 449.191406 78.371094 449.1875 71.546875 L 449.1875 71.421875 L 447.984375 71.421875 L 449.1875 71.433594 L 449.1875 71.421875 L 447.984375 71.421875 L 449.1875 71.433594 L 449.191406 71.382812 C 449.183594 70.976562 449.148438 70.796875 449.152344 70.789062 L 446.59375 70.953125 L 449.15625 71.054688 L 449.066406 71.054688 L 449.15625 71.0625 L 449.15625 71.054688 L 449.066406 71.054688 L 449.15625 71.0625 C 449.152344 71.050781 449.183594 70.894531 449.199219 70.539062 L 449.199219 70.445312 C 449.066406 42.296875 426.265625 19.5 398.09375 19.5 L 397.882812 19.5 C 385.144531 19.550781 373.527344 24.277344 364.652344 32.027344 C 355.773438 39.78125 349.609375 50.570312 347.71875 62.769531 L 350.253906 63.160156 L 350.269531 60.59375 L 100.875 59.085938 L 100.863281 61.648438 L 103.398438 61.289062 C 101.664062 49.078125 95.636719 38.210938 86.851562 30.355469 C 78.066406 22.492188 66.503906 17.621094 53.761719 17.421875 L 53.765625 17.421875 C 53.476562 17.414062 53.1875 17.414062 52.910156 17.414062 C 25.0625 17.414062 2.308594 39.804688 1.851562 67.730469 L 4.414062 67.773438 L 1.859375 67.542969 L 1.847656 67.765625 L 1.847656 67.824219 C 1.851562 68.171875 1.875 68.335938 1.875 68.335938 L 4.433594 68.25 L 1.875 68.125 L 1.863281 68.253906 C 1.859375 68.339844 1.84375 68.480469 1.84375 68.667969 L 1.851562 68.917969 L 4.414062 68.746094 L 1.847656 68.695312 C 1.84375 68.980469 1.84375 69.261719 1.84375 69.53125 C 1.839844 79.050781 4.488281 87.941406 9.078125 95.523438 C 13.664062 103.109375 20.183594 109.40625 27.933594 113.796875 L 29.195312 111.566406 L 28.003906 109.296875 C 20.003906 113.496094 13.210938 119.707031 8.363281 127.296875 C 3.523438 134.886719 0.636719 143.867188 0.480469 153.550781 L 3.046875 153.597656 L 0.484375 153.40625 C 0.476562 153.542969 0.476562 153.628906 0.476562 153.671875 C 0.476562 153.894531 0.492188 154.046875 0.496094 154.140625 L 0.5 154.230469 L 3.066406 154.230469 L 0.511719 154.019531 L 0.484375 154.347656 L 0.480469 154.378906 C 0.46875 154.550781 0.476562 154.628906 0.476562 154.628906 C 0.484375 155.320312 0.566406 155.683594 0.554688 155.734375 L 3.121094 155.648438 L 0.554688 155.703125 C 0.589844 157.339844 0.722656 158.941406 0.902344 160.5 L 3.453125 160.207031 L 0.894531 160.46875 C 3.109375 182.175781 18.785156 200.007812 39.71875 205.019531 C 40.996094 205.328125 42.308594 204.613281 42.742188 203.363281 C 43.171875 202.121094 42.585938 200.75 41.394531 200.199219 C 40.371094 199.726562 39.304688 199.066406 38.074219 198.363281 L 36.808594 200.597656 L 36.019531 203.039062 C 40.695312 204.539062 45.667969 205.410156 50.84375 205.480469 C 51.097656 205.484375 51.355469 205.484375 51.617188 205.484375 C 64.246094 205.488281 75.808594 200.875 84.707031 193.226562 C 93.601562 185.585938 99.84375 174.90625 101.871094 162.769531 L 99.339844 162.347656 L 99.324219 164.914062 L 350.535156 166.441406 L 350.550781 163.875 L 348.015625 164.273438 C 349.917969 176.535156 356.121094 187.363281 365.042969 195.121094 C 373.957031 202.882812 385.621094 207.589844 398.382812 207.585938 L 398.523438 207.585938 C 418.464844 207.503906 435.664062 196.007812 444.03125 179.339844 L 441.742188 178.1875 L 439.332031 177.304688 C 438.839844 178.640625 438.316406 179.917969 437.726562 181.125 C 437.121094 182.367188 437.589844 183.851562 438.804688 184.511719 C 440.011719 185.167969 441.519531 184.757812 442.230469 183.574219 L 440.03125 182.257812 " fill-opacity="1" fill-rule="nonzero"/></g><g clip-path="url(#63a9985beb)"><g clip-path="url(#f232b6d167)"><path fill="#ffffff" d="M 102.339844 74.359375 L 347.574219 74.359375 L 347.574219 150.640625 L 102.339844 150.640625 Z M 102.339844 74.359375 " fill-opacity="1" fill-rule="nonzero"/></g></g><g fill="#ffffff" fill-opacity="1"><g transform="translate(222.070544, 115.609311)"><g><path d="M 0.890625 -6.421875 L 2.703125 -6.421875 C 3.554688 -6.421875 4.171875 -6.289062 4.546875 -6.03125 C 4.929688 -5.78125 5.125 -5.378906 5.125 -4.828125 C 5.125 -4.453125 5.015625 -4.140625 4.796875 -3.890625 C 4.585938 -3.640625 4.28125 -3.476562 3.875 -3.40625 L 3.875 -3.359375 C 4.84375 -3.191406 5.328125 -2.679688 5.328125 -1.828125 C 5.328125 -1.253906 5.132812 -0.804688 4.75 -0.484375 C 4.363281 -0.160156 3.820312 0 3.125 0 L 0.890625 0 Z M 1.625 -3.671875 L 2.859375 -3.671875 C 3.390625 -3.671875 3.769531 -3.753906 4 -3.921875 C 4.226562 -4.085938 4.34375 -4.367188 4.34375 -4.765625 C 4.34375 -5.117188 4.210938 -5.375 3.953125 -5.53125 C 3.703125 -5.695312 3.296875 -5.78125 2.734375 -5.78125 L 1.625 -5.78125 Z M 1.625 -3.046875 L 1.625 -0.640625 L 2.96875 -0.640625 C 3.488281 -0.640625 3.878906 -0.738281 4.140625 -0.9375 C 4.398438 -1.132812 4.53125 -1.445312 4.53125 -1.875 C 4.53125 -2.28125 4.394531 -2.578125 4.125 -2.765625 C 3.863281 -2.953125 3.457031 -3.046875 2.90625 -3.046875 Z M 1.625 -3.046875 "/></g></g></g><g fill="#000000" fill-opacity="1"><g transform="translate(120.136394, 128.91993)"><g><path d="M 16.453125 0.390625 C 15.390625 0.390625 14.160156 0.378906 12.765625 0.359375 C 11.378906 0.335938 9.988281 0.300781 8.59375 0.25 C 7.207031 0.207031 5.960938 0.160156 4.859375 0.109375 C 3.765625 0.0664062 2.976562 0.03125 2.5 0 C 1.726562 -0.09375 1.34375 -0.523438 1.34375 -1.296875 C 1.34375 -4.046875 1.363281 -6.859375 1.40625 -9.734375 C 1.457031 -12.609375 1.519531 -15.425781 1.59375 -18.1875 C 1.675781 -20.957031 1.773438 -23.550781 1.890625 -25.96875 C 2.003906 -28.382812 2.125 -30.503906 2.25 -32.328125 C 2.3125 -33.085938 2.695312 -33.5 3.40625 -33.5625 C 4.519531 -33.664062 5.75 -33.738281 7.09375 -33.78125 C 8.4375 -33.832031 9.78125 -33.875 11.125 -33.90625 C 12.46875 -33.9375 13.664062 -33.953125 14.71875 -33.953125 C 19.582031 -33.953125 23.285156 -33.390625 25.828125 -32.265625 C 28.367188 -31.148438 29.640625 -29.363281 29.640625 -26.90625 C 29.640625 -25.144531 28.910156 -23.507812 27.453125 -22 C 25.992188 -20.5 23.957031 -19.445312 21.34375 -18.84375 C 20.832031 -18.71875 20.578125 -18.507812 20.578125 -18.21875 C 20.578125 -17.9375 20.800781 -17.710938 21.25 -17.546875 C 24.632812 -16.847656 27.171875 -15.691406 28.859375 -14.078125 C 30.554688 -12.460938 31.40625 -10.613281 31.40625 -8.53125 C 31.40625 -6.488281 30.71875 -4.8125 29.34375 -3.5 C 27.96875 -2.1875 26.144531 -1.207031 23.875 -0.5625 C 21.601562 0.0703125 19.128906 0.390625 16.453125 0.390625 Z M 11.125 -20.625 C 15.050781 -20.96875 17.910156 -21.53125 19.703125 -22.3125 C 21.492188 -23.101562 22.390625 -24.125 22.390625 -25.375 C 22.390625 -26.394531 21.867188 -27.179688 20.828125 -27.734375 C 19.796875 -28.296875 18.128906 -28.578125 15.828125 -28.578125 C 15.054688 -28.578125 14.191406 -28.566406 13.234375 -28.546875 C 12.273438 -28.535156 11.492188 -28.5 10.890625 -28.4375 C 9.640625 -28.40625 8.96875 -27.847656 8.875 -26.765625 C 8.8125 -26.023438 8.785156 -25.242188 8.796875 -24.421875 C 8.816406 -23.609375 8.84375 -22.835938 8.875 -22.109375 C 8.96875 -20.953125 9.71875 -20.457031 11.125 -20.625 Z M 11.359375 -5.609375 C 12.003906 -5.578125 12.859375 -5.546875 13.921875 -5.515625 C 14.992188 -5.484375 15.882812 -5.46875 16.59375 -5.46875 C 18.769531 -5.46875 20.519531 -5.875 21.84375 -6.6875 C 23.164062 -7.5 23.828125 -8.578125 23.828125 -9.921875 C 23.828125 -11.585938 22.734375 -12.832031 20.546875 -13.65625 C 18.359375 -14.488281 15.25 -15.097656 11.21875 -15.484375 C 10.414062 -15.648438 9.832031 -15.546875 9.46875 -15.171875 C 9.101562 -14.804688 8.90625 -14.304688 8.875 -13.671875 C 8.738281 -11.710938 8.738281 -9.773438 8.875 -7.859375 C 8.90625 -7.097656 9.148438 -6.539062 9.609375 -6.1875 C 10.078125 -5.832031 10.660156 -5.640625 11.359375 -5.609375 Z M 11.359375 -5.609375 "/></g></g></g><g fill="#000000" fill-opacity="1"><g transform="translate(152.457149, 128.91993)"><g><path d="M 5.171875 -28.578125 C 3.992188 -28.578125 3.03125 -28.894531 2.28125 -29.53125 C 1.53125 -30.175781 1.15625 -30.992188 1.15625 -31.984375 C 1.15625 -33.003906 1.53125 -33.832031 2.28125 -34.46875 C 3.03125 -35.113281 3.992188 -35.4375 5.171875 -35.4375 C 6.390625 -35.4375 7.375 -35.113281 8.125 -34.46875 C 8.875 -33.832031 9.25 -33.003906 9.25 -31.984375 C 9.25 -30.992188 8.875 -30.175781 8.125 -29.53125 C 7.375 -28.894531 6.390625 -28.578125 5.171875 -28.578125 Z M 5.28125 0.1875 C 5.019531 0.1875 4.601562 0.175781 4.03125 0.15625 C 3.457031 0.144531 2.960938 0.09375 2.546875 0 C 2.253906 -0.0625 2.003906 -0.210938 1.796875 -0.453125 C 1.585938 -0.691406 1.484375 -1.003906 1.484375 -1.390625 C 1.484375 -4.171875 1.488281 -6.625 1.5 -8.75 C 1.519531 -10.875 1.546875 -12.820312 1.578125 -14.59375 C 1.609375 -16.375 1.65625 -18.085938 1.71875 -19.734375 C 1.789062 -21.378906 1.890625 -23.097656 2.015625 -24.890625 C 2.046875 -25.304688 2.140625 -25.597656 2.296875 -25.765625 C 2.460938 -25.941406 2.703125 -26.050781 3.015625 -26.09375 C 3.367188 -26.15625 3.773438 -26.203125 4.234375 -26.234375 C 4.703125 -26.265625 5.066406 -26.28125 5.328125 -26.28125 C 5.546875 -26.28125 5.863281 -26.265625 6.28125 -26.234375 C 6.695312 -26.203125 7.066406 -26.15625 7.390625 -26.09375 C 7.703125 -26.019531 7.9375 -25.90625 8.09375 -25.75 C 8.257812 -25.59375 8.359375 -25.304688 8.390625 -24.890625 C 8.515625 -23.097656 8.609375 -21.378906 8.671875 -19.734375 C 8.742188 -18.085938 8.796875 -16.375 8.828125 -14.59375 C 8.859375 -12.820312 8.878906 -10.863281 8.890625 -8.71875 C 8.910156 -6.582031 8.921875 -4.125 8.921875 -1.34375 C 8.921875 -0.957031 8.816406 -0.648438 8.609375 -0.421875 C 8.398438 -0.203125 8.148438 -0.0625 7.859375 0 C 7.441406 0.0625 6.96875 0.109375 6.4375 0.140625 C 5.914062 0.171875 5.53125 0.1875 5.28125 0.1875 Z M 5.28125 0.1875 "/></g></g></g><g fill="#000000" fill-opacity="1"><g transform="translate(162.863081, 128.91993)"><g><path d="M 14.296875 0.390625 C 11.734375 0.390625 9.4375 -0.0976562 7.40625 -1.078125 C 5.375 -2.054688 3.773438 -3.523438 2.609375 -5.484375 C 1.441406 -7.453125 0.859375 -9.90625 0.859375 -12.84375 C 0.859375 -15.726562 1.429688 -18.179688 2.578125 -20.203125 C 3.734375 -22.234375 5.328125 -23.785156 7.359375 -24.859375 C 9.390625 -25.929688 11.703125 -26.46875 14.296875 -26.46875 C 16.878906 -26.46875 19.171875 -25.929688 21.171875 -24.859375 C 23.171875 -23.785156 24.742188 -22.234375 25.890625 -20.203125 C 27.046875 -18.179688 27.625 -15.726562 27.625 -12.84375 C 27.625 -9.90625 27.046875 -7.453125 25.890625 -5.484375 C 24.742188 -3.523438 23.160156 -2.054688 21.140625 -1.078125 C 19.128906 -0.0976562 16.847656 0.390625 14.296875 0.390625 Z M 14.296875 -5.28125 C 16.179688 -5.28125 17.738281 -5.945312 18.96875 -7.28125 C 20.195312 -8.625 20.8125 -10.5625 20.8125 -13.09375 C 20.8125 -15.488281 20.203125 -17.375 18.984375 -18.75 C 17.773438 -20.125 16.210938 -20.8125 14.296875 -20.8125 C 12.335938 -20.8125 10.757812 -20.125 9.5625 -18.75 C 8.363281 -17.375 7.765625 -15.488281 7.765625 -13.09375 C 7.765625 -10.5625 8.378906 -8.625 9.609375 -7.28125 C 10.835938 -5.945312 12.398438 -5.28125 14.296875 -5.28125 Z M 14.296875 -5.28125 "/></g></g></g><g fill="#000000" fill-opacity="1"><g transform="translate(191.347534, 128.91993)"><g><path d="M 13.8125 11.40625 C 12.625 11.40625 11.328125 11.363281 9.921875 11.28125 C 8.515625 11.207031 7.148438 11.082031 5.828125 10.90625 C 4.503906 10.726562 3.328125 10.484375 2.296875 10.171875 C 1.503906 9.847656 1.15625 9.285156 1.25 8.484375 L 1.671875 3.265625 C 1.742188 2.722656 1.984375 2.378906 2.390625 2.234375 C 2.804688 2.085938 3.175781 2.207031 3.5 2.59375 C 4.613281 3.351562 5.960938 3.941406 7.546875 4.359375 C 9.128906 4.773438 10.65625 4.984375 12.125 4.984375 C 13.789062 4.984375 15.296875 4.671875 16.640625 4.046875 C 17.984375 3.421875 19.050781 2.550781 19.84375 1.4375 C 20.644531 0.320312 21.046875 -0.988281 21.046875 -2.5 L 21.046875 -3.3125 C 21.046875 -3.914062 20.878906 -4.234375 20.546875 -4.265625 C 20.210938 -4.296875 19.914062 -4.054688 19.65625 -3.546875 C 18.789062 -2.171875 17.644531 -1.160156 16.21875 -0.515625 C 14.800781 0.117188 13.210938 0.4375 11.453125 0.4375 C 9.472656 0.4375 7.695312 -0.0703125 6.125 -1.09375 C 4.5625 -2.125 3.332031 -3.632812 2.4375 -5.625 C 1.550781 -7.625 1.109375 -10.082031 1.109375 -13 C 1.109375 -15.84375 1.550781 -18.257812 2.4375 -20.25 C 3.332031 -22.25 4.5625 -23.785156 6.125 -24.859375 C 7.695312 -25.929688 9.472656 -26.46875 11.453125 -26.46875 C 13.179688 -26.46875 14.765625 -26.082031 16.203125 -25.3125 C 17.640625 -24.550781 18.820312 -23.453125 19.75 -22.015625 C 19.976562 -21.628906 20.195312 -21.457031 20.40625 -21.5 C 20.613281 -21.550781 20.703125 -21.832031 20.671875 -22.34375 C 20.640625 -22.695312 20.585938 -23.097656 20.515625 -23.546875 C 20.453125 -23.992188 20.390625 -24.425781 20.328125 -24.84375 C 20.296875 -25.195312 20.382812 -25.472656 20.59375 -25.671875 C 20.800781 -25.878906 21.066406 -26.019531 21.390625 -26.09375 C 21.671875 -26.15625 22.0625 -26.203125 22.5625 -26.234375 C 23.0625 -26.265625 23.550781 -26.28125 24.03125 -26.28125 C 24.476562 -26.28125 24.90625 -26.265625 25.3125 -26.234375 C 25.726562 -26.203125 26.097656 -26.15625 26.421875 -26.09375 C 27.054688 -25.925781 27.425781 -25.523438 27.53125 -24.890625 C 27.84375 -22.078125 28.03125 -18.710938 28.09375 -14.796875 C 28.164062 -10.878906 28.203125 -6.585938 28.203125 -1.921875 C 28.203125 1.335938 27.582031 3.941406 26.34375 5.890625 C 25.113281 7.847656 23.421875 9.253906 21.265625 10.109375 C 19.109375 10.972656 16.625 11.40625 13.8125 11.40625 Z M 14.390625 -5.234375 C 16.210938 -5.234375 17.738281 -5.925781 18.96875 -7.3125 C 20.195312 -8.707031 20.8125 -10.632812 20.8125 -13.09375 C 20.8125 -15.457031 20.210938 -17.3125 19.015625 -18.65625 C 17.816406 -20 16.273438 -20.6875 14.390625 -20.71875 C 12.503906 -20.71875 10.957031 -20.035156 9.75 -18.671875 C 8.550781 -17.316406 7.953125 -15.457031 7.953125 -13.09375 C 7.953125 -10.632812 8.5625 -8.707031 9.78125 -7.3125 C 11 -5.925781 12.535156 -5.234375 14.390625 -5.234375 Z M 14.390625 -5.234375 "/></g></g></g><g fill="#000000" fill-opacity="1"><g transform="translate(220.695164, 128.91993)"><g><path d="M 4.890625 0.1875 C 4.628906 0.1875 4.226562 0.171875 3.6875 0.140625 C 3.144531 0.109375 2.664062 0.0625 2.25 0 C 1.96875 -0.0625 1.722656 -0.203125 1.515625 -0.421875 C 1.304688 -0.648438 1.203125 -0.957031 1.203125 -1.34375 C 1.203125 -4.125 1.207031 -6.582031 1.21875 -8.71875 C 1.238281 -10.863281 1.265625 -12.820312 1.296875 -14.59375 C 1.328125 -16.375 1.378906 -18.085938 1.453125 -19.734375 C 1.535156 -21.378906 1.644531 -23.097656 1.78125 -24.890625 C 1.875 -25.585938 2.222656 -25.988281 2.828125 -26.09375 C 3.179688 -26.15625 3.597656 -26.203125 4.078125 -26.234375 C 4.554688 -26.265625 5.003906 -26.28125 5.421875 -26.28125 C 5.804688 -26.28125 6.285156 -26.265625 6.859375 -26.234375 C 7.429688 -26.203125 7.863281 -26.15625 8.15625 -26.09375 C 8.539062 -26.019531 8.832031 -25.863281 9.03125 -25.625 C 9.238281 -25.382812 9.296875 -25.109375 9.203125 -24.796875 C 9.046875 -24.179688 8.910156 -23.632812 8.796875 -23.15625 C 8.679688 -22.675781 8.625 -22.117188 8.625 -21.484375 C 8.625 -21.003906 8.753906 -20.722656 9.015625 -20.640625 C 9.273438 -20.566406 9.5 -20.785156 9.6875 -21.296875 C 10.457031 -23.117188 11.550781 -24.425781 12.96875 -25.21875 C 14.394531 -26.019531 15.988281 -26.421875 17.75 -26.421875 C 18.476562 -26.421875 19.242188 -26.332031 20.046875 -26.15625 C 20.847656 -25.976562 21.503906 -25.75 22.015625 -25.46875 C 22.648438 -25.113281 22.96875 -24.617188 22.96875 -23.984375 C 22.96875 -22.984375 22.957031 -22.0625 22.9375 -21.21875 C 22.925781 -20.375 22.890625 -19.4375 22.828125 -18.40625 C 22.796875 -17.800781 22.546875 -17.4375 22.078125 -17.3125 C 21.617188 -17.1875 21.210938 -17.3125 20.859375 -17.6875 C 19.992188 -18.425781 19.085938 -18.929688 18.140625 -19.203125 C 17.203125 -19.472656 16.253906 -19.609375 15.296875 -19.609375 C 14.109375 -19.609375 12.992188 -19.28125 11.953125 -18.625 C 10.921875 -17.96875 10.082031 -17.023438 9.4375 -15.796875 C 8.800781 -14.566406 8.484375 -13.085938 8.484375 -11.359375 C 8.484375 -10.148438 8.523438 -8.894531 8.609375 -7.59375 C 8.691406 -6.300781 8.78125 -5.101562 8.875 -4 C 8.96875 -2.894531 9.03125 -2.007812 9.0625 -1.34375 C 9.09375 -0.925781 8.988281 -0.601562 8.75 -0.375 C 8.507812 -0.15625 8.242188 -0.015625 7.953125 0.046875 C 7.609375 0.078125 7.140625 0.109375 6.546875 0.140625 C 5.953125 0.171875 5.398438 0.1875 4.890625 0.1875 Z M 4.890625 0.1875 "/></g></g></g><g fill="#000000" fill-opacity="1"><g transform="translate(244.480169, 128.91993)"><g><path d="M 8.96875 0.390625 C 6.539062 0.390625 4.582031 -0.179688 3.09375 -1.328125 C 1.601562 -2.484375 0.859375 -4.421875 0.859375 -7.140625 C 0.859375 -9.535156 1.710938 -11.425781 3.421875 -12.8125 C 5.140625 -14.207031 7.5 -15.164062 10.5 -15.6875 C 13.25 -16.0625 15.179688 -16.445312 16.296875 -16.84375 C 17.421875 -17.25 17.984375 -17.882812 17.984375 -18.75 C 17.984375 -19.257812 17.628906 -19.738281 16.921875 -20.1875 C 16.222656 -20.632812 15.023438 -20.859375 13.328125 -20.859375 C 11.890625 -20.859375 10.398438 -20.632812 8.859375 -20.1875 C 7.328125 -19.738281 5.988281 -19.003906 4.84375 -17.984375 C 4.488281 -17.472656 4.078125 -17.328125 3.609375 -17.546875 C 3.148438 -17.773438 2.9375 -18.238281 2.96875 -18.9375 C 3 -19.289062 3.046875 -19.78125 3.109375 -20.40625 C 3.179688 -21.03125 3.253906 -21.660156 3.328125 -22.296875 C 3.410156 -22.929688 3.46875 -23.410156 3.5 -23.734375 C 3.59375 -24.503906 3.910156 -25 4.453125 -25.21875 C 7.109375 -26.050781 9.988281 -26.46875 13.09375 -26.46875 C 16.769531 -26.46875 19.625 -25.675781 21.65625 -24.09375 C 23.6875 -22.507812 24.859375 -19.976562 25.171875 -16.5 C 25.265625 -15.28125 25.359375 -13.773438 25.453125 -11.984375 C 25.554688 -10.191406 25.65625 -8.367188 25.75 -6.515625 C 25.84375 -4.660156 25.921875 -3 25.984375 -1.53125 C 25.984375 -0.695312 25.535156 -0.203125 24.640625 -0.046875 C 24.328125 0.046875 23.929688 0.109375 23.453125 0.140625 C 22.972656 0.171875 22.507812 0.1875 22.0625 0.1875 C 21.675781 0.1875 21.1875 0.171875 20.59375 0.140625 C 20 0.109375 19.515625 0.046875 19.140625 -0.046875 C 18.722656 -0.109375 18.382812 -0.289062 18.125 -0.59375 C 17.875 -0.90625 17.78125 -1.265625 17.84375 -1.671875 C 17.90625 -1.992188 17.972656 -2.410156 18.046875 -2.921875 C 18.128906 -3.429688 18.1875 -3.941406 18.21875 -4.453125 C 18.28125 -4.898438 18.175781 -5.164062 17.90625 -5.25 C 17.632812 -5.332031 17.40625 -5.164062 17.21875 -4.75 C 16.476562 -3.175781 15.34375 -1.925781 13.8125 -1 C 12.28125 -0.0703125 10.664062 0.390625 8.96875 0.390625 Z M 12.234375 -5.5625 C 13.023438 -5.5625 13.859375 -5.769531 14.734375 -6.1875 C 15.617188 -6.601562 16.363281 -7.203125 16.96875 -7.984375 C 17.582031 -8.765625 17.890625 -9.71875 17.890625 -10.84375 C 17.890625 -11.601562 17.65625 -12.226562 17.1875 -12.71875 C 16.726562 -13.21875 15.9375 -13.46875 14.8125 -13.46875 C 13.695312 -13.46875 12.625 -13.257812 11.59375 -12.84375 C 10.570312 -12.4375 9.742188 -11.867188 9.109375 -11.140625 C 8.472656 -10.421875 8.15625 -9.566406 8.15625 -8.578125 C 8.15625 -7.492188 8.472656 -6.71875 9.109375 -6.25 C 9.742188 -5.789062 10.785156 -5.5625 12.234375 -5.5625 Z M 12.234375 -5.5625 "/></g></g></g><g fill="#000000" fill-opacity="1"><g transform="translate(271.573974, 128.91993)"><g><path d="M 8.875 0.1875 C 8.425781 0.1875 7.890625 0.171875 7.265625 0.140625 C 6.640625 0.109375 6.117188 0.0625 5.703125 0 C 5.390625 -0.0625 5.128906 -0.210938 4.921875 -0.453125 C 4.710938 -0.691406 4.609375 -1.003906 4.609375 -1.390625 C 4.609375 -5.003906 4.640625 -8.359375 4.703125 -11.453125 C 4.765625 -14.554688 4.84375 -17.582031 4.9375 -20.53125 C 4.9375 -21.226562 4.632812 -21.578125 4.03125 -21.578125 L 2.015625 -21.578125 C 1.660156 -21.578125 1.351562 -21.703125 1.09375 -21.953125 C 0.84375 -22.210938 0.71875 -22.519531 0.71875 -22.875 L 0.71875 -24.796875 C 0.71875 -25.140625 0.84375 -25.441406 1.09375 -25.703125 C 1.351562 -25.960938 1.660156 -26.09375 2.015625 -26.09375 L 4.40625 -26.09375 C 4.632812 -26.09375 4.851562 -26.15625 5.0625 -26.28125 C 5.269531 -26.40625 5.34375 -26.597656 5.28125 -26.859375 C 4.957031 -28.835938 5.171875 -30.441406 5.921875 -31.671875 C 6.671875 -32.898438 7.753906 -33.8125 9.171875 -34.40625 C 10.597656 -35 12.160156 -35.296875 13.859375 -35.296875 C 14.628906 -35.296875 15.492188 -35.195312 16.453125 -35 C 17.410156 -34.8125 18.269531 -34.539062 19.03125 -34.1875 C 19.539062 -34 19.796875 -33.566406 19.796875 -32.890625 C 19.835938 -32.347656 19.859375 -31.738281 19.859375 -31.0625 C 19.859375 -30.394531 19.859375 -29.789062 19.859375 -29.25 C 19.859375 -28.582031 19.640625 -28.164062 19.203125 -28 C 18.773438 -27.84375 18.351562 -27.972656 17.9375 -28.390625 C 17.582031 -28.773438 17.09375 -29.085938 16.46875 -29.328125 C 15.84375 -29.566406 15.273438 -29.6875 14.765625 -29.6875 C 13.972656 -29.6875 13.328125 -29.46875 12.828125 -29.03125 C 12.328125 -28.601562 12.09375 -28.066406 12.125 -27.421875 C 12.164062 -26.941406 12.476562 -26.570312 13.0625 -26.3125 C 13.65625 -26.0625 14.320312 -25.9375 15.0625 -25.9375 C 15.695312 -25.9375 16.300781 -25.960938 16.875 -26.015625 C 17.457031 -26.066406 18.050781 -26.125 18.65625 -26.1875 C 19.039062 -26.25 19.367188 -26.148438 19.640625 -25.890625 C 19.910156 -25.640625 20.046875 -25.320312 20.046875 -24.9375 C 20.109375 -24.164062 20.109375 -23.363281 20.046875 -22.53125 C 20.046875 -22.1875 19.914062 -21.882812 19.65625 -21.625 C 19.40625 -21.375 19.101562 -21.265625 18.75 -21.296875 C 18.007812 -21.359375 17.070312 -21.4375 15.9375 -21.53125 C 14.800781 -21.625 13.835938 -21.671875 13.046875 -21.671875 C 12.753906 -21.671875 12.519531 -21.566406 12.34375 -21.359375 C 12.164062 -21.148438 12.078125 -20.890625 12.078125 -20.578125 C 11.984375 -16.609375 12.054688 -12.953125 12.296875 -9.609375 C 12.535156 -6.273438 12.738281 -3.519531 12.90625 -1.34375 C 12.96875 -0.957031 12.878906 -0.648438 12.640625 -0.421875 C 12.398438 -0.203125 12.132812 -0.0625 11.84375 0 C 11.425781 0.0625 10.9375 0.109375 10.375 0.140625 C 9.820312 0.171875 9.320312 0.1875 8.875 0.1875 Z M 8.875 0.1875 "/></g></g></g><g fill="#000000" fill-opacity="1"><g transform="translate(292.337901, 128.91993)"><g><path d="M 5.171875 -28.578125 C 3.992188 -28.578125 3.03125 -28.894531 2.28125 -29.53125 C 1.53125 -30.175781 1.15625 -30.992188 1.15625 -31.984375 C 1.15625 -33.003906 1.53125 -33.832031 2.28125 -34.46875 C 3.03125 -35.113281 3.992188 -35.4375 5.171875 -35.4375 C 6.390625 -35.4375 7.375 -35.113281 8.125 -34.46875 C 8.875 -33.832031 9.25 -33.003906 9.25 -31.984375 C 9.25 -30.992188 8.875 -30.175781 8.125 -29.53125 C 7.375 -28.894531 6.390625 -28.578125 5.171875 -28.578125 Z M 5.28125 0.1875 C 5.019531 0.1875 4.601562 0.175781 4.03125 0.15625 C 3.457031 0.144531 2.960938 0.09375 2.546875 0 C 2.253906 -0.0625 2.003906 -0.210938 1.796875 -0.453125 C 1.585938 -0.691406 1.484375 -1.003906 1.484375 -1.390625 C 1.484375 -4.171875 1.488281 -6.625 1.5 -8.75 C 1.519531 -10.875 1.546875 -12.820312 1.578125 -14.59375 C 1.609375 -16.375 1.65625 -18.085938 1.71875 -19.734375 C 1.789062 -21.378906 1.890625 -23.097656 2.015625 -24.890625 C 2.046875 -25.304688 2.140625 -25.597656 2.296875 -25.765625 C 2.460938 -25.941406 2.703125 -26.050781 3.015625 -26.09375 C 3.367188 -26.15625 3.773438 -26.203125 4.234375 -26.234375 C 4.703125 -26.265625 5.066406 -26.28125 5.328125 -26.28125 C 5.546875 -26.28125 5.863281 -26.265625 6.28125 -26.234375 C 6.695312 -26.203125 7.066406 -26.15625 7.390625 -26.09375 C 7.703125 -26.019531 7.9375 -25.90625 8.09375 -25.75 C 8.257812 -25.59375 8.359375 -25.304688 8.390625 -24.890625 C 8.515625 -23.097656 8.609375 -21.378906 8.671875 -19.734375 C 8.742188 -18.085938 8.796875 -16.375 8.828125 -14.59375 C 8.859375 -12.820312 8.878906 -10.863281 8.890625 -8.71875 C 8.910156 -6.582031 8.921875 -4.125 8.921875 -1.34375 C 8.921875 -0.957031 8.816406 -0.648438 8.609375 -0.421875 C 8.398438 -0.203125 8.148438 -0.0625 7.859375 0 C 7.441406 0.0625 6.96875 0.109375 6.4375 0.140625 C 5.914062 0.171875 5.53125 0.1875 5.28125 0.1875 Z M 5.28125 0.1875 "/></g></g></g><g fill="#000000" fill-opacity="1"><g transform="translate(302.743833, 128.91993)"><g><path d="M 8.96875 0.390625 C 6.539062 0.390625 4.582031 -0.179688 3.09375 -1.328125 C 1.601562 -2.484375 0.859375 -4.421875 0.859375 -7.140625 C 0.859375 -9.535156 1.710938 -11.425781 3.421875 -12.8125 C 5.140625 -14.207031 7.5 -15.164062 10.5 -15.6875 C 13.25 -16.0625 15.179688 -16.445312 16.296875 -16.84375 C 17.421875 -17.25 17.984375 -17.882812 17.984375 -18.75 C 17.984375 -19.257812 17.628906 -19.738281 16.921875 -20.1875 C 16.222656 -20.632812 15.023438 -20.859375 13.328125 -20.859375 C 11.890625 -20.859375 10.398438 -20.632812 8.859375 -20.1875 C 7.328125 -19.738281 5.988281 -19.003906 4.84375 -17.984375 C 4.488281 -17.472656 4.078125 -17.328125 3.609375 -17.546875 C 3.148438 -17.773438 2.9375 -18.238281 2.96875 -18.9375 C 3 -19.289062 3.046875 -19.78125 3.109375 -20.40625 C 3.179688 -21.03125 3.253906 -21.660156 3.328125 -22.296875 C 3.410156 -22.929688 3.46875 -23.410156 3.5 -23.734375 C 3.59375 -24.503906 3.910156 -25 4.453125 -25.21875 C 7.109375 -26.050781 9.988281 -26.46875 13.09375 -26.46875 C 16.769531 -26.46875 19.625 -25.675781 21.65625 -24.09375 C 23.6875 -22.507812 24.859375 -19.976562 25.171875 -16.5 C 25.265625 -15.28125 25.359375 -13.773438 25.453125 -11.984375 C 25.554688 -10.191406 25.65625 -8.367188 25.75 -6.515625 C 25.84375 -4.660156 25.921875 -3 25.984375 -1.53125 C 25.984375 -0.695312 25.535156 -0.203125 24.640625 -0.046875 C 24.328125 0.046875 23.929688 0.109375 23.453125 0.140625 C 22.972656 0.171875 22.507812 0.1875 22.0625 0.1875 C 21.675781 0.1875 21.1875 0.171875 20.59375 0.140625 C 20 0.109375 19.515625 0.046875 19.140625 -0.046875 C 18.722656 -0.109375 18.382812 -0.289062 18.125 -0.59375 C 17.875 -0.90625 17.78125 -1.265625 17.84375 -1.671875 C 17.90625 -1.992188 17.972656 -2.410156 18.046875 -2.921875 C 18.128906 -3.429688 18.1875 -3.941406 18.21875 -4.453125 C 18.28125 -4.898438 18.175781 -5.164062 17.90625 -5.25 C 17.632812 -5.332031 17.40625 -5.164062 17.21875 -4.75 C 16.476562 -3.175781 15.34375 -1.925781 13.8125 -1 C 12.28125 -0.0703125 10.664062 0.390625 8.96875 0.390625 Z M 12.234375 -5.5625 C 13.023438 -5.5625 13.859375 -5.769531 14.734375 -6.1875 C 15.617188 -6.601562 16.363281 -7.203125 16.96875 -7.984375 C 17.582031 -8.765625 17.890625 -9.71875 17.890625 -10.84375 C 17.890625 -11.601562 17.65625 -12.226562 17.1875 -12.71875 C 16.726562 -13.21875 15.9375 -13.46875 14.8125 -13.46875 C 13.695312 -13.46875 12.625 -13.257812 11.59375 -12.84375 C 10.570312 -12.4375 9.742188 -11.867188 9.109375 -11.140625 C 8.472656 -10.421875 8.15625 -9.566406 8.15625 -8.578125 C 8.15625 -7.492188 8.472656 -6.71875 9.109375 -6.25 C 9.742188 -5.789062 10.785156 -5.5625 12.234375 -5.5625 Z M 12.234375 -5.5625 "/></g></g></g></svg>