<svg xmlns="http://www.w3.org/2000/svg" xmlns:xlink="http://www.w3.org/1999/xlink" width="576" zoomAndPan="magnify" viewBox="0 0 432 712.499978" height="950" preserveAspectRatio="xMidYMid meet" version="1.0"><defs><clipPath id="225b6f3fd4"><path d="M 0.152344 76 L 431.847656 76 L 431.847656 712 L 0.152344 712 Z M 0.152344 76 " clip-rule="nonzero"/></clipPath><clipPath id="706cd80da9"><path d="M 0.152344 73.804688 L 431.847656 73.804688 L 431.847656 712 L 0.152344 712 Z M 0.152344 73.804688 " clip-rule="nonzero"/></clipPath><clipPath id="7d9e9c4bbc"><path d="M 0.152344 6.695312 L 431.847656 6.695312 L 431.847656 113 L 0.152344 113 Z M 0.152344 6.695312 " clip-rule="nonzero"/></clipPath></defs><g clip-path="url(#225b6f3fd4)"><path fill="#3b28cc" d="M -96.277344 76.085938 L 604.714844 76.085938 L 604.714844 777.082031 L -96.277344 777.082031 Z M -96.277344 76.085938 " fill-opacity="1" fill-rule="nonzero"/></g><g clip-path="url(#706cd80da9)"><path stroke-linecap="butt" transform="matrix(4.566728, 0, 0, 4.566728, -98.559744, 73.804182)" fill="none" stroke-linejoin="miter" d="M 0.499789 0.499648 L 153.999656 0.499648 L 153.999656 154.00037 L 0.499789 154.00037 Z M 0.499789 0.499648 " stroke="#1d1d1b" stroke-width="1" stroke-opacity="1" stroke-miterlimit="10"/></g><g clip-path="url(#7d9e9c4bbc)"><path fill="#3b28cc" d="M 422.128906 12 C 388.921875 23.089844 365.292969 29.875 339.191406 35.757812 C 309.035156 42.570312 287.59375 45.367188 262.359375 45.785156 C 235.101562 46.203125 213.722656 43.984375 180.546875 37.203125 C 167.175781 34.46875 151.648438 30.964844 118.632812 23.21875 C 85.878906 15.535156 65.625 11.453125 53.089844 10.070312 C 30.8125 7.5625 8.179688 9.558594 -13.035156 15.890625 L -16.992188 17.046875 L -17.054688 64.878906 L -17.152344 112.746094 L 437.878906 112.746094 L 437.878906 59.707031 C 437.878906 30.515625 437.847656 6.695312 437.816406 6.726562 C 437.75 6.761719 430.710938 9.140625 422.128906 12 Z M 422.128906 12 " fill-opacity="1" fill-rule="nonzero"/></g></svg>