<svg xmlns="http://www.w3.org/2000/svg" xmlns:xlink="http://www.w3.org/1999/xlink" width="500" zoomAndPan="magnify" viewBox="0 0 375 374.999991" height="500" preserveAspectRatio="xMidYMid meet" version="1.0"><defs><g/><clipPath id="bd1da1e18c"><path d="M 159 251 L 188 251 L 188 282 L 159 282 Z M 159 251 " clip-rule="nonzero"/></clipPath><clipPath id="63e1bb2232"><path d="M 159.691406 310.140625 L 129.878906 263.328125 L 167.203125 239.558594 L 197.015625 286.375 Z M 159.691406 310.140625 " clip-rule="nonzero"/></clipPath><clipPath id="43a8d90b9b"><path d="M 159.691406 310.140625 L 129.878906 263.328125 L 167.203125 239.558594 L 197.015625 286.375 Z M 159.691406 310.140625 " clip-rule="nonzero"/></clipPath><clipPath id="07493f0f20"><path d="M 169.289062 289.394531 L 151.78125 261.902344 L 172.59375 248.648438 L 190.101562 276.140625 Z M 169.289062 289.394531 " clip-rule="nonzero"/></clipPath><clipPath id="265f03f83f"><path d="M 168 286 L 179 286 L 179 301 L 168 301 Z M 168 286 " clip-rule="nonzero"/></clipPath><clipPath id="00ac56c2ee"><path d="M 159.691406 310.140625 L 129.878906 263.328125 L 167.203125 239.558594 L 197.015625 286.375 Z M 159.691406 310.140625 " clip-rule="nonzero"/></clipPath><clipPath id="417dfbf745"><path d="M 159.691406 310.140625 L 129.878906 263.328125 L 167.203125 239.558594 L 197.015625 286.375 Z M 159.691406 310.140625 " clip-rule="nonzero"/></clipPath><clipPath id="7c346de9f2"><path d="M 150 282 L 165 282 L 165 297 L 150 297 Z M 150 282 " clip-rule="nonzero"/></clipPath><clipPath id="b02cb5d7cf"><path d="M 159.691406 310.140625 L 129.878906 263.328125 L 167.203125 239.558594 L 197.015625 286.375 Z M 159.691406 310.140625 " clip-rule="nonzero"/></clipPath><clipPath id="59247bdacc"><path d="M 159.691406 310.140625 L 129.878906 263.328125 L 167.203125 239.558594 L 197.015625 286.375 Z M 159.691406 310.140625 " clip-rule="nonzero"/></clipPath><clipPath id="cbb8252174"><path d="M 139 270 L 156 270 L 156 281 L 139 281 Z M 139 270 " clip-rule="nonzero"/></clipPath><clipPath id="c262e21168"><path d="M 159.691406 310.140625 L 129.878906 263.328125 L 167.203125 239.558594 L 197.015625 286.375 Z M 159.691406 310.140625 " clip-rule="nonzero"/></clipPath><clipPath id="d25e6ec084"><path d="M 159.691406 310.140625 L 129.878906 263.328125 L 167.203125 239.558594 L 197.015625 286.375 Z M 159.691406 310.140625 " clip-rule="nonzero"/></clipPath><clipPath id="6f32b5226d"><path d="M 143 253 L 159 253 L 159 264 L 143 264 Z M 143 253 " clip-rule="nonzero"/></clipPath><clipPath id="1b86c46f25"><path d="M 159.691406 310.140625 L 129.878906 263.328125 L 167.203125 239.558594 L 197.015625 286.375 Z M 159.691406 310.140625 " clip-rule="nonzero"/></clipPath><clipPath id="db5ef3ce12"><path d="M 159.691406 310.140625 L 129.878906 263.328125 L 167.203125 239.558594 L 197.015625 286.375 Z M 159.691406 310.140625 " clip-rule="nonzero"/></clipPath><clipPath id="1ad3a2630d"><path d="M 197 204 L 222 204 L 222 234 L 197 234 Z M 197 204 " clip-rule="nonzero"/></clipPath><clipPath id="64c6e69cad"><path d="M 184.375 249.972656 L 176.480469 199.589844 L 216.492188 193.320312 L 224.386719 243.703125 Z M 184.375 249.972656 " clip-rule="nonzero"/></clipPath><clipPath id="f1ca9e96b4"><path d="M 184.375 249.972656 L 176.480469 199.589844 L 216.492188 193.320312 L 224.386719 243.703125 Z M 184.375 249.972656 " clip-rule="nonzero"/></clipPath><clipPath id="cf186fd507"><path d="M 200 236.105469 L 195.386719 206.675781 L 217.664062 203.183594 L 222.277344 232.613281 Z M 200 236.105469 " clip-rule="nonzero"/></clipPath><clipPath id="1586afa77a"><path d="M 196 234 L 208 234 L 208 247 L 196 247 Z M 196 234 " clip-rule="nonzero"/></clipPath><clipPath id="6f01f5bb5d"><path d="M 184.375 249.972656 L 176.480469 199.589844 L 216.492188 193.320312 L 224.386719 243.703125 Z M 184.375 249.972656 " clip-rule="nonzero"/></clipPath><clipPath id="557b63cad7"><path d="M 184.375 249.972656 L 176.480469 199.589844 L 216.492188 193.320312 L 224.386719 243.703125 Z M 184.375 249.972656 " clip-rule="nonzero"/></clipPath><clipPath id="c23b4da976"><path d="M 183 226 L 198 226 L 198 238 L 183 238 Z M 183 226 " clip-rule="nonzero"/></clipPath><clipPath id="2e242d1b67"><path d="M 184.375 249.972656 L 176.480469 199.589844 L 216.492188 193.320312 L 224.386719 243.703125 Z M 184.375 249.972656 " clip-rule="nonzero"/></clipPath><clipPath id="431d10434a"><path d="M 184.375 249.972656 L 176.480469 199.589844 L 216.492188 193.320312 L 224.386719 243.703125 Z M 184.375 249.972656 " clip-rule="nonzero"/></clipPath><clipPath id="a4f9b52501"><path d="M 179 211 L 195 211 L 195 222 L 179 222 Z M 179 211 " clip-rule="nonzero"/></clipPath><clipPath id="1cbc37962f"><path d="M 184.375 249.972656 L 176.480469 199.589844 L 216.492188 193.320312 L 224.386719 243.703125 Z M 184.375 249.972656 " clip-rule="nonzero"/></clipPath><clipPath id="c9ea4d67c6"><path d="M 184.375 249.972656 L 176.480469 199.589844 L 216.492188 193.320312 L 224.386719 243.703125 Z M 184.375 249.972656 " clip-rule="nonzero"/></clipPath><clipPath id="69729c64f3"><path d="M 189 198 L 203 198 L 203 210 L 189 210 Z M 189 198 " clip-rule="nonzero"/></clipPath><clipPath id="588547389b"><path d="M 184.375 249.972656 L 176.480469 199.589844 L 216.492188 193.320312 L 224.386719 243.703125 Z M 184.375 249.972656 " clip-rule="nonzero"/></clipPath><clipPath id="91b39801b7"><path d="M 184.375 249.972656 L 176.480469 199.589844 L 216.492188 193.320312 L 224.386719 243.703125 Z M 184.375 249.972656 " clip-rule="nonzero"/></clipPath><clipPath id="b1bbe209fa"><path d="M 241 248 L 262 248 L 262 273 L 241 273 Z M 241 248 " clip-rule="nonzero"/></clipPath><clipPath id="302a7d9204"><path d="M 231.441406 286.582031 L 223.984375 245.246094 L 256.460938 239.390625 L 263.917969 280.722656 Z M 231.441406 286.582031 " clip-rule="nonzero"/></clipPath><clipPath id="d3b67bd735"><path d="M 231.441406 286.582031 L 223.984375 245.246094 L 256.460938 239.390625 L 263.917969 280.722656 Z M 231.441406 286.582031 " clip-rule="nonzero"/></clipPath><clipPath id="56f9990dfe"><path d="M 244.007812 274.898438 L 239.664062 250.820312 L 257.890625 247.53125 L 262.234375 271.609375 Z M 244.007812 274.898438 " clip-rule="nonzero"/></clipPath><clipPath id="3648ac0342"><path d="M 241 273 L 251 273 L 251 284 L 241 284 Z M 241 273 " clip-rule="nonzero"/></clipPath><clipPath id="270183c949"><path d="M 231.441406 286.582031 L 223.984375 245.246094 L 256.460938 239.390625 L 263.917969 280.722656 Z M 231.441406 286.582031 " clip-rule="nonzero"/></clipPath><clipPath id="a0d605383d"><path d="M 231.441406 286.582031 L 223.984375 245.246094 L 256.460938 239.390625 L 263.917969 280.722656 Z M 231.441406 286.582031 " clip-rule="nonzero"/></clipPath><clipPath id="2ee6fc4f93"><path d="M 230 267 L 242 267 L 242 277 L 230 277 Z M 230 267 " clip-rule="nonzero"/></clipPath><clipPath id="af3668ce8b"><path d="M 231.441406 286.582031 L 223.984375 245.246094 L 256.460938 239.390625 L 263.917969 280.722656 Z M 231.441406 286.582031 " clip-rule="nonzero"/></clipPath><clipPath id="72ed1dbe85"><path d="M 231.441406 286.582031 L 223.984375 245.246094 L 256.460938 239.390625 L 263.917969 280.722656 Z M 231.441406 286.582031 " clip-rule="nonzero"/></clipPath><clipPath id="04d9e92517"><path d="M 226 255 L 239 255 L 239 263 L 226 263 Z M 226 255 " clip-rule="nonzero"/></clipPath><clipPath id="c21ca6c303"><path d="M 231.441406 286.582031 L 223.984375 245.246094 L 256.460938 239.390625 L 263.917969 280.722656 Z M 231.441406 286.582031 " clip-rule="nonzero"/></clipPath><clipPath id="77a2019d14"><path d="M 231.441406 286.582031 L 223.984375 245.246094 L 256.460938 239.390625 L 263.917969 280.722656 Z M 231.441406 286.582031 " clip-rule="nonzero"/></clipPath><clipPath id="7abce796de"><path d="M 234 243 L 246 243 L 246 253 L 234 253 Z M 234 243 " clip-rule="nonzero"/></clipPath><clipPath id="3559f8c889"><path d="M 231.441406 286.582031 L 223.984375 245.246094 L 256.460938 239.390625 L 263.917969 280.722656 Z M 231.441406 286.582031 " clip-rule="nonzero"/></clipPath><clipPath id="749171dfca"><path d="M 231.441406 286.582031 L 223.984375 245.246094 L 256.460938 239.390625 L 263.917969 280.722656 Z M 231.441406 286.582031 " clip-rule="nonzero"/></clipPath><clipPath id="3723a7a36c"><path d="M 306 218 L 322 218 L 322 238 L 306 238 Z M 306 218 " clip-rule="nonzero"/></clipPath><clipPath id="8909a5701c"><path d="M 298.0625 249.480469 L 291.582031 216.359375 L 318.078125 211.175781 L 324.558594 244.296875 Z M 298.0625 249.480469 " clip-rule="nonzero"/></clipPath><clipPath id="00e620d8c2"><path d="M 298.0625 249.480469 L 291.582031 216.359375 L 318.078125 211.175781 L 324.558594 244.296875 Z M 298.0625 249.480469 " clip-rule="nonzero"/></clipPath><clipPath id="7533f8efac"><path d="M 308.101562 239.863281 L 304.292969 220.410156 L 319.019531 217.527344 L 322.828125 236.984375 Z M 308.101562 239.863281 " clip-rule="nonzero"/></clipPath><clipPath id="80b834aad7"><path d="M 305 238 L 314 238 L 314 247 L 305 247 Z M 305 238 " clip-rule="nonzero"/></clipPath><clipPath id="f4aad65f11"><path d="M 298.0625 249.480469 L 291.582031 216.359375 L 318.078125 211.175781 L 324.558594 244.296875 Z M 298.0625 249.480469 " clip-rule="nonzero"/></clipPath><clipPath id="6fb100062a"><path d="M 298.0625 249.480469 L 291.582031 216.359375 L 318.078125 211.175781 L 324.558594 244.296875 Z M 298.0625 249.480469 " clip-rule="nonzero"/></clipPath><clipPath id="a971b4ce56"><path d="M 296 233 L 307 233 L 307 241 L 296 241 Z M 296 233 " clip-rule="nonzero"/></clipPath><clipPath id="806a9f703f"><path d="M 298.0625 249.480469 L 291.582031 216.359375 L 318.078125 211.175781 L 324.558594 244.296875 Z M 298.0625 249.480469 " clip-rule="nonzero"/></clipPath><clipPath id="1c5d4eaf76"><path d="M 298.0625 249.480469 L 291.582031 216.359375 L 318.078125 211.175781 L 324.558594 244.296875 Z M 298.0625 249.480469 " clip-rule="nonzero"/></clipPath><clipPath id="cd12796851"><path d="M 294 224 L 304 224 L 304 231 L 294 231 Z M 294 224 " clip-rule="nonzero"/></clipPath><clipPath id="04bd6f39ab"><path d="M 298.0625 249.480469 L 291.582031 216.359375 L 318.078125 211.175781 L 324.558594 244.296875 Z M 298.0625 249.480469 " clip-rule="nonzero"/></clipPath><clipPath id="0133139a57"><path d="M 298.0625 249.480469 L 291.582031 216.359375 L 318.078125 211.175781 L 324.558594 244.296875 Z M 298.0625 249.480469 " clip-rule="nonzero"/></clipPath><clipPath id="d59b536ee4"><path d="M 300 214 L 309 214 L 309 222 L 300 222 Z M 300 214 " clip-rule="nonzero"/></clipPath><clipPath id="85cd7b2399"><path d="M 298.0625 249.480469 L 291.582031 216.359375 L 318.078125 211.175781 L 324.558594 244.296875 Z M 298.0625 249.480469 " clip-rule="nonzero"/></clipPath><clipPath id="3569f2b6c0"><path d="M 298.0625 249.480469 L 291.582031 216.359375 L 318.078125 211.175781 L 324.558594 244.296875 Z M 298.0625 249.480469 " clip-rule="nonzero"/></clipPath><clipPath id="cd0344f4f0"><path d="M 266 190 L 284 190 L 284 213 L 266 213 Z M 266 190 " clip-rule="nonzero"/></clipPath><clipPath id="3160788818"><path d="M 257.375 225.050781 L 250.320312 188.984375 L 279.023438 183.367188 L 286.082031 219.433594 Z M 257.375 225.050781 " clip-rule="nonzero"/></clipPath><clipPath id="7cbdc2f5d9"><path d="M 257.375 225.050781 L 250.320312 188.984375 L 279.023438 183.367188 L 286.082031 219.433594 Z M 257.375 225.050781 " clip-rule="nonzero"/></clipPath><clipPath id="492894af51"><path d="M 268.367188 214.523438 L 264.199219 193.226562 L 280.320312 190.074219 L 284.488281 211.371094 Z M 268.367188 214.523438 " clip-rule="nonzero"/></clipPath><clipPath id="29b0c95fa5"><path d="M 266 213 L 274 213 L 274 223 L 266 223 Z M 266 213 " clip-rule="nonzero"/></clipPath><clipPath id="a65a114bb9"><path d="M 257.375 225.050781 L 250.320312 188.984375 L 279.023438 183.367188 L 286.082031 219.433594 Z M 257.375 225.050781 " clip-rule="nonzero"/></clipPath><clipPath id="ef2bd9dc2f"><path d="M 257.375 225.050781 L 250.320312 188.984375 L 279.023438 183.367188 L 286.082031 219.433594 Z M 257.375 225.050781 " clip-rule="nonzero"/></clipPath><clipPath id="398f90200f"><path d="M 255 207 L 267 207 L 267 216 L 255 216 Z M 255 207 " clip-rule="nonzero"/></clipPath><clipPath id="39fbe0045c"><path d="M 257.375 225.050781 L 250.320312 188.984375 L 279.023438 183.367188 L 286.082031 219.433594 Z M 257.375 225.050781 " clip-rule="nonzero"/></clipPath><clipPath id="461c4010f9"><path d="M 257.375 225.050781 L 250.320312 188.984375 L 279.023438 183.367188 L 286.082031 219.433594 Z M 257.375 225.050781 " clip-rule="nonzero"/></clipPath><clipPath id="e06b31e94b"><path d="M 252 197 L 264 197 L 264 205 L 252 205 Z M 252 197 " clip-rule="nonzero"/></clipPath><clipPath id="00cbde2911"><path d="M 257.375 225.050781 L 250.320312 188.984375 L 279.023438 183.367188 L 286.082031 219.433594 Z M 257.375 225.050781 " clip-rule="nonzero"/></clipPath><clipPath id="926fba7132"><path d="M 257.375 225.050781 L 250.320312 188.984375 L 279.023438 183.367188 L 286.082031 219.433594 Z M 257.375 225.050781 " clip-rule="nonzero"/></clipPath><clipPath id="ee68195dfb"><path d="M 259 186 L 270 186 L 270 195 L 259 195 Z M 259 186 " clip-rule="nonzero"/></clipPath><clipPath id="8ee696a4ee"><path d="M 257.375 225.050781 L 250.320312 188.984375 L 279.023438 183.367188 L 286.082031 219.433594 Z M 257.375 225.050781 " clip-rule="nonzero"/></clipPath><clipPath id="37bea25ee2"><path d="M 257.375 225.050781 L 250.320312 188.984375 L 279.023438 183.367188 L 286.082031 219.433594 Z M 257.375 225.050781 " clip-rule="nonzero"/></clipPath><clipPath id="de61b286bf"><path d="M 328 191 L 341 191 L 341 207 L 328 207 Z M 328 191 " clip-rule="nonzero"/></clipPath><clipPath id="62e1dc9925"><path d="M 322.78125 214.816406 L 317.882812 189.792969 L 337.757812 185.90625 L 342.652344 210.929688 Z M 322.78125 214.816406 " clip-rule="nonzero"/></clipPath><clipPath id="4dd8fa95ad"><path d="M 322.78125 214.816406 L 317.882812 189.792969 L 337.757812 185.90625 L 342.652344 210.929688 Z M 322.78125 214.816406 " clip-rule="nonzero"/></clipPath><clipPath id="05b9f5b775"><path d="M 330.34375 207.578125 L 327.476562 192.925781 L 338.570312 190.753906 L 341.433594 205.40625 Z M 330.34375 207.578125 " clip-rule="nonzero"/></clipPath><clipPath id="d7a1087848"><path d="M 328 206 L 335 206 L 335 213 L 328 213 Z M 328 206 " clip-rule="nonzero"/></clipPath><clipPath id="32c055827d"><path d="M 322.78125 214.816406 L 317.882812 189.792969 L 337.757812 185.90625 L 342.652344 210.929688 Z M 322.78125 214.816406 " clip-rule="nonzero"/></clipPath><clipPath id="e3453e48dd"><path d="M 322.78125 214.816406 L 317.882812 189.792969 L 337.757812 185.90625 L 342.652344 210.929688 Z M 322.78125 214.816406 " clip-rule="nonzero"/></clipPath><clipPath id="2c9e7f02f6"><path d="M 321 202 L 329 202 L 329 209 L 321 209 Z M 321 202 " clip-rule="nonzero"/></clipPath><clipPath id="9bb154e15a"><path d="M 322.78125 214.816406 L 317.882812 189.792969 L 337.757812 185.90625 L 342.652344 210.929688 Z M 322.78125 214.816406 " clip-rule="nonzero"/></clipPath><clipPath id="905acb151e"><path d="M 322.78125 214.816406 L 317.882812 189.792969 L 337.757812 185.90625 L 342.652344 210.929688 Z M 322.78125 214.816406 " clip-rule="nonzero"/></clipPath><clipPath id="f28de7b9fc"><path d="M 319 195 L 328 195 L 328 201 L 319 201 Z M 319 195 " clip-rule="nonzero"/></clipPath><clipPath id="02b85095b7"><path d="M 322.78125 214.816406 L 317.882812 189.792969 L 337.757812 185.90625 L 342.652344 210.929688 Z M 322.78125 214.816406 " clip-rule="nonzero"/></clipPath><clipPath id="80f4087dd2"><path d="M 322.78125 214.816406 L 317.882812 189.792969 L 337.757812 185.90625 L 342.652344 210.929688 Z M 322.78125 214.816406 " clip-rule="nonzero"/></clipPath><clipPath id="00d9a0bbe5"><path d="M 324 188 L 331 188 L 331 195 L 324 195 Z M 324 188 " clip-rule="nonzero"/></clipPath><clipPath id="487763a2ab"><path d="M 322.78125 214.816406 L 317.882812 189.792969 L 337.757812 185.90625 L 342.652344 210.929688 Z M 322.78125 214.816406 " clip-rule="nonzero"/></clipPath><clipPath id="cc0e26be08"><path d="M 322.78125 214.816406 L 317.882812 189.792969 L 337.757812 185.90625 L 342.652344 210.929688 Z M 322.78125 214.816406 " clip-rule="nonzero"/></clipPath></defs><g clip-path="url(#bd1da1e18c)"><g clip-path="url(#63e1bb2232)"><g clip-path="url(#43a8d90b9b)"><g clip-path="url(#07493f0f20)"><path fill="#3b28cc" d="M 172.648438 278.742188 C 176.253906 279.527344 180.429688 283.523438 185.484375 278.789062 C 190.636719 273.960938 183.964844 266.8125 181.144531 262.667969 C 179.644531 260.464844 175.480469 250.117188 169.671875 251.25 C 164.59375 252.242188 163.550781 256.609375 162.890625 262.632812 C 162.300781 268.015625 158.195312 272.050781 160.863281 276.152344 C 163.367188 279.996094 170.4375 278.261719 172.648438 278.742188 " fill-opacity="1" fill-rule="nonzero"/></g></g></g></g><g clip-path="url(#265f03f83f)"><g clip-path="url(#00ac56c2ee)"><g clip-path="url(#417dfbf745)"><path fill="#3b28cc" d="M 168.707031 291.789062 C 169.816406 287.898438 172.777344 285.40625 175.320312 286.226562 C 177.863281 287.046875 179.023438 290.863281 177.914062 294.753906 C 176.804688 298.644531 173.84375 301.132812 171.300781 300.316406 C 168.757812 299.496094 167.597656 295.679688 168.707031 291.789062 " fill-opacity="1" fill-rule="nonzero"/></g></g></g><g clip-path="url(#7c346de9f2)"><g clip-path="url(#b02cb5d7cf)"><g clip-path="url(#59247bdacc)"><path fill="#3b28cc" d="M 153.628906 285.871094 C 156.613281 282.445312 160.765625 281.234375 162.910156 283.167969 C 165.054688 285.097656 164.375 289.441406 161.390625 292.867188 C 158.410156 296.292969 154.253906 297.503906 152.109375 295.570312 C 149.96875 293.640625 150.648438 289.296875 153.628906 285.871094 " fill-opacity="1" fill-rule="nonzero"/></g></g></g><g clip-path="url(#cbb8252174)"><g clip-path="url(#c262e21168)"><g clip-path="url(#d25e6ec084)"><path fill="#3b28cc" d="M 146.183594 270.675781 C 150.472656 269.472656 154.621094 270.667969 155.445312 273.34375 C 156.269531 276.019531 153.460938 279.164062 149.171875 280.363281 C 144.878906 281.566406 140.734375 280.371094 139.90625 277.695312 C 139.082031 275.019531 141.890625 271.875 146.183594 270.675781 " fill-opacity="1" fill-rule="nonzero"/></g></g></g><g clip-path="url(#6f32b5226d)"><g clip-path="url(#1b86c46f25)"><g clip-path="url(#db5ef3ce12)"><path fill="#3b28cc" d="M 151.460938 253.488281 C 155.726562 254.117188 158.925781 256.894531 158.609375 259.6875 C 158.292969 262.484375 154.578125 264.242188 150.3125 263.613281 C 146.046875 262.988281 142.84375 260.210938 143.160156 257.414062 C 143.476562 254.617188 147.195312 252.859375 151.460938 253.488281 " fill-opacity="1" fill-rule="nonzero"/></g></g></g><g fill="#3b28cc" fill-opacity="1"><g transform="translate(12.714272, 129.784359)"><g><path d="M 19.28125 0.25 C 18.175781 0.25 16.859375 0.25 15.328125 0.25 C 13.804688 0.25 12.238281 0.238281 10.625 0.21875 C 9.007812 0.195312 7.546875 0.164062 6.234375 0.125 C 4.929688 0.0820312 3.972656 0.0390625 3.359375 0 C 2.265625 -0.0820312 1.71875 -0.59375 1.71875 -1.53125 C 1.71875 -4.59375 1.742188 -7.878906 1.796875 -11.390625 C 1.859375 -14.898438 1.941406 -18.445312 2.046875 -22.03125 C 2.148438 -25.625 2.28125 -29.082031 2.4375 -32.40625 C 2.601562 -35.738281 2.769531 -38.75 2.9375 -41.4375 C 2.976562 -41.894531 3.160156 -42.234375 3.484375 -42.453125 C 3.816406 -42.679688 4.1875 -42.816406 4.59375 -42.859375 C 5.53125 -42.972656 6.285156 -43.039062 6.859375 -43.0625 C 7.429688 -43.082031 8.039062 -43.09375 8.6875 -43.09375 C 9.101562 -43.09375 9.65625 -43.070312 10.34375 -43.03125 C 11.039062 -42.988281 11.65625 -42.929688 12.1875 -42.859375 C 12.632812 -42.816406 13.019531 -42.640625 13.34375 -42.328125 C 13.664062 -42.023438 13.769531 -41.628906 13.65625 -41.140625 C 12.914062 -37.546875 12.195312 -33.644531 11.5 -29.4375 C 10.8125 -25.238281 10.488281 -20.507812 10.53125 -15.25 C 10.570312 -12.425781 11.539062 -10.378906 13.4375 -9.109375 C 15.332031 -7.847656 18.015625 -7.21875 21.484375 -7.21875 C 24.097656 -7.21875 26.238281 -7.453125 27.90625 -7.921875 C 29.582031 -8.390625 30.972656 -9.132812 32.078125 -10.15625 C 33.179688 -11.175781 34.160156 -12.503906 35.015625 -14.140625 C 35.335938 -14.835938 35.835938 -15.15625 36.515625 -15.09375 C 37.191406 -15.03125 37.550781 -14.59375 37.59375 -13.78125 C 37.664062 -13.207031 37.742188 -12.347656 37.828125 -11.203125 C 37.910156 -10.054688 37.984375 -8.832031 38.046875 -7.53125 C 38.109375 -6.226562 38.171875 -5.003906 38.234375 -3.859375 C 38.296875 -2.710938 38.347656 -1.851562 38.390625 -1.28125 C 38.390625 -0.507812 37.957031 -0.0820312 37.09375 0 C 36.03125 0.0390625 34.734375 0.0820312 33.203125 0.125 C 31.679688 0.164062 30.070312 0.195312 28.375 0.21875 C 26.675781 0.238281 25.03125 0.25 23.4375 0.25 C 21.851562 0.25 20.46875 0.25 19.28125 0.25 Z M 19.28125 0.25 "/></g></g></g><g fill="#3b28cc" fill-opacity="1"><g transform="translate(52.258884, 129.784359)"><g><path d="M 11.453125 0.484375 C 8.347656 0.484375 5.847656 -0.25 3.953125 -1.71875 C 2.054688 -3.1875 1.109375 -5.65625 1.109375 -9.125 C 1.109375 -12.1875 2.195312 -14.601562 4.375 -16.375 C 6.5625 -18.144531 9.570312 -19.359375 13.40625 -20.015625 C 16.914062 -20.503906 19.382812 -21.003906 20.8125 -21.515625 C 22.238281 -22.023438 22.953125 -22.832031 22.953125 -23.9375 C 22.953125 -24.59375 22.503906 -25.203125 21.609375 -25.765625 C 20.710938 -26.335938 19.179688 -26.625 17.015625 -26.625 C 15.179688 -26.625 13.285156 -26.335938 11.328125 -25.765625 C 9.367188 -25.203125 7.65625 -24.265625 6.1875 -22.953125 C 5.738281 -22.304688 5.21875 -22.125 4.625 -22.40625 C 4.03125 -22.6875 3.753906 -23.28125 3.796875 -24.1875 C 3.835938 -24.632812 3.898438 -25.253906 3.984375 -26.046875 C 4.066406 -26.847656 4.15625 -27.65625 4.25 -28.46875 C 4.351562 -29.28125 4.425781 -29.890625 4.46875 -30.296875 C 4.59375 -31.273438 5 -31.910156 5.6875 -32.203125 C 9.082031 -33.265625 12.757812 -33.796875 16.71875 -33.796875 C 21.40625 -33.796875 25.046875 -32.785156 27.640625 -30.765625 C 30.234375 -28.742188 31.734375 -25.507812 32.140625 -21.0625 C 32.265625 -19.507812 32.382812 -17.585938 32.5 -15.296875 C 32.625 -13.015625 32.75 -10.691406 32.875 -8.328125 C 33 -5.960938 33.101562 -3.835938 33.1875 -1.953125 C 33.1875 -0.898438 32.613281 -0.269531 31.46875 -0.0625 C 31.0625 0.0625 30.550781 0.144531 29.9375 0.1875 C 29.320312 0.226562 28.726562 0.25 28.15625 0.25 C 27.664062 0.25 27.039062 0.226562 26.28125 0.1875 C 25.53125 0.144531 24.910156 0.0625 24.421875 -0.0625 C 23.890625 -0.144531 23.460938 -0.378906 23.140625 -0.765625 C 22.816406 -1.148438 22.691406 -1.609375 22.765625 -2.140625 C 22.847656 -2.546875 22.941406 -3.078125 23.046875 -3.734375 C 23.148438 -4.390625 23.222656 -5.039062 23.265625 -5.6875 C 23.347656 -6.257812 23.210938 -6.597656 22.859375 -6.703125 C 22.515625 -6.804688 22.222656 -6.59375 21.984375 -6.0625 C 21.035156 -4.0625 19.582031 -2.46875 17.625 -1.28125 C 15.664062 -0.101562 13.609375 0.484375 11.453125 0.484375 Z M 15.609375 -7.09375 C 16.628906 -7.09375 17.703125 -7.359375 18.828125 -7.890625 C 19.953125 -8.421875 20.898438 -9.1875 21.671875 -10.1875 C 22.441406 -11.1875 22.828125 -12.398438 22.828125 -13.828125 C 22.828125 -14.804688 22.53125 -15.613281 21.9375 -16.25 C 21.351562 -16.882812 20.347656 -17.203125 18.921875 -17.203125 C 17.492188 -17.203125 16.125 -16.9375 14.8125 -16.40625 C 13.507812 -15.875 12.445312 -15.148438 11.625 -14.234375 C 10.8125 -13.316406 10.40625 -12.222656 10.40625 -10.953125 C 10.40625 -9.566406 10.8125 -8.578125 11.625 -7.984375 C 12.445312 -7.390625 13.773438 -7.09375 15.609375 -7.09375 Z M 15.609375 -7.09375 "/></g></g></g><g fill="#3b28cc" fill-opacity="1"><g transform="translate(86.845113, 129.784359)"><g><path d="M 6.25 0.25 C 5.914062 0.25 5.398438 0.226562 4.703125 0.1875 C 4.015625 0.144531 3.40625 0.0820312 2.875 0 C 2.507812 -0.0820312 2.191406 -0.265625 1.921875 -0.546875 C 1.660156 -0.835938 1.53125 -1.226562 1.53125 -1.71875 C 1.53125 -5.269531 1.539062 -8.410156 1.5625 -11.140625 C 1.582031 -13.878906 1.613281 -16.378906 1.65625 -18.640625 C 1.695312 -20.898438 1.765625 -23.082031 1.859375 -25.1875 C 1.960938 -27.289062 2.097656 -29.484375 2.265625 -31.765625 C 2.390625 -32.671875 2.835938 -33.179688 3.609375 -33.296875 C 4.054688 -33.378906 4.585938 -33.441406 5.203125 -33.484375 C 5.816406 -33.523438 6.390625 -33.546875 6.921875 -33.546875 C 7.410156 -33.546875 8.019531 -33.523438 8.75 -33.484375 C 9.488281 -33.441406 10.039062 -33.378906 10.40625 -33.296875 C 10.894531 -33.222656 11.269531 -33.03125 11.53125 -32.71875 C 11.800781 -32.414062 11.875 -32.0625 11.75 -31.65625 C 11.550781 -30.875 11.378906 -30.175781 11.234375 -29.5625 C 11.085938 -28.957031 11.015625 -28.242188 11.015625 -27.421875 C 11.015625 -26.804688 11.175781 -26.445312 11.5 -26.34375 C 11.832031 -26.25 12.117188 -26.53125 12.359375 -27.1875 C 13.335938 -29.507812 14.734375 -31.179688 16.546875 -32.203125 C 18.367188 -33.222656 20.40625 -33.734375 22.65625 -33.734375 C 23.59375 -33.734375 24.570312 -33.617188 25.59375 -33.390625 C 26.613281 -33.171875 27.445312 -32.875 28.09375 -32.5 C 28.914062 -32.050781 29.328125 -31.421875 29.328125 -30.609375 C 29.328125 -29.347656 29.316406 -28.175781 29.296875 -27.09375 C 29.273438 -26.007812 29.222656 -24.816406 29.140625 -23.515625 C 29.097656 -22.734375 28.78125 -22.257812 28.1875 -22.09375 C 27.59375 -21.9375 27.070312 -22.101562 26.625 -22.59375 C 25.53125 -23.53125 24.378906 -24.171875 23.171875 -24.515625 C 21.960938 -24.859375 20.75 -25.03125 19.53125 -25.03125 C 18.019531 -25.03125 16.597656 -24.613281 15.265625 -23.78125 C 13.941406 -22.945312 12.867188 -21.742188 12.046875 -20.171875 C 11.234375 -18.597656 10.828125 -16.710938 10.828125 -14.515625 C 10.828125 -12.960938 10.878906 -11.359375 10.984375 -9.703125 C 11.085938 -8.046875 11.203125 -6.515625 11.328125 -5.109375 C 11.453125 -3.703125 11.535156 -2.570312 11.578125 -1.71875 C 11.609375 -1.1875 11.472656 -0.773438 11.171875 -0.484375 C 10.867188 -0.203125 10.53125 -0.0195312 10.15625 0.0625 C 9.707031 0.101562 9.101562 0.144531 8.34375 0.1875 C 7.59375 0.226562 6.894531 0.25 6.25 0.25 Z M 6.25 0.25 "/></g></g></g><g fill="#3b28cc" fill-opacity="1"><g transform="translate(117.207541, 129.784359)"><g><path d="M 11.453125 0.484375 C 8.347656 0.484375 5.847656 -0.25 3.953125 -1.71875 C 2.054688 -3.1875 1.109375 -5.65625 1.109375 -9.125 C 1.109375 -12.1875 2.195312 -14.601562 4.375 -16.375 C 6.5625 -18.144531 9.570312 -19.359375 13.40625 -20.015625 C 16.914062 -20.503906 19.382812 -21.003906 20.8125 -21.515625 C 22.238281 -22.023438 22.953125 -22.832031 22.953125 -23.9375 C 22.953125 -24.59375 22.503906 -25.203125 21.609375 -25.765625 C 20.710938 -26.335938 19.179688 -26.625 17.015625 -26.625 C 15.179688 -26.625 13.285156 -26.335938 11.328125 -25.765625 C 9.367188 -25.203125 7.65625 -24.265625 6.1875 -22.953125 C 5.738281 -22.304688 5.21875 -22.125 4.625 -22.40625 C 4.03125 -22.6875 3.753906 -23.28125 3.796875 -24.1875 C 3.835938 -24.632812 3.898438 -25.253906 3.984375 -26.046875 C 4.066406 -26.847656 4.15625 -27.65625 4.25 -28.46875 C 4.351562 -29.28125 4.425781 -29.890625 4.46875 -30.296875 C 4.59375 -31.273438 5 -31.910156 5.6875 -32.203125 C 9.082031 -33.265625 12.757812 -33.796875 16.71875 -33.796875 C 21.40625 -33.796875 25.046875 -32.785156 27.640625 -30.765625 C 30.234375 -28.742188 31.734375 -25.507812 32.140625 -21.0625 C 32.265625 -19.507812 32.382812 -17.585938 32.5 -15.296875 C 32.625 -13.015625 32.75 -10.691406 32.875 -8.328125 C 33 -5.960938 33.101562 -3.835938 33.1875 -1.953125 C 33.1875 -0.898438 32.613281 -0.269531 31.46875 -0.0625 C 31.0625 0.0625 30.550781 0.144531 29.9375 0.1875 C 29.320312 0.226562 28.726562 0.25 28.15625 0.25 C 27.664062 0.25 27.039062 0.226562 26.28125 0.1875 C 25.53125 0.144531 24.910156 0.0625 24.421875 -0.0625 C 23.890625 -0.144531 23.460938 -0.378906 23.140625 -0.765625 C 22.816406 -1.148438 22.691406 -1.609375 22.765625 -2.140625 C 22.847656 -2.546875 22.941406 -3.078125 23.046875 -3.734375 C 23.148438 -4.390625 23.222656 -5.039062 23.265625 -5.6875 C 23.347656 -6.257812 23.210938 -6.597656 22.859375 -6.703125 C 22.515625 -6.804688 22.222656 -6.59375 21.984375 -6.0625 C 21.035156 -4.0625 19.582031 -2.46875 17.625 -1.28125 C 15.664062 -0.101562 13.609375 0.484375 11.453125 0.484375 Z M 15.609375 -7.09375 C 16.628906 -7.09375 17.703125 -7.359375 18.828125 -7.890625 C 19.953125 -8.421875 20.898438 -9.1875 21.671875 -10.1875 C 22.441406 -11.1875 22.828125 -12.398438 22.828125 -13.828125 C 22.828125 -14.804688 22.53125 -15.613281 21.9375 -16.25 C 21.351562 -16.882812 20.347656 -17.203125 18.921875 -17.203125 C 17.492188 -17.203125 16.125 -16.9375 14.8125 -16.40625 C 13.507812 -15.875 12.445312 -15.148438 11.625 -14.234375 C 10.8125 -13.316406 10.40625 -12.222656 10.40625 -10.953125 C 10.40625 -9.566406 10.8125 -8.578125 11.625 -7.984375 C 12.445312 -7.390625 13.773438 -7.09375 15.609375 -7.09375 Z M 15.609375 -7.09375 "/></g></g></g><g fill="#3b28cc" fill-opacity="1"><g transform="translate(151.798017, 129.784359)"><g/></g></g><g fill="#d90368" fill-opacity="1"><g transform="translate(12.792903, 219.408349)"><g><path d="M 8.390625 -13.15625 L 10.125 -13.15625 C 11.75 -13.15625 12.960938 -13.472656 13.765625 -14.109375 C 14.566406 -14.753906 14.96875 -15.6875 14.96875 -16.90625 C 14.96875 -18.132812 14.628906 -19.046875 13.953125 -19.640625 C 13.285156 -20.234375 12.234375 -20.53125 10.796875 -20.53125 L 8.390625 -20.53125 Z M 20.28125 -17.09375 C 20.28125 -14.414062 19.445312 -12.367188 17.78125 -10.953125 C 16.113281 -9.535156 13.738281 -8.828125 10.65625 -8.828125 L 8.390625 -8.828125 L 8.390625 0 L 3.125 0 L 3.125 -24.84375 L 11.0625 -24.84375 C 14.070312 -24.84375 16.359375 -24.191406 17.921875 -22.890625 C 19.492188 -21.597656 20.28125 -19.664062 20.28125 -17.09375 Z M 20.28125 -17.09375 "/></g></g></g><g fill="#d90368" fill-opacity="1"><g transform="translate(34.632825, 219.408349)"><g><path d="M 13.328125 -19.359375 C 14.023438 -19.359375 14.609375 -19.304688 15.078125 -19.203125 L 14.6875 -14.34375 C 14.257812 -14.457031 13.75 -14.515625 13.15625 -14.515625 C 11.5 -14.515625 10.207031 -14.085938 9.28125 -13.234375 C 8.363281 -12.390625 7.90625 -11.203125 7.90625 -9.671875 L 7.90625 0 L 2.71875 0 L 2.71875 -19 L 6.640625 -19 L 7.40625 -15.796875 L 7.65625 -15.796875 C 8.25 -16.867188 9.046875 -17.726562 10.046875 -18.375 C 11.046875 -19.03125 12.140625 -19.359375 13.328125 -19.359375 Z M 13.328125 -19.359375 "/></g></g></g><g fill="#d90368" fill-opacity="1"><g transform="translate(50.426859, 219.408349)"><g><path d="M 10.578125 -15.671875 C 9.484375 -15.671875 8.625 -15.320312 8 -14.625 C 7.375 -13.925781 7.019531 -12.9375 6.9375 -11.65625 L 14.203125 -11.65625 C 14.179688 -12.9375 13.847656 -13.925781 13.203125 -14.625 C 12.554688 -15.320312 11.679688 -15.671875 10.578125 -15.671875 Z M 11.3125 0.34375 C 8.257812 0.34375 5.867188 -0.5 4.140625 -2.1875 C 2.421875 -3.875 1.5625 -6.265625 1.5625 -9.359375 C 1.5625 -12.546875 2.359375 -15.007812 3.953125 -16.75 C 5.546875 -18.488281 7.742188 -19.359375 10.546875 -19.359375 C 13.234375 -19.359375 15.320312 -18.59375 16.8125 -17.0625 C 18.3125 -15.53125 19.0625 -13.414062 19.0625 -10.71875 L 19.0625 -8.203125 L 6.8125 -8.203125 C 6.863281 -6.734375 7.296875 -5.582031 8.109375 -4.75 C 8.929688 -3.925781 10.078125 -3.515625 11.546875 -3.515625 C 12.691406 -3.515625 13.773438 -3.632812 14.796875 -3.875 C 15.816406 -4.113281 16.882812 -4.492188 18 -5.015625 L 18 -1 C 17.09375 -0.550781 16.125 -0.21875 15.09375 0 C 14.0625 0.226562 12.800781 0.34375 11.3125 0.34375 Z M 11.3125 0.34375 "/></g></g></g><g fill="#d90368" fill-opacity="1"><g transform="translate(70.976086, 219.408349)"><g><path d="M 13.21875 -15.109375 L 8.734375 -15.109375 L 8.734375 0 L 3.546875 0 L 3.546875 -15.109375 L 0.703125 -15.109375 L 0.703125 -17.609375 L 3.546875 -19 L 3.546875 -20.390625 C 3.546875 -22.554688 4.078125 -24.132812 5.140625 -25.125 C 6.210938 -26.125 7.921875 -26.625 10.265625 -26.625 C 12.054688 -26.625 13.644531 -26.359375 15.03125 -25.828125 L 13.71875 -22.015625 C 12.664062 -22.347656 11.703125 -22.515625 10.828125 -22.515625 C 10.085938 -22.515625 9.550781 -22.296875 9.21875 -21.859375 C 8.894531 -21.421875 8.734375 -20.863281 8.734375 -20.1875 L 8.734375 -19 L 13.21875 -19 Z M 13.21875 -15.109375 "/></g></g></g><g fill="#d90368" fill-opacity="1"><g transform="translate(84.443471, 219.408349)"><g><path d="M 10.578125 -15.671875 C 9.484375 -15.671875 8.625 -15.320312 8 -14.625 C 7.375 -13.925781 7.019531 -12.9375 6.9375 -11.65625 L 14.203125 -11.65625 C 14.179688 -12.9375 13.847656 -13.925781 13.203125 -14.625 C 12.554688 -15.320312 11.679688 -15.671875 10.578125 -15.671875 Z M 11.3125 0.34375 C 8.257812 0.34375 5.867188 -0.5 4.140625 -2.1875 C 2.421875 -3.875 1.5625 -6.265625 1.5625 -9.359375 C 1.5625 -12.546875 2.359375 -15.007812 3.953125 -16.75 C 5.546875 -18.488281 7.742188 -19.359375 10.546875 -19.359375 C 13.234375 -19.359375 15.320312 -18.59375 16.8125 -17.0625 C 18.3125 -15.53125 19.0625 -13.414062 19.0625 -10.71875 L 19.0625 -8.203125 L 6.8125 -8.203125 C 6.863281 -6.734375 7.296875 -5.582031 8.109375 -4.75 C 8.929688 -3.925781 10.078125 -3.515625 11.546875 -3.515625 C 12.691406 -3.515625 13.773438 -3.632812 14.796875 -3.875 C 15.816406 -4.113281 16.882812 -4.492188 18 -5.015625 L 18 -1 C 17.09375 -0.550781 16.125 -0.21875 15.09375 0 C 14.0625 0.226562 12.800781 0.34375 11.3125 0.34375 Z M 11.3125 0.34375 "/></g></g></g><g fill="#d90368" fill-opacity="1"><g transform="translate(104.992699, 219.408349)"><g><path d="M 2.5 -23.90625 C 2.5 -25.59375 3.4375 -26.4375 5.3125 -26.4375 C 7.195312 -26.4375 8.140625 -25.59375 8.140625 -23.90625 C 8.140625 -23.101562 7.90625 -22.476562 7.4375 -22.03125 C 6.96875 -21.582031 6.257812 -21.359375 5.3125 -21.359375 C 3.4375 -21.359375 2.5 -22.207031 2.5 -23.90625 Z M 7.90625 0 L 2.71875 0 L 2.71875 -19 L 7.90625 -19 Z M 7.90625 0 "/></g></g></g><g fill="#d90368" fill-opacity="1"><g transform="translate(115.606969, 219.408349)"><g><path d="M 10.71875 -3.78125 C 11.625 -3.78125 12.710938 -3.984375 13.984375 -4.390625 L 13.984375 -0.53125 C 12.691406 0.0507812 11.101562 0.34375 9.21875 0.34375 C 7.144531 0.34375 5.632812 -0.175781 4.6875 -1.21875 C 3.75 -2.269531 3.28125 -3.847656 3.28125 -5.953125 L 3.28125 -15.109375 L 0.796875 -15.109375 L 0.796875 -17.296875 L 3.65625 -19.03125 L 5.140625 -23.046875 L 8.46875 -23.046875 L 8.46875 -19 L 13.78125 -19 L 13.78125 -15.109375 L 8.46875 -15.109375 L 8.46875 -5.953125 C 8.46875 -5.210938 8.671875 -4.664062 9.078125 -4.3125 C 9.492188 -3.957031 10.039062 -3.78125 10.71875 -3.78125 Z M 10.71875 -3.78125 "/></g></g></g><g fill="#d90368" fill-opacity="1"><g transform="translate(130.704706, 219.408349)"><g><path d="M 14.78125 0 L 13.78125 -2.578125 L 13.640625 -2.578125 C 12.765625 -1.484375 11.863281 -0.722656 10.9375 -0.296875 C 10.019531 0.128906 8.820312 0.34375 7.34375 0.34375 C 5.519531 0.34375 4.082031 -0.175781 3.03125 -1.21875 C 1.988281 -2.257812 1.46875 -3.742188 1.46875 -5.671875 C 1.46875 -7.691406 2.171875 -9.179688 3.578125 -10.140625 C 4.984375 -11.097656 7.109375 -11.625 9.953125 -11.71875 L 13.25 -11.828125 L 13.25 -12.65625 C 13.25 -14.582031 12.265625 -15.546875 10.296875 -15.546875 C 8.773438 -15.546875 6.988281 -15.085938 4.9375 -14.171875 L 3.234375 -17.671875 C 5.410156 -18.816406 7.832031 -19.390625 10.5 -19.390625 C 13.050781 -19.390625 15.003906 -18.832031 16.359375 -17.71875 C 17.722656 -16.613281 18.40625 -14.925781 18.40625 -12.65625 L 18.40625 0 Z M 13.25 -8.796875 L 11.25 -8.734375 C 9.738281 -8.691406 8.613281 -8.421875 7.875 -7.921875 C 7.144531 -7.421875 6.78125 -6.660156 6.78125 -5.640625 C 6.78125 -4.179688 7.617188 -3.453125 9.296875 -3.453125 C 10.492188 -3.453125 11.453125 -3.796875 12.171875 -4.484375 C 12.890625 -5.171875 13.25 -6.085938 13.25 -7.234375 Z M 13.25 -8.796875 "/></g></g></g><g fill="#d90368" fill-opacity="1"><g transform="translate(228.509229, 180.52156)"><g><path d="M 32.96875 0.46875 C 31.789062 0.46875 30.296875 0.445312 28.484375 0.40625 C 26.671875 0.375 24.875 0.316406 23.09375 0.234375 C 21.320312 0.160156 19.847656 0.0820312 18.671875 0 C 17.804688 -0.15625 17.035156 -0.609375 16.359375 -1.359375 C 15.691406 -2.109375 15.398438 -2.957031 15.484375 -3.90625 C 16.503906 -12.332031 17.3125 -20.503906 17.90625 -28.421875 C 18.5 -36.335938 18.753906 -44 18.671875 -51.40625 C 18.671875 -53.6875 18.453125 -55.378906 18.015625 -56.484375 C 17.585938 -57.585938 16.585938 -58.179688 15.015625 -58.265625 C 13.742188 -58.265625 12.242188 -57.867188 10.515625 -57.078125 C 8.785156 -56.285156 7.210938 -55.5 5.796875 -54.71875 C 4.847656 -54.082031 3.84375 -53.960938 2.78125 -54.359375 C 1.71875 -54.753906 1.1875 -55.695312 1.1875 -57.1875 C 1.1875 -60.894531 1.203125 -64.363281 1.234375 -67.59375 C 1.273438 -70.820312 1.414062 -74.050781 1.65625 -77.28125 C 1.8125 -79.332031 2.875 -80.554688 4.84375 -80.953125 C 7.445312 -81.421875 10.398438 -81.8125 13.703125 -82.125 C 17.015625 -82.445312 20.265625 -82.703125 23.453125 -82.890625 C 26.648438 -83.085938 29.3125 -83.1875 31.4375 -83.1875 C 32.925781 -83.1875 34.796875 -83.164062 37.046875 -83.125 C 39.296875 -83.09375 41.285156 -82.957031 43.015625 -82.71875 C 43.878906 -82.644531 44.609375 -82.3125 45.203125 -81.71875 C 45.796875 -81.125 46.128906 -80.394531 46.203125 -79.53125 C 46.753906 -72.28125 47.207031 -64.28125 47.5625 -55.53125 C 47.914062 -46.789062 48.191406 -37.910156 48.390625 -28.890625 C 48.585938 -19.867188 48.6875 -11.300781 48.6875 -3.1875 C 48.6875 -2.320312 48.347656 -1.613281 47.671875 -1.0625 C 47.003906 -0.507812 46.238281 -0.15625 45.375 0 C 43.644531 0.15625 41.535156 0.269531 39.046875 0.34375 C 36.566406 0.425781 34.539062 0.46875 32.96875 0.46875 Z M 32.96875 0.46875 "/></g></g></g><g fill="#d90368" fill-opacity="1"><g transform="translate(279.912461, 180.52156)"><g><path d="M 40.0625 0.46875 C 37.613281 0.46875 34.851562 0.445312 31.78125 0.40625 C 28.707031 0.375 25.613281 0.335938 22.5 0.296875 C 19.394531 0.253906 16.503906 0.210938 13.828125 0.171875 C 11.148438 0.140625 8.941406 0.0820312 7.203125 0 C 3.816406 -0.238281 2.085938 -1.734375 2.015625 -4.484375 C 2.015625 -6.453125 2.050781 -8.753906 2.125 -11.390625 C 2.207031 -14.035156 2.285156 -16.460938 2.359375 -18.671875 C 2.679688 -22.453125 3.960938 -25.757812 6.203125 -28.59375 C 8.453125 -31.4375 11.289062 -33.921875 14.71875 -36.046875 C 18.144531 -38.171875 21.726562 -40.078125 25.46875 -41.765625 C 29.207031 -43.460938 32.710938 -45.0625 35.984375 -46.5625 C 39.253906 -48.0625 41.929688 -49.554688 44.015625 -51.046875 C 46.109375 -52.546875 47.15625 -54.203125 47.15625 -56.015625 C 47.15625 -57.984375 45.972656 -59.457031 43.609375 -60.4375 C 41.242188 -61.425781 38.25 -61.921875 34.625 -61.921875 C 32.1875 -61.921875 29.546875 -61.546875 26.703125 -60.796875 C 23.867188 -60.046875 21.128906 -59.039062 18.484375 -57.78125 C 15.847656 -56.519531 13.546875 -55.144531 11.578125 -53.65625 C 10.554688 -52.625 9.453125 -52.320312 8.265625 -52.75 C 7.085938 -53.1875 6.539062 -54.351562 6.625 -56.25 C 6.78125 -59.082031 7.015625 -62.425781 7.328125 -66.28125 C 7.640625 -70.144531 7.953125 -73.613281 8.265625 -76.6875 C 8.503906 -78.1875 9.332031 -79.253906 10.75 -79.890625 C 15.164062 -81.148438 20.171875 -82.09375 25.765625 -82.71875 C 31.359375 -83.351562 36.554688 -83.671875 41.359375 -83.671875 C 52.703125 -83.671875 61.503906 -81.9375 67.765625 -78.46875 C 74.035156 -75 77.171875 -69.363281 77.171875 -61.5625 C 77.171875 -57.550781 76.164062 -54.066406 74.15625 -51.109375 C 72.144531 -48.148438 69.5625 -45.609375 66.40625 -43.484375 C 63.257812 -41.359375 59.910156 -39.503906 56.359375 -37.921875 C 52.816406 -36.347656 49.453125 -34.890625 46.265625 -33.546875 C 43.078125 -32.210938 40.492188 -30.894531 38.515625 -29.59375 C 36.546875 -28.300781 35.5625 -26.863281 35.5625 -25.28125 C 35.644531 -23.632812 36.59375 -22.414062 38.40625 -21.625 C 40.21875 -20.832031 43.523438 -20.4375 48.328125 -20.4375 C 53.210938 -20.4375 57.898438 -21.203125 62.390625 -22.734375 C 66.878906 -24.273438 70.859375 -26.503906 74.328125 -29.421875 C 75.515625 -30.609375 76.738281 -30.984375 78 -30.546875 C 79.257812 -30.109375 79.890625 -28.984375 79.890625 -27.171875 C 79.890625 -23.554688 79.867188 -19.582031 79.828125 -15.25 C 79.785156 -10.914062 79.6875 -7.015625 79.53125 -3.546875 C 79.53125 -2.753906 79.3125 -1.984375 78.875 -1.234375 C 78.445312 -0.492188 77.800781 -0.0820312 76.9375 0 C 73.226562 0.238281 69.128906 0.394531 64.640625 0.46875 C 60.148438 0.550781 55.738281 0.570312 51.40625 0.53125 C 47.070312 0.488281 43.289062 0.46875 40.0625 0.46875 Z M 40.0625 0.46875 "/></g></g></g><g fill="#3b28cc" fill-opacity="1"><g transform="translate(12.714272, 178.178565)"><g><path d="M 20.515625 0.484375 C 18.753906 0.484375 16.769531 0.347656 14.5625 0.078125 C 12.363281 -0.179688 10.191406 -0.554688 8.046875 -1.046875 C 5.910156 -1.535156 4.003906 -2.0625 2.328125 -2.625 C 1.628906 -2.875 1.28125 -3.488281 1.28125 -4.46875 C 1.28125 -5.8125 1.289062 -7.144531 1.3125 -8.46875 C 1.332031 -9.800781 1.363281 -11.140625 1.40625 -12.484375 C 1.40625 -13.347656 1.691406 -13.878906 2.265625 -14.078125 C 2.835938 -14.285156 3.347656 -14.101562 3.796875 -13.53125 C 5.835938 -11.320312 8.296875 -9.726562 11.171875 -8.75 C 14.046875 -7.769531 17.054688 -7.28125 20.203125 -7.28125 C 22.898438 -7.28125 25.050781 -7.675781 26.65625 -8.46875 C 28.269531 -9.269531 29.078125 -10.445312 29.078125 -12 C 29.078125 -13.1875 28.597656 -14.1875 27.640625 -15 C 26.679688 -15.8125 25.40625 -16.535156 23.8125 -17.171875 C 22.21875 -17.804688 20.472656 -18.40625 18.578125 -18.96875 C 16.679688 -19.539062 14.789062 -20.164062 12.90625 -20.84375 C 11.03125 -21.519531 9.296875 -22.347656 7.703125 -23.328125 C 6.117188 -24.304688 4.847656 -25.5 3.890625 -26.90625 C 2.929688 -28.3125 2.453125 -30.015625 2.453125 -32.015625 C 2.453125 -34.585938 3.242188 -36.707031 4.828125 -38.375 C 6.421875 -40.050781 8.582031 -41.296875 11.3125 -42.109375 C 14.050781 -42.929688 17.117188 -43.34375 20.515625 -43.34375 C 22.835938 -43.34375 25.265625 -43.117188 27.796875 -42.671875 C 30.328125 -42.222656 32.570312 -41.566406 34.53125 -40.703125 C 35.257812 -40.296875 35.625 -39.707031 35.625 -38.9375 L 35.625 -32.078125 C 35.625 -31.304688 35.347656 -30.785156 34.796875 -30.515625 C 34.242188 -30.253906 33.742188 -30.390625 33.296875 -30.921875 C 31.585938 -32.460938 29.648438 -33.628906 27.484375 -34.421875 C 25.328125 -35.222656 23.144531 -35.625 20.9375 -35.625 C 19.425781 -35.625 17.984375 -35.472656 16.609375 -35.171875 C 15.242188 -34.867188 14.132812 -34.410156 13.28125 -33.796875 C 12.425781 -33.179688 12 -32.382812 12 -31.40625 C 12 -30.300781 12.488281 -29.359375 13.46875 -28.578125 C 14.445312 -27.804688 15.734375 -27.113281 17.328125 -26.5 C 18.921875 -25.894531 20.675781 -25.285156 22.59375 -24.671875 C 24.507812 -24.054688 26.414062 -23.390625 28.3125 -22.671875 C 30.207031 -21.960938 31.953125 -21.109375 33.546875 -20.109375 C 35.140625 -19.109375 36.425781 -17.914062 37.40625 -16.53125 C 38.382812 -15.144531 38.875 -13.472656 38.875 -11.515625 C 38.875 -7.753906 37.238281 -4.8125 33.96875 -2.6875 C 30.707031 -0.570312 26.222656 0.484375 20.515625 0.484375 Z M 20.515625 0.484375 "/></g></g></g><g fill="#3b28cc" fill-opacity="1"><g transform="translate(52.809332, 178.178565)"><g><path d="M 11.453125 0.484375 C 8.347656 0.484375 5.847656 -0.25 3.953125 -1.71875 C 2.054688 -3.1875 1.109375 -5.65625 1.109375 -9.125 C 1.109375 -12.1875 2.195312 -14.601562 4.375 -16.375 C 6.5625 -18.144531 9.570312 -19.359375 13.40625 -20.015625 C 16.914062 -20.503906 19.382812 -21.003906 20.8125 -21.515625 C 22.238281 -22.023438 22.953125 -22.832031 22.953125 -23.9375 C 22.953125 -24.59375 22.503906 -25.203125 21.609375 -25.765625 C 20.710938 -26.335938 19.179688 -26.625 17.015625 -26.625 C 15.179688 -26.625 13.285156 -26.335938 11.328125 -25.765625 C 9.367188 -25.203125 7.65625 -24.265625 6.1875 -22.953125 C 5.738281 -22.304688 5.21875 -22.125 4.625 -22.40625 C 4.03125 -22.6875 3.753906 -23.28125 3.796875 -24.1875 C 3.835938 -24.632812 3.898438 -25.253906 3.984375 -26.046875 C 4.066406 -26.847656 4.15625 -27.65625 4.25 -28.46875 C 4.351562 -29.28125 4.425781 -29.890625 4.46875 -30.296875 C 4.59375 -31.273438 5 -31.910156 5.6875 -32.203125 C 9.082031 -33.265625 12.757812 -33.796875 16.71875 -33.796875 C 21.40625 -33.796875 25.046875 -32.785156 27.640625 -30.765625 C 30.234375 -28.742188 31.734375 -25.507812 32.140625 -21.0625 C 32.265625 -19.507812 32.382812 -17.585938 32.5 -15.296875 C 32.625 -13.015625 32.75 -10.691406 32.875 -8.328125 C 33 -5.960938 33.101562 -3.835938 33.1875 -1.953125 C 33.1875 -0.898438 32.613281 -0.269531 31.46875 -0.0625 C 31.0625 0.0625 30.550781 0.144531 29.9375 0.1875 C 29.320312 0.226562 28.726562 0.25 28.15625 0.25 C 27.664062 0.25 27.039062 0.226562 26.28125 0.1875 C 25.53125 0.144531 24.910156 0.0625 24.421875 -0.0625 C 23.890625 -0.144531 23.460938 -0.378906 23.140625 -0.765625 C 22.816406 -1.148438 22.691406 -1.609375 22.765625 -2.140625 C 22.847656 -2.546875 22.941406 -3.078125 23.046875 -3.734375 C 23.148438 -4.390625 23.222656 -5.039062 23.265625 -5.6875 C 23.347656 -6.257812 23.210938 -6.597656 22.859375 -6.703125 C 22.515625 -6.804688 22.222656 -6.59375 21.984375 -6.0625 C 21.035156 -4.0625 19.582031 -2.46875 17.625 -1.28125 C 15.664062 -0.101562 13.609375 0.484375 11.453125 0.484375 Z M 15.609375 -7.09375 C 16.628906 -7.09375 17.703125 -7.359375 18.828125 -7.890625 C 19.953125 -8.421875 20.898438 -9.1875 21.671875 -10.1875 C 22.441406 -11.1875 22.828125 -12.398438 22.828125 -13.828125 C 22.828125 -14.804688 22.53125 -15.613281 21.9375 -16.25 C 21.351562 -16.882812 20.347656 -17.203125 18.921875 -17.203125 C 17.492188 -17.203125 16.125 -16.9375 14.8125 -16.40625 C 13.507812 -15.875 12.445312 -15.148438 11.625 -14.234375 C 10.8125 -13.316406 10.40625 -12.222656 10.40625 -10.953125 C 10.40625 -9.566406 10.8125 -8.578125 11.625 -7.984375 C 12.445312 -7.390625 13.773438 -7.09375 15.609375 -7.09375 Z M 15.609375 -7.09375 "/></g></g></g><g fill="#3b28cc" fill-opacity="1"><g transform="translate(87.395144, 178.178565)"><g><path d="M 6.25 0.25 C 5.914062 0.25 5.398438 0.226562 4.703125 0.1875 C 4.015625 0.144531 3.40625 0.0820312 2.875 0 C 2.507812 -0.0820312 2.191406 -0.265625 1.921875 -0.546875 C 1.660156 -0.835938 1.53125 -1.226562 1.53125 -1.71875 C 1.53125 -5.269531 1.539062 -8.410156 1.5625 -11.140625 C 1.582031 -13.878906 1.613281 -16.378906 1.65625 -18.640625 C 1.695312 -20.898438 1.765625 -23.082031 1.859375 -25.1875 C 1.960938 -27.289062 2.097656 -29.484375 2.265625 -31.765625 C 2.390625 -32.671875 2.835938 -33.179688 3.609375 -33.296875 C 4.054688 -33.378906 4.585938 -33.441406 5.203125 -33.484375 C 5.816406 -33.523438 6.390625 -33.546875 6.921875 -33.546875 C 7.410156 -33.546875 8.019531 -33.523438 8.75 -33.484375 C 9.488281 -33.441406 10.039062 -33.378906 10.40625 -33.296875 C 10.894531 -33.222656 11.269531 -33.03125 11.53125 -32.71875 C 11.800781 -32.414062 11.875 -32.0625 11.75 -31.65625 C 11.550781 -30.875 11.378906 -30.175781 11.234375 -29.5625 C 11.085938 -28.957031 11.015625 -28.242188 11.015625 -27.421875 C 11.015625 -26.804688 11.175781 -26.445312 11.5 -26.34375 C 11.832031 -26.25 12.117188 -26.53125 12.359375 -27.1875 C 13.335938 -29.507812 14.734375 -31.179688 16.546875 -32.203125 C 18.367188 -33.222656 20.40625 -33.734375 22.65625 -33.734375 C 23.59375 -33.734375 24.570312 -33.617188 25.59375 -33.390625 C 26.613281 -33.171875 27.445312 -32.875 28.09375 -32.5 C 28.914062 -32.050781 29.328125 -31.421875 29.328125 -30.609375 C 29.328125 -29.347656 29.316406 -28.175781 29.296875 -27.09375 C 29.273438 -26.007812 29.222656 -24.816406 29.140625 -23.515625 C 29.097656 -22.734375 28.78125 -22.257812 28.1875 -22.09375 C 27.59375 -21.9375 27.070312 -22.101562 26.625 -22.59375 C 25.53125 -23.53125 24.378906 -24.171875 23.171875 -24.515625 C 21.960938 -24.859375 20.75 -25.03125 19.53125 -25.03125 C 18.019531 -25.03125 16.597656 -24.613281 15.265625 -23.78125 C 13.941406 -22.945312 12.867188 -21.742188 12.046875 -20.171875 C 11.234375 -18.597656 10.828125 -16.710938 10.828125 -14.515625 C 10.828125 -12.960938 10.878906 -11.359375 10.984375 -9.703125 C 11.085938 -8.046875 11.203125 -6.515625 11.328125 -5.109375 C 11.453125 -3.703125 11.535156 -2.570312 11.578125 -1.71875 C 11.609375 -1.1875 11.472656 -0.773438 11.171875 -0.484375 C 10.867188 -0.203125 10.53125 -0.0195312 10.15625 0.0625 C 9.707031 0.101562 9.101562 0.144531 8.34375 0.1875 C 7.59375 0.226562 6.894531 0.25 6.25 0.25 Z M 6.25 0.25 "/></g></g></g><g fill="#3b28cc" fill-opacity="1"><g transform="translate(117.757197, 178.178565)"><g><path d="M 11.453125 0.484375 C 8.347656 0.484375 5.847656 -0.25 3.953125 -1.71875 C 2.054688 -3.1875 1.109375 -5.65625 1.109375 -9.125 C 1.109375 -12.1875 2.195312 -14.601562 4.375 -16.375 C 6.5625 -18.144531 9.570312 -19.359375 13.40625 -20.015625 C 16.914062 -20.503906 19.382812 -21.003906 20.8125 -21.515625 C 22.238281 -22.023438 22.953125 -22.832031 22.953125 -23.9375 C 22.953125 -24.59375 22.503906 -25.203125 21.609375 -25.765625 C 20.710938 -26.335938 19.179688 -26.625 17.015625 -26.625 C 15.179688 -26.625 13.285156 -26.335938 11.328125 -25.765625 C 9.367188 -25.203125 7.65625 -24.265625 6.1875 -22.953125 C 5.738281 -22.304688 5.21875 -22.125 4.625 -22.40625 C 4.03125 -22.6875 3.753906 -23.28125 3.796875 -24.1875 C 3.835938 -24.632812 3.898438 -25.253906 3.984375 -26.046875 C 4.066406 -26.847656 4.15625 -27.65625 4.25 -28.46875 C 4.351562 -29.28125 4.425781 -29.890625 4.46875 -30.296875 C 4.59375 -31.273438 5 -31.910156 5.6875 -32.203125 C 9.082031 -33.265625 12.757812 -33.796875 16.71875 -33.796875 C 21.40625 -33.796875 25.046875 -32.785156 27.640625 -30.765625 C 30.234375 -28.742188 31.734375 -25.507812 32.140625 -21.0625 C 32.265625 -19.507812 32.382812 -17.585938 32.5 -15.296875 C 32.625 -13.015625 32.75 -10.691406 32.875 -8.328125 C 33 -5.960938 33.101562 -3.835938 33.1875 -1.953125 C 33.1875 -0.898438 32.613281 -0.269531 31.46875 -0.0625 C 31.0625 0.0625 30.550781 0.144531 29.9375 0.1875 C 29.320312 0.226562 28.726562 0.25 28.15625 0.25 C 27.664062 0.25 27.039062 0.226562 26.28125 0.1875 C 25.53125 0.144531 24.910156 0.0625 24.421875 -0.0625 C 23.890625 -0.144531 23.460938 -0.378906 23.140625 -0.765625 C 22.816406 -1.148438 22.691406 -1.609375 22.765625 -2.140625 C 22.847656 -2.546875 22.941406 -3.078125 23.046875 -3.734375 C 23.148438 -4.390625 23.222656 -5.039062 23.265625 -5.6875 C 23.347656 -6.257812 23.210938 -6.597656 22.859375 -6.703125 C 22.515625 -6.804688 22.222656 -6.59375 21.984375 -6.0625 C 21.035156 -4.0625 19.582031 -2.46875 17.625 -1.28125 C 15.664062 -0.101562 13.609375 0.484375 11.453125 0.484375 Z M 15.609375 -7.09375 C 16.628906 -7.09375 17.703125 -7.359375 18.828125 -7.890625 C 19.953125 -8.421875 20.898438 -9.1875 21.671875 -10.1875 C 22.441406 -11.1875 22.828125 -12.398438 22.828125 -13.828125 C 22.828125 -14.804688 22.53125 -15.613281 21.9375 -16.25 C 21.351562 -16.882812 20.347656 -17.203125 18.921875 -17.203125 C 17.492188 -17.203125 16.125 -16.9375 14.8125 -16.40625 C 13.507812 -15.875 12.445312 -15.148438 11.625 -14.234375 C 10.8125 -13.316406 10.40625 -12.222656 10.40625 -10.953125 C 10.40625 -9.566406 10.8125 -8.578125 11.625 -7.984375 C 12.445312 -7.390625 13.773438 -7.09375 15.609375 -7.09375 Z M 15.609375 -7.09375 "/></g></g></g><g fill="#3b28cc" fill-opacity="1"><g transform="translate(152.34301, 178.178565)"><g><path d="M 6.609375 -36.484375 C 5.097656 -36.484375 3.863281 -36.890625 2.90625 -37.703125 C 1.945312 -38.523438 1.46875 -39.566406 1.46875 -40.828125 C 1.46875 -42.140625 1.945312 -43.203125 2.90625 -44.015625 C 3.863281 -44.828125 5.097656 -45.234375 6.609375 -45.234375 C 8.160156 -45.234375 9.414062 -44.828125 10.375 -44.015625 C 11.332031 -43.203125 11.8125 -42.140625 11.8125 -40.828125 C 11.8125 -39.566406 11.332031 -38.523438 10.375 -37.703125 C 9.414062 -36.890625 8.160156 -36.484375 6.609375 -36.484375 Z M 6.734375 0.25 C 6.410156 0.25 5.878906 0.238281 5.140625 0.21875 C 4.410156 0.195312 3.78125 0.125 3.25 0 C 2.875 -0.0820312 2.550781 -0.273438 2.28125 -0.578125 C 2.019531 -0.890625 1.890625 -1.289062 1.890625 -1.78125 C 1.890625 -5.320312 1.898438 -8.453125 1.921875 -11.171875 C 1.941406 -13.890625 1.972656 -16.378906 2.015625 -18.640625 C 2.054688 -20.898438 2.117188 -23.082031 2.203125 -25.1875 C 2.285156 -27.289062 2.410156 -29.484375 2.578125 -31.765625 C 2.609375 -32.296875 2.726562 -32.671875 2.9375 -32.890625 C 3.144531 -33.117188 3.453125 -33.253906 3.859375 -33.296875 C 4.304688 -33.378906 4.828125 -33.441406 5.421875 -33.484375 C 6.015625 -33.523438 6.472656 -33.546875 6.796875 -33.546875 C 7.078125 -33.546875 7.484375 -33.523438 8.015625 -33.484375 C 8.546875 -33.441406 9.015625 -33.378906 9.421875 -33.296875 C 9.835938 -33.222656 10.144531 -33.082031 10.34375 -32.875 C 10.550781 -32.664062 10.675781 -32.296875 10.71875 -31.765625 C 10.875 -29.484375 10.992188 -27.289062 11.078125 -25.1875 C 11.160156 -23.082031 11.222656 -20.898438 11.265625 -18.640625 C 11.304688 -16.378906 11.335938 -13.878906 11.359375 -11.140625 C 11.378906 -8.410156 11.390625 -5.269531 11.390625 -1.71875 C 11.390625 -1.226562 11.253906 -0.835938 10.984375 -0.546875 C 10.722656 -0.265625 10.410156 -0.0820312 10.046875 0 C 9.515625 0.0820312 8.910156 0.144531 8.234375 0.1875 C 7.554688 0.226562 7.054688 0.25 6.734375 0.25 Z M 6.734375 0.25 "/></g></g></g><g fill="#3b28cc" fill-opacity="1"><g transform="translate(165.626413, 178.178565)"><g><path d="M 18.671875 0.25 C 18.097656 0.25 17.382812 0.238281 16.53125 0.21875 C 15.675781 0.195312 14.921875 0.125 14.265625 0 C 13.941406 -0.0820312 13.613281 -0.234375 13.28125 -0.453125 C 12.957031 -0.679688 12.710938 -0.914062 12.546875 -1.15625 C 10.992188 -3.851562 9.492188 -6.84375 8.046875 -10.125 C 6.597656 -13.414062 5.28125 -16.875 4.09375 -20.5 C 2.914062 -24.132812 1.878906 -27.769531 0.984375 -31.40625 C 0.859375 -31.851562 0.90625 -32.269531 1.125 -32.65625 C 1.351562 -33.039062 1.734375 -33.253906 2.265625 -33.296875 C 2.710938 -33.378906 3.289062 -33.441406 4 -33.484375 C 4.71875 -33.523438 5.28125 -33.546875 5.6875 -33.546875 C 6.019531 -33.546875 6.65625 -33.523438 7.59375 -33.484375 C 8.53125 -33.441406 9.222656 -33.378906 9.671875 -33.296875 C 10.441406 -33.179688 10.910156 -32.710938 11.078125 -31.890625 C 11.410156 -27.441406 12.226562 -23.3125 13.53125 -19.5 C 14.832031 -15.6875 16.117188 -12.453125 17.390625 -9.796875 C 17.796875 -9.015625 18.210938 -8.625 18.640625 -8.625 C 19.066406 -8.625 19.484375 -9.015625 19.890625 -9.796875 C 20.753906 -11.585938 21.625 -13.644531 22.5 -15.96875 C 23.375 -18.300781 24.144531 -20.8125 24.8125 -23.5 C 25.488281 -26.195312 25.929688 -28.992188 26.140625 -31.890625 C 26.304688 -32.710938 26.773438 -33.179688 27.546875 -33.296875 C 28.035156 -33.378906 28.726562 -33.441406 29.625 -33.484375 C 30.53125 -33.523438 31.164062 -33.546875 31.53125 -33.546875 C 32.019531 -33.546875 32.609375 -33.523438 33.296875 -33.484375 C 33.992188 -33.441406 34.546875 -33.378906 34.953125 -33.296875 C 35.523438 -33.253906 35.910156 -33.039062 36.109375 -32.65625 C 36.316406 -32.269531 36.359375 -31.851562 36.234375 -31.40625 C 34.722656 -25.851562 32.988281 -20.441406 31.03125 -15.171875 C 29.070312 -9.910156 26.929688 -5.238281 24.609375 -1.15625 C 24.441406 -0.914062 24.207031 -0.679688 23.90625 -0.453125 C 23.601562 -0.234375 23.285156 -0.0820312 22.953125 0 C 22.304688 0.125 21.550781 0.195312 20.6875 0.21875 C 19.832031 0.238281 19.160156 0.25 18.671875 0.25 Z M 18.671875 0.25 "/></g></g></g><g fill="#3b28cc" fill-opacity="1"><g transform="translate(202.844424, 178.178565)"><g><path d="M 11.453125 0.484375 C 8.347656 0.484375 5.847656 -0.25 3.953125 -1.71875 C 2.054688 -3.1875 1.109375 -5.65625 1.109375 -9.125 C 1.109375 -12.1875 2.195312 -14.601562 4.375 -16.375 C 6.5625 -18.144531 9.570312 -19.359375 13.40625 -20.015625 C 16.914062 -20.503906 19.382812 -21.003906 20.8125 -21.515625 C 22.238281 -22.023438 22.953125 -22.832031 22.953125 -23.9375 C 22.953125 -24.59375 22.503906 -25.203125 21.609375 -25.765625 C 20.710938 -26.335938 19.179688 -26.625 17.015625 -26.625 C 15.179688 -26.625 13.285156 -26.335938 11.328125 -25.765625 C 9.367188 -25.203125 7.65625 -24.265625 6.1875 -22.953125 C 5.738281 -22.304688 5.21875 -22.125 4.625 -22.40625 C 4.03125 -22.6875 3.753906 -23.28125 3.796875 -24.1875 C 3.835938 -24.632812 3.898438 -25.253906 3.984375 -26.046875 C 4.066406 -26.847656 4.15625 -27.65625 4.25 -28.46875 C 4.351562 -29.28125 4.425781 -29.890625 4.46875 -30.296875 C 4.59375 -31.273438 5 -31.910156 5.6875 -32.203125 C 9.082031 -33.265625 12.757812 -33.796875 16.71875 -33.796875 C 21.40625 -33.796875 25.046875 -32.785156 27.640625 -30.765625 C 30.234375 -28.742188 31.734375 -25.507812 32.140625 -21.0625 C 32.265625 -19.507812 32.382812 -17.585938 32.5 -15.296875 C 32.625 -13.015625 32.75 -10.691406 32.875 -8.328125 C 33 -5.960938 33.101562 -3.835938 33.1875 -1.953125 C 33.1875 -0.898438 32.613281 -0.269531 31.46875 -0.0625 C 31.0625 0.0625 30.550781 0.144531 29.9375 0.1875 C 29.320312 0.226562 28.726562 0.25 28.15625 0.25 C 27.664062 0.25 27.039062 0.226562 26.28125 0.1875 C 25.53125 0.144531 24.910156 0.0625 24.421875 -0.0625 C 23.890625 -0.144531 23.460938 -0.378906 23.140625 -0.765625 C 22.816406 -1.148438 22.691406 -1.609375 22.765625 -2.140625 C 22.847656 -2.546875 22.941406 -3.078125 23.046875 -3.734375 C 23.148438 -4.390625 23.222656 -5.039062 23.265625 -5.6875 C 23.347656 -6.257812 23.210938 -6.597656 22.859375 -6.703125 C 22.515625 -6.804688 22.222656 -6.59375 21.984375 -6.0625 C 21.035156 -4.0625 19.582031 -2.46875 17.625 -1.28125 C 15.664062 -0.101562 13.609375 0.484375 11.453125 0.484375 Z M 15.609375 -7.09375 C 16.628906 -7.09375 17.703125 -7.359375 18.828125 -7.890625 C 19.953125 -8.421875 20.898438 -9.1875 21.671875 -10.1875 C 22.441406 -11.1875 22.828125 -12.398438 22.828125 -13.828125 C 22.828125 -14.804688 22.53125 -15.613281 21.9375 -16.25 C 21.351562 -16.882812 20.347656 -17.203125 18.921875 -17.203125 C 17.492188 -17.203125 16.125 -16.9375 14.8125 -16.40625 C 13.507812 -15.875 12.445312 -15.148438 11.625 -14.234375 C 10.8125 -13.316406 10.40625 -12.222656 10.40625 -10.953125 C 10.40625 -9.566406 10.8125 -8.578125 11.625 -7.984375 C 12.445312 -7.390625 13.773438 -7.09375 15.609375 -7.09375 Z M 15.609375 -7.09375 "/></g></g></g><g clip-path="url(#1ad3a2630d)"><g clip-path="url(#64c6e69cad)"><g clip-path="url(#f1ca9e96b4)"><g clip-path="url(#cf186fd507)"><path fill="#3b28cc" d="M 206.707031 228.410156 C 209.441406 230.386719 211.476562 235.261719 217.441406 233.144531 C 223.523438 230.984375 220.546875 222.558594 219.699219 218.054688 C 219.25 215.660156 219.546875 205.46875 214.265625 204.296875 C 209.648438 203.269531 207.179688 206.546875 204.425781 211.351562 C 201.960938 215.644531 197.046875 217.523438 197.785156 221.933594 C 198.472656 226.066406 205.03125 227.199219 206.707031 228.410156 " fill-opacity="1" fill-rule="nonzero"/></g></g></g></g><g clip-path="url(#1586afa77a)"><g clip-path="url(#6f01f5bb5d)"><g clip-path="url(#557b63cad7)"><path fill="#3b28cc" d="M 198.636719 237.898438 C 200.988281 235.042969 204.378906 234.042969 206.207031 235.660156 C 208.039062 237.273438 207.613281 240.894531 205.261719 243.75 C 202.910156 246.601562 199.519531 247.601562 197.691406 245.988281 C 195.863281 244.371094 196.285156 240.75 198.636719 237.898438 " fill-opacity="1" fill-rule="nonzero"/></g></g></g><g clip-path="url(#c23b4da976)"><g clip-path="url(#2e242d1b67)"><g clip-path="url(#431d10434a)"><path fill="#3b28cc" d="M 188.171875 227.429688 C 191.921875 225.652344 195.84375 226.15625 196.933594 228.554688 C 198.023438 230.960938 195.863281 234.347656 192.113281 236.125 C 188.363281 237.90625 184.441406 237.398438 183.351562 235 C 182.265625 232.597656 184.421875 229.207031 188.171875 227.429688 " fill-opacity="1" fill-rule="nonzero"/></g></g></g><g clip-path="url(#a4f9b52501)"><g clip-path="url(#1cbc37962f)"><g clip-path="url(#c9ea4d67c6)"><path fill="#3b28cc" d="M 187.488281 211.976562 C 191.523438 212.539062 194.558594 215.058594 194.269531 217.601562 C 193.984375 220.144531 190.480469 221.75 186.449219 221.1875 C 182.417969 220.625 179.378906 218.105469 179.667969 215.5625 C 179.953125 213.019531 183.457031 211.414062 187.488281 211.976562 " fill-opacity="1" fill-rule="nonzero"/></g></g></g><g clip-path="url(#69729c64f3)"><g clip-path="url(#588547389b)"><g clip-path="url(#91b39801b7)"><path fill="#3b28cc" d="M 198.195312 199.511719 C 201.535156 201.597656 203.203125 205.09375 201.914062 207.320312 C 200.628906 209.546875 196.875 209.660156 193.53125 207.574219 C 190.1875 205.488281 188.519531 201.992188 189.808594 199.765625 C 191.09375 197.539062 194.851562 197.425781 198.195312 199.511719 " fill-opacity="1" fill-rule="nonzero"/></g></g></g><g clip-path="url(#b1bbe209fa)"><g clip-path="url(#302a7d9204)"><g clip-path="url(#d3b67bd735)"><g clip-path="url(#56f9990dfe)"><path fill="#3b28cc" d="M 249.367188 268.453125 C 251.652344 270.023438 253.414062 273.988281 258.273438 272.136719 C 263.226562 270.246094 260.625 263.386719 259.84375 259.703125 C 259.429688 257.746094 259.476562 249.371094 255.121094 248.507812 C 251.3125 247.753906 249.34375 250.488281 247.171875 254.488281 C 245.230469 258.058594 241.230469 259.695312 241.917969 263.304688 C 242.566406 266.683594 247.96875 267.488281 249.367188 268.453125 " fill-opacity="1" fill-rule="nonzero"/></g></g></g></g><g clip-path="url(#3648ac0342)"><g clip-path="url(#270183c949)"><g clip-path="url(#a0d605383d)"><path fill="#3b28cc" d="M 242.921875 276.394531 C 244.800781 274.007812 247.5625 273.121094 249.097656 274.414062 C 250.628906 275.703125 250.351562 278.6875 248.472656 281.074219 C 246.597656 283.460938 243.832031 284.347656 242.300781 283.054688 C 240.765625 281.765625 241.046875 278.78125 242.921875 276.394531 " fill-opacity="1" fill-rule="nonzero"/></g></g></g><g clip-path="url(#2ee6fc4f93)"><g clip-path="url(#af3668ce8b)"><g clip-path="url(#72ed1dbe85)"><path fill="#3b28cc" d="M 234.132812 267.996094 C 237.175781 266.464844 240.40625 266.804688 241.347656 268.757812 C 242.285156 270.710938 240.578125 273.53125 237.53125 275.0625 C 234.488281 276.59375 231.257812 276.253906 230.316406 274.304688 C 229.378906 272.351562 231.085938 269.527344 234.132812 267.996094 " fill-opacity="1" fill-rule="nonzero"/></g></g></g><g clip-path="url(#04d9e92517)"><g clip-path="url(#c21ca6c303)"><g clip-path="url(#77a2019d14)"><path fill="#3b28cc" d="M 233.277344 255.320312 C 236.601562 255.707031 239.140625 257.71875 238.953125 259.8125 C 238.765625 261.902344 235.921875 263.289062 232.597656 262.902344 C 229.277344 262.519531 226.734375 260.507812 226.921875 258.414062 C 227.109375 256.320312 229.957031 254.9375 233.277344 255.320312 " fill-opacity="1" fill-rule="nonzero"/></g></g></g><g clip-path="url(#7abce796de)"><g clip-path="url(#3559f8c889)"><g clip-path="url(#749171dfca)"><path fill="#3b28cc" d="M 241.832031 244.882812 C 244.617188 246.535156 246.050781 249.371094 245.035156 251.226562 C 244.019531 253.078125 240.941406 253.242188 238.15625 251.59375 C 235.371094 249.941406 233.9375 247.105469 234.953125 245.25 C 235.96875 243.398438 239.046875 243.234375 241.832031 244.882812 " fill-opacity="1" fill-rule="nonzero"/></g></g></g><g clip-path="url(#3723a7a36c)"><g clip-path="url(#8909a5701c)"><g clip-path="url(#00e620d8c2)"><g clip-path="url(#7533f8efac)"><path fill="#3b28cc" d="M 312.367188 234.578125 C 314.238281 235.824219 315.710938 239.015625 319.625 237.457031 C 323.617188 235.867188 321.425781 230.339844 320.746094 227.367188 C 320.386719 225.785156 320.328125 219 316.789062 218.351562 C 313.691406 217.785156 312.132812 220.027344 310.421875 223.292969 C 308.890625 226.207031 305.671875 227.582031 306.269531 230.496094 C 306.835938 233.226562 311.222656 233.816406 312.367188 234.578125 " fill-opacity="1" fill-rule="nonzero"/></g></g></g></g><g clip-path="url(#80b834aad7)"><g clip-path="url(#f4aad65f11)"><g clip-path="url(#6fb100062a)"><path fill="#3b28cc" d="M 307.238281 241.089844 C 308.730469 239.132812 310.960938 238.382812 312.21875 239.410156 C 313.476562 240.4375 313.285156 242.859375 311.792969 244.8125 C 310.300781 246.769531 308.070312 247.523438 306.816406 246.492188 C 305.558594 245.464844 305.746094 243.046875 307.238281 241.089844 " fill-opacity="1" fill-rule="nonzero"/></g></g></g><g clip-path="url(#a971b4ce56)"><g clip-path="url(#806a9f703f)"><g clip-path="url(#1c5d4eaf76)"><path fill="#3b28cc" d="M 300.015625 234.390625 C 302.464844 233.113281 305.085938 233.351562 305.871094 234.921875 C 306.65625 236.492188 305.308594 238.800781 302.859375 240.074219 C 300.410156 241.355469 297.789062 241.117188 297.003906 239.546875 C 296.21875 237.976562 297.570312 235.667969 300.015625 234.390625 " fill-opacity="1" fill-rule="nonzero"/></g></g></g><g clip-path="url(#cd12796851)"><g clip-path="url(#04bd6f39ab)"><g clip-path="url(#0133139a57)"><path fill="#3b28cc" d="M 299.175781 224.132812 C 301.871094 224.40625 303.953125 226.003906 303.828125 227.703125 C 303.699219 229.402344 301.410156 230.558594 298.714844 230.285156 C 296.019531 230.011719 293.9375 228.414062 294.0625 226.714844 C 294.191406 225.015625 296.480469 223.859375 299.175781 224.132812 " fill-opacity="1" fill-rule="nonzero"/></g></g></g><g clip-path="url(#d59b536ee4)"><g clip-path="url(#85cd7b2399)"><g clip-path="url(#3569f2b6c0)"><path fill="#3b28cc" d="M 305.980469 215.574219 C 308.257812 216.878906 309.453125 219.160156 308.652344 220.675781 C 307.851562 222.1875 305.359375 222.355469 303.082031 221.054688 C 300.804688 219.75 299.609375 217.46875 300.410156 215.957031 C 301.210938 214.441406 303.703125 214.273438 305.980469 215.574219 " fill-opacity="1" fill-rule="nonzero"/></g></g></g><g clip-path="url(#cd0344f4f0)"><g clip-path="url(#3160788818)"><g clip-path="url(#7cbdc2f5d9)"><g clip-path="url(#492894af51)"><path fill="#3b28cc" d="M 273.039062 208.738281 C 275.085938 210.101562 276.699219 213.59375 280.984375 211.890625 C 285.351562 210.148438 282.953125 204.097656 282.214844 200.84375 C 281.820312 199.109375 281.753906 191.683594 277.878906 190.976562 C 274.488281 190.355469 272.78125 192.808594 270.90625 196.382812 C 269.234375 199.574219 265.707031 201.078125 266.363281 204.269531 C 266.980469 207.257812 271.785156 207.902344 273.039062 208.738281 " fill-opacity="1" fill-rule="nonzero"/></g></g></g></g><g clip-path="url(#29b0c95fa5)"><g clip-path="url(#a65a114bb9)"><g clip-path="url(#ef2bd9dc2f)"><path fill="#3b28cc" d="M 267.425781 215.867188 C 269.058594 213.726562 271.5 212.902344 272.875 214.027344 C 274.253906 215.15625 274.042969 217.804688 272.410156 219.945312 C 270.777344 222.085938 268.335938 222.910156 266.960938 221.785156 C 265.582031 220.65625 265.792969 218.007812 267.425781 215.867188 " fill-opacity="1" fill-rule="nonzero"/></g></g></g><g clip-path="url(#398f90200f)"><g clip-path="url(#39fbe0045c)"><g clip-path="url(#461c4010f9)"><path fill="#3b28cc" d="M 259.519531 208.535156 C 262.199219 207.136719 265.070312 207.394531 265.925781 209.113281 C 266.785156 210.832031 265.308594 213.359375 262.628906 214.757812 C 259.945312 216.15625 257.078125 215.894531 256.21875 214.175781 C 255.359375 212.457031 256.835938 209.933594 259.519531 208.535156 " fill-opacity="1" fill-rule="nonzero"/></g></g></g><g clip-path="url(#e06b31e94b)"><g clip-path="url(#00cbde2911)"><g clip-path="url(#926fba7132)"><path fill="#3b28cc" d="M 258.597656 197.304688 C 261.546875 197.601562 263.828125 199.351562 263.6875 201.210938 C 263.550781 203.070312 261.042969 204.335938 258.09375 204.035156 C 255.140625 203.738281 252.863281 201.988281 253 200.128906 C 253.140625 198.269531 255.644531 197.003906 258.597656 197.304688 " fill-opacity="1" fill-rule="nonzero"/></g></g></g><g clip-path="url(#ee68195dfb)"><g clip-path="url(#8ee696a4ee)"><g clip-path="url(#37bea25ee2)"><path fill="#3b28cc" d="M 266.046875 187.933594 C 268.539062 189.363281 269.847656 191.859375 268.972656 193.515625 C 268.09375 195.171875 265.363281 195.359375 262.871094 193.933594 C 260.382812 192.507812 259.074219 190.007812 259.949219 188.351562 C 260.824219 186.695312 263.554688 186.507812 266.046875 187.933594 " fill-opacity="1" fill-rule="nonzero"/></g></g></g><g clip-path="url(#de61b286bf)"><g clip-path="url(#62e1dc9925)"><g clip-path="url(#4dd8fa95ad)"><g clip-path="url(#05b9f5b775)"><path fill="#3b28cc" d="M 333.558594 203.59375 C 334.964844 204.535156 336.074219 206.9375 339.023438 205.761719 C 342.027344 204.566406 340.378906 200.402344 339.871094 198.164062 C 339.597656 196.972656 339.554688 191.863281 336.886719 191.375 C 334.554688 190.949219 333.382812 192.636719 332.09375 195.09375 C 330.941406 197.292969 328.515625 198.324219 328.96875 200.523438 C 329.390625 202.578125 332.695312 203.019531 333.558594 203.59375 " fill-opacity="1" fill-rule="nonzero"/></g></g></g></g><g clip-path="url(#d7a1087848)"><g clip-path="url(#32c055827d)"><g clip-path="url(#e3453e48dd)"><path fill="#3b28cc" d="M 329.695312 208.5 C 330.820312 207.027344 332.5 206.460938 333.445312 207.234375 C 334.394531 208.007812 334.25 209.832031 333.125 211.304688 C 332.003906 212.777344 330.324219 213.34375 329.375 212.570312 C 328.429688 211.792969 328.574219 209.972656 329.695312 208.5 " fill-opacity="1" fill-rule="nonzero"/></g></g></g><g clip-path="url(#2c9e7f02f6)"><g clip-path="url(#9bb154e15a)"><g clip-path="url(#905acb151e)"><path fill="#3b28cc" d="M 324.257812 203.453125 C 326.101562 202.492188 328.074219 202.671875 328.664062 203.855469 C 329.257812 205.035156 328.242188 206.773438 326.394531 207.734375 C 324.550781 208.699219 322.578125 208.519531 321.988281 207.335938 C 321.398438 206.15625 322.414062 204.417969 324.257812 203.453125 " fill-opacity="1" fill-rule="nonzero"/></g></g></g><g clip-path="url(#f28de7b9fc)"><g clip-path="url(#02b85095b7)"><g clip-path="url(#80f4087dd2)"><path fill="#3b28cc" d="M 323.625 195.730469 C 325.652344 195.933594 327.222656 197.140625 327.125 198.417969 C 327.03125 199.695312 325.308594 200.566406 323.277344 200.363281 C 321.246094 200.15625 319.679688 198.953125 319.773438 197.671875 C 319.867188 196.394531 321.59375 195.523438 323.625 195.730469 " fill-opacity="1" fill-rule="nonzero"/></g></g></g><g clip-path="url(#00d9a0bbe5)"><g clip-path="url(#487763a2ab)"><g clip-path="url(#cc0e26be08)"><path fill="#3b28cc" d="M 328.75 189.285156 C 330.460938 190.265625 331.363281 191.984375 330.761719 193.125 C 330.15625 194.261719 328.277344 194.390625 326.566406 193.410156 C 324.851562 192.429688 323.949219 190.710938 324.554688 189.570312 C 325.15625 188.429688 327.035156 188.304688 328.75 189.285156 " fill-opacity="1" fill-rule="nonzero"/></g></g></g></svg>