<svg xmlns="http://www.w3.org/2000/svg" xmlns:xlink="http://www.w3.org/1999/xlink" width="500" zoomAndPan="magnify" viewBox="0 0 375 374.999991" height="500" preserveAspectRatio="xMidYMid meet" version="1.0"><defs><g/><clipPath id="ce6147fa45"><path d="M 166 226 L 191 226 L 191 254 L 166 254 Z M 166 226 " clip-rule="nonzero"/></clipPath><clipPath id="ec88b63409"><path d="M 166.0625 279.46875 L 139.472656 237.71875 L 172.371094 216.769531 L 198.957031 258.523438 Z M 166.0625 279.46875 " clip-rule="nonzero"/></clipPath><clipPath id="aa955bd44a"><path d="M 166.0625 279.46875 L 139.472656 237.71875 L 172.371094 216.769531 L 198.957031 258.523438 Z M 166.0625 279.46875 " clip-rule="nonzero"/></clipPath><clipPath id="ff09dd82a6"><path d="M 174.640625 260.917969 L 158.988281 236.335938 L 177.597656 224.488281 L 193.25 249.070312 Z M 174.640625 260.917969 " clip-rule="nonzero"/></clipPath><clipPath id="6464ab4ad3"><path d="M 173 257 L 183 257 L 183 271 L 173 271 Z M 173 257 " clip-rule="nonzero"/></clipPath><clipPath id="7de759048b"><path d="M 166.0625 279.46875 L 139.472656 237.71875 L 172.371094 216.769531 L 198.957031 258.523438 Z M 166.0625 279.46875 " clip-rule="nonzero"/></clipPath><clipPath id="6f3efc1745"><path d="M 166.0625 279.46875 L 139.472656 237.71875 L 172.371094 216.769531 L 198.957031 258.523438 Z M 166.0625 279.46875 " clip-rule="nonzero"/></clipPath><clipPath id="428e3fbae7"><path d="M 158 254 L 171 254 L 171 268 L 158 268 Z M 158 254 " clip-rule="nonzero"/></clipPath><clipPath id="3ac1e38d62"><path d="M 166.0625 279.46875 L 139.472656 237.71875 L 172.371094 216.769531 L 198.957031 258.523438 Z M 166.0625 279.46875 " clip-rule="nonzero"/></clipPath><clipPath id="79a7d1a06c"><path d="M 166.0625 279.46875 L 139.472656 237.71875 L 172.371094 216.769531 L 198.957031 258.523438 Z M 166.0625 279.46875 " clip-rule="nonzero"/></clipPath><clipPath id="a4af671311"><path d="M 148 243 L 163 243 L 163 254 L 148 254 Z M 148 243 " clip-rule="nonzero"/></clipPath><clipPath id="deb86e2578"><path d="M 166.0625 279.46875 L 139.472656 237.71875 L 172.371094 216.769531 L 198.957031 258.523438 Z M 166.0625 279.46875 " clip-rule="nonzero"/></clipPath><clipPath id="1ae3a5f136"><path d="M 166.0625 279.46875 L 139.472656 237.71875 L 172.371094 216.769531 L 198.957031 258.523438 Z M 166.0625 279.46875 " clip-rule="nonzero"/></clipPath><clipPath id="965c115945"><path d="M 151 228 L 166 228 L 166 238 L 151 238 Z M 151 228 " clip-rule="nonzero"/></clipPath><clipPath id="997432d5a1"><path d="M 166.0625 279.46875 L 139.472656 237.71875 L 172.371094 216.769531 L 198.957031 258.523438 Z M 166.0625 279.46875 " clip-rule="nonzero"/></clipPath><clipPath id="76d6f2c7fc"><path d="M 166.0625 279.46875 L 139.472656 237.71875 L 172.371094 216.769531 L 198.957031 258.523438 Z M 166.0625 279.46875 " clip-rule="nonzero"/></clipPath><clipPath id="0e68e67349"><path d="M 200 184 L 222 184 L 222 212 L 200 212 Z M 200 184 " clip-rule="nonzero"/></clipPath><clipPath id="92e62a07a8"><path d="M 188.136719 225.679688 L 181.054688 180.480469 L 216.621094 174.90625 L 223.703125 220.105469 Z M 188.136719 225.679688 " clip-rule="nonzero"/></clipPath><clipPath id="5d992a78f4"><path d="M 188.136719 225.679688 L 181.054688 180.480469 L 216.621094 174.90625 L 223.703125 220.105469 Z M 188.136719 225.679688 " clip-rule="nonzero"/></clipPath><clipPath id="67401eed07"><path d="M 202.109375 213.277344 L 197.984375 186.957031 L 217.90625 183.835938 L 222.03125 210.152344 Z M 202.109375 213.277344 " clip-rule="nonzero"/></clipPath><clipPath id="c0a4063d07"><path d="M 199 212 L 209 212 L 209 223 L 199 223 Z M 199 212 " clip-rule="nonzero"/></clipPath><clipPath id="3eccced174"><path d="M 188.136719 225.679688 L 181.054688 180.480469 L 216.621094 174.90625 L 223.703125 220.105469 Z M 188.136719 225.679688 " clip-rule="nonzero"/></clipPath><clipPath id="ab98043372"><path d="M 188.136719 225.679688 L 181.054688 180.480469 L 216.621094 174.90625 L 223.703125 220.105469 Z M 188.136719 225.679688 " clip-rule="nonzero"/></clipPath><clipPath id="d6a3cc6371"><path d="M 186 204 L 200 204 L 200 215 L 186 215 Z M 186 204 " clip-rule="nonzero"/></clipPath><clipPath id="35242063fe"><path d="M 188.136719 225.679688 L 181.054688 180.480469 L 216.621094 174.90625 L 223.703125 220.105469 Z M 188.136719 225.679688 " clip-rule="nonzero"/></clipPath><clipPath id="6ea8b8e912"><path d="M 188.136719 225.679688 L 181.054688 180.480469 L 216.621094 174.90625 L 223.703125 220.105469 Z M 188.136719 225.679688 " clip-rule="nonzero"/></clipPath><clipPath id="f863999837"><path d="M 183 191 L 198 191 L 198 201 L 183 201 Z M 183 191 " clip-rule="nonzero"/></clipPath><clipPath id="bcb29455b3"><path d="M 188.136719 225.679688 L 181.054688 180.480469 L 216.621094 174.90625 L 223.703125 220.105469 Z M 188.136719 225.679688 " clip-rule="nonzero"/></clipPath><clipPath id="be883c3020"><path d="M 188.136719 225.679688 L 181.054688 180.480469 L 216.621094 174.90625 L 223.703125 220.105469 Z M 188.136719 225.679688 " clip-rule="nonzero"/></clipPath><clipPath id="3fc79f1c65"><path d="M 192 179 L 205 179 L 205 190 L 192 190 Z M 192 179 " clip-rule="nonzero"/></clipPath><clipPath id="11fbc6916e"><path d="M 188.136719 225.679688 L 181.054688 180.480469 L 216.621094 174.90625 L 223.703125 220.105469 Z M 188.136719 225.679688 " clip-rule="nonzero"/></clipPath><clipPath id="d4642c3bac"><path d="M 188.136719 225.679688 L 181.054688 180.480469 L 216.621094 174.90625 L 223.703125 220.105469 Z M 188.136719 225.679688 " clip-rule="nonzero"/></clipPath><clipPath id="6aee76bba3"><path d="M 239 224 L 257 224 L 257 246 L 239 246 Z M 239 224 " clip-rule="nonzero"/></clipPath><clipPath id="c9ee2fce2f"><path d="M 230.222656 258.414062 L 223.566406 221.511719 L 252.351562 216.316406 L 259.007812 253.222656 Z M 230.222656 258.414062 " clip-rule="nonzero"/></clipPath><clipPath id="c35d74e4bb"><path d="M 230.222656 258.414062 L 223.566406 221.511719 L 252.351562 216.316406 L 259.007812 253.222656 Z M 230.222656 258.414062 " clip-rule="nonzero"/></clipPath><clipPath id="1efb29ce90"><path d="M 241.460938 247.964844 L 237.578125 226.433594 L 253.878906 223.492188 L 257.761719 245.023438 Z M 241.460938 247.964844 " clip-rule="nonzero"/></clipPath><clipPath id="d4baa1957a"><path d="M 239 247 L 247 247 L 247 256 L 239 256 Z M 239 247 " clip-rule="nonzero"/></clipPath><clipPath id="8d6cb694d7"><path d="M 230.222656 258.414062 L 223.566406 221.511719 L 252.351562 216.316406 L 259.007812 253.222656 Z M 230.222656 258.414062 " clip-rule="nonzero"/></clipPath><clipPath id="48bfcb86a9"><path d="M 230.222656 258.414062 L 223.566406 221.511719 L 252.351562 216.316406 L 259.007812 253.222656 Z M 230.222656 258.414062 " clip-rule="nonzero"/></clipPath><clipPath id="c55a77c917"><path d="M 228 240 L 240 240 L 240 249 L 228 249 Z M 228 240 " clip-rule="nonzero"/></clipPath><clipPath id="8fda56925d"><path d="M 230.222656 258.414062 L 223.566406 221.511719 L 252.351562 216.316406 L 259.007812 253.222656 Z M 230.222656 258.414062 " clip-rule="nonzero"/></clipPath><clipPath id="b8d1c43918"><path d="M 230.222656 258.414062 L 223.566406 221.511719 L 252.351562 216.316406 L 259.007812 253.222656 Z M 230.222656 258.414062 " clip-rule="nonzero"/></clipPath><clipPath id="bdf93f306c"><path d="M 226 230 L 237 230 L 237 238 L 226 238 Z M 226 230 " clip-rule="nonzero"/></clipPath><clipPath id="7e394c09fe"><path d="M 230.222656 258.414062 L 223.566406 221.511719 L 252.351562 216.316406 L 259.007812 253.222656 Z M 230.222656 258.414062 " clip-rule="nonzero"/></clipPath><clipPath id="d092d063bd"><path d="M 230.222656 258.414062 L 223.566406 221.511719 L 252.351562 216.316406 L 259.007812 253.222656 Z M 230.222656 258.414062 " clip-rule="nonzero"/></clipPath><clipPath id="265eb3e611"><path d="M 233 220 L 243 220 L 243 229 L 233 229 Z M 233 220 " clip-rule="nonzero"/></clipPath><clipPath id="cb254a0e30"><path d="M 230.222656 258.414062 L 223.566406 221.511719 L 252.351562 216.316406 L 259.007812 253.222656 Z M 230.222656 258.414062 " clip-rule="nonzero"/></clipPath><clipPath id="ab8f2b8895"><path d="M 230.222656 258.414062 L 223.566406 221.511719 L 252.351562 216.316406 L 259.007812 253.222656 Z M 230.222656 258.414062 " clip-rule="nonzero"/></clipPath><clipPath id="ba7ccbf395"><path d="M 297 197 L 312 197 L 312 215 L 297 215 Z M 297 197 " clip-rule="nonzero"/></clipPath><clipPath id="2694e42e65"><path d="M 289.796875 225.234375 L 284.035156 195.792969 L 307.589844 191.183594 L 313.351562 220.625 Z M 289.796875 225.234375 " clip-rule="nonzero"/></clipPath><clipPath id="bfc55e518b"><path d="M 289.796875 225.234375 L 284.035156 195.792969 L 307.589844 191.183594 L 313.351562 220.625 Z M 289.796875 225.234375 " clip-rule="nonzero"/></clipPath><clipPath id="5b8f2798f7"><path d="M 298.773438 216.636719 L 295.371094 199.238281 L 308.539062 196.660156 L 311.941406 214.058594 Z M 298.773438 216.636719 " clip-rule="nonzero"/></clipPath><clipPath id="15f8d764e4"><path d="M 296 215 L 304 215 L 304 223 L 296 223 Z M 296 215 " clip-rule="nonzero"/></clipPath><clipPath id="73e4c98e17"><path d="M 289.796875 225.234375 L 284.035156 195.792969 L 307.589844 191.183594 L 313.351562 220.625 Z M 289.796875 225.234375 " clip-rule="nonzero"/></clipPath><clipPath id="4c03b7ed5a"><path d="M 289.796875 225.234375 L 284.035156 195.792969 L 307.589844 191.183594 L 313.351562 220.625 Z M 289.796875 225.234375 " clip-rule="nonzero"/></clipPath><clipPath id="c4d722a578"><path d="M 288 211 L 297 211 L 297 218 L 288 218 Z M 288 211 " clip-rule="nonzero"/></clipPath><clipPath id="d3bc41a889"><path d="M 289.796875 225.234375 L 284.035156 195.792969 L 307.589844 191.183594 L 313.351562 220.625 Z M 289.796875 225.234375 " clip-rule="nonzero"/></clipPath><clipPath id="dd7797a382"><path d="M 289.796875 225.234375 L 284.035156 195.792969 L 307.589844 191.183594 L 313.351562 220.625 Z M 289.796875 225.234375 " clip-rule="nonzero"/></clipPath><clipPath id="a359f989b4"><path d="M 286 202 L 295 202 L 295 209 L 286 209 Z M 286 202 " clip-rule="nonzero"/></clipPath><clipPath id="1cfd81aaf8"><path d="M 289.796875 225.234375 L 284.035156 195.792969 L 307.589844 191.183594 L 313.351562 220.625 Z M 289.796875 225.234375 " clip-rule="nonzero"/></clipPath><clipPath id="037ebd4393"><path d="M 289.796875 225.234375 L 284.035156 195.792969 L 307.589844 191.183594 L 313.351562 220.625 Z M 289.796875 225.234375 " clip-rule="nonzero"/></clipPath><clipPath id="9a09dfca22"><path d="M 291 194 L 300 194 L 300 201 L 291 201 Z M 291 194 " clip-rule="nonzero"/></clipPath><clipPath id="bf85a5d73c"><path d="M 289.796875 225.234375 L 284.035156 195.792969 L 307.589844 191.183594 L 313.351562 220.625 Z M 289.796875 225.234375 " clip-rule="nonzero"/></clipPath><clipPath id="6671900345"><path d="M 289.796875 225.234375 L 284.035156 195.792969 L 307.589844 191.183594 L 313.351562 220.625 Z M 289.796875 225.234375 " clip-rule="nonzero"/></clipPath><clipPath id="b8583e41bc"><path d="M 261 172 L 277 172 L 277 193 L 261 193 Z M 261 172 " clip-rule="nonzero"/></clipPath><clipPath id="b27892fe30"><path d="M 253.414062 203.386719 L 247.078125 171 L 272.839844 165.960938 L 279.175781 198.347656 Z M 253.414062 203.386719 " clip-rule="nonzero"/></clipPath><clipPath id="8e1ad21abd"><path d="M 253.414062 203.386719 L 247.078125 171 L 272.839844 165.960938 L 279.175781 198.347656 Z M 253.414062 203.386719 " clip-rule="nonzero"/></clipPath><clipPath id="8aa1a519df"><path d="M 263.242188 193.976562 L 259.515625 174.929688 L 273.933594 172.109375 L 277.660156 191.152344 Z M 263.242188 193.976562 " clip-rule="nonzero"/></clipPath><clipPath id="2516b2a99b"><path d="M 261 193 L 269 193 L 269 201 L 261 201 Z M 261 193 " clip-rule="nonzero"/></clipPath><clipPath id="3ba26dc424"><path d="M 253.414062 203.386719 L 247.078125 171 L 272.839844 165.960938 L 279.175781 198.347656 Z M 253.414062 203.386719 " clip-rule="nonzero"/></clipPath><clipPath id="3604d354df"><path d="M 253.414062 203.386719 L 247.078125 171 L 272.839844 165.960938 L 279.175781 198.347656 Z M 253.414062 203.386719 " clip-rule="nonzero"/></clipPath><clipPath id="bc936a19f5"><path d="M 252 187 L 262 187 L 262 195 L 252 195 Z M 252 187 " clip-rule="nonzero"/></clipPath><clipPath id="348b176c40"><path d="M 253.414062 203.386719 L 247.078125 171 L 272.839844 165.960938 L 279.175781 198.347656 Z M 253.414062 203.386719 " clip-rule="nonzero"/></clipPath><clipPath id="d2296e305b"><path d="M 253.414062 203.386719 L 247.078125 171 L 272.839844 165.960938 L 279.175781 198.347656 Z M 253.414062 203.386719 " clip-rule="nonzero"/></clipPath><clipPath id="bf7016d124"><path d="M 249 178 L 260 178 L 260 185 L 249 185 Z M 249 178 " clip-rule="nonzero"/></clipPath><clipPath id="47d9f98486"><path d="M 253.414062 203.386719 L 247.078125 171 L 272.839844 165.960938 L 279.175781 198.347656 Z M 253.414062 203.386719 " clip-rule="nonzero"/></clipPath><clipPath id="c9499a9718"><path d="M 253.414062 203.386719 L 247.078125 171 L 272.839844 165.960938 L 279.175781 198.347656 Z M 253.414062 203.386719 " clip-rule="nonzero"/></clipPath><clipPath id="70478941ed"><path d="M 255 169 L 265 169 L 265 177 L 255 177 Z M 255 169 " clip-rule="nonzero"/></clipPath><clipPath id="434333764e"><path d="M 253.414062 203.386719 L 247.078125 171 L 272.839844 165.960938 L 279.175781 198.347656 Z M 253.414062 203.386719 " clip-rule="nonzero"/></clipPath><clipPath id="6d1d82fbdc"><path d="M 253.414062 203.386719 L 247.078125 171 L 272.839844 165.960938 L 279.175781 198.347656 Z M 253.414062 203.386719 " clip-rule="nonzero"/></clipPath><clipPath id="0b1aca4999"><path d="M 317 173 L 329 173 L 329 187 L 317 187 Z M 317 173 " clip-rule="nonzero"/></clipPath><clipPath id="16457eafa4"><path d="M 311.90625 194.238281 L 307.585938 172.15625 L 325.253906 168.699219 L 329.574219 190.78125 Z M 311.90625 194.238281 " clip-rule="nonzero"/></clipPath><clipPath id="1707de7afa"><path d="M 311.90625 194.238281 L 307.585938 172.15625 L 325.253906 168.699219 L 329.574219 190.78125 Z M 311.90625 194.238281 " clip-rule="nonzero"/></clipPath><clipPath id="fbe76abcf1"><path d="M 318.667969 187.761719 L 316.105469 174.65625 L 326.023438 172.714844 L 328.589844 185.820312 Z M 318.667969 187.761719 " clip-rule="nonzero"/></clipPath><clipPath id="19da13a560"><path d="M 317 187 L 322 187 L 322 193 L 317 193 Z M 317 187 " clip-rule="nonzero"/></clipPath><clipPath id="0f55e396ba"><path d="M 311.90625 194.238281 L 307.585938 172.15625 L 325.253906 168.699219 L 329.574219 190.78125 Z M 311.90625 194.238281 " clip-rule="nonzero"/></clipPath><clipPath id="75d3615b75"><path d="M 311.90625 194.238281 L 307.585938 172.15625 L 325.253906 168.699219 L 329.574219 190.78125 Z M 311.90625 194.238281 " clip-rule="nonzero"/></clipPath><clipPath id="fad79e41c0"><path d="M 311 183 L 318 183 L 318 189 L 311 189 Z M 311 183 " clip-rule="nonzero"/></clipPath><clipPath id="19244136e8"><path d="M 311.90625 194.238281 L 307.585938 172.15625 L 325.253906 168.699219 L 329.574219 190.78125 Z M 311.90625 194.238281 " clip-rule="nonzero"/></clipPath><clipPath id="b988990b67"><path d="M 311.90625 194.238281 L 307.585938 172.15625 L 325.253906 168.699219 L 329.574219 190.78125 Z M 311.90625 194.238281 " clip-rule="nonzero"/></clipPath><clipPath id="c9a6ccaaa7"><path d="M 309 177 L 316 177 L 316 182 L 309 182 Z M 309 177 " clip-rule="nonzero"/></clipPath><clipPath id="3979d3947b"><path d="M 311.90625 194.238281 L 307.585938 172.15625 L 325.253906 168.699219 L 329.574219 190.78125 Z M 311.90625 194.238281 " clip-rule="nonzero"/></clipPath><clipPath id="a3afaf8c95"><path d="M 311.90625 194.238281 L 307.585938 172.15625 L 325.253906 168.699219 L 329.574219 190.78125 Z M 311.90625 194.238281 " clip-rule="nonzero"/></clipPath><clipPath id="bdade663d6"><path d="M 313 170 L 320 170 L 320 176 L 313 176 Z M 313 170 " clip-rule="nonzero"/></clipPath><clipPath id="61ed29b731"><path d="M 311.90625 194.238281 L 307.585938 172.15625 L 325.253906 168.699219 L 329.574219 190.78125 Z M 311.90625 194.238281 " clip-rule="nonzero"/></clipPath><clipPath id="150d3d6cd7"><path d="M 311.90625 194.238281 L 307.585938 172.15625 L 325.253906 168.699219 L 329.574219 190.78125 Z M 311.90625 194.238281 " clip-rule="nonzero"/></clipPath></defs><g clip-path="url(#ce6147fa45)"><g clip-path="url(#ec88b63409)"><g clip-path="url(#aa955bd44a)"><g clip-path="url(#ff09dd82a6)"><path fill="#d90368" d="M 177.644531 251.394531 C 180.871094 252.097656 184.601562 255.671875 189.125 251.4375 C 193.730469 247.121094 187.765625 240.730469 185.242188 237.023438 C 183.902344 235.054688 180.179688 225.800781 174.988281 226.816406 C 170.445312 227.703125 169.511719 231.605469 168.921875 236.992188 C 168.394531 241.804688 164.722656 245.414062 167.109375 249.082031 C 169.347656 252.515625 175.667969 250.964844 177.644531 251.394531 " fill-opacity="1" fill-rule="nonzero"/></g></g></g></g><g clip-path="url(#6464ab4ad3)"><g clip-path="url(#7de759048b)"><g clip-path="url(#6f3efc1745)"><path fill="#d90368" d="M 174.121094 263.058594 C 175.117188 259.582031 177.761719 257.355469 180.035156 258.089844 C 182.308594 258.820312 183.347656 262.234375 182.355469 265.710938 C 181.363281 269.191406 178.714844 271.414062 176.441406 270.683594 C 174.167969 269.953125 173.132812 266.539062 174.121094 263.058594 " fill-opacity="1" fill-rule="nonzero"/></g></g></g><g clip-path="url(#428e3fbae7)"><g clip-path="url(#3ac1e38d62)"><g clip-path="url(#79a7d1a06c)"><path fill="#d90368" d="M 160.640625 257.769531 C 163.308594 254.707031 167.023438 253.625 168.9375 255.351562 C 170.855469 257.078125 170.246094 260.960938 167.582031 264.023438 C 164.914062 267.085938 161.199219 268.167969 159.285156 266.441406 C 157.367188 264.714844 157.976562 260.832031 160.640625 257.769531 " fill-opacity="1" fill-rule="nonzero"/></g></g></g><g clip-path="url(#a4af671311)"><g clip-path="url(#deb86e2578)"><g clip-path="url(#1ae3a5f136)"><path fill="#d90368" d="M 153.984375 244.183594 C 157.820312 243.109375 161.527344 244.179688 162.265625 246.570312 C 163 248.960938 160.492188 251.773438 156.65625 252.847656 C 152.820312 253.921875 149.109375 252.851562 148.371094 250.460938 C 147.636719 248.066406 150.144531 245.257812 153.984375 244.183594 " fill-opacity="1" fill-rule="nonzero"/></g></g></g><g clip-path="url(#965c115945)"><g clip-path="url(#997432d5a1)"><g clip-path="url(#76d6f2c7fc)"><path fill="#d90368" d="M 158.703125 228.816406 C 162.515625 229.378906 165.378906 231.859375 165.09375 234.359375 C 164.8125 236.859375 161.488281 238.433594 157.675781 237.871094 C 153.863281 237.308594 151 234.828125 151.28125 232.324219 C 151.566406 229.824219 154.886719 228.253906 158.703125 228.816406 " fill-opacity="1" fill-rule="nonzero"/></g></g></g><g fill="#d90368" fill-opacity="1"><g transform="translate(34.635339, 118.199038)"><g><path d="M 17.25 0.21875 C 16.257812 0.21875 15.078125 0.21875 13.703125 0.21875 C 12.335938 0.21875 10.9375 0.207031 9.5 0.1875 C 8.0625 0.175781 6.753906 0.148438 5.578125 0.109375 C 4.410156 0.078125 3.554688 0.0390625 3.015625 0 C 2.023438 -0.0703125 1.53125 -0.53125 1.53125 -1.375 C 1.53125 -4.101562 1.554688 -7.035156 1.609375 -10.171875 C 1.671875 -13.316406 1.742188 -16.492188 1.828125 -19.703125 C 1.921875 -22.921875 2.039062 -26.015625 2.1875 -28.984375 C 2.332031 -31.960938 2.476562 -34.65625 2.625 -37.0625 C 2.664062 -37.46875 2.832031 -37.769531 3.125 -37.96875 C 3.414062 -38.164062 3.742188 -38.285156 4.109375 -38.328125 C 4.941406 -38.429688 5.613281 -38.492188 6.125 -38.515625 C 6.644531 -38.535156 7.195312 -38.546875 7.78125 -38.546875 C 8.144531 -38.546875 8.632812 -38.523438 9.25 -38.484375 C 9.875 -38.453125 10.421875 -38.398438 10.890625 -38.328125 C 11.296875 -38.285156 11.644531 -38.128906 11.9375 -37.859375 C 12.226562 -37.585938 12.316406 -37.234375 12.203125 -36.796875 C 11.546875 -33.578125 10.90625 -30.085938 10.28125 -26.328125 C 9.664062 -22.578125 9.378906 -18.34375 9.421875 -13.625 C 9.453125 -11.113281 10.316406 -9.289062 12.015625 -8.15625 C 13.710938 -7.019531 16.113281 -6.453125 19.21875 -6.453125 C 21.550781 -6.453125 23.460938 -6.660156 24.953125 -7.078125 C 26.453125 -7.503906 27.695312 -8.171875 28.6875 -9.078125 C 29.675781 -9.992188 30.550781 -11.179688 31.3125 -12.640625 C 31.601562 -13.265625 32.050781 -13.546875 32.65625 -13.484375 C 33.257812 -13.429688 33.578125 -13.039062 33.609375 -12.3125 C 33.679688 -11.800781 33.753906 -11.035156 33.828125 -10.015625 C 33.898438 -8.992188 33.960938 -7.898438 34.015625 -6.734375 C 34.078125 -5.566406 34.132812 -4.472656 34.1875 -3.453125 C 34.25 -2.429688 34.296875 -1.664062 34.328125 -1.15625 C 34.328125 -0.457031 33.941406 -0.0703125 33.171875 0 C 32.222656 0.0390625 31.066406 0.078125 29.703125 0.109375 C 28.335938 0.148438 26.894531 0.175781 25.375 0.1875 C 23.863281 0.207031 22.394531 0.21875 20.96875 0.21875 C 19.539062 0.21875 18.300781 0.21875 17.25 0.21875 Z M 17.25 0.21875 "/></g></g></g><g fill="#d90368" fill-opacity="1"><g transform="translate(69.996737, 118.199038)"><g><path d="M 10.234375 0.4375 C 7.460938 0.4375 5.226562 -0.21875 3.53125 -1.53125 C 1.832031 -2.84375 0.984375 -5.050781 0.984375 -8.15625 C 0.984375 -10.894531 1.957031 -13.054688 3.90625 -14.640625 C 5.863281 -16.234375 8.554688 -17.320312 11.984375 -17.90625 C 15.128906 -18.34375 17.335938 -18.785156 18.609375 -19.234375 C 19.890625 -19.691406 20.53125 -20.414062 20.53125 -21.40625 C 20.53125 -21.988281 20.128906 -22.535156 19.328125 -23.046875 C 18.523438 -23.554688 17.15625 -23.8125 15.21875 -23.8125 C 13.570312 -23.8125 11.875 -23.554688 10.125 -23.046875 C 8.375 -22.535156 6.84375 -21.695312 5.53125 -20.53125 C 5.125 -19.945312 4.65625 -19.78125 4.125 -20.03125 C 3.601562 -20.289062 3.359375 -20.820312 3.390625 -21.625 C 3.429688 -22.03125 3.488281 -22.585938 3.5625 -23.296875 C 3.632812 -24.003906 3.710938 -24.722656 3.796875 -25.453125 C 3.890625 -26.179688 3.957031 -26.726562 4 -27.09375 C 4.101562 -27.976562 4.46875 -28.546875 5.09375 -28.796875 C 8.125 -29.742188 11.410156 -30.21875 14.953125 -30.21875 C 19.148438 -30.21875 22.40625 -29.3125 24.71875 -27.5 C 27.039062 -25.695312 28.382812 -22.804688 28.75 -18.828125 C 28.851562 -17.441406 28.957031 -15.726562 29.0625 -13.6875 C 29.175781 -11.644531 29.285156 -9.5625 29.390625 -7.4375 C 29.503906 -5.320312 29.597656 -3.425781 29.671875 -1.75 C 29.671875 -0.800781 29.160156 -0.238281 28.140625 -0.0625 C 27.773438 0.0507812 27.316406 0.125 26.765625 0.15625 C 26.222656 0.195312 25.695312 0.21875 25.1875 0.21875 C 24.75 0.21875 24.191406 0.195312 23.515625 0.15625 C 22.835938 0.125 22.28125 0.0507812 21.84375 -0.0625 C 21.375 -0.132812 20.988281 -0.34375 20.6875 -0.6875 C 20.394531 -1.03125 20.285156 -1.441406 20.359375 -1.921875 C 20.429688 -2.285156 20.515625 -2.757812 20.609375 -3.34375 C 20.703125 -3.925781 20.769531 -4.507812 20.8125 -5.09375 C 20.882812 -5.601562 20.765625 -5.898438 20.453125 -5.984375 C 20.140625 -6.078125 19.875 -5.890625 19.65625 -5.421875 C 18.8125 -3.628906 17.515625 -2.203125 15.765625 -1.140625 C 14.015625 -0.0859375 12.171875 0.4375 10.234375 0.4375 Z M 13.96875 -6.34375 C 14.875 -6.34375 15.828125 -6.582031 16.828125 -7.0625 C 17.835938 -7.539062 18.6875 -8.222656 19.375 -9.109375 C 20.070312 -10.003906 20.421875 -11.09375 20.421875 -12.375 C 20.421875 -13.25 20.15625 -13.96875 19.625 -14.53125 C 19.09375 -15.101562 18.191406 -15.390625 16.921875 -15.390625 C 15.640625 -15.390625 14.414062 -15.148438 13.25 -14.671875 C 12.082031 -14.203125 11.132812 -13.554688 10.40625 -12.734375 C 9.675781 -11.910156 9.3125 -10.929688 9.3125 -9.796875 C 9.3125 -8.554688 9.675781 -7.671875 10.40625 -7.140625 C 11.132812 -6.609375 12.320312 -6.34375 13.96875 -6.34375 Z M 13.96875 -6.34375 "/></g></g></g><g fill="#d90368" fill-opacity="1"><g transform="translate(100.924274, 118.199038)"><g><path d="M 5.578125 0.21875 C 5.285156 0.21875 4.828125 0.195312 4.203125 0.15625 C 3.585938 0.125 3.046875 0.0703125 2.578125 0 C 2.242188 -0.0703125 1.957031 -0.234375 1.71875 -0.484375 C 1.488281 -0.742188 1.375 -1.09375 1.375 -1.53125 C 1.375 -4.707031 1.378906 -7.515625 1.390625 -9.953125 C 1.410156 -12.398438 1.4375 -14.632812 1.46875 -16.65625 C 1.507812 -18.6875 1.578125 -20.640625 1.671875 -22.515625 C 1.765625 -24.398438 1.882812 -26.367188 2.03125 -28.421875 C 2.132812 -29.222656 2.535156 -29.675781 3.234375 -29.78125 C 3.628906 -29.851562 4.097656 -29.90625 4.640625 -29.9375 C 5.191406 -29.976562 5.707031 -30 6.1875 -30 C 6.625 -30 7.171875 -29.976562 7.828125 -29.9375 C 8.484375 -29.90625 8.976562 -29.851562 9.3125 -29.78125 C 9.75 -29.707031 10.082031 -29.535156 10.3125 -29.265625 C 10.550781 -28.992188 10.617188 -28.675781 10.515625 -28.3125 C 10.328125 -27.613281 10.171875 -26.988281 10.046875 -26.4375 C 9.921875 -25.894531 9.859375 -25.257812 9.859375 -24.53125 C 9.859375 -23.976562 10.003906 -23.65625 10.296875 -23.5625 C 10.585938 -23.476562 10.84375 -23.726562 11.0625 -24.3125 C 11.9375 -26.394531 13.1875 -27.890625 14.8125 -28.796875 C 16.4375 -29.710938 18.25 -30.171875 20.25 -30.171875 C 21.09375 -30.171875 21.96875 -30.066406 22.875 -29.859375 C 23.789062 -29.660156 24.539062 -29.398438 25.125 -29.078125 C 25.851562 -28.671875 26.21875 -28.101562 26.21875 -27.375 C 26.21875 -26.238281 26.207031 -25.1875 26.1875 -24.21875 C 26.175781 -23.257812 26.132812 -22.195312 26.0625 -21.03125 C 26.019531 -20.332031 25.734375 -19.910156 25.203125 -19.765625 C 24.679688 -19.617188 24.21875 -19.765625 23.8125 -20.203125 C 22.832031 -21.046875 21.800781 -21.617188 20.71875 -21.921875 C 19.644531 -22.234375 18.5625 -22.390625 17.46875 -22.390625 C 16.113281 -22.390625 14.84375 -22.015625 13.65625 -21.265625 C 12.46875 -20.515625 11.507812 -19.4375 10.78125 -18.03125 C 10.050781 -16.632812 9.6875 -14.945312 9.6875 -12.96875 C 9.6875 -11.582031 9.734375 -10.148438 9.828125 -8.671875 C 9.921875 -7.191406 10.019531 -5.820312 10.125 -4.5625 C 10.238281 -3.3125 10.3125 -2.300781 10.34375 -1.53125 C 10.382812 -1.0625 10.265625 -0.695312 9.984375 -0.4375 C 9.710938 -0.1875 9.414062 -0.0195312 9.09375 0.0625 C 8.6875 0.09375 8.144531 0.125 7.46875 0.15625 C 6.789062 0.195312 6.160156 0.21875 5.578125 0.21875 Z M 5.578125 0.21875 "/></g></g></g><g fill="#d90368" fill-opacity="1"><g transform="translate(128.074823, 118.199038)"><g><path d="M 10.234375 0.4375 C 7.460938 0.4375 5.226562 -0.21875 3.53125 -1.53125 C 1.832031 -2.84375 0.984375 -5.050781 0.984375 -8.15625 C 0.984375 -10.894531 1.957031 -13.054688 3.90625 -14.640625 C 5.863281 -16.234375 8.554688 -17.320312 11.984375 -17.90625 C 15.128906 -18.34375 17.335938 -18.785156 18.609375 -19.234375 C 19.890625 -19.691406 20.53125 -20.414062 20.53125 -21.40625 C 20.53125 -21.988281 20.128906 -22.535156 19.328125 -23.046875 C 18.523438 -23.554688 17.15625 -23.8125 15.21875 -23.8125 C 13.570312 -23.8125 11.875 -23.554688 10.125 -23.046875 C 8.375 -22.535156 6.84375 -21.695312 5.53125 -20.53125 C 5.125 -19.945312 4.65625 -19.78125 4.125 -20.03125 C 3.601562 -20.289062 3.359375 -20.820312 3.390625 -21.625 C 3.429688 -22.03125 3.488281 -22.585938 3.5625 -23.296875 C 3.632812 -24.003906 3.710938 -24.722656 3.796875 -25.453125 C 3.890625 -26.179688 3.957031 -26.726562 4 -27.09375 C 4.101562 -27.976562 4.46875 -28.546875 5.09375 -28.796875 C 8.125 -29.742188 11.410156 -30.21875 14.953125 -30.21875 C 19.148438 -30.21875 22.40625 -29.3125 24.71875 -27.5 C 27.039062 -25.695312 28.382812 -22.804688 28.75 -18.828125 C 28.851562 -17.441406 28.957031 -15.726562 29.0625 -13.6875 C 29.175781 -11.644531 29.285156 -9.5625 29.390625 -7.4375 C 29.503906 -5.320312 29.597656 -3.425781 29.671875 -1.75 C 29.671875 -0.800781 29.160156 -0.238281 28.140625 -0.0625 C 27.773438 0.0507812 27.316406 0.125 26.765625 0.15625 C 26.222656 0.195312 25.695312 0.21875 25.1875 0.21875 C 24.75 0.21875 24.191406 0.195312 23.515625 0.15625 C 22.835938 0.125 22.28125 0.0507812 21.84375 -0.0625 C 21.375 -0.132812 20.988281 -0.34375 20.6875 -0.6875 C 20.394531 -1.03125 20.285156 -1.441406 20.359375 -1.921875 C 20.429688 -2.285156 20.515625 -2.757812 20.609375 -3.34375 C 20.703125 -3.925781 20.769531 -4.507812 20.8125 -5.09375 C 20.882812 -5.601562 20.765625 -5.898438 20.453125 -5.984375 C 20.140625 -6.078125 19.875 -5.890625 19.65625 -5.421875 C 18.8125 -3.628906 17.515625 -2.203125 15.765625 -1.140625 C 14.015625 -0.0859375 12.171875 0.4375 10.234375 0.4375 Z M 13.96875 -6.34375 C 14.875 -6.34375 15.828125 -6.582031 16.828125 -7.0625 C 17.835938 -7.539062 18.6875 -8.222656 19.375 -9.109375 C 20.070312 -10.003906 20.421875 -11.09375 20.421875 -12.375 C 20.421875 -13.25 20.15625 -13.96875 19.625 -14.53125 C 19.09375 -15.101562 18.191406 -15.390625 16.921875 -15.390625 C 15.640625 -15.390625 14.414062 -15.148438 13.25 -14.671875 C 12.082031 -14.203125 11.132812 -13.554688 10.40625 -12.734375 C 9.675781 -11.910156 9.3125 -10.929688 9.3125 -9.796875 C 9.3125 -8.554688 9.675781 -7.671875 10.40625 -7.140625 C 11.132812 -6.609375 12.320312 -6.34375 13.96875 -6.34375 Z M 13.96875 -6.34375 "/></g></g></g><g fill="#d90368" fill-opacity="1"><g transform="translate(159.006156, 118.199038)"><g/></g></g><g fill="#3b28cc" fill-opacity="1"><g transform="translate(34.705652, 198.342189)"><g><path d="M 7.5 -11.75 L 9.046875 -11.75 C 10.492188 -11.75 11.578125 -12.035156 12.296875 -12.609375 C 13.015625 -13.179688 13.375 -14.015625 13.375 -15.109375 C 13.375 -16.210938 13.070312 -17.023438 12.46875 -17.546875 C 11.875 -18.078125 10.929688 -18.34375 9.640625 -18.34375 L 7.5 -18.34375 Z M 18.140625 -15.28125 C 18.140625 -12.894531 17.390625 -11.066406 15.890625 -9.796875 C 14.398438 -8.535156 12.28125 -7.90625 9.53125 -7.90625 L 7.5 -7.90625 L 7.5 0 L 2.796875 0 L 2.796875 -22.203125 L 9.890625 -22.203125 C 12.578125 -22.203125 14.625 -21.625 16.03125 -20.46875 C 17.4375 -19.3125 18.140625 -17.582031 18.140625 -15.28125 Z M 18.140625 -15.28125 "/></g></g></g><g fill="#3b28cc" fill-opacity="1"><g transform="translate(54.235245, 198.342189)"><g><path d="M 11.90625 -17.296875 C 12.53125 -17.296875 13.050781 -17.253906 13.46875 -17.171875 L 13.125 -12.828125 C 12.75 -12.921875 12.289062 -12.96875 11.75 -12.96875 C 10.28125 -12.96875 9.128906 -12.585938 8.296875 -11.828125 C 7.472656 -11.066406 7.0625 -10.003906 7.0625 -8.640625 L 7.0625 0 L 2.4375 0 L 2.4375 -16.984375 L 5.9375 -16.984375 L 6.625 -14.125 L 6.84375 -14.125 C 7.375 -15.082031 8.085938 -15.847656 8.984375 -16.421875 C 9.878906 -17.003906 10.851562 -17.296875 11.90625 -17.296875 Z M 11.90625 -17.296875 "/></g></g></g><g fill="#3b28cc" fill-opacity="1"><g transform="translate(68.358512, 198.342189)"><g><path d="M 9.46875 -14 C 8.476562 -14 7.703125 -13.6875 7.140625 -13.0625 C 6.585938 -12.445312 6.273438 -11.566406 6.203125 -10.421875 L 12.703125 -10.421875 C 12.679688 -11.566406 12.378906 -12.445312 11.796875 -13.0625 C 11.222656 -13.6875 10.445312 -14 9.46875 -14 Z M 10.109375 0.296875 C 7.378906 0.296875 5.242188 -0.453125 3.703125 -1.953125 C 2.160156 -3.460938 1.390625 -5.601562 1.390625 -8.375 C 1.390625 -11.21875 2.101562 -13.414062 3.53125 -14.96875 C 4.957031 -16.519531 6.925781 -17.296875 9.4375 -17.296875 C 11.832031 -17.296875 13.695312 -16.613281 15.03125 -15.25 C 16.375 -13.882812 17.046875 -11.992188 17.046875 -9.578125 L 17.046875 -7.34375 L 6.09375 -7.34375 C 6.144531 -6.019531 6.535156 -4.988281 7.265625 -4.25 C 7.992188 -3.507812 9.015625 -3.140625 10.328125 -3.140625 C 11.347656 -3.140625 12.3125 -3.242188 13.21875 -3.453125 C 14.132812 -3.671875 15.09375 -4.015625 16.09375 -4.484375 L 16.09375 -0.890625 C 15.28125 -0.484375 14.410156 -0.1875 13.484375 0 C 12.566406 0.195312 11.441406 0.296875 10.109375 0.296875 Z M 10.109375 0.296875 "/></g></g></g><g fill="#3b28cc" fill-opacity="1"><g transform="translate(86.733946, 198.342189)"><g><path d="M 11.8125 -13.5 L 7.8125 -13.5 L 7.8125 0 L 3.171875 0 L 3.171875 -13.5 L 0.625 -13.5 L 0.625 -15.734375 L 3.171875 -16.984375 L 3.171875 -18.234375 C 3.171875 -20.160156 3.644531 -21.566406 4.59375 -22.453125 C 5.550781 -23.347656 7.078125 -23.796875 9.171875 -23.796875 C 10.773438 -23.796875 12.195312 -23.5625 13.4375 -23.09375 L 12.265625 -19.6875 C 11.328125 -19.976562 10.460938 -20.125 9.671875 -20.125 C 9.015625 -20.125 8.539062 -19.925781 8.25 -19.53125 C 7.957031 -19.144531 7.8125 -18.648438 7.8125 -18.046875 L 7.8125 -16.984375 L 11.8125 -16.984375 Z M 11.8125 -13.5 "/></g></g></g><g fill="#3b28cc" fill-opacity="1"><g transform="translate(98.776688, 198.342189)"><g><path d="M 9.46875 -14 C 8.476562 -14 7.703125 -13.6875 7.140625 -13.0625 C 6.585938 -12.445312 6.273438 -11.566406 6.203125 -10.421875 L 12.703125 -10.421875 C 12.679688 -11.566406 12.378906 -12.445312 11.796875 -13.0625 C 11.222656 -13.6875 10.445312 -14 9.46875 -14 Z M 10.109375 0.296875 C 7.378906 0.296875 5.242188 -0.453125 3.703125 -1.953125 C 2.160156 -3.460938 1.390625 -5.601562 1.390625 -8.375 C 1.390625 -11.21875 2.101562 -13.414062 3.53125 -14.96875 C 4.957031 -16.519531 6.925781 -17.296875 9.4375 -17.296875 C 11.832031 -17.296875 13.695312 -16.613281 15.03125 -15.25 C 16.375 -13.882812 17.046875 -11.992188 17.046875 -9.578125 L 17.046875 -7.34375 L 6.09375 -7.34375 C 6.144531 -6.019531 6.535156 -4.988281 7.265625 -4.25 C 7.992188 -3.507812 9.015625 -3.140625 10.328125 -3.140625 C 11.347656 -3.140625 12.3125 -3.242188 13.21875 -3.453125 C 14.132812 -3.671875 15.09375 -4.015625 16.09375 -4.484375 L 16.09375 -0.890625 C 15.28125 -0.484375 14.410156 -0.1875 13.484375 0 C 12.566406 0.195312 11.441406 0.296875 10.109375 0.296875 Z M 10.109375 0.296875 "/></g></g></g><g fill="#3b28cc" fill-opacity="1"><g transform="translate(117.152122, 198.342189)"><g><path d="M 2.234375 -21.375 C 2.234375 -22.882812 3.070312 -23.640625 4.75 -23.640625 C 6.4375 -23.640625 7.28125 -22.882812 7.28125 -21.375 C 7.28125 -20.65625 7.066406 -20.09375 6.640625 -19.6875 C 6.222656 -19.289062 5.59375 -19.09375 4.75 -19.09375 C 3.070312 -19.09375 2.234375 -19.851562 2.234375 -21.375 Z M 7.0625 0 L 2.4375 0 L 2.4375 -16.984375 L 7.0625 -16.984375 Z M 7.0625 0 "/></g></g></g><g fill="#3b28cc" fill-opacity="1"><g transform="translate(126.643565, 198.342189)"><g><path d="M 9.578125 -3.390625 C 10.390625 -3.390625 11.363281 -3.566406 12.5 -3.921875 L 12.5 -0.46875 C 11.34375 0.0390625 9.925781 0.296875 8.25 0.296875 C 6.394531 0.296875 5.046875 -0.164062 4.203125 -1.09375 C 3.359375 -2.03125 2.9375 -3.4375 2.9375 -5.3125 L 2.9375 -13.5 L 0.71875 -13.5 L 0.71875 -15.46875 L 3.265625 -17.015625 L 4.609375 -20.59375 L 7.5625 -20.59375 L 7.5625 -16.984375 L 12.3125 -16.984375 L 12.3125 -13.5 L 7.5625 -13.5 L 7.5625 -5.3125 C 7.5625 -4.65625 7.742188 -4.171875 8.109375 -3.859375 C 8.484375 -3.546875 8.972656 -3.390625 9.578125 -3.390625 Z M 9.578125 -3.390625 "/></g></g></g><g fill="#3b28cc" fill-opacity="1"><g transform="translate(140.144194, 198.342189)"><g><path d="M 13.21875 0 L 12.3125 -2.3125 L 12.203125 -2.3125 C 11.421875 -1.320312 10.613281 -0.640625 9.78125 -0.265625 C 8.957031 0.109375 7.882812 0.296875 6.5625 0.296875 C 4.925781 0.296875 3.640625 -0.164062 2.703125 -1.09375 C 1.773438 -2.019531 1.3125 -3.347656 1.3125 -5.078125 C 1.3125 -6.878906 1.941406 -8.207031 3.203125 -9.0625 C 4.460938 -9.914062 6.363281 -10.390625 8.90625 -10.484375 L 11.84375 -10.578125 L 11.84375 -11.3125 C 11.84375 -13.039062 10.960938 -13.90625 9.203125 -13.90625 C 7.847656 -13.90625 6.253906 -13.492188 4.421875 -12.671875 L 2.890625 -15.796875 C 4.835938 -16.816406 7.003906 -17.328125 9.390625 -17.328125 C 11.671875 -17.328125 13.414062 -16.832031 14.625 -15.84375 C 15.84375 -14.851562 16.453125 -13.34375 16.453125 -11.3125 L 16.453125 0 Z M 11.84375 -7.875 L 10.0625 -7.8125 C 8.707031 -7.769531 7.703125 -7.523438 7.046875 -7.078125 C 6.390625 -6.628906 6.0625 -5.953125 6.0625 -5.046875 C 6.0625 -3.734375 6.8125 -3.078125 8.3125 -3.078125 C 9.382812 -3.078125 10.238281 -3.382812 10.875 -4 C 11.519531 -4.625 11.84375 -5.445312 11.84375 -6.46875 Z M 11.84375 -7.875 "/></g></g></g><g fill="#3b28cc" fill-opacity="1"><g transform="translate(227.60249, 163.56902)"><g><path d="M 29.484375 0.421875 C 28.421875 0.421875 27.078125 0.398438 25.453125 0.359375 C 23.835938 0.328125 22.238281 0.273438 20.65625 0.203125 C 19.070312 0.140625 17.753906 0.0703125 16.703125 0 C 15.921875 -0.144531 15.226562 -0.550781 14.625 -1.21875 C 14.03125 -1.882812 13.769531 -2.640625 13.84375 -3.484375 C 14.757812 -11.023438 15.476562 -18.332031 16 -25.40625 C 16.53125 -32.488281 16.765625 -39.34375 16.703125 -45.96875 C 16.703125 -48.007812 16.503906 -49.519531 16.109375 -50.5 C 15.722656 -51.488281 14.828125 -52.019531 13.421875 -52.09375 C 12.296875 -52.09375 10.957031 -51.738281 9.40625 -51.03125 C 7.851562 -50.332031 6.441406 -49.628906 5.171875 -48.921875 C 4.328125 -48.359375 3.429688 -48.253906 2.484375 -48.609375 C 1.535156 -48.960938 1.0625 -49.804688 1.0625 -51.140625 C 1.0625 -54.453125 1.078125 -57.550781 1.109375 -60.4375 C 1.140625 -63.332031 1.265625 -66.222656 1.484375 -69.109375 C 1.617188 -70.941406 2.566406 -72.035156 4.328125 -72.390625 C 6.648438 -72.804688 9.289062 -73.15625 12.25 -73.4375 C 15.21875 -73.71875 18.125 -73.945312 20.96875 -74.125 C 23.820312 -74.300781 26.203125 -74.390625 28.109375 -74.390625 C 29.441406 -74.390625 31.113281 -74.367188 33.125 -74.328125 C 35.132812 -74.296875 36.914062 -74.175781 38.46875 -73.96875 C 39.238281 -73.894531 39.890625 -73.59375 40.421875 -73.0625 C 40.953125 -72.539062 41.25 -71.890625 41.3125 -71.109375 C 41.8125 -64.628906 42.21875 -57.476562 42.53125 -49.65625 C 42.851562 -41.84375 43.097656 -33.898438 43.265625 -25.828125 C 43.441406 -17.765625 43.53125 -10.109375 43.53125 -2.859375 C 43.53125 -2.078125 43.226562 -1.441406 42.625 -0.953125 C 42.03125 -0.460938 41.347656 -0.144531 40.578125 0 C 39.023438 0.144531 37.140625 0.25 34.921875 0.3125 C 32.703125 0.382812 30.890625 0.421875 29.484375 0.421875 Z M 29.484375 0.421875 "/></g></g></g><g fill="#3b28cc" fill-opacity="1"><g transform="translate(273.568048, 163.56902)"><g><path d="M 35.828125 0.421875 C 33.640625 0.421875 31.171875 0.398438 28.421875 0.359375 C 25.671875 0.328125 22.90625 0.296875 20.125 0.265625 C 17.34375 0.234375 14.753906 0.195312 12.359375 0.15625 C 9.960938 0.125 7.992188 0.0703125 6.453125 0 C 3.421875 -0.207031 1.867188 -1.546875 1.796875 -4.015625 C 1.796875 -5.773438 1.828125 -7.832031 1.890625 -10.1875 C 1.960938 -12.550781 2.035156 -14.722656 2.109375 -16.703125 C 2.390625 -20.078125 3.535156 -23.03125 5.546875 -25.5625 C 7.554688 -28.101562 10.09375 -30.320312 13.15625 -32.21875 C 16.21875 -34.125 19.421875 -35.832031 22.765625 -37.34375 C 26.117188 -38.863281 29.253906 -40.289062 32.171875 -41.625 C 35.097656 -42.96875 37.492188 -44.304688 39.359375 -45.640625 C 41.222656 -46.984375 42.15625 -48.46875 42.15625 -50.09375 C 42.15625 -51.851562 41.097656 -53.171875 38.984375 -54.046875 C 36.878906 -54.929688 34.207031 -55.375 30.96875 -55.375 C 28.78125 -55.375 26.414062 -55.035156 23.875 -54.359375 C 21.34375 -53.691406 18.894531 -52.796875 16.53125 -51.671875 C 14.175781 -50.546875 12.117188 -49.3125 10.359375 -47.96875 C 9.441406 -47.050781 8.453125 -46.785156 7.390625 -47.171875 C 6.335938 -47.566406 5.847656 -48.609375 5.921875 -50.296875 C 6.054688 -52.835938 6.265625 -55.832031 6.546875 -59.28125 C 6.828125 -62.726562 7.109375 -65.828125 7.390625 -68.578125 C 7.609375 -69.921875 8.347656 -70.875 9.609375 -71.4375 C 13.554688 -72.5625 18.03125 -73.40625 23.03125 -73.96875 C 28.039062 -74.53125 32.691406 -74.8125 36.984375 -74.8125 C 47.128906 -74.8125 55 -73.257812 60.59375 -70.15625 C 66.195312 -67.0625 69 -62.03125 69 -55.0625 C 69 -51.46875 68.097656 -48.347656 66.296875 -45.703125 C 64.503906 -43.054688 62.195312 -40.78125 59.375 -38.875 C 56.5625 -36.976562 53.570312 -35.328125 50.40625 -33.921875 C 47.238281 -32.515625 44.226562 -31.210938 41.375 -30.015625 C 38.519531 -28.816406 36.210938 -27.632812 34.453125 -26.46875 C 32.691406 -25.3125 31.8125 -24.023438 31.8125 -22.609375 C 31.875 -21.128906 32.71875 -20.035156 34.34375 -19.328125 C 35.96875 -18.628906 38.925781 -18.28125 43.21875 -18.28125 C 47.582031 -18.28125 51.769531 -18.96875 55.78125 -20.34375 C 59.800781 -21.71875 63.363281 -23.707031 66.46875 -26.3125 C 67.519531 -27.363281 68.609375 -27.695312 69.734375 -27.3125 C 70.867188 -26.925781 71.4375 -25.921875 71.4375 -24.296875 C 71.4375 -21.054688 71.414062 -17.5 71.375 -13.625 C 71.34375 -9.75 71.253906 -6.265625 71.109375 -3.171875 C 71.109375 -2.460938 70.914062 -1.773438 70.53125 -1.109375 C 70.144531 -0.441406 69.566406 -0.0703125 68.796875 0 C 65.484375 0.207031 61.816406 0.347656 57.796875 0.421875 C 53.785156 0.492188 49.84375 0.507812 45.96875 0.46875 C 42.09375 0.4375 38.710938 0.421875 35.828125 0.421875 Z M 35.828125 0.421875 "/></g></g></g><g fill="#d90368" fill-opacity="1"><g transform="translate(34.635339, 161.473883)"><g><path d="M 18.34375 0.4375 C 16.769531 0.4375 15 0.316406 13.03125 0.078125 C 11.0625 -0.160156 9.117188 -0.5 7.203125 -0.9375 C 5.285156 -1.375 3.578125 -1.847656 2.078125 -2.359375 C 1.460938 -2.578125 1.15625 -3.125 1.15625 -4 C 1.15625 -5.195312 1.160156 -6.390625 1.171875 -7.578125 C 1.191406 -8.765625 1.222656 -9.960938 1.265625 -11.171875 C 1.265625 -11.929688 1.519531 -12.398438 2.03125 -12.578125 C 2.539062 -12.765625 2.992188 -12.601562 3.390625 -12.09375 C 5.210938 -10.125 7.410156 -8.703125 9.984375 -7.828125 C 12.566406 -6.953125 15.257812 -6.515625 18.0625 -6.515625 C 20.476562 -6.515625 22.40625 -6.867188 23.84375 -7.578125 C 25.28125 -8.296875 26 -9.347656 26 -10.734375 C 26 -11.785156 25.570312 -12.675781 24.71875 -13.40625 C 23.863281 -14.144531 22.722656 -14.796875 21.296875 -15.359375 C 19.867188 -15.921875 18.304688 -16.457031 16.609375 -16.96875 C 14.921875 -17.476562 13.234375 -18.035156 11.546875 -18.640625 C 9.867188 -19.242188 8.316406 -19.984375 6.890625 -20.859375 C 5.472656 -21.734375 4.332031 -22.800781 3.46875 -24.0625 C 2.613281 -25.320312 2.1875 -26.847656 2.1875 -28.640625 C 2.1875 -30.929688 2.894531 -32.828125 4.3125 -34.328125 C 5.738281 -35.828125 7.675781 -36.941406 10.125 -37.671875 C 12.570312 -38.398438 15.3125 -38.765625 18.34375 -38.765625 C 20.425781 -38.765625 22.597656 -38.5625 24.859375 -38.15625 C 27.117188 -37.757812 29.125 -37.175781 30.875 -36.40625 C 31.53125 -36.039062 31.859375 -35.515625 31.859375 -34.828125 L 31.859375 -28.6875 C 31.859375 -28 31.613281 -27.535156 31.125 -27.296875 C 30.632812 -27.054688 30.1875 -27.175781 29.78125 -27.65625 C 28.25 -29.039062 26.515625 -30.085938 24.578125 -30.796875 C 22.648438 -31.503906 20.695312 -31.859375 18.71875 -31.859375 C 17.375 -31.859375 16.085938 -31.722656 14.859375 -31.453125 C 13.640625 -31.179688 12.644531 -30.769531 11.875 -30.21875 C 11.113281 -29.675781 10.734375 -28.96875 10.734375 -28.09375 C 10.734375 -27.101562 11.171875 -26.257812 12.046875 -25.5625 C 12.921875 -24.875 14.066406 -24.253906 15.484375 -23.703125 C 16.910156 -23.160156 18.484375 -22.613281 20.203125 -22.0625 C 21.921875 -21.519531 23.628906 -20.925781 25.328125 -20.28125 C 27.023438 -19.644531 28.582031 -18.878906 30 -17.984375 C 31.425781 -17.085938 32.578125 -16.019531 33.453125 -14.78125 C 34.328125 -13.539062 34.765625 -12.046875 34.765625 -10.296875 C 34.765625 -6.929688 33.300781 -4.300781 30.375 -2.40625 C 27.457031 -0.507812 23.445312 0.4375 18.34375 0.4375 Z M 18.34375 0.4375 "/></g></g></g><g fill="#d90368" fill-opacity="1"><g transform="translate(70.488956, 161.473883)"><g><path d="M 10.234375 0.4375 C 7.460938 0.4375 5.226562 -0.21875 3.53125 -1.53125 C 1.832031 -2.84375 0.984375 -5.050781 0.984375 -8.15625 C 0.984375 -10.894531 1.957031 -13.054688 3.90625 -14.640625 C 5.863281 -16.234375 8.554688 -17.320312 11.984375 -17.90625 C 15.128906 -18.34375 17.335938 -18.785156 18.609375 -19.234375 C 19.890625 -19.691406 20.53125 -20.414062 20.53125 -21.40625 C 20.53125 -21.988281 20.128906 -22.535156 19.328125 -23.046875 C 18.523438 -23.554688 17.15625 -23.8125 15.21875 -23.8125 C 13.570312 -23.8125 11.875 -23.554688 10.125 -23.046875 C 8.375 -22.535156 6.84375 -21.695312 5.53125 -20.53125 C 5.125 -19.945312 4.65625 -19.78125 4.125 -20.03125 C 3.601562 -20.289062 3.359375 -20.820312 3.390625 -21.625 C 3.429688 -22.03125 3.488281 -22.585938 3.5625 -23.296875 C 3.632812 -24.003906 3.710938 -24.722656 3.796875 -25.453125 C 3.890625 -26.179688 3.957031 -26.726562 4 -27.09375 C 4.101562 -27.976562 4.46875 -28.546875 5.09375 -28.796875 C 8.125 -29.742188 11.410156 -30.21875 14.953125 -30.21875 C 19.148438 -30.21875 22.40625 -29.3125 24.71875 -27.5 C 27.039062 -25.695312 28.382812 -22.804688 28.75 -18.828125 C 28.851562 -17.441406 28.957031 -15.726562 29.0625 -13.6875 C 29.175781 -11.644531 29.285156 -9.5625 29.390625 -7.4375 C 29.503906 -5.320312 29.597656 -3.425781 29.671875 -1.75 C 29.671875 -0.800781 29.160156 -0.238281 28.140625 -0.0625 C 27.773438 0.0507812 27.316406 0.125 26.765625 0.15625 C 26.222656 0.195312 25.695312 0.21875 25.1875 0.21875 C 24.75 0.21875 24.191406 0.195312 23.515625 0.15625 C 22.835938 0.125 22.28125 0.0507812 21.84375 -0.0625 C 21.375 -0.132812 20.988281 -0.34375 20.6875 -0.6875 C 20.394531 -1.03125 20.285156 -1.441406 20.359375 -1.921875 C 20.429688 -2.285156 20.515625 -2.757812 20.609375 -3.34375 C 20.703125 -3.925781 20.769531 -4.507812 20.8125 -5.09375 C 20.882812 -5.601562 20.765625 -5.898438 20.453125 -5.984375 C 20.140625 -6.078125 19.875 -5.890625 19.65625 -5.421875 C 18.8125 -3.628906 17.515625 -2.203125 15.765625 -1.140625 C 14.015625 -0.0859375 12.171875 0.4375 10.234375 0.4375 Z M 13.96875 -6.34375 C 14.875 -6.34375 15.828125 -6.582031 16.828125 -7.0625 C 17.835938 -7.539062 18.6875 -8.222656 19.375 -9.109375 C 20.070312 -10.003906 20.421875 -11.09375 20.421875 -12.375 C 20.421875 -13.25 20.15625 -13.96875 19.625 -14.53125 C 19.09375 -15.101562 18.191406 -15.390625 16.921875 -15.390625 C 15.640625 -15.390625 14.414062 -15.148438 13.25 -14.671875 C 12.082031 -14.203125 11.132812 -13.554688 10.40625 -12.734375 C 9.675781 -11.910156 9.3125 -10.929688 9.3125 -9.796875 C 9.3125 -8.554688 9.675781 -7.671875 10.40625 -7.140625 C 11.132812 -6.609375 12.320312 -6.34375 13.96875 -6.34375 Z M 13.96875 -6.34375 "/></g></g></g><g fill="#d90368" fill-opacity="1"><g transform="translate(101.416119, 161.473883)"><g><path d="M 5.578125 0.21875 C 5.285156 0.21875 4.828125 0.195312 4.203125 0.15625 C 3.585938 0.125 3.046875 0.0703125 2.578125 0 C 2.242188 -0.0703125 1.957031 -0.234375 1.71875 -0.484375 C 1.488281 -0.742188 1.375 -1.09375 1.375 -1.53125 C 1.375 -4.707031 1.378906 -7.515625 1.390625 -9.953125 C 1.410156 -12.398438 1.4375 -14.632812 1.46875 -16.65625 C 1.507812 -18.6875 1.578125 -20.640625 1.671875 -22.515625 C 1.765625 -24.398438 1.882812 -26.367188 2.03125 -28.421875 C 2.132812 -29.222656 2.535156 -29.675781 3.234375 -29.78125 C 3.628906 -29.851562 4.097656 -29.90625 4.640625 -29.9375 C 5.191406 -29.976562 5.707031 -30 6.1875 -30 C 6.625 -30 7.171875 -29.976562 7.828125 -29.9375 C 8.484375 -29.90625 8.976562 -29.851562 9.3125 -29.78125 C 9.75 -29.707031 10.082031 -29.535156 10.3125 -29.265625 C 10.550781 -28.992188 10.617188 -28.675781 10.515625 -28.3125 C 10.328125 -27.613281 10.171875 -26.988281 10.046875 -26.4375 C 9.921875 -25.894531 9.859375 -25.257812 9.859375 -24.53125 C 9.859375 -23.976562 10.003906 -23.65625 10.296875 -23.5625 C 10.585938 -23.476562 10.84375 -23.726562 11.0625 -24.3125 C 11.9375 -26.394531 13.1875 -27.890625 14.8125 -28.796875 C 16.4375 -29.710938 18.25 -30.171875 20.25 -30.171875 C 21.09375 -30.171875 21.96875 -30.066406 22.875 -29.859375 C 23.789062 -29.660156 24.539062 -29.398438 25.125 -29.078125 C 25.851562 -28.671875 26.21875 -28.101562 26.21875 -27.375 C 26.21875 -26.238281 26.207031 -25.1875 26.1875 -24.21875 C 26.175781 -23.257812 26.132812 -22.195312 26.0625 -21.03125 C 26.019531 -20.332031 25.734375 -19.910156 25.203125 -19.765625 C 24.679688 -19.617188 24.21875 -19.765625 23.8125 -20.203125 C 22.832031 -21.046875 21.800781 -21.617188 20.71875 -21.921875 C 19.644531 -22.234375 18.5625 -22.390625 17.46875 -22.390625 C 16.113281 -22.390625 14.84375 -22.015625 13.65625 -21.265625 C 12.46875 -20.515625 11.507812 -19.4375 10.78125 -18.03125 C 10.050781 -16.632812 9.6875 -14.945312 9.6875 -12.96875 C 9.6875 -11.582031 9.734375 -10.148438 9.828125 -8.671875 C 9.921875 -7.191406 10.019531 -5.820312 10.125 -4.5625 C 10.238281 -3.3125 10.3125 -2.300781 10.34375 -1.53125 C 10.382812 -1.0625 10.265625 -0.695312 9.984375 -0.4375 C 9.710938 -0.1875 9.414062 -0.0195312 9.09375 0.0625 C 8.6875 0.09375 8.144531 0.125 7.46875 0.15625 C 6.789062 0.195312 6.160156 0.21875 5.578125 0.21875 Z M 5.578125 0.21875 "/></g></g></g><g fill="#d90368" fill-opacity="1"><g transform="translate(128.566333, 161.473883)"><g><path d="M 10.234375 0.4375 C 7.460938 0.4375 5.226562 -0.21875 3.53125 -1.53125 C 1.832031 -2.84375 0.984375 -5.050781 0.984375 -8.15625 C 0.984375 -10.894531 1.957031 -13.054688 3.90625 -14.640625 C 5.863281 -16.234375 8.554688 -17.320312 11.984375 -17.90625 C 15.128906 -18.34375 17.335938 -18.785156 18.609375 -19.234375 C 19.890625 -19.691406 20.53125 -20.414062 20.53125 -21.40625 C 20.53125 -21.988281 20.128906 -22.535156 19.328125 -23.046875 C 18.523438 -23.554688 17.15625 -23.8125 15.21875 -23.8125 C 13.570312 -23.8125 11.875 -23.554688 10.125 -23.046875 C 8.375 -22.535156 6.84375 -21.695312 5.53125 -20.53125 C 5.125 -19.945312 4.65625 -19.78125 4.125 -20.03125 C 3.601562 -20.289062 3.359375 -20.820312 3.390625 -21.625 C 3.429688 -22.03125 3.488281 -22.585938 3.5625 -23.296875 C 3.632812 -24.003906 3.710938 -24.722656 3.796875 -25.453125 C 3.890625 -26.179688 3.957031 -26.726562 4 -27.09375 C 4.101562 -27.976562 4.46875 -28.546875 5.09375 -28.796875 C 8.125 -29.742188 11.410156 -30.21875 14.953125 -30.21875 C 19.148438 -30.21875 22.40625 -29.3125 24.71875 -27.5 C 27.039062 -25.695312 28.382812 -22.804688 28.75 -18.828125 C 28.851562 -17.441406 28.957031 -15.726562 29.0625 -13.6875 C 29.175781 -11.644531 29.285156 -9.5625 29.390625 -7.4375 C 29.503906 -5.320312 29.597656 -3.425781 29.671875 -1.75 C 29.671875 -0.800781 29.160156 -0.238281 28.140625 -0.0625 C 27.773438 0.0507812 27.316406 0.125 26.765625 0.15625 C 26.222656 0.195312 25.695312 0.21875 25.1875 0.21875 C 24.75 0.21875 24.191406 0.195312 23.515625 0.15625 C 22.835938 0.125 22.28125 0.0507812 21.84375 -0.0625 C 21.375 -0.132812 20.988281 -0.34375 20.6875 -0.6875 C 20.394531 -1.03125 20.285156 -1.441406 20.359375 -1.921875 C 20.429688 -2.285156 20.515625 -2.757812 20.609375 -3.34375 C 20.703125 -3.925781 20.769531 -4.507812 20.8125 -5.09375 C 20.882812 -5.601562 20.765625 -5.898438 20.453125 -5.984375 C 20.140625 -6.078125 19.875 -5.890625 19.65625 -5.421875 C 18.8125 -3.628906 17.515625 -2.203125 15.765625 -1.140625 C 14.015625 -0.0859375 12.171875 0.4375 10.234375 0.4375 Z M 13.96875 -6.34375 C 14.875 -6.34375 15.828125 -6.582031 16.828125 -7.0625 C 17.835938 -7.539062 18.6875 -8.222656 19.375 -9.109375 C 20.070312 -10.003906 20.421875 -11.09375 20.421875 -12.375 C 20.421875 -13.25 20.15625 -13.96875 19.625 -14.53125 C 19.09375 -15.101562 18.191406 -15.390625 16.921875 -15.390625 C 15.640625 -15.390625 14.414062 -15.148438 13.25 -14.671875 C 12.082031 -14.203125 11.132812 -13.554688 10.40625 -12.734375 C 9.675781 -11.910156 9.3125 -10.929688 9.3125 -9.796875 C 9.3125 -8.554688 9.675781 -7.671875 10.40625 -7.140625 C 11.132812 -6.609375 12.320312 -6.34375 13.96875 -6.34375 Z M 13.96875 -6.34375 "/></g></g></g><g fill="#d90368" fill-opacity="1"><g transform="translate(159.493496, 161.473883)"><g><path d="M 5.90625 -32.625 C 4.5625 -32.625 3.457031 -32.988281 2.59375 -33.71875 C 1.738281 -34.457031 1.3125 -35.390625 1.3125 -36.515625 C 1.3125 -37.679688 1.738281 -38.628906 2.59375 -39.359375 C 3.457031 -40.085938 4.5625 -40.453125 5.90625 -40.453125 C 7.300781 -40.453125 8.425781 -40.085938 9.28125 -39.359375 C 10.132812 -38.628906 10.5625 -37.679688 10.5625 -36.515625 C 10.5625 -35.390625 10.132812 -34.457031 9.28125 -33.71875 C 8.425781 -32.988281 7.300781 -32.625 5.90625 -32.625 Z M 6.015625 0.21875 C 5.722656 0.21875 5.25 0.207031 4.59375 0.1875 C 3.9375 0.175781 3.375 0.113281 2.90625 0 C 2.570312 -0.0703125 2.285156 -0.242188 2.046875 -0.515625 C 1.816406 -0.796875 1.703125 -1.15625 1.703125 -1.59375 C 1.703125 -4.757812 1.707031 -7.554688 1.71875 -9.984375 C 1.738281 -12.410156 1.765625 -14.632812 1.796875 -16.65625 C 1.835938 -18.6875 1.894531 -20.640625 1.96875 -22.515625 C 2.039062 -24.398438 2.148438 -26.367188 2.296875 -28.421875 C 2.335938 -28.890625 2.445312 -29.222656 2.625 -29.421875 C 2.8125 -29.628906 3.085938 -29.75 3.453125 -29.78125 C 3.847656 -29.851562 4.3125 -29.90625 4.84375 -29.9375 C 5.375 -29.976562 5.785156 -30 6.078125 -30 C 6.328125 -30 6.691406 -29.976562 7.171875 -29.9375 C 7.648438 -29.90625 8.070312 -29.851562 8.4375 -29.78125 C 8.800781 -29.707031 9.070312 -29.578125 9.25 -29.390625 C 9.4375 -29.210938 9.546875 -28.890625 9.578125 -28.421875 C 9.722656 -26.367188 9.832031 -24.398438 9.90625 -22.515625 C 9.976562 -20.640625 10.03125 -18.6875 10.0625 -16.65625 C 10.101562 -14.632812 10.132812 -12.398438 10.15625 -9.953125 C 10.175781 -7.515625 10.1875 -4.707031 10.1875 -1.53125 C 10.1875 -1.09375 10.066406 -0.742188 9.828125 -0.484375 C 9.585938 -0.234375 9.304688 -0.0703125 8.984375 0 C 8.503906 0.0703125 7.960938 0.125 7.359375 0.15625 C 6.753906 0.195312 6.304688 0.21875 6.015625 0.21875 Z M 6.015625 0.21875 "/></g></g></g><g fill="#d90368" fill-opacity="1"><g transform="translate(171.371719, 161.473883)"><g><path d="M 16.703125 0.21875 C 16.191406 0.21875 15.550781 0.207031 14.78125 0.1875 C 14.007812 0.175781 13.332031 0.113281 12.75 0 C 12.457031 -0.0703125 12.164062 -0.207031 11.875 -0.40625 C 11.582031 -0.613281 11.363281 -0.828125 11.21875 -1.046875 C 9.832031 -3.453125 8.488281 -6.125 7.1875 -9.0625 C 5.894531 -12 4.71875 -15.09375 3.65625 -18.34375 C 2.601562 -21.59375 1.675781 -24.84375 0.875 -28.09375 C 0.769531 -28.488281 0.816406 -28.859375 1.015625 -29.203125 C 1.210938 -29.554688 1.550781 -29.75 2.03125 -29.78125 C 2.425781 -29.851562 2.941406 -29.90625 3.578125 -29.9375 C 4.222656 -29.976562 4.726562 -30 5.09375 -30 C 5.382812 -30 5.945312 -29.976562 6.78125 -29.9375 C 7.625 -29.90625 8.25 -29.851562 8.65625 -29.78125 C 9.34375 -29.675781 9.757812 -29.257812 9.90625 -28.53125 C 10.195312 -24.550781 10.925781 -20.851562 12.09375 -17.4375 C 13.269531 -14.019531 14.421875 -11.128906 15.546875 -8.765625 C 15.910156 -8.066406 16.285156 -7.71875 16.671875 -7.71875 C 17.054688 -7.71875 17.429688 -8.066406 17.796875 -8.765625 C 18.554688 -10.367188 19.328125 -12.207031 20.109375 -14.28125 C 20.898438 -16.363281 21.597656 -18.609375 22.203125 -21.015625 C 22.804688 -23.429688 23.195312 -25.9375 23.375 -28.53125 C 23.519531 -29.257812 23.941406 -29.675781 24.640625 -29.78125 C 25.078125 -29.851562 25.695312 -29.90625 26.5 -29.9375 C 27.300781 -29.976562 27.867188 -30 28.203125 -30 C 28.640625 -30 29.164062 -29.976562 29.78125 -29.9375 C 30.40625 -29.90625 30.898438 -29.851562 31.265625 -29.78125 C 31.773438 -29.75 32.117188 -29.554688 32.296875 -29.203125 C 32.484375 -28.859375 32.519531 -28.488281 32.40625 -28.09375 C 31.0625 -23.125 29.507812 -18.285156 27.75 -13.578125 C 26 -8.867188 24.085938 -4.691406 22.015625 -1.046875 C 21.867188 -0.828125 21.65625 -0.613281 21.375 -0.40625 C 21.101562 -0.207031 20.820312 -0.0703125 20.53125 0 C 19.945312 0.113281 19.269531 0.175781 18.5 0.1875 C 17.738281 0.207031 17.140625 0.21875 16.703125 0.21875 Z M 16.703125 0.21875 "/></g></g></g><g fill="#d90368" fill-opacity="1"><g transform="translate(204.652635, 161.473883)"><g><path d="M 10.234375 0.4375 C 7.460938 0.4375 5.226562 -0.21875 3.53125 -1.53125 C 1.832031 -2.84375 0.984375 -5.050781 0.984375 -8.15625 C 0.984375 -10.894531 1.957031 -13.054688 3.90625 -14.640625 C 5.863281 -16.234375 8.554688 -17.320312 11.984375 -17.90625 C 15.128906 -18.34375 17.335938 -18.785156 18.609375 -19.234375 C 19.890625 -19.691406 20.53125 -20.414062 20.53125 -21.40625 C 20.53125 -21.988281 20.128906 -22.535156 19.328125 -23.046875 C 18.523438 -23.554688 17.15625 -23.8125 15.21875 -23.8125 C 13.570312 -23.8125 11.875 -23.554688 10.125 -23.046875 C 8.375 -22.535156 6.84375 -21.695312 5.53125 -20.53125 C 5.125 -19.945312 4.65625 -19.78125 4.125 -20.03125 C 3.601562 -20.289062 3.359375 -20.820312 3.390625 -21.625 C 3.429688 -22.03125 3.488281 -22.585938 3.5625 -23.296875 C 3.632812 -24.003906 3.710938 -24.722656 3.796875 -25.453125 C 3.890625 -26.179688 3.957031 -26.726562 4 -27.09375 C 4.101562 -27.976562 4.46875 -28.546875 5.09375 -28.796875 C 8.125 -29.742188 11.410156 -30.21875 14.953125 -30.21875 C 19.148438 -30.21875 22.40625 -29.3125 24.71875 -27.5 C 27.039062 -25.695312 28.382812 -22.804688 28.75 -18.828125 C 28.851562 -17.441406 28.957031 -15.726562 29.0625 -13.6875 C 29.175781 -11.644531 29.285156 -9.5625 29.390625 -7.4375 C 29.503906 -5.320312 29.597656 -3.425781 29.671875 -1.75 C 29.671875 -0.800781 29.160156 -0.238281 28.140625 -0.0625 C 27.773438 0.0507812 27.316406 0.125 26.765625 0.15625 C 26.222656 0.195312 25.695312 0.21875 25.1875 0.21875 C 24.75 0.21875 24.191406 0.195312 23.515625 0.15625 C 22.835938 0.125 22.28125 0.0507812 21.84375 -0.0625 C 21.375 -0.132812 20.988281 -0.34375 20.6875 -0.6875 C 20.394531 -1.03125 20.285156 -1.441406 20.359375 -1.921875 C 20.429688 -2.285156 20.515625 -2.757812 20.609375 -3.34375 C 20.703125 -3.925781 20.769531 -4.507812 20.8125 -5.09375 C 20.882812 -5.601562 20.765625 -5.898438 20.453125 -5.984375 C 20.140625 -6.078125 19.875 -5.890625 19.65625 -5.421875 C 18.8125 -3.628906 17.515625 -2.203125 15.765625 -1.140625 C 14.015625 -0.0859375 12.171875 0.4375 10.234375 0.4375 Z M 13.96875 -6.34375 C 14.875 -6.34375 15.828125 -6.582031 16.828125 -7.0625 C 17.835938 -7.539062 18.6875 -8.222656 19.375 -9.109375 C 20.070312 -10.003906 20.421875 -11.09375 20.421875 -12.375 C 20.421875 -13.25 20.15625 -13.96875 19.625 -14.53125 C 19.09375 -15.101562 18.191406 -15.390625 16.921875 -15.390625 C 15.640625 -15.390625 14.414062 -15.148438 13.25 -14.671875 C 12.082031 -14.203125 11.132812 -13.554688 10.40625 -12.734375 C 9.675781 -11.910156 9.3125 -10.929688 9.3125 -9.796875 C 9.3125 -8.554688 9.675781 -7.671875 10.40625 -7.140625 C 11.132812 -6.609375 12.320312 -6.34375 13.96875 -6.34375 Z M 13.96875 -6.34375 "/></g></g></g><g clip-path="url(#0e68e67349)"><g clip-path="url(#92e62a07a8)"><g clip-path="url(#5d992a78f4)"><g clip-path="url(#67401eed07)"><path fill="#d90368" d="M 208.109375 206.394531 C 210.554688 208.160156 212.371094 212.519531 217.707031 210.628906 C 223.148438 208.695312 220.484375 201.160156 219.726562 197.132812 C 219.324219 194.992188 219.589844 185.878906 214.871094 184.828125 C 210.742188 183.910156 208.53125 186.839844 206.066406 191.136719 C 203.863281 194.976562 199.46875 196.65625 200.128906 200.605469 C 200.746094 204.296875 206.609375 205.3125 208.109375 206.394531 " fill-opacity="1" fill-rule="nonzero"/></g></g></g></g><g clip-path="url(#c0a4063d07)"><g clip-path="url(#3eccced174)"><g clip-path="url(#ab98043372)"><path fill="#d90368" d="M 200.890625 214.878906 C 202.996094 212.328125 206.027344 211.429688 207.664062 212.875 C 209.300781 214.320312 208.921875 217.558594 206.816406 220.109375 C 204.714844 222.660156 201.683594 223.558594 200.046875 222.113281 C 198.410156 220.667969 198.789062 217.429688 200.890625 214.878906 " fill-opacity="1" fill-rule="nonzero"/></g></g></g><g clip-path="url(#d6a3cc6371)"><g clip-path="url(#35242063fe)"><g clip-path="url(#6ea8b8e912)"><path fill="#d90368" d="M 191.53125 205.515625 C 194.886719 203.925781 198.394531 204.378906 199.367188 206.523438 C 200.339844 208.671875 198.410156 211.703125 195.058594 213.292969 C 191.703125 214.886719 188.195312 214.433594 187.222656 212.285156 C 186.25 210.136719 188.179688 207.105469 191.53125 205.515625 " fill-opacity="1" fill-rule="nonzero"/></g></g></g><g clip-path="url(#f863999837)"><g clip-path="url(#bcb29455b3)"><g clip-path="url(#be883c3020)"><path fill="#d90368" d="M 190.921875 191.699219 C 194.527344 192.203125 197.246094 194.453125 196.988281 196.726562 C 196.730469 199 193.597656 200.4375 189.992188 199.933594 C 186.386719 199.429688 183.671875 197.179688 183.925781 194.90625 C 184.183594 192.632812 187.316406 191.195312 190.921875 191.699219 " fill-opacity="1" fill-rule="nonzero"/></g></g></g><g clip-path="url(#3fc79f1c65)"><g clip-path="url(#11fbc6916e)"><g clip-path="url(#d4642c3bac)"><path fill="#d90368" d="M 200.496094 180.550781 C 203.484375 182.417969 204.976562 185.542969 203.824219 187.535156 C 202.671875 189.523438 199.316406 189.625 196.324219 187.761719 C 193.335938 185.894531 191.84375 182.769531 192.996094 180.777344 C 194.148438 178.785156 197.503906 178.683594 200.496094 180.550781 " fill-opacity="1" fill-rule="nonzero"/></g></g></g><g clip-path="url(#6aee76bba3)"><g clip-path="url(#c9ee2fce2f)"><g clip-path="url(#c35d74e4bb)"><g clip-path="url(#1efb29ce90)"><path fill="#d90368" d="M 246.257812 242.199219 C 248.300781 243.605469 249.875 247.152344 254.222656 245.496094 C 258.652344 243.808594 256.324219 237.671875 255.625 234.378906 C 255.253906 232.625 255.300781 225.136719 251.402344 224.367188 C 247.996094 223.691406 246.238281 226.136719 244.292969 229.710938 C 242.558594 232.90625 238.980469 234.371094 239.597656 237.597656 C 240.171875 240.621094 245.007812 241.339844 246.257812 242.199219 " fill-opacity="1" fill-rule="nonzero"/></g></g></g></g><g clip-path="url(#d4baa1957a)"><g clip-path="url(#8d6cb694d7)"><g clip-path="url(#48bfcb86a9)"><path fill="#d90368" d="M 240.492188 249.304688 C 242.171875 247.171875 244.644531 246.375 246.015625 247.53125 C 247.386719 248.6875 247.136719 251.355469 245.457031 253.488281 C 243.777344 255.625 241.304688 256.417969 239.933594 255.261719 C 238.5625 254.105469 238.8125 251.441406 240.492188 249.304688 " fill-opacity="1" fill-rule="nonzero"/></g></g></g><g clip-path="url(#c55a77c917)"><g clip-path="url(#8fda56925d)"><g clip-path="url(#b8d1c43918)"><path fill="#d90368" d="M 232.628906 241.792969 C 235.355469 240.425781 238.242188 240.730469 239.082031 242.472656 C 239.925781 244.21875 238.398438 246.746094 235.671875 248.113281 C 232.949219 249.484375 230.058594 249.179688 229.21875 247.433594 C 228.378906 245.6875 229.90625 243.164062 232.628906 241.792969 " fill-opacity="1" fill-rule="nonzero"/></g></g></g><g clip-path="url(#bdf93f306c)"><g clip-path="url(#7e394c09fe)"><g clip-path="url(#d092d063bd)"><path fill="#d90368" d="M 231.867188 230.457031 C 234.839844 230.804688 237.113281 232.601562 236.941406 234.472656 C 236.777344 236.34375 234.230469 237.585938 231.261719 237.238281 C 228.289062 236.894531 226.015625 235.097656 226.183594 233.222656 C 226.351562 231.351562 228.898438 230.113281 231.867188 230.457031 " fill-opacity="1" fill-rule="nonzero"/></g></g></g><g clip-path="url(#265eb3e611)"><g clip-path="url(#cb254a0e30)"><g clip-path="url(#ab8f2b8895)"><path fill="#d90368" d="M 239.519531 221.125 C 242.007812 222.601562 243.292969 225.136719 242.382812 226.796875 C 241.476562 228.453125 238.71875 228.597656 236.230469 227.125 C 233.738281 225.648438 232.457031 223.109375 233.363281 221.453125 C 234.273438 219.796875 237.027344 219.648438 239.519531 221.125 " fill-opacity="1" fill-rule="nonzero"/></g></g></g><g clip-path="url(#ba7ccbf395)"><g clip-path="url(#2694e42e65)"><g clip-path="url(#bfc55e518b)"><g clip-path="url(#5b8f2798f7)"><path fill="#d90368" d="M 302.589844 211.90625 C 304.261719 213.023438 305.578125 215.875 309.082031 214.480469 C 312.648438 213.0625 310.6875 208.117188 310.085938 205.457031 C 309.761719 204.042969 309.710938 197.976562 306.542969 197.398438 C 303.773438 196.890625 302.378906 198.894531 300.847656 201.816406 C 299.480469 204.421875 296.601562 205.652344 297.136719 208.257812 C 297.640625 210.699219 301.566406 211.226562 302.589844 211.90625 " fill-opacity="1" fill-rule="nonzero"/></g></g></g></g><g clip-path="url(#15f8d764e4)"><g clip-path="url(#73e4c98e17)"><g clip-path="url(#4c03b7ed5a)"><path fill="#d90368" d="M 298.003906 217.730469 C 299.339844 215.980469 301.332031 215.308594 302.457031 216.230469 C 303.582031 217.148438 303.410156 219.3125 302.078125 221.0625 C 300.742188 222.808594 298.75 223.484375 297.625 222.5625 C 296.5 221.644531 296.671875 219.480469 298.003906 217.730469 " fill-opacity="1" fill-rule="nonzero"/></g></g></g><g clip-path="url(#c4d722a578)"><g clip-path="url(#d3bc41a889)"><g clip-path="url(#dd7797a382)"><path fill="#d90368" d="M 291.546875 211.742188 C 293.734375 210.597656 296.078125 210.8125 296.78125 212.214844 C 297.484375 213.621094 296.277344 215.683594 294.085938 216.824219 C 291.894531 217.96875 289.550781 217.753906 288.851562 216.351562 C 288.148438 214.945312 289.355469 212.882812 291.546875 211.742188 " fill-opacity="1" fill-rule="nonzero"/></g></g></g><g clip-path="url(#a359f989b4)"><g clip-path="url(#1cfd81aaf8)"><g clip-path="url(#037ebd4393)"><path fill="#d90368" d="M 290.792969 202.566406 C 293.203125 202.8125 295.066406 204.242188 294.953125 205.761719 C 294.839844 207.277344 292.792969 208.3125 290.382812 208.066406 C 287.972656 207.824219 286.109375 206.394531 286.222656 204.875 C 286.335938 203.359375 288.382812 202.324219 290.792969 202.566406 " fill-opacity="1" fill-rule="nonzero"/></g></g></g><g clip-path="url(#9a09dfca22)"><g clip-path="url(#bf85a5d73c)"><g clip-path="url(#6671900345)"><path fill="#d90368" d="M 296.878906 194.914062 C 298.914062 196.082031 299.984375 198.121094 299.265625 199.476562 C 298.550781 200.828125 296.320312 200.980469 294.285156 199.8125 C 292.25 198.648438 291.179688 196.609375 291.898438 195.253906 C 292.613281 193.902344 294.84375 193.75 296.878906 194.914062 " fill-opacity="1" fill-rule="nonzero"/></g></g></g><g clip-path="url(#b8583e41bc)"><g clip-path="url(#b27892fe30)"><g clip-path="url(#8e1ad21abd)"><g clip-path="url(#8aa1a519df)"><path fill="#d90368" d="M 267.421875 188.800781 C 269.25 190.019531 270.691406 193.144531 274.527344 191.617188 C 278.429688 190.0625 276.285156 184.652344 275.625 181.738281 C 275.273438 180.191406 275.214844 173.550781 271.75 172.917969 C 268.71875 172.363281 267.191406 174.554688 265.515625 177.75 C 264.019531 180.605469 260.863281 181.949219 261.453125 184.804688 C 262.003906 187.476562 266.300781 188.054688 267.421875 188.800781 " fill-opacity="1" fill-rule="nonzero"/></g></g></g></g><g clip-path="url(#2516b2a99b)"><g clip-path="url(#3ba26dc424)"><g clip-path="url(#3604d354df)"><path fill="#d90368" d="M 262.402344 195.175781 C 263.863281 193.261719 266.042969 192.523438 267.273438 193.53125 C 268.503906 194.539062 268.320312 196.90625 266.859375 198.820312 C 265.398438 200.734375 263.214844 201.472656 261.984375 200.464844 C 260.753906 199.457031 260.941406 197.089844 262.402344 195.175781 " fill-opacity="1" fill-rule="nonzero"/></g></g></g><g clip-path="url(#bc936a19f5)"><g clip-path="url(#348b176c40)"><g clip-path="url(#d2296e305b)"><path fill="#d90368" d="M 255.332031 188.617188 C 257.726562 187.367188 260.292969 187.601562 261.0625 189.136719 C 261.828125 190.671875 260.507812 192.933594 258.109375 194.183594 C 255.714844 195.433594 253.148438 195.199219 252.378906 193.664062 C 251.613281 192.128906 252.933594 189.867188 255.332031 188.617188 " fill-opacity="1" fill-rule="nonzero"/></g></g></g><g clip-path="url(#bf7016d124)"><g clip-path="url(#47d9f98486)"><g clip-path="url(#c9499a9718)"><path fill="#d90368" d="M 254.507812 178.574219 C 257.144531 178.84375 259.183594 180.40625 259.058594 182.070312 C 258.933594 183.730469 256.695312 184.863281 254.054688 184.597656 C 251.417969 184.328125 249.378906 182.765625 249.503906 181.101562 C 249.625 179.441406 251.867188 178.308594 254.507812 178.574219 " fill-opacity="1" fill-rule="nonzero"/></g></g></g><g clip-path="url(#70478941ed)"><g clip-path="url(#434333764e)"><g clip-path="url(#6d1d82fbdc)"><path fill="#d90368" d="M 261.167969 170.199219 C 263.394531 171.472656 264.566406 173.707031 263.78125 175.191406 C 263 176.671875 260.558594 176.835938 258.332031 175.5625 C 256.101562 174.285156 254.933594 172.050781 255.714844 170.570312 C 256.5 169.089844 258.941406 168.921875 261.167969 170.199219 " fill-opacity="1" fill-rule="nonzero"/></g></g></g><g clip-path="url(#0b1aca4999)"><g clip-path="url(#16457eafa4)"><g clip-path="url(#1707de7afa)"><g clip-path="url(#fbe76abcf1)"><path fill="#d90368" d="M 321.542969 184.199219 C 322.800781 185.039062 323.796875 187.1875 326.433594 186.140625 C 329.121094 185.070312 327.644531 181.34375 327.1875 179.34375 C 326.945312 178.277344 326.90625 173.707031 324.523438 173.273438 C 322.4375 172.890625 321.386719 174.398438 320.230469 176.597656 C 319.203125 178.5625 317.03125 179.488281 317.4375 181.453125 C 317.816406 183.289062 320.773438 183.6875 321.542969 184.199219 " fill-opacity="1" fill-rule="nonzero"/></g></g></g></g><g clip-path="url(#19da13a560)"><g clip-path="url(#0f55e396ba)"><g clip-path="url(#75d3615b75)"><path fill="#d90368" d="M 318.089844 188.585938 C 319.09375 187.269531 320.597656 186.761719 321.441406 187.457031 C 322.289062 188.148438 322.160156 189.777344 321.15625 191.09375 C 320.152344 192.410156 318.648438 192.917969 317.804688 192.226562 C 316.957031 191.535156 317.085938 189.902344 318.089844 188.585938 " fill-opacity="1" fill-rule="nonzero"/></g></g></g><g clip-path="url(#fad79e41c0)"><g clip-path="url(#19244136e8)"><g clip-path="url(#b988990b67)"><path fill="#d90368" d="M 313.226562 184.074219 C 314.875 183.214844 316.640625 183.375 317.167969 184.429688 C 317.695312 185.488281 316.789062 187.042969 315.136719 187.902344 C 313.488281 188.765625 311.722656 188.605469 311.195312 187.546875 C 310.667969 186.488281 311.574219 184.933594 313.226562 184.074219 " fill-opacity="1" fill-rule="nonzero"/></g></g></g><g clip-path="url(#c9a6ccaaa7)"><g clip-path="url(#3979d3947b)"><g clip-path="url(#a3afaf8c95)"><path fill="#d90368" d="M 312.65625 177.164062 C 314.472656 177.347656 315.875 178.425781 315.789062 179.570312 C 315.703125 180.714844 314.164062 181.492188 312.347656 181.308594 C 310.53125 181.125 309.128906 180.046875 309.214844 178.902344 C 309.300781 177.761719 310.84375 176.980469 312.65625 177.164062 " fill-opacity="1" fill-rule="nonzero"/></g></g></g><g clip-path="url(#bdade663d6)"><g clip-path="url(#61ed29b731)"><g clip-path="url(#150d3d6cd7)"><path fill="#d90368" d="M 317.242188 171.402344 C 318.773438 172.28125 319.578125 173.816406 319.039062 174.835938 C 318.5 175.855469 316.820312 175.96875 315.289062 175.089844 C 313.757812 174.214844 312.949219 172.675781 313.488281 171.65625 C 314.027344 170.636719 315.707031 170.523438 317.242188 171.402344 " fill-opacity="1" fill-rule="nonzero"/></g></g></g></svg>