<svg xmlns="http://www.w3.org/2000/svg" xmlns:xlink="http://www.w3.org/1999/xlink" width="500" zoomAndPan="magnify" viewBox="0 0 375 374.999991" height="500" preserveAspectRatio="xMidYMid meet" version="1.0"><defs><g/><clipPath id="fd0373b58f"><path d="M 14.492188 88.863281 L 360.242188 88.863281 L 360.242188 286 L 14.492188 286 Z M 14.492188 88.863281 " clip-rule="nonzero"/></clipPath></defs><g clip-path="url(#fd0373b58f)"><path fill="#fca311" d="M 337.359375 187.339844 C 350.96875 177.582031 359.878906 161.679688 360.035156 143.6875 C 360.289062 113.773438 335.941406 89.085938 306.027344 88.949219 C 288.25 88.867188 272.449219 97.335938 262.492188 110.476562 C 258.851562 115.285156 253.234375 118.191406 247.203125 118.191406 L 127.785156 118.191406 C 121.835938 118.191406 116.210938 115.425781 112.636719 110.667969 C 102.691406 97.417969 86.824219 88.867188 68.964844 88.949219 C 39.332031 89.085938 14.699219 114.054688 14.953125 143.6875 C 15.109375 161.679688 24.019531 177.582031 37.632812 187.339844 C 24 197.117188 15.085938 213.046875 14.953125 231.066406 C 14.738281 260.652344 38.558594 285.148438 68.136719 285.722656 C 89.160156 286.132812 107.523438 274.582031 116.886719 257.417969 C 120.1875 251.367188 126.597656 247.660156 133.492188 247.660156 L 241.496094 247.660156 C 248.390625 247.660156 254.800781 251.367188 258.101562 257.417969 C 267.464844 274.582031 285.828125 286.132812 306.851562 285.722656 C 336.429688 285.148438 360.25 260.652344 360.035156 231.066406 C 359.90625 213.046875 350.988281 197.117188 337.359375 187.339844 Z M 337.359375 187.339844 " fill-opacity="1" fill-rule="nonzero"/></g><g fill="#d90368" fill-opacity="1"><g transform="translate(208.789738, 222.461375)"><g><path d="M 29.59375 0.421875 C 28.53125 0.421875 27.1875 0.398438 25.5625 0.359375 C 23.9375 0.328125 22.328125 0.273438 20.734375 0.203125 C 19.140625 0.140625 17.816406 0.0703125 16.765625 0 C 15.984375 -0.144531 15.289062 -0.550781 14.6875 -1.21875 C 14.09375 -1.894531 13.828125 -2.65625 13.890625 -3.5 C 14.816406 -11.0625 15.539062 -18.394531 16.0625 -25.5 C 16.59375 -32.613281 16.828125 -39.492188 16.765625 -46.140625 C 16.765625 -48.191406 16.566406 -49.710938 16.171875 -50.703125 C 15.785156 -51.691406 14.882812 -52.222656 13.46875 -52.296875 C 12.34375 -52.296875 11 -51.941406 9.4375 -51.234375 C 7.882812 -50.523438 6.472656 -49.816406 5.203125 -49.109375 C 4.347656 -48.546875 3.441406 -48.441406 2.484375 -48.796875 C 1.535156 -49.148438 1.0625 -50 1.0625 -51.34375 C 1.0625 -54.664062 1.078125 -57.773438 1.109375 -60.671875 C 1.148438 -63.578125 1.273438 -66.476562 1.484375 -69.375 C 1.628906 -71.21875 2.582031 -72.3125 4.34375 -72.65625 C 6.675781 -73.082031 9.328125 -73.4375 12.296875 -73.71875 C 15.273438 -74.007812 18.195312 -74.238281 21.0625 -74.40625 C 23.925781 -74.582031 26.3125 -74.671875 28.21875 -74.671875 C 29.5625 -74.671875 31.238281 -74.65625 33.25 -74.625 C 35.269531 -74.59375 37.054688 -74.46875 38.609375 -74.25 C 39.390625 -74.1875 40.046875 -73.890625 40.578125 -73.359375 C 41.109375 -72.828125 41.40625 -72.171875 41.46875 -71.390625 C 41.96875 -64.878906 42.375 -57.695312 42.6875 -49.84375 C 43.007812 -42 43.257812 -34.03125 43.4375 -25.9375 C 43.613281 -17.84375 43.703125 -10.148438 43.703125 -2.859375 C 43.703125 -2.085938 43.398438 -1.453125 42.796875 -0.953125 C 42.203125 -0.460938 41.515625 -0.144531 40.734375 0 C 39.179688 0.144531 37.289062 0.25 35.0625 0.3125 C 32.832031 0.382812 31.007812 0.421875 29.59375 0.421875 Z M 29.59375 0.421875 "/></g></g></g><g fill="#d90368" fill-opacity="1"><g transform="translate(254.92982, 222.461375)"><g><path d="M 35.953125 0.421875 C 33.765625 0.421875 31.289062 0.398438 28.53125 0.359375 C 25.769531 0.328125 22.992188 0.296875 20.203125 0.265625 C 17.410156 0.234375 14.8125 0.195312 12.40625 0.15625 C 10 0.125 8.019531 0.0703125 6.46875 0 C 3.425781 -0.207031 1.867188 -1.550781 1.796875 -4.03125 C 1.796875 -5.800781 1.832031 -7.867188 1.90625 -10.234375 C 1.976562 -12.609375 2.050781 -14.785156 2.125 -16.765625 C 2.40625 -20.160156 3.550781 -23.128906 5.5625 -25.671875 C 7.582031 -28.210938 10.128906 -30.4375 13.203125 -32.34375 C 16.285156 -34.257812 19.503906 -35.976562 22.859375 -37.5 C 26.222656 -39.019531 29.367188 -40.453125 32.296875 -41.796875 C 35.234375 -43.140625 37.640625 -44.484375 39.515625 -45.828125 C 41.390625 -47.171875 42.328125 -48.65625 42.328125 -50.28125 C 42.328125 -52.050781 41.265625 -53.375 39.140625 -54.25 C 37.015625 -55.132812 34.328125 -55.578125 31.078125 -55.578125 C 28.890625 -55.578125 26.519531 -55.238281 23.96875 -54.5625 C 21.425781 -53.894531 18.96875 -52.992188 16.59375 -51.859375 C 14.226562 -50.734375 12.160156 -49.5 10.390625 -48.15625 C 9.472656 -47.238281 8.484375 -46.972656 7.421875 -47.359375 C 6.359375 -47.753906 5.863281 -48.800781 5.9375 -50.5 C 6.082031 -53.039062 6.296875 -56.039062 6.578125 -59.5 C 6.859375 -62.96875 7.140625 -66.082031 7.421875 -68.84375 C 7.640625 -70.1875 8.382812 -71.140625 9.65625 -71.703125 C 13.613281 -72.835938 18.101562 -73.6875 23.125 -74.25 C 28.144531 -74.820312 32.8125 -75.109375 37.125 -75.109375 C 47.3125 -75.109375 55.210938 -73.550781 60.828125 -70.4375 C 66.453125 -67.320312 69.265625 -62.265625 69.265625 -55.265625 C 69.265625 -51.660156 68.363281 -48.53125 66.5625 -45.875 C 64.757812 -43.226562 62.441406 -40.945312 59.609375 -39.03125 C 56.785156 -37.125 53.78125 -35.460938 50.59375 -34.046875 C 47.414062 -32.628906 44.394531 -31.320312 41.53125 -30.125 C 38.664062 -28.925781 36.347656 -27.742188 34.578125 -26.578125 C 32.804688 -25.410156 31.921875 -24.117188 31.921875 -22.703125 C 31.992188 -21.210938 32.84375 -20.113281 34.46875 -19.40625 C 36.101562 -18.695312 39.078125 -18.34375 43.390625 -18.34375 C 47.773438 -18.34375 51.984375 -19.03125 56.015625 -20.40625 C 60.046875 -21.789062 63.613281 -23.789062 66.71875 -26.40625 C 67.78125 -27.46875 68.875 -27.804688 70 -27.421875 C 71.132812 -27.035156 71.703125 -26.023438 71.703125 -24.390625 C 71.703125 -21.140625 71.6875 -17.566406 71.65625 -13.671875 C 71.625 -9.785156 71.535156 -6.289062 71.390625 -3.1875 C 71.390625 -2.476562 71.191406 -1.785156 70.796875 -1.109375 C 70.410156 -0.441406 69.832031 -0.0703125 69.0625 0 C 65.738281 0.207031 62.0625 0.347656 58.03125 0.421875 C 54 0.492188 50.035156 0.507812 46.140625 0.46875 C 42.253906 0.4375 38.859375 0.421875 35.953125 0.421875 Z M 35.953125 0.421875 "/></g></g></g><g fill="#3b28cc" fill-opacity="1"><g transform="translate(55.71806, 209.397548)"><g><path d="M 21.359375 0.25 C 20.859375 0.25 20.253906 0.238281 19.546875 0.21875 C 18.847656 0.195312 18.191406 0.125 17.578125 0 C 16.921875 -0.125 16.40625 -0.492188 16.03125 -1.109375 C 14.132812 -4.285156 12.242188 -8.0625 10.359375 -12.4375 C 8.484375 -16.8125 6.75 -21.492188 5.15625 -26.484375 C 3.570312 -31.484375 2.222656 -36.5 1.109375 -41.53125 C 0.785156 -42.601562 1.21875 -43.203125 2.40625 -43.328125 C 2.820312 -43.410156 3.378906 -43.472656 4.078125 -43.515625 C 4.785156 -43.554688 5.40625 -43.578125 5.9375 -43.578125 C 6.5625 -43.578125 7.304688 -43.554688 8.171875 -43.515625 C 9.035156 -43.472656 9.738281 -43.410156 10.28125 -43.328125 C 10.976562 -43.242188 11.390625 -42.910156 11.515625 -42.328125 C 12.046875 -38.203125 12.753906 -34.25 13.640625 -30.46875 C 14.535156 -26.695312 15.519531 -23.304688 16.59375 -20.296875 C 17.664062 -17.285156 18.71875 -14.832031 19.75 -12.9375 C 20.320312 -11.820312 20.851562 -11.265625 21.34375 -11.265625 C 21.84375 -11.265625 22.382812 -11.820312 22.96875 -12.9375 C 24.070312 -14.914062 25.160156 -17.410156 26.234375 -20.421875 C 27.304688 -23.429688 28.296875 -26.800781 29.203125 -30.53125 C 30.117188 -34.269531 30.820312 -38.203125 31.3125 -42.328125 C 31.351562 -42.910156 31.726562 -43.242188 32.4375 -43.328125 C 33.007812 -43.410156 33.75 -43.460938 34.65625 -43.484375 C 35.5625 -43.503906 36.160156 -43.515625 36.453125 -43.515625 C 36.617188 -43.515625 36.96875 -43.515625 37.5 -43.515625 C 38.039062 -43.515625 38.597656 -43.503906 39.171875 -43.484375 C 39.753906 -43.460938 40.1875 -43.429688 40.46875 -43.390625 C 41.007812 -43.347656 41.382812 -43.160156 41.59375 -42.828125 C 41.800781 -42.492188 41.820312 -42.082031 41.65625 -41.59375 C 40.582031 -36.601562 39.238281 -31.597656 37.625 -26.578125 C 36.019531 -21.566406 34.273438 -16.863281 32.390625 -12.46875 C 30.515625 -8.070312 28.628906 -4.285156 26.734375 -1.109375 C 26.367188 -0.492188 25.851562 -0.125 25.1875 0 C 24.53125 0.125 23.847656 0.195312 23.140625 0.21875 C 22.441406 0.238281 21.847656 0.25 21.359375 0.25 Z M 21.359375 0.25 "/></g></g></g><g fill="#3b28cc" fill-opacity="1"><g transform="translate(98.474615, 209.397548)"><g><path d="M 18.4375 0.5 C 15.132812 0.5 12.171875 -0.128906 9.546875 -1.390625 C 6.929688 -2.648438 4.867188 -4.546875 3.359375 -7.078125 C 1.859375 -9.617188 1.109375 -12.789062 1.109375 -16.59375 C 1.109375 -20.300781 1.847656 -23.460938 3.328125 -26.078125 C 4.816406 -28.703125 6.875 -30.703125 9.5 -32.078125 C 12.125 -33.460938 15.101562 -34.15625 18.4375 -34.15625 C 21.78125 -34.15625 24.738281 -33.460938 27.3125 -32.078125 C 29.894531 -30.703125 31.929688 -28.703125 33.421875 -26.078125 C 34.910156 -23.460938 35.65625 -20.300781 35.65625 -16.59375 C 35.65625 -12.789062 34.910156 -9.617188 33.421875 -7.078125 C 31.929688 -4.546875 29.882812 -2.648438 27.28125 -1.390625 C 24.6875 -0.128906 21.738281 0.5 18.4375 0.5 Z M 18.4375 -6.8125 C 20.875 -6.8125 22.882812 -7.675781 24.46875 -9.40625 C 26.0625 -11.132812 26.859375 -13.628906 26.859375 -16.890625 C 26.859375 -19.984375 26.070312 -22.414062 24.5 -24.1875 C 22.9375 -25.96875 20.914062 -26.859375 18.4375 -26.859375 C 15.925781 -26.859375 13.894531 -25.96875 12.34375 -24.1875 C 10.800781 -22.414062 10.03125 -19.984375 10.03125 -16.890625 C 10.03125 -13.628906 10.820312 -11.132812 12.40625 -9.40625 C 14 -7.675781 16.007812 -6.8125 18.4375 -6.8125 Z M 18.4375 -6.8125 "/></g></g></g><g fill="#3b28cc" fill-opacity="1"><g transform="translate(135.229162, 209.397548)"><g><path d="M 18.875 0.5 C 16.769531 0.5 14.859375 0.0859375 13.140625 -0.734375 C 11.429688 -1.566406 10.070312 -2.804688 9.0625 -4.453125 C 8.050781 -6.109375 7.523438 -8.148438 7.484375 -10.578125 C 7.484375 -12.023438 7.503906 -13.65625 7.546875 -15.46875 C 7.585938 -17.289062 7.648438 -19.140625 7.734375 -21.015625 C 7.816406 -22.890625 7.941406 -24.671875 8.109375 -26.359375 C 8.148438 -26.691406 8.046875 -26.960938 7.796875 -27.171875 C 7.546875 -27.378906 7.28125 -27.484375 7 -27.484375 C 6.25 -27.484375 5.484375 -27.484375 4.703125 -27.484375 C 3.921875 -27.484375 3.15625 -27.460938 2.40625 -27.421875 C 1.957031 -27.378906 1.566406 -27.53125 1.234375 -27.875 C 0.910156 -28.226562 0.75 -28.632812 0.75 -29.09375 L 0.75 -32 C 0.75 -32.445312 0.910156 -32.835938 1.234375 -33.171875 C 1.566406 -33.503906 1.957031 -33.671875 2.40625 -33.671875 L 7 -33.671875 C 7.738281 -33.671875 8.109375 -34.0625 8.109375 -34.84375 C 8.109375 -35.625 8.128906 -36.4375 8.171875 -37.28125 C 8.210938 -38.132812 8.273438 -38.953125 8.359375 -39.734375 C 8.484375 -40.765625 9 -41.34375 9.90625 -41.46875 C 10.4375 -41.550781 10.957031 -41.613281 11.46875 -41.65625 C 11.988281 -41.695312 12.5 -41.71875 13 -41.71875 C 13.53125 -41.71875 14.039062 -41.695312 14.53125 -41.65625 C 15.03125 -41.613281 15.550781 -41.550781 16.09375 -41.46875 C 16.5 -41.425781 16.867188 -41.25 17.203125 -40.9375 C 17.535156 -40.625 17.660156 -40.222656 17.578125 -39.734375 C 17.535156 -38.910156 17.460938 -38.113281 17.359375 -37.34375 C 17.253906 -36.582031 17.203125 -35.769531 17.203125 -34.90625 C 17.203125 -34.082031 17.570312 -33.671875 18.3125 -33.671875 C 19.632812 -33.671875 21.148438 -33.679688 22.859375 -33.703125 C 24.578125 -33.722656 26.078125 -33.753906 27.359375 -33.796875 C 27.804688 -33.796875 28.195312 -33.628906 28.53125 -33.296875 C 28.863281 -32.960938 29.03125 -32.570312 29.03125 -32.125 L 29.03125 -28.78125 C 29.03125 -28.320312 28.863281 -27.914062 28.53125 -27.5625 C 28.195312 -27.21875 27.804688 -27.066406 27.359375 -27.109375 C 26.816406 -27.191406 26.007812 -27.253906 24.9375 -27.296875 C 23.863281 -27.335938 22.789062 -27.378906 21.71875 -27.421875 C 20.644531 -27.460938 19.820312 -27.460938 19.25 -27.421875 C 17.757812 -27.421875 16.910156 -26.65625 16.703125 -25.125 C 16.546875 -22.976562 16.46875 -20.6875 16.46875 -18.25 C 16.46875 -15.820312 16.488281 -13.703125 16.53125 -11.890625 C 16.613281 -10.273438 17.066406 -9.125 17.890625 -8.4375 C 18.710938 -7.757812 19.722656 -7.421875 20.921875 -7.421875 C 21.410156 -7.421875 22.085938 -7.515625 22.953125 -7.703125 C 23.828125 -7.890625 24.6875 -8.113281 25.53125 -8.375 C 26.375 -8.644531 26.984375 -8.90625 27.359375 -9.15625 C 27.890625 -9.738281 28.441406 -9.882812 29.015625 -9.59375 C 29.597656 -9.300781 29.867188 -8.722656 29.828125 -7.859375 C 29.828125 -6.953125 29.816406 -6.113281 29.796875 -5.34375 C 29.773438 -4.582031 29.765625 -3.789062 29.765625 -2.96875 C 29.722656 -2.019531 29.351562 -1.378906 28.65625 -1.046875 C 27.914062 -0.722656 26.9375 -0.4375 25.71875 -0.1875 C 24.5 0.0625 23.269531 0.238281 22.03125 0.34375 C 20.789062 0.445312 19.738281 0.5 18.875 0.5 Z M 18.875 0.5 "/></g></g></g><g fill="#3b28cc" fill-opacity="1"><g transform="translate(165.796079, 209.397548)"><g><path d="M 19.125 0.5 C 15.488281 0.5 12.316406 -0.191406 9.609375 -1.578125 C 6.910156 -2.960938 4.816406 -4.972656 3.328125 -7.609375 C 1.847656 -10.253906 1.109375 -13.453125 1.109375 -17.203125 C 1.109375 -20.835938 1.820312 -23.910156 3.25 -26.421875 C 4.675781 -28.941406 6.625 -30.859375 9.09375 -32.171875 C 11.570312 -33.492188 14.378906 -34.15625 17.515625 -34.15625 C 21.890625 -34.15625 25.425781 -33.175781 28.125 -31.21875 C 30.832031 -29.257812 32.1875 -26.382812 32.1875 -22.59375 C 32.1875 -20.570312 31.640625 -18.785156 30.546875 -17.234375 C 29.453125 -15.691406 28.003906 -14.492188 26.203125 -13.640625 C 24.410156 -12.796875 22.484375 -12.375 20.421875 -12.375 C 18.734375 -12.375 17.09375 -12.519531 15.5 -12.8125 C 13.914062 -13.101562 12.523438 -13.578125 11.328125 -14.234375 C 10.703125 -14.648438 10.242188 -14.679688 9.953125 -14.328125 C 9.671875 -13.972656 9.738281 -13.507812 10.15625 -12.9375 C 10.644531 -11.78125 11.4375 -10.75 12.53125 -9.84375 C 13.625 -8.9375 14.867188 -8.222656 16.265625 -7.703125 C 17.671875 -7.191406 19.078125 -6.9375 20.484375 -6.9375 C 22.097656 -6.9375 23.8125 -7.285156 25.625 -7.984375 C 27.4375 -8.679688 28.921875 -9.566406 30.078125 -10.640625 C 30.535156 -11.222656 31.019531 -11.421875 31.53125 -11.234375 C 32.050781 -11.046875 32.332031 -10.539062 32.375 -9.71875 C 32.457031 -8.8125 32.503906 -7.882812 32.515625 -6.9375 C 32.535156 -5.988281 32.566406 -5.054688 32.609375 -4.140625 C 32.609375 -3.359375 32.34375 -2.800781 31.8125 -2.46875 C 30.28125 -1.4375 28.328125 -0.679688 25.953125 -0.203125 C 23.585938 0.265625 21.3125 0.5 19.125 0.5 Z M 18.015625 -17.140625 C 19.785156 -17.140625 21.1875 -17.582031 22.21875 -18.46875 C 23.25 -19.363281 23.765625 -20.570312 23.765625 -22.09375 C 23.765625 -23.707031 23.289062 -24.96875 22.34375 -25.875 C 21.394531 -26.78125 19.828125 -27.234375 17.640625 -27.234375 C 16.398438 -27.234375 15.179688 -26.972656 13.984375 -26.453125 C 12.785156 -25.941406 11.804688 -25.210938 11.046875 -24.265625 C 10.285156 -23.316406 9.90625 -22.160156 9.90625 -20.796875 C 9.90625 -19.972656 10.359375 -19.28125 11.265625 -18.71875 C 12.171875 -18.164062 13.253906 -17.765625 14.515625 -17.515625 C 15.773438 -17.265625 16.941406 -17.140625 18.015625 -17.140625 Z M 18.015625 -17.140625 "/></g></g></g></svg>