<svg xmlns="http://www.w3.org/2000/svg" xmlns:xlink="http://www.w3.org/1999/xlink" width="500" zoomAndPan="magnify" viewBox="0 0 375 374.999991" height="500" preserveAspectRatio="xMidYMid meet" version="1.0"><defs><clipPath id="2aa63e3c61"><path d="M 0 108.28125 L 375 108.28125 L 375 266.53125 L 0 266.53125 Z M 0 108.28125 " clip-rule="nonzero"/></clipPath></defs><path fill="#fca311" d="M 366.695312 245.632812 C 367.230469 244.53125 367.691406 243.398438 368.117188 242.238281 C 361.484375 255.441406 347.878906 264.535156 332.09375 264.597656 C 311.828125 264.652344 295.144531 249.769531 292.125 230.3125 L 82.78125 229.039062 C 79.542969 248.453125 62.675781 263.144531 42.402344 262.84375 C 38.308594 262.789062 34.371094 262.101562 30.671875 260.914062 C 31.644531 261.46875 32.585938 262.050781 33.597656 262.523438 C 17.042969 258.558594 4.625 244.441406 2.875 227.257812 C 2.730469 226.003906 2.625 224.738281 2.601562 223.457031 C 2.59375 223.152344 2.527344 222.859375 2.535156 222.550781 L 2.554688 222.273438 C 2.554688 222.09375 2.53125 221.917969 2.539062 221.75 C 2.792969 206.410156 11.648438 193.382812 24.328125 186.722656 C 11.871094 179.65625 3.433594 166.386719 3.679688 151.039062 C 3.671875 150.898438 3.691406 150.765625 3.695312 150.625 C 3.691406 150.492188 3.679688 150.363281 3.679688 150.226562 C 4.042969 127.894531 22.429688 110.039062 44.765625 110.40625 C 64.949219 110.726562 81.304688 125.792969 84.050781 145.125 L 291.878906 146.382812 C 294.867188 127.074219 311.398438 112.21875 331.578125 112.136719 C 353.953125 112.046875 372.09375 130.125 372.195312 152.464844 C 372.1875 152.601562 372.167969 152.726562 372.160156 152.875 C 372.171875 153.007812 372.1875 153.136719 372.1875 153.269531 C 372.203125 158.699219 371.074219 163.808594 369.164062 168.519531 C 369.3125 167.953125 369.375 167.363281 369.503906 166.789062 C 365.980469 176.0625 359.175781 183.699219 350.449219 188.296875 C 363.410156 195.003906 372.410156 208.375 372.460938 223.976562 C 372.464844 224.152344 372.445312 224.324219 372.417969 224.492188 C 372.4375 224.582031 372.457031 224.679688 372.457031 224.78125 C 372.453125 225.378906 372.355469 225.933594 372.332031 226.515625 C 372.300781 227.179688 372.277344 227.84375 372.199219 228.5 C 371.636719 234.714844 369.738281 240.550781 366.695312 245.632812 " fill-opacity="1" fill-rule="evenodd"/><g clip-path="url(#2aa63e3c61)"><path fill="#fca311" d="M 366.695312 245.632812 L 368.609375 246.574219 C 369.195312 245.386719 369.683594 244.183594 370.121094 242.976562 C 370.515625 241.910156 370.003906 240.726562 368.964844 240.277344 C 367.921875 239.828125 366.714844 240.265625 366.203125 241.28125 C 359.917969 253.792969 347.035156 262.402344 332.082031 262.460938 L 332.09375 262.460938 L 331.984375 262.460938 C 322.40625 262.460938 313.699219 258.945312 307.007812 253.128906 C 300.320312 247.304688 295.667969 239.1875 294.238281 229.988281 C 294.074219 228.949219 293.191406 228.183594 292.136719 228.175781 L 82.792969 226.902344 C 81.746094 226.894531 80.847656 227.648438 80.671875 228.683594 C 79.152344 237.792969 74.472656 245.796875 67.800781 251.53125 C 61.125 257.261719 52.488281 260.710938 43.011719 260.710938 C 42.820312 260.710938 42.625 260.710938 42.429688 260.707031 C 38.558594 260.652344 34.835938 260.003906 31.324219 258.878906 C 30.28125 258.542969 29.152344 259.054688 28.714844 260.054688 C 28.277344 261.0625 28.664062 262.230469 29.617188 262.773438 C 30.539062 263.292969 31.523438 263.917969 32.699219 264.460938 L 33.597656 262.523438 L 34.09375 260.445312 C 18.429688 256.695312 6.660156 243.320312 5.003906 227.039062 L 5 227.011719 C 4.859375 225.808594 4.765625 224.609375 4.738281 223.410156 L 4.738281 223.382812 C 4.726562 223.117188 4.703125 222.921875 4.6875 222.792969 C 4.671875 222.667969 4.671875 222.609375 4.671875 222.609375 L 4.671875 222.589844 L 3.101562 222.589844 L 4.667969 222.703125 L 4.671875 222.589844 L 3.101562 222.589844 L 4.667969 222.703125 L 2.535156 222.550781 L 4.664062 222.730469 L 4.6875 222.453125 L 4.691406 222.273438 C 4.691406 222.09375 4.683594 221.960938 4.675781 221.886719 L 4.671875 221.804688 L 4.671875 221.796875 L 4.292969 221.8125 L 4.671875 221.8125 L 4.671875 221.796875 L 4.292969 221.8125 L 4.671875 221.8125 L 3.421875 221.8125 L 4.667969 221.902344 L 4.671875 221.8125 L 3.421875 221.8125 L 4.667969 221.902344 L 4.671875 221.78125 C 4.796875 214.515625 6.949219 207.820312 10.578125 202.132812 C 14.203125 196.445312 19.308594 191.777344 25.328125 188.613281 C 26.019531 188.25 26.453125 187.542969 26.46875 186.757812 C 26.480469 185.972656 26.066406 185.25 25.386719 184.859375 C 19.558594 181.558594 14.660156 176.824219 11.226562 171.140625 C 7.789062 165.453125 5.8125 158.832031 5.8125 151.695312 C 5.8125 151.484375 5.8125 151.28125 5.816406 151.085938 L 5.8125 150.898438 L 4.71875 150.972656 L 5.8125 150.972656 L 5.8125 150.898438 L 4.71875 150.972656 L 5.816406 150.972656 C 5.816406 150.933594 5.824219 150.851562 5.832031 150.730469 L 5.832031 150.558594 C 5.828125 150.4375 5.824219 150.355469 5.820312 150.308594 L 5.816406 150.261719 L 5.816406 150.257812 L 5.390625 150.269531 L 5.816406 150.269531 L 5.816406 150.257812 L 5.390625 150.269531 L 5.816406 150.269531 L 5.816406 150.257812 L 4.046875 150.257812 L 5.808594 150.417969 C 5.820312 150.316406 5.816406 150.261719 5.816406 150.257812 L 4.046875 150.257812 L 5.808594 150.417969 L 5.816406 150.261719 C 6.15625 129.324219 23.226562 112.535156 44.089844 112.539062 C 44.304688 112.539062 44.515625 112.539062 44.730469 112.542969 L 44.734375 112.542969 C 54.296875 112.699219 62.933594 116.335938 69.523438 122.230469 C 76.109375 128.128906 80.632812 136.273438 81.933594 145.425781 C 82.082031 146.472656 82.976562 147.257812 84.035156 147.261719 L 291.867188 148.519531 C 292.921875 148.527344 293.828125 147.757812 293.992188 146.710938 C 295.40625 137.566406 300.03125 129.476562 306.6875 123.660156 C 313.347656 117.847656 322.023438 114.3125 331.585938 114.277344 L 331.742188 114.277344 C 352.859375 114.273438 369.960938 131.363281 370.054688 152.476562 L 372.195312 152.464844 L 370.058594 152.398438 L 370.613281 152.417969 L 370.058594 152.378906 L 370.058594 152.398438 L 370.613281 152.417969 L 370.058594 152.378906 L 370.058594 152.394531 C 370.054688 152.4375 370.035156 152.574219 370.027344 152.785156 L 370.03125 153.003906 C 370.035156 153.128906 370.046875 153.214844 370.046875 153.25 L 370.050781 153.273438 L 370.695312 153.234375 L 370.050781 153.234375 L 370.050781 153.273438 L 370.695312 153.234375 L 370.050781 153.234375 L 371.125 153.234375 L 370.050781 153.226562 L 370.050781 153.234375 L 371.125 153.234375 L 370.050781 153.226562 L 370.050781 153.371094 C 370.046875 158.464844 368.992188 163.261719 367.1875 167.714844 L 369.164062 168.519531 L 371.234375 169.058594 C 371.433594 168.277344 371.492188 167.664062 371.585938 167.25 C 371.832031 166.15625 371.191406 165.0625 370.113281 164.742188 C 369.039062 164.417969 367.902344 164.976562 367.503906 166.03125 C 364.167969 174.808594 357.71875 182.050781 349.449219 186.40625 C 348.746094 186.777344 348.304688 187.507812 348.308594 188.304688 C 348.308594 189.105469 348.757812 189.832031 349.464844 190.199219 C 355.609375 193.375 360.820312 198.136719 364.488281 203.945312 C 368.160156 209.75 370.296875 216.59375 370.324219 223.980469 L 370.324219 223.976562 L 370.324219 224 C 370.328125 224 370.324219 224.066406 370.300781 224.199219 C 370.277344 224.398438 370.277344 224.570312 370.300781 224.765625 C 370.316406 224.902344 370.332031 224.960938 370.332031 224.960938 L 371.550781 224.765625 L 370.316406 224.765625 C 370.316406 224.898438 370.332031 224.960938 370.332031 224.960938 L 371.550781 224.765625 L 370.316406 224.765625 L 372.28125 224.765625 L 370.316406 224.734375 L 370.316406 224.765625 L 372.28125 224.765625 L 370.316406 224.734375 C 370.316406 224.738281 370.308594 224.851562 370.335938 225.054688 L 372.457031 224.78125 L 370.316406 224.757812 C 370.316406 225.136719 370.234375 225.664062 370.191406 226.425781 C 370.167969 227.101562 370.144531 227.710938 370.074219 228.238281 L 370.066406 228.308594 C 369.535156 234.210938 367.734375 239.730469 364.855469 244.53125 L 366.695312 245.632812 L 368.609375 246.574219 L 366.695312 245.632812 L 368.527344 246.730469 C 371.742188 241.363281 373.738281 235.214844 374.328125 228.691406 L 372.199219 228.5 L 374.320312 228.765625 C 374.414062 227.984375 374.441406 227.261719 374.464844 226.609375 C 374.476562 226.195312 374.582031 225.609375 374.59375 224.804688 L 374.578125 224.507812 L 372.503906 224.777344 L 374.59375 224.777344 C 374.59375 224.730469 374.59375 224.636719 374.578125 224.507812 L 372.503906 224.777344 L 374.59375 224.777344 L 372.636719 224.777344 L 374.59375 224.808594 L 374.59375 224.777344 L 372.636719 224.777344 L 374.59375 224.808594 L 374.59375 224.765625 C 374.59375 224.546875 374.570312 224.386719 374.554688 224.296875 L 374.539062 224.203125 L 374.539062 224.195312 L 373.859375 224.300781 L 374.539062 224.210938 L 374.539062 224.195312 L 373.859375 224.300781 L 374.539062 224.210938 L 372.417969 224.492188 L 374.539062 224.78125 C 374.5625 224.601562 374.597656 224.339844 374.597656 224 L 374.597656 223.96875 C 374.574219 215.757812 372.1875 208.113281 368.105469 201.65625 C 364.019531 195.199219 358.246094 189.925781 351.429688 186.398438 L 350.449219 188.296875 L 351.441406 190.1875 C 360.628906 185.347656 367.792969 177.308594 371.5 167.550781 L 369.503906 166.789062 L 367.414062 166.328125 C 367.257812 167.0625 367.195312 167.625 367.097656 167.976562 C 366.808594 169.066406 367.421875 170.191406 368.488281 170.550781 C 369.5625 170.902344 370.722656 170.371094 371.148438 169.320312 C 373.136719 164.417969 374.328125 159.0625 374.324219 153.371094 L 374.324219 153.269531 L 373.320312 153.269531 L 374.324219 153.277344 L 374.324219 153.269531 L 373.320312 153.269531 L 374.324219 153.277344 L 374.328125 153.234375 C 374.320312 152.898438 374.289062 152.746094 374.292969 152.742188 L 372.160156 152.875 L 374.296875 152.964844 L 374.222656 152.964844 L 374.296875 152.96875 L 374.296875 152.964844 L 374.222656 152.964844 L 374.296875 152.96875 C 374.292969 152.960938 374.320312 152.832031 374.332031 152.535156 L 374.332031 152.453125 C 374.222656 128.996094 355.222656 110 331.742188 110 L 331.570312 110 C 320.953125 110.042969 311.273438 113.980469 303.875 120.441406 C 296.476562 126.902344 291.339844 135.890625 289.765625 146.054688 L 291.878906 146.382812 L 291.890625 144.242188 L 84.0625 142.988281 L 84.050781 145.125 L 86.164062 144.824219 C 84.71875 134.648438 79.695312 125.59375 72.375 119.046875 C 65.054688 112.492188 55.421875 108.433594 44.800781 108.265625 L 44.804688 108.265625 C 44.5625 108.261719 44.324219 108.261719 44.089844 108.261719 C 20.882812 108.261719 1.925781 126.921875 1.542969 150.191406 L 3.679688 150.226562 L 1.546875 150.035156 L 1.539062 150.21875 L 1.539062 150.269531 C 1.542969 150.558594 1.5625 150.695312 1.5625 150.695312 L 3.695312 150.625 L 1.5625 150.519531 L 1.554688 150.628906 C 1.546875 150.699219 1.535156 150.816406 1.535156 150.972656 L 1.542969 151.179688 L 3.679688 151.039062 L 1.539062 150.996094 C 1.535156 151.234375 1.535156 151.46875 1.535156 151.695312 C 1.53125 159.625 3.742188 167.03125 7.566406 173.351562 C 11.386719 179.675781 16.820312 184.921875 23.277344 188.582031 L 24.328125 186.722656 L 23.335938 184.832031 C 16.671875 188.332031 11.007812 193.503906 6.96875 199.832031 C 2.933594 206.15625 0.53125 213.636719 0.398438 221.710938 L 2.539062 221.75 L 0.40625 221.589844 C 0.394531 221.703125 0.394531 221.773438 0.394531 221.8125 C 0.394531 221.996094 0.410156 222.125 0.414062 222.199219 L 0.417969 222.273438 L 2.554688 222.273438 L 0.425781 222.097656 L 0.40625 222.375 L 0.398438 222.398438 C 0.390625 222.542969 0.394531 222.609375 0.394531 222.609375 C 0.40625 223.183594 0.472656 223.484375 0.464844 223.527344 L 2.601562 223.457031 L 0.464844 223.503906 C 0.492188 224.867188 0.601562 226.199219 0.75 227.5 L 2.875 227.257812 L 0.746094 227.472656 C 2.59375 245.5625 15.65625 260.421875 33.097656 264.597656 C 34.164062 264.859375 35.257812 264.261719 35.617188 263.222656 C 35.976562 262.183594 35.488281 261.039062 34.492188 260.582031 C 33.640625 260.1875 32.753906 259.636719 31.730469 259.054688 L 30.671875 260.914062 L 30.015625 262.949219 C 33.914062 264.199219 38.054688 264.925781 42.371094 264.984375 C 42.582031 264.988281 42.796875 264.988281 43.011719 264.988281 C 53.535156 264.992188 63.175781 261.144531 70.585938 254.773438 C 78 248.402344 83.203125 239.503906 84.890625 229.390625 L 82.78125 229.039062 L 82.769531 231.175781 L 292.113281 232.453125 L 292.125 230.3125 L 290.011719 230.644531 C 291.597656 240.863281 296.769531 249.886719 304.203125 256.351562 C 311.632812 262.820312 321.347656 266.742188 331.984375 266.738281 L 332.101562 266.738281 C 348.71875 266.671875 363.050781 257.089844 370.027344 243.199219 L 368.117188 242.238281 L 366.109375 241.503906 C 365.699219 242.617188 365.265625 243.679688 364.773438 244.6875 C 364.265625 245.722656 364.660156 246.960938 365.671875 247.511719 C 366.675781 248.058594 367.933594 247.714844 368.527344 246.730469 L 366.695312 245.632812 " fill-opacity="1" fill-rule="nonzero"/></g></svg>