<svg xmlns="http://www.w3.org/2000/svg" xmlns:xlink="http://www.w3.org/1999/xlink" width="600" zoomAndPan="magnify" viewBox="0 0 450 225" height="300" preserveAspectRatio="xMidYMid meet" version="1.0"><defs><g/><clipPath id="d203397747"><path d="M 0 17.4375 L 450 17.4375 L 450 207.9375 L 0 207.9375 Z M 0 17.4375 " clip-rule="nonzero"/></clipPath></defs><path fill="#d90368" d="M 440.03125 182.257812 C 440.679688 180.9375 441.230469 179.578125 441.742188 178.1875 C 433.78125 194.027344 417.457031 204.945312 398.511719 205.019531 C 374.195312 205.082031 354.171875 187.222656 350.550781 163.875 L 99.339844 162.347656 C 95.449219 185.644531 75.210938 203.273438 50.882812 202.914062 C 45.96875 202.847656 41.246094 202.023438 36.808594 200.597656 C 37.976562 201.261719 39.101562 201.960938 40.316406 202.527344 C 20.449219 197.773438 5.550781 180.828125 3.453125 160.207031 C 3.277344 158.703125 3.152344 157.1875 3.121094 155.648438 C 3.109375 155.28125 3.03125 154.929688 3.042969 154.558594 L 3.066406 154.230469 C 3.066406 154.011719 3.035156 153.804688 3.046875 153.597656 C 3.351562 135.191406 13.976562 119.5625 29.195312 111.566406 C 14.246094 103.089844 4.117188 87.164062 4.414062 68.746094 C 4.402344 68.574219 4.429688 68.421875 4.433594 68.25 C 4.429688 68.089844 4.414062 67.933594 4.414062 67.773438 C 4.851562 40.972656 26.914062 19.546875 53.71875 19.984375 C 77.941406 20.371094 97.5625 38.453125 100.863281 61.648438 L 350.253906 63.160156 C 353.84375 39.992188 373.675781 22.160156 397.890625 22.066406 C 424.742188 21.957031 446.511719 43.648438 446.632812 70.460938 C 446.628906 70.621094 446.601562 70.769531 446.59375 70.953125 C 446.605469 71.113281 446.628906 71.261719 446.628906 71.421875 C 446.640625 77.9375 445.289062 84.070312 443 89.722656 C 443.175781 89.042969 443.25 88.335938 443.40625 87.648438 C 439.175781 98.773438 431.011719 107.941406 420.539062 113.457031 C 436.09375 121.503906 446.894531 137.550781 446.953125 156.273438 C 446.957031 156.484375 446.933594 156.691406 446.902344 156.890625 C 446.921875 157 446.949219 157.117188 446.949219 157.234375 C 446.941406 157.953125 446.828125 158.617188 446.796875 159.320312 C 446.761719 160.117188 446.730469 160.914062 446.636719 161.699219 C 445.964844 169.15625 443.683594 176.160156 440.03125 182.257812 " fill-opacity="1" fill-rule="evenodd"/><g clip-path="url(#d203397747)"><path fill="#d90368" d="M 440.03125 182.257812 L 442.332031 183.390625 C 443.035156 181.960938 443.621094 180.519531 444.144531 179.070312 C 444.617188 177.792969 444.007812 176.375 442.757812 175.832031 C 441.503906 175.292969 440.058594 175.816406 439.445312 177.035156 C 431.902344 192.050781 416.445312 202.382812 398.5 202.453125 L 398.511719 202.453125 L 398.382812 202.453125 C 386.886719 202.453125 376.4375 198.234375 368.410156 191.253906 C 360.382812 184.265625 354.800781 174.523438 353.085938 163.484375 C 352.890625 162.238281 351.828125 161.320312 350.566406 161.308594 L 99.351562 159.78125 C 98.09375 159.773438 97.019531 160.679688 96.808594 161.921875 C 94.984375 172.851562 89.367188 182.457031 81.363281 189.339844 C 73.351562 196.214844 62.988281 200.351562 51.617188 200.351562 C 51.386719 200.351562 51.148438 200.351562 50.914062 200.347656 C 46.269531 200.28125 41.804688 199.507812 37.589844 198.152344 C 36.335938 197.753906 34.984375 198.363281 34.457031 199.566406 C 33.929688 200.773438 34.398438 202.175781 35.539062 202.828125 C 36.648438 203.449219 37.828125 204.203125 39.238281 204.851562 L 40.316406 202.527344 L 40.910156 200.03125 C 22.113281 195.53125 7.992188 179.484375 6.003906 159.945312 L 5.996094 159.910156 C 5.832031 158.46875 5.71875 157.03125 5.6875 155.59375 L 5.6875 155.558594 C 5.671875 155.242188 5.640625 155.007812 5.628906 154.851562 C 5.605469 154.699219 5.605469 154.628906 5.605469 154.628906 L 5.605469 154.609375 L 3.722656 154.609375 L 5.601562 154.746094 L 5.605469 154.609375 L 3.722656 154.609375 L 5.601562 154.746094 L 3.042969 154.558594 L 5.597656 154.773438 L 5.628906 154.445312 L 5.632812 154.230469 C 5.632812 154.011719 5.621094 153.851562 5.613281 153.761719 L 5.605469 153.667969 L 5.605469 153.65625 L 5.152344 153.671875 L 5.605469 153.671875 L 5.605469 153.65625 L 5.152344 153.671875 L 5.605469 153.671875 L 4.109375 153.671875 L 5.601562 153.78125 L 5.605469 153.671875 L 4.109375 153.671875 L 5.601562 153.78125 L 5.605469 153.636719 C 5.757812 144.917969 8.339844 136.886719 12.691406 130.058594 C 17.042969 123.234375 23.171875 117.632812 30.394531 113.839844 C 31.226562 113.402344 31.746094 112.550781 31.761719 111.609375 C 31.777344 110.664062 31.28125 109.800781 30.464844 109.332031 C 23.472656 105.367188 17.59375 99.691406 13.46875 92.871094 C 9.34375 86.046875 6.976562 78.097656 6.976562 69.53125 C 6.976562 69.28125 6.976562 69.035156 6.980469 68.800781 L 6.976562 68.574219 L 5.660156 68.667969 L 6.976562 68.667969 L 6.976562 68.574219 L 5.660156 68.667969 L 6.980469 68.667969 C 6.980469 68.621094 6.988281 68.519531 7 68.375 L 7 68.171875 C 6.996094 68.023438 6.988281 67.925781 6.984375 67.871094 L 6.980469 67.8125 L 6.980469 67.808594 L 6.46875 67.824219 L 6.980469 67.824219 L 6.980469 67.808594 L 6.46875 67.824219 L 6.980469 67.824219 L 6.980469 67.808594 L 4.855469 67.808594 L 6.96875 68 C 6.984375 67.878906 6.980469 67.8125 6.980469 67.808594 L 4.855469 67.808594 L 6.96875 68 L 6.980469 67.8125 C 7.386719 42.6875 27.871094 22.542969 52.910156 22.546875 C 53.164062 22.546875 53.417969 22.546875 53.675781 22.550781 L 53.679688 22.550781 C 65.15625 22.738281 75.519531 27.101562 83.425781 34.179688 C 91.332031 41.253906 96.757812 51.027344 98.320312 62.011719 C 98.496094 63.269531 99.574219 64.210938 100.84375 64.214844 L 350.238281 65.722656 C 351.507812 65.734375 352.59375 64.808594 352.789062 63.554688 C 354.488281 52.578125 360.035156 42.871094 368.023438 35.890625 C 376.019531 28.917969 386.425781 24.675781 397.902344 24.632812 L 398.09375 24.632812 C 423.429688 24.625 443.949219 45.136719 444.066406 70.46875 L 446.632812 70.460938 L 444.070312 70.378906 L 444.738281 70.398438 L 444.070312 70.355469 L 444.070312 70.378906 L 444.738281 70.398438 L 444.070312 70.355469 L 444.070312 70.375 C 444.066406 70.425781 444.042969 70.589844 444.03125 70.839844 L 444.035156 71.105469 C 444.042969 71.257812 444.054688 71.355469 444.054688 71.402344 L 444.0625 71.425781 L 444.832031 71.382812 L 444.0625 71.382812 L 444.0625 71.425781 L 444.832031 71.382812 L 444.0625 71.382812 L 445.347656 71.382812 L 444.0625 71.371094 L 444.0625 71.382812 L 445.347656 71.382812 L 444.0625 71.371094 L 444.0625 71.546875 C 444.054688 77.65625 442.789062 83.414062 440.625 88.757812 L 443 89.722656 L 445.480469 90.371094 C 445.71875 89.433594 445.789062 88.695312 445.90625 88.199219 C 446.195312 86.886719 445.429688 85.574219 444.136719 85.1875 C 442.847656 84.800781 441.480469 85.472656 441.003906 86.738281 C 437 97.269531 429.261719 105.960938 419.339844 111.1875 C 418.492188 111.632812 417.96875 112.511719 417.972656 113.46875 C 417.972656 114.425781 418.507812 115.296875 419.355469 115.738281 C 426.730469 119.550781 432.984375 125.265625 437.386719 132.234375 C 441.792969 139.199219 444.355469 147.414062 444.386719 156.277344 L 444.386719 156.273438 L 444.386719 156.296875 C 444.390625 156.296875 444.386719 156.378906 444.363281 156.539062 C 444.332031 156.78125 444.332031 156.984375 444.363281 157.222656 C 444.382812 157.382812 444.398438 157.453125 444.398438 157.453125 L 445.859375 157.222656 L 444.382812 157.222656 C 444.382812 157.375 444.398438 157.453125 444.398438 157.453125 L 445.859375 157.222656 L 444.382812 157.222656 L 446.738281 157.222656 L 444.382812 157.179688 L 444.382812 157.222656 L 446.738281 157.222656 L 444.382812 157.179688 C 444.382812 157.1875 444.371094 157.320312 444.402344 157.566406 L 446.949219 157.234375 L 444.382812 157.210938 C 444.382812 157.660156 444.28125 158.296875 444.230469 159.210938 C 444.203125 160.023438 444.171875 160.753906 444.089844 161.386719 L 444.082031 161.46875 C 443.441406 168.550781 441.28125 175.175781 437.828125 180.9375 L 440.03125 182.257812 L 442.332031 183.390625 L 440.03125 182.257812 L 442.230469 183.574219 C 446.089844 177.136719 448.484375 169.757812 449.191406 161.929688 L 446.636719 161.699219 L 449.183594 162.015625 C 449.296875 161.078125 449.328125 160.210938 449.359375 159.429688 C 449.375 158.933594 449.5 158.234375 449.511719 157.265625 L 449.492188 156.910156 L 447.003906 157.230469 L 449.511719 157.230469 C 449.511719 157.175781 449.511719 157.066406 449.492188 156.910156 L 447.003906 157.230469 L 449.511719 157.230469 L 447.164062 157.230469 L 449.511719 157.269531 L 449.511719 157.230469 L 447.164062 157.230469 L 449.511719 157.269531 L 449.511719 157.222656 C 449.511719 156.957031 449.484375 156.765625 449.464844 156.65625 L 449.449219 156.542969 L 449.449219 156.535156 L 448.632812 156.660156 L 449.449219 156.554688 L 449.449219 156.535156 L 448.632812 156.660156 L 449.449219 156.554688 L 446.902344 156.890625 L 449.449219 157.234375 C 449.472656 157.019531 449.519531 156.710938 449.519531 156.296875 L 449.519531 156.265625 C 449.488281 146.410156 446.628906 137.234375 441.726562 129.488281 C 436.824219 121.742188 429.894531 115.410156 421.714844 111.175781 L 420.539062 113.457031 L 421.730469 115.726562 C 432.753906 109.917969 441.351562 100.273438 445.800781 88.5625 L 443.40625 87.648438 L 440.898438 87.09375 C 440.707031 87.976562 440.632812 88.652344 440.519531 89.070312 C 440.171875 90.378906 440.902344 91.726562 442.1875 92.160156 C 443.476562 92.585938 444.867188 91.945312 445.378906 90.6875 C 447.765625 84.800781 449.191406 78.371094 449.1875 71.546875 L 449.1875 71.421875 L 447.984375 71.421875 L 449.1875 71.433594 L 449.1875 71.421875 L 447.984375 71.421875 L 449.1875 71.433594 L 449.191406 71.382812 C 449.183594 70.976562 449.148438 70.796875 449.152344 70.789062 L 446.59375 70.953125 L 449.15625 71.054688 L 449.066406 71.054688 L 449.15625 71.0625 L 449.15625 71.054688 L 449.066406 71.054688 L 449.15625 71.0625 C 449.152344 71.050781 449.183594 70.894531 449.199219 70.539062 L 449.199219 70.445312 C 449.066406 42.296875 426.265625 19.5 398.09375 19.5 L 397.882812 19.5 C 385.144531 19.550781 373.527344 24.277344 364.652344 32.027344 C 355.773438 39.78125 349.609375 50.570312 347.71875 62.769531 L 350.253906 63.160156 L 350.269531 60.59375 L 100.875 59.085938 L 100.863281 61.648438 L 103.398438 61.289062 C 101.664062 49.078125 95.636719 38.210938 86.851562 30.355469 C 78.066406 22.492188 66.503906 17.621094 53.761719 17.421875 L 53.765625 17.421875 C 53.476562 17.414062 53.1875 17.414062 52.910156 17.414062 C 25.0625 17.414062 2.308594 39.804688 1.851562 67.730469 L 4.414062 67.773438 L 1.859375 67.542969 L 1.847656 67.765625 L 1.847656 67.824219 C 1.851562 68.171875 1.875 68.335938 1.875 68.335938 L 4.433594 68.25 L 1.875 68.125 L 1.863281 68.253906 C 1.859375 68.339844 1.84375 68.480469 1.84375 68.667969 L 1.851562 68.917969 L 4.414062 68.746094 L 1.847656 68.695312 C 1.84375 68.980469 1.84375 69.261719 1.84375 69.53125 C 1.839844 79.050781 4.488281 87.941406 9.078125 95.523438 C 13.664062 103.109375 20.183594 109.40625 27.933594 113.796875 L 29.195312 111.566406 L 28.003906 109.296875 C 20.003906 113.496094 13.210938 119.707031 8.363281 127.296875 C 3.523438 134.886719 0.636719 143.867188 0.480469 153.550781 L 3.046875 153.597656 L 0.484375 153.40625 C 0.476562 153.542969 0.476562 153.628906 0.476562 153.671875 C 0.476562 153.894531 0.492188 154.046875 0.496094 154.140625 L 0.5 154.230469 L 3.066406 154.230469 L 0.511719 154.019531 L 0.484375 154.347656 L 0.480469 154.378906 C 0.46875 154.550781 0.476562 154.628906 0.476562 154.628906 C 0.484375 155.320312 0.566406 155.683594 0.554688 155.734375 L 3.121094 155.648438 L 0.554688 155.703125 C 0.589844 157.339844 0.722656 158.941406 0.902344 160.5 L 3.453125 160.207031 L 0.894531 160.46875 C 3.109375 182.175781 18.785156 200.007812 39.71875 205.019531 C 40.996094 205.328125 42.308594 204.613281 42.742188 203.363281 C 43.171875 202.121094 42.585938 200.75 41.394531 200.199219 C 40.371094 199.726562 39.304688 199.066406 38.074219 198.363281 L 36.808594 200.597656 L 36.019531 203.039062 C 40.695312 204.539062 45.667969 205.410156 50.84375 205.480469 C 51.097656 205.484375 51.355469 205.484375 51.617188 205.484375 C 64.246094 205.488281 75.808594 200.875 84.707031 193.226562 C 93.601562 185.585938 99.84375 174.90625 101.871094 162.769531 L 99.339844 162.347656 L 99.324219 164.914062 L 350.535156 166.441406 L 350.550781 163.875 L 348.015625 164.273438 C 349.917969 176.535156 356.121094 187.363281 365.042969 195.121094 C 373.957031 202.882812 385.621094 207.589844 398.382812 207.585938 L 398.523438 207.585938 C 418.464844 207.503906 435.664062 196.007812 444.03125 179.339844 L 441.742188 178.1875 L 439.332031 177.304688 C 438.839844 178.640625 438.316406 179.917969 437.726562 181.125 C 437.121094 182.367188 437.589844 183.851562 438.804688 184.511719 C 440.011719 185.167969 441.519531 184.757812 442.230469 183.574219 L 440.03125 182.257812 " fill-opacity="1" fill-rule="nonzero"/></g><g fill="#ffffff" fill-opacity="1"><g transform="translate(104.056636, 130.162579)"><g><path d="M 5.796875 0.1875 C 5.097656 0.1875 4.4375 0.160156 3.8125 0.109375 C 3.1875 0.0664062 2.75 0.03125 2.5 0 C 1.726562 -0.15625 1.34375 -0.570312 1.34375 -1.25 C 1.34375 -3.257812 1.359375 -5.421875 1.390625 -7.734375 C 1.421875 -10.054688 1.46875 -12.414062 1.53125 -14.8125 C 1.59375 -17.21875 1.65625 -19.53125 1.71875 -21.75 C 1.789062 -23.976562 1.875 -26.007812 1.96875 -27.84375 C 2.0625 -29.6875 2.15625 -31.210938 2.25 -32.421875 C 2.3125 -33.128906 2.679688 -33.515625 3.359375 -33.578125 C 4.222656 -33.640625 5.328125 -33.703125 6.671875 -33.765625 C 8.015625 -33.828125 9.390625 -33.875 10.796875 -33.90625 C 12.203125 -33.945312 13.429688 -33.96875 14.484375 -33.96875 C 19.285156 -33.96875 22.992188 -33.207031 25.609375 -31.6875 C 28.234375 -30.164062 29.546875 -28 29.546875 -25.1875 C 29.546875 -22.6875 28.722656 -20.492188 27.078125 -18.609375 C 25.429688 -16.722656 23.128906 -15.269531 20.171875 -14.25 C 17.210938 -13.226562 13.75 -12.75 9.78125 -12.8125 C 8.988281 -12.75 8.59375 -12.125 8.59375 -10.9375 C 8.59375 -9.6875 8.703125 -8.460938 8.921875 -7.265625 C 9.148438 -6.066406 9.390625 -4.960938 9.640625 -3.953125 C 9.898438 -2.953125 10.046875 -2.097656 10.078125 -1.390625 C 10.109375 -1.035156 10.003906 -0.722656 9.765625 -0.453125 C 9.523438 -0.179688 9.226562 -0.015625 8.875 0.046875 C 8.425781 0.109375 7.910156 0.144531 7.328125 0.15625 C 6.753906 0.175781 6.242188 0.1875 5.796875 0.1875 Z M 10.984375 -17.65625 C 13.609375 -17.6875 15.773438 -18.015625 17.484375 -18.640625 C 19.191406 -19.265625 20.460938 -20.085938 21.296875 -21.109375 C 22.128906 -22.128906 22.546875 -23.195312 22.546875 -24.3125 C 22.546875 -25.625 21.921875 -26.628906 20.671875 -27.328125 C 19.421875 -28.035156 17.375 -28.390625 14.53125 -28.390625 C 13.769531 -28.390625 13.09375 -28.378906 12.5 -28.359375 C 11.90625 -28.347656 11.304688 -28.3125 10.703125 -28.25 C 10.085938 -28.21875 9.644531 -28.039062 9.375 -27.71875 C 9.101562 -27.40625 8.9375 -27.007812 8.875 -26.53125 C 8.75 -25.632812 8.6875 -24.488281 8.6875 -23.09375 C 8.6875 -21.707031 8.75 -20.40625 8.875 -19.1875 C 8.96875 -18.101562 9.671875 -17.59375 10.984375 -17.65625 Z M 10.984375 -17.65625 "/></g></g></g><g fill="#ffffff" fill-opacity="1"><g transform="translate(134.458883, 130.162579)"><g><path d="M 4.890625 0.1875 C 4.640625 0.1875 4.238281 0.171875 3.6875 0.140625 C 3.144531 0.109375 2.664062 0.0625 2.25 0 C 1.96875 -0.0625 1.722656 -0.203125 1.515625 -0.421875 C 1.304688 -0.648438 1.203125 -0.957031 1.203125 -1.34375 C 1.203125 -4.125 1.207031 -6.582031 1.21875 -8.71875 C 1.238281 -10.863281 1.265625 -12.820312 1.296875 -14.59375 C 1.328125 -16.375 1.378906 -18.085938 1.453125 -19.734375 C 1.535156 -21.378906 1.644531 -23.097656 1.78125 -24.890625 C 1.875 -25.597656 2.222656 -26 2.828125 -26.09375 C 3.179688 -26.15625 3.597656 -26.203125 4.078125 -26.234375 C 4.554688 -26.265625 5.003906 -26.28125 5.421875 -26.28125 C 5.804688 -26.28125 6.285156 -26.265625 6.859375 -26.234375 C 7.429688 -26.203125 7.863281 -26.15625 8.15625 -26.09375 C 8.539062 -26.03125 8.835938 -25.878906 9.046875 -25.640625 C 9.253906 -25.398438 9.304688 -25.117188 9.203125 -24.796875 C 9.046875 -24.191406 8.910156 -23.648438 8.796875 -23.171875 C 8.691406 -22.691406 8.640625 -22.128906 8.640625 -21.484375 C 8.640625 -21.003906 8.765625 -20.722656 9.015625 -20.640625 C 9.273438 -20.566406 9.5 -20.785156 9.6875 -21.296875 C 10.457031 -23.117188 11.550781 -24.429688 12.96875 -25.234375 C 14.394531 -26.035156 15.988281 -26.4375 17.75 -26.4375 C 18.488281 -26.4375 19.253906 -26.347656 20.046875 -26.171875 C 20.847656 -25.992188 21.503906 -25.757812 22.015625 -25.46875 C 22.660156 -25.113281 22.984375 -24.617188 22.984375 -23.984375 C 22.984375 -22.992188 22.972656 -22.070312 22.953125 -21.21875 C 22.929688 -20.375 22.890625 -19.441406 22.828125 -18.421875 C 22.796875 -17.816406 22.546875 -17.445312 22.078125 -17.3125 C 21.617188 -17.1875 21.210938 -17.316406 20.859375 -17.703125 C 20.003906 -18.429688 19.101562 -18.929688 18.15625 -19.203125 C 17.207031 -19.484375 16.253906 -19.625 15.296875 -19.625 C 14.117188 -19.625 13.007812 -19.296875 11.96875 -18.640625 C 10.925781 -17.984375 10.082031 -17.035156 9.4375 -15.796875 C 8.800781 -14.566406 8.484375 -13.09375 8.484375 -11.375 C 8.484375 -10.15625 8.523438 -8.894531 8.609375 -7.59375 C 8.691406 -6.300781 8.78125 -5.101562 8.875 -4 C 8.96875 -2.894531 9.03125 -2.007812 9.0625 -1.34375 C 9.09375 -0.925781 8.988281 -0.601562 8.75 -0.375 C 8.507812 -0.15625 8.25 -0.015625 7.96875 0.046875 C 7.613281 0.078125 7.140625 0.109375 6.546875 0.140625 C 5.953125 0.171875 5.398438 0.1875 4.890625 0.1875 Z M 4.890625 0.1875 "/></g></g></g><g fill="#ffffff" fill-opacity="1"><g transform="translate(158.243608, 130.162579)"><g><path d="M 14.296875 0.390625 C 11.734375 0.390625 9.4375 -0.0976562 7.40625 -1.078125 C 5.375 -2.054688 3.773438 -3.523438 2.609375 -5.484375 C 1.441406 -7.453125 0.859375 -9.910156 0.859375 -12.859375 C 0.859375 -15.734375 1.429688 -18.1875 2.578125 -20.21875 C 3.734375 -22.25 5.328125 -23.800781 7.359375 -24.875 C 9.390625 -25.945312 11.703125 -26.484375 14.296875 -26.484375 C 16.890625 -26.484375 19.179688 -25.945312 21.171875 -24.875 C 23.171875 -23.800781 24.742188 -22.25 25.890625 -20.21875 C 27.046875 -18.1875 27.625 -15.734375 27.625 -12.859375 C 27.625 -9.910156 27.046875 -7.453125 25.890625 -5.484375 C 24.742188 -3.523438 23.160156 -2.054688 21.140625 -1.078125 C 19.128906 -0.0976562 16.847656 0.390625 14.296875 0.390625 Z M 14.296875 -5.28125 C 16.179688 -5.28125 17.738281 -5.953125 18.96875 -7.296875 C 20.195312 -8.640625 20.8125 -10.570312 20.8125 -13.09375 C 20.8125 -15.488281 20.203125 -17.375 18.984375 -18.75 C 17.773438 -20.125 16.210938 -20.8125 14.296875 -20.8125 C 12.347656 -20.8125 10.769531 -20.125 9.5625 -18.75 C 8.363281 -17.375 7.765625 -15.488281 7.765625 -13.09375 C 7.765625 -10.570312 8.378906 -8.640625 9.609375 -7.296875 C 10.847656 -5.953125 12.410156 -5.28125 14.296875 -5.28125 Z M 14.296875 -5.28125 "/></g></g></g><g fill="#ffffff" fill-opacity="1"><g transform="translate(186.727733, 130.162579)"><g><path d="M 4.703125 11.21875 C 4.472656 11.21875 4.085938 11.191406 3.546875 11.140625 C 3.003906 11.097656 2.554688 11.0625 2.203125 11.03125 C 1.535156 10.9375 1.203125 10.535156 1.203125 9.828125 C 1.203125 7.847656 1.207031 5.46875 1.21875 2.6875 C 1.238281 -0.09375 1.285156 -3.070312 1.359375 -6.25 C 1.441406 -9.4375 1.539062 -12.617188 1.65625 -15.796875 C 1.769531 -18.984375 1.921875 -21.96875 2.109375 -24.75 C 2.171875 -25.550781 2.554688 -26 3.265625 -26.09375 C 3.648438 -26.15625 4.113281 -26.203125 4.65625 -26.234375 C 5.195312 -26.265625 5.578125 -26.28125 5.796875 -26.28125 C 6.023438 -26.28125 6.453125 -26.265625 7.078125 -26.234375 C 7.703125 -26.203125 8.1875 -26.15625 8.53125 -26.09375 C 8.851562 -26.0625 9.117188 -25.925781 9.328125 -25.6875 C 9.535156 -25.445312 9.609375 -25.132812 9.546875 -24.75 C 9.484375 -24.425781 9.421875 -24.085938 9.359375 -23.734375 C 9.296875 -23.390625 9.242188 -23.070312 9.203125 -22.78125 C 9.171875 -22.300781 9.265625 -22.03125 9.484375 -21.96875 C 9.710938 -21.90625 9.941406 -22.082031 10.171875 -22.5 C 11.035156 -23.675781 12.171875 -24.632812 13.578125 -25.375 C 14.984375 -26.113281 16.40625 -26.484375 17.84375 -26.484375 C 19.851562 -26.484375 21.632812 -25.984375 23.1875 -24.984375 C 24.738281 -23.992188 25.953125 -22.523438 26.828125 -20.578125 C 27.710938 -18.628906 28.15625 -16.179688 28.15625 -13.234375 C 28.15625 -10.390625 27.679688 -7.941406 26.734375 -5.890625 C 25.796875 -3.847656 24.519531 -2.289062 22.90625 -1.21875 C 21.289062 -0.144531 19.472656 0.390625 17.453125 0.390625 C 15.765625 0.390625 14.179688 0 12.703125 -0.78125 C 11.234375 -1.570312 10.101562 -2.65625 9.3125 -4.03125 C 9.082031 -4.445312 8.863281 -4.613281 8.65625 -4.53125 C 8.445312 -4.445312 8.328125 -4.164062 8.296875 -3.6875 C 8.265625 -2.789062 8.253906 -1.734375 8.265625 -0.515625 C 8.285156 0.691406 8.316406 1.929688 8.359375 3.203125 C 8.410156 4.484375 8.476562 5.703125 8.5625 6.859375 C 8.644531 8.015625 8.734375 8.988281 8.828125 9.78125 C 8.890625 10.132812 8.800781 10.414062 8.5625 10.625 C 8.320312 10.832031 8.039062 10.96875 7.71875 11.03125 C 7.375 11.0625 6.847656 11.097656 6.140625 11.140625 C 5.429688 11.191406 4.953125 11.21875 4.703125 11.21875 Z M 14.921875 -5.375 C 16.804688 -5.375 18.347656 -6.050781 19.546875 -7.40625 C 20.742188 -8.769531 21.34375 -10.632812 21.34375 -13 C 21.34375 -15.457031 20.734375 -17.375 19.515625 -18.75 C 18.304688 -20.125 16.773438 -20.8125 14.921875 -20.8125 C 13.128906 -20.8125 11.609375 -20.125 10.359375 -18.75 C 9.109375 -17.375 8.484375 -15.457031 8.484375 -13 C 8.484375 -10.632812 9.09375 -8.769531 10.3125 -7.40625 C 11.53125 -6.050781 13.066406 -5.375 14.921875 -5.375 Z M 14.921875 -5.375 "/></g></g></g><g fill="#ffffff" fill-opacity="1"><g transform="translate(215.73934, 130.162579)"><g><path d="M 14.296875 0.390625 C 11.734375 0.390625 9.4375 -0.0976562 7.40625 -1.078125 C 5.375 -2.054688 3.773438 -3.523438 2.609375 -5.484375 C 1.441406 -7.453125 0.859375 -9.910156 0.859375 -12.859375 C 0.859375 -15.734375 1.429688 -18.1875 2.578125 -20.21875 C 3.734375 -22.25 5.328125 -23.800781 7.359375 -24.875 C 9.390625 -25.945312 11.703125 -26.484375 14.296875 -26.484375 C 16.890625 -26.484375 19.179688 -25.945312 21.171875 -24.875 C 23.171875 -23.800781 24.742188 -22.25 25.890625 -20.21875 C 27.046875 -18.1875 27.625 -15.734375 27.625 -12.859375 C 27.625 -9.910156 27.046875 -7.453125 25.890625 -5.484375 C 24.742188 -3.523438 23.160156 -2.054688 21.140625 -1.078125 C 19.128906 -0.0976562 16.847656 0.390625 14.296875 0.390625 Z M 14.296875 -5.28125 C 16.179688 -5.28125 17.738281 -5.953125 18.96875 -7.296875 C 20.195312 -8.640625 20.8125 -10.570312 20.8125 -13.09375 C 20.8125 -15.488281 20.203125 -17.375 18.984375 -18.75 C 17.773438 -20.125 16.210938 -20.8125 14.296875 -20.8125 C 12.347656 -20.8125 10.769531 -20.125 9.5625 -18.75 C 8.363281 -17.375 7.765625 -15.488281 7.765625 -13.09375 C 7.765625 -10.570312 8.378906 -8.640625 9.609375 -7.296875 C 10.847656 -5.953125 12.410156 -5.28125 14.296875 -5.28125 Z M 14.296875 -5.28125 "/></g></g></g><g fill="#ffffff" fill-opacity="1"><g transform="translate(244.223466, 130.162579)"><g><path d="M 12.8125 0.328125 C 11.6875 0.328125 10.46875 0.25 9.15625 0.09375 C 7.851562 -0.0625 6.578125 -0.265625 5.328125 -0.515625 C 4.078125 -0.773438 2.988281 -1.050781 2.0625 -1.34375 C 1.707031 -1.5 1.414062 -1.710938 1.1875 -1.984375 C 0.96875 -2.265625 0.875 -2.609375 0.90625 -3.015625 C 0.96875 -3.816406 1.015625 -4.601562 1.046875 -5.375 C 1.085938 -6.144531 1.125 -6.925781 1.15625 -7.71875 C 1.21875 -8.425781 1.460938 -8.832031 1.890625 -8.9375 C 2.328125 -9.050781 2.703125 -8.914062 3.015625 -8.53125 C 3.753906 -7.925781 4.648438 -7.375 5.703125 -6.875 C 6.765625 -6.382812 7.882812 -6.003906 9.0625 -5.734375 C 10.25 -5.460938 11.367188 -5.328125 12.421875 -5.328125 C 14.054688 -5.328125 15.296875 -5.523438 16.140625 -5.921875 C 16.984375 -6.328125 17.40625 -6.992188 17.40625 -7.921875 C 17.40625 -8.617188 17.019531 -9.191406 16.25 -9.640625 C 15.488281 -10.085938 14.507812 -10.488281 13.3125 -10.84375 C 12.113281 -11.195312 10.84375 -11.5625 9.5 -11.9375 C 8.15625 -12.320312 6.882812 -12.816406 5.6875 -13.421875 C 4.488281 -14.035156 3.503906 -14.804688 2.734375 -15.734375 C 1.960938 -16.660156 1.578125 -17.84375 1.578125 -19.28125 C 1.578125 -20.851562 2.082031 -22.164062 3.09375 -23.21875 C 4.101562 -24.269531 5.484375 -25.066406 7.234375 -25.609375 C 8.992188 -26.160156 10.992188 -26.4375 13.234375 -26.4375 C 14.421875 -26.4375 15.796875 -26.347656 17.359375 -26.171875 C 18.929688 -25.992188 20.273438 -25.726562 21.390625 -25.375 C 22.222656 -25.050781 22.640625 -24.507812 22.640625 -23.75 C 22.671875 -23.101562 22.6875 -22.453125 22.6875 -21.796875 C 22.6875 -21.140625 22.6875 -20.492188 22.6875 -19.859375 C 22.6875 -19.054688 22.476562 -18.609375 22.0625 -18.515625 C 21.644531 -18.421875 21.265625 -18.535156 20.921875 -18.859375 C 20.023438 -19.492188 18.921875 -20.019531 17.609375 -20.4375 C 16.296875 -20.851562 14.984375 -21.0625 13.671875 -21.0625 C 12.296875 -21.0625 11.128906 -20.84375 10.171875 -20.40625 C 9.210938 -19.976562 8.734375 -19.394531 8.734375 -18.65625 C 8.734375 -18.019531 9.113281 -17.492188 9.875 -17.078125 C 10.644531 -16.660156 11.628906 -16.285156 12.828125 -15.953125 C 14.023438 -15.617188 15.296875 -15.242188 16.640625 -14.828125 C 17.984375 -14.410156 19.253906 -13.890625 20.453125 -13.265625 C 21.648438 -12.640625 22.632812 -11.851562 23.40625 -10.90625 C 24.175781 -9.96875 24.5625 -8.765625 24.5625 -7.296875 C 24.5625 -4.992188 23.5625 -3.144531 21.5625 -1.75 C 19.5625 -0.363281 16.644531 0.328125 12.8125 0.328125 Z M 12.8125 0.328125 "/></g></g></g><g fill="#ffffff" fill-opacity="1"><g transform="translate(269.686546, 130.162579)"><g><path d="M 14.625 0.390625 C 13 0.390625 11.519531 0.0703125 10.1875 -0.5625 C 8.863281 -1.207031 7.8125 -2.171875 7.03125 -3.453125 C 6.25 -4.734375 5.835938 -6.316406 5.796875 -8.203125 C 5.796875 -9.316406 5.8125 -10.578125 5.84375 -11.984375 C 5.882812 -13.398438 5.9375 -14.832031 6 -16.28125 C 6.0625 -17.738281 6.15625 -19.125 6.28125 -20.4375 C 6.3125 -20.6875 6.226562 -20.890625 6.03125 -21.046875 C 5.84375 -21.210938 5.640625 -21.296875 5.421875 -21.296875 C 4.847656 -21.296875 4.253906 -21.296875 3.640625 -21.296875 C 3.035156 -21.296875 2.445312 -21.28125 1.875 -21.25 C 1.519531 -21.21875 1.210938 -21.335938 0.953125 -21.609375 C 0.703125 -21.878906 0.578125 -22.191406 0.578125 -22.546875 L 0.578125 -24.796875 C 0.578125 -25.148438 0.703125 -25.453125 0.953125 -25.703125 C 1.210938 -25.960938 1.519531 -26.09375 1.875 -26.09375 L 5.421875 -26.09375 C 5.992188 -26.09375 6.28125 -26.394531 6.28125 -27 C 6.28125 -27.613281 6.296875 -28.25 6.328125 -28.90625 C 6.359375 -29.5625 6.40625 -30.191406 6.46875 -30.796875 C 6.570312 -31.597656 6.972656 -32.046875 7.671875 -32.140625 C 8.085938 -32.203125 8.492188 -32.25 8.890625 -32.28125 C 9.296875 -32.3125 9.691406 -32.328125 10.078125 -32.328125 C 10.492188 -32.328125 10.890625 -32.3125 11.265625 -32.28125 C 11.648438 -32.25 12.050781 -32.203125 12.46875 -32.140625 C 12.789062 -32.109375 13.078125 -31.972656 13.328125 -31.734375 C 13.585938 -31.492188 13.6875 -31.179688 13.625 -30.796875 C 13.59375 -30.160156 13.535156 -29.546875 13.453125 -28.953125 C 13.367188 -28.359375 13.328125 -27.722656 13.328125 -27.046875 C 13.328125 -26.410156 13.617188 -26.09375 14.203125 -26.09375 C 15.222656 -26.09375 16.394531 -26.097656 17.71875 -26.109375 C 19.050781 -26.128906 20.210938 -26.15625 21.203125 -26.1875 C 21.554688 -26.1875 21.859375 -26.054688 22.109375 -25.796875 C 22.367188 -25.546875 22.5 -25.242188 22.5 -24.890625 L 22.5 -22.3125 C 22.5 -21.957031 22.367188 -21.644531 22.109375 -21.375 C 21.859375 -21.101562 21.554688 -20.984375 21.203125 -21.015625 C 20.785156 -21.078125 20.160156 -21.125 19.328125 -21.15625 C 18.492188 -21.1875 17.660156 -21.21875 16.828125 -21.25 C 16.003906 -21.28125 15.367188 -21.28125 14.921875 -21.25 C 13.765625 -21.25 13.109375 -20.65625 12.953125 -19.46875 C 12.828125 -17.8125 12.765625 -16.039062 12.765625 -14.15625 C 12.765625 -12.269531 12.78125 -10.617188 12.8125 -9.203125 C 12.875 -7.960938 13.222656 -7.078125 13.859375 -6.546875 C 14.503906 -6.015625 15.289062 -5.75 16.21875 -5.75 C 16.601562 -5.75 17.128906 -5.820312 17.796875 -5.96875 C 18.460938 -6.113281 19.125 -6.289062 19.78125 -6.5 C 20.4375 -6.707031 20.910156 -6.90625 21.203125 -7.09375 C 21.617188 -7.539062 22.050781 -7.648438 22.5 -7.421875 C 22.945312 -7.203125 23.15625 -6.757812 23.125 -6.09375 C 23.125 -5.382812 23.113281 -4.734375 23.09375 -4.140625 C 23.082031 -3.554688 23.078125 -2.941406 23.078125 -2.296875 C 23.046875 -1.566406 22.753906 -1.070312 22.203125 -0.8125 C 21.628906 -0.5625 20.867188 -0.335938 19.921875 -0.140625 C 18.984375 0.046875 18.035156 0.179688 17.078125 0.265625 C 16.117188 0.347656 15.300781 0.390625 14.625 0.390625 Z M 14.625 0.390625 "/></g></g></g><g fill="#ffffff" fill-opacity="1"><g transform="translate(293.375357, 130.162579)"><g><path d="M 8.96875 0.390625 C 6.539062 0.390625 4.582031 -0.179688 3.09375 -1.328125 C 1.601562 -2.484375 0.859375 -4.421875 0.859375 -7.140625 C 0.859375 -9.546875 1.710938 -11.441406 3.421875 -12.828125 C 5.140625 -14.222656 7.5 -15.175781 10.5 -15.6875 C 13.25 -16.070312 15.179688 -16.460938 16.296875 -16.859375 C 17.421875 -17.253906 17.984375 -17.882812 17.984375 -18.75 C 17.984375 -19.257812 17.628906 -19.738281 16.921875 -20.1875 C 16.222656 -20.632812 15.023438 -20.859375 13.328125 -20.859375 C 11.890625 -20.859375 10.40625 -20.632812 8.875 -20.1875 C 7.34375 -19.738281 6 -19.003906 4.84375 -17.984375 C 4.488281 -17.472656 4.078125 -17.328125 3.609375 -17.546875 C 3.148438 -17.773438 2.9375 -18.242188 2.96875 -18.953125 C 3 -19.296875 3.046875 -19.78125 3.109375 -20.40625 C 3.179688 -21.03125 3.253906 -21.660156 3.328125 -22.296875 C 3.410156 -22.941406 3.46875 -23.425781 3.5 -23.75 C 3.59375 -24.507812 3.914062 -25.003906 4.46875 -25.234375 C 7.113281 -26.066406 9.988281 -26.484375 13.09375 -26.484375 C 16.769531 -26.484375 19.625 -25.691406 21.65625 -24.109375 C 23.6875 -22.523438 24.863281 -19.988281 25.1875 -16.5 C 25.28125 -15.28125 25.375 -13.773438 25.46875 -11.984375 C 25.5625 -10.203125 25.65625 -8.378906 25.75 -6.515625 C 25.851562 -4.660156 25.9375 -3 26 -1.53125 C 26 -0.695312 25.550781 -0.203125 24.65625 -0.046875 C 24.332031 0.046875 23.929688 0.109375 23.453125 0.140625 C 22.972656 0.171875 22.507812 0.1875 22.0625 0.1875 C 21.675781 0.1875 21.1875 0.171875 20.59375 0.140625 C 20.007812 0.109375 19.523438 0.046875 19.140625 -0.046875 C 18.722656 -0.109375 18.382812 -0.289062 18.125 -0.59375 C 17.875 -0.90625 17.78125 -1.265625 17.84375 -1.671875 C 17.90625 -1.992188 17.976562 -2.410156 18.0625 -2.921875 C 18.144531 -3.429688 18.203125 -3.945312 18.234375 -4.46875 C 18.296875 -4.90625 18.191406 -5.164062 17.921875 -5.25 C 17.648438 -5.332031 17.414062 -5.164062 17.21875 -4.75 C 16.488281 -3.1875 15.351562 -1.9375 13.8125 -1 C 12.28125 -0.0703125 10.664062 0.390625 8.96875 0.390625 Z M 12.234375 -5.5625 C 13.035156 -5.5625 13.875 -5.769531 14.75 -6.1875 C 15.625 -6.601562 16.363281 -7.203125 16.96875 -7.984375 C 17.582031 -8.765625 17.890625 -9.71875 17.890625 -10.84375 C 17.890625 -11.613281 17.65625 -12.242188 17.1875 -12.734375 C 16.726562 -13.234375 15.941406 -13.484375 14.828125 -13.484375 C 13.703125 -13.484375 12.628906 -13.273438 11.609375 -12.859375 C 10.585938 -12.441406 9.753906 -11.875 9.109375 -11.15625 C 8.472656 -10.4375 8.15625 -9.582031 8.15625 -8.59375 C 8.15625 -7.5 8.472656 -6.71875 9.109375 -6.25 C 9.753906 -5.789062 10.796875 -5.5625 12.234375 -5.5625 Z M 12.234375 -5.5625 "/></g></g></g><g fill="#ffffff" fill-opacity="1"><g transform="translate(320.468843, 130.162579)"><g><path d="M 12.8125 0.328125 C 11.6875 0.328125 10.46875 0.25 9.15625 0.09375 C 7.851562 -0.0625 6.578125 -0.265625 5.328125 -0.515625 C 4.078125 -0.773438 2.988281 -1.050781 2.0625 -1.34375 C 1.707031 -1.5 1.414062 -1.710938 1.1875 -1.984375 C 0.96875 -2.265625 0.875 -2.609375 0.90625 -3.015625 C 0.96875 -3.816406 1.015625 -4.601562 1.046875 -5.375 C 1.085938 -6.144531 1.125 -6.925781 1.15625 -7.71875 C 1.21875 -8.425781 1.460938 -8.832031 1.890625 -8.9375 C 2.328125 -9.050781 2.703125 -8.914062 3.015625 -8.53125 C 3.753906 -7.925781 4.648438 -7.375 5.703125 -6.875 C 6.765625 -6.382812 7.882812 -6.003906 9.0625 -5.734375 C 10.25 -5.460938 11.367188 -5.328125 12.421875 -5.328125 C 14.054688 -5.328125 15.296875 -5.523438 16.140625 -5.921875 C 16.984375 -6.328125 17.40625 -6.992188 17.40625 -7.921875 C 17.40625 -8.617188 17.019531 -9.191406 16.25 -9.640625 C 15.488281 -10.085938 14.507812 -10.488281 13.3125 -10.84375 C 12.113281 -11.195312 10.84375 -11.5625 9.5 -11.9375 C 8.15625 -12.320312 6.882812 -12.816406 5.6875 -13.421875 C 4.488281 -14.035156 3.503906 -14.804688 2.734375 -15.734375 C 1.960938 -16.660156 1.578125 -17.84375 1.578125 -19.28125 C 1.578125 -20.851562 2.082031 -22.164062 3.09375 -23.21875 C 4.101562 -24.269531 5.484375 -25.066406 7.234375 -25.609375 C 8.992188 -26.160156 10.992188 -26.4375 13.234375 -26.4375 C 14.421875 -26.4375 15.796875 -26.347656 17.359375 -26.171875 C 18.929688 -25.992188 20.273438 -25.726562 21.390625 -25.375 C 22.222656 -25.050781 22.640625 -24.507812 22.640625 -23.75 C 22.671875 -23.101562 22.6875 -22.453125 22.6875 -21.796875 C 22.6875 -21.140625 22.6875 -20.492188 22.6875 -19.859375 C 22.6875 -19.054688 22.476562 -18.609375 22.0625 -18.515625 C 21.644531 -18.421875 21.265625 -18.535156 20.921875 -18.859375 C 20.023438 -19.492188 18.921875 -20.019531 17.609375 -20.4375 C 16.296875 -20.851562 14.984375 -21.0625 13.671875 -21.0625 C 12.296875 -21.0625 11.128906 -20.84375 10.171875 -20.40625 C 9.210938 -19.976562 8.734375 -19.394531 8.734375 -18.65625 C 8.734375 -18.019531 9.113281 -17.492188 9.875 -17.078125 C 10.644531 -16.660156 11.628906 -16.285156 12.828125 -15.953125 C 14.023438 -15.617188 15.296875 -15.242188 16.640625 -14.828125 C 17.984375 -14.410156 19.253906 -13.890625 20.453125 -13.265625 C 21.648438 -12.640625 22.632812 -11.851562 23.40625 -10.90625 C 24.175781 -9.96875 24.5625 -8.765625 24.5625 -7.296875 C 24.5625 -4.992188 23.5625 -3.144531 21.5625 -1.75 C 19.5625 -0.363281 16.644531 0.328125 12.8125 0.328125 Z M 12.8125 0.328125 "/></g></g></g></svg>