<svg xmlns="http://www.w3.org/2000/svg" xmlns:xlink="http://www.w3.org/1999/xlink" width="600" zoomAndPan="magnify" viewBox="0 0 450 225" height="300" preserveAspectRatio="xMidYMid meet" version="1.0"><defs><g/></defs><g fill="#3b28cc" fill-opacity="1"><g transform="translate(31.00074, 74.640002)"><g><path d="M 4.375 0.140625 C 3.84375 0.140625 3.34375 0.117188 2.875 0.078125 C 2.40625 0.046875 2.070312 0.0195312 1.875 0 C 1.300781 -0.125 1.015625 -0.4375 1.015625 -0.9375 C 1.015625 -2.457031 1.023438 -4.085938 1.046875 -5.828125 C 1.066406 -7.578125 1.101562 -9.351562 1.15625 -11.15625 C 1.207031 -12.96875 1.253906 -14.710938 1.296875 -16.390625 C 1.347656 -18.066406 1.410156 -19.597656 1.484375 -20.984375 C 1.554688 -22.367188 1.628906 -23.519531 1.703125 -24.4375 C 1.742188 -24.957031 2.019531 -25.242188 2.53125 -25.296875 C 3.175781 -25.347656 4.003906 -25.394531 5.015625 -25.4375 C 6.035156 -25.488281 7.070312 -25.523438 8.125 -25.546875 C 9.1875 -25.578125 10.117188 -25.59375 10.921875 -25.59375 C 14.523438 -25.59375 17.316406 -25.019531 19.296875 -23.875 C 21.273438 -22.726562 22.265625 -21.09375 22.265625 -18.96875 C 22.265625 -17.09375 21.644531 -15.441406 20.40625 -14.015625 C 19.164062 -12.597656 17.429688 -11.503906 15.203125 -10.734375 C 12.972656 -9.960938 10.363281 -9.601562 7.375 -9.65625 C 6.769531 -9.601562 6.46875 -9.128906 6.46875 -8.234375 C 6.46875 -7.296875 6.550781 -6.375 6.71875 -5.46875 C 6.882812 -4.570312 7.0625 -3.742188 7.25 -2.984375 C 7.445312 -2.222656 7.5625 -1.578125 7.59375 -1.046875 C 7.613281 -0.785156 7.53125 -0.550781 7.34375 -0.34375 C 7.164062 -0.132812 6.945312 -0.0078125 6.6875 0.03125 C 6.351562 0.0820312 5.96875 0.113281 5.53125 0.125 C 5.09375 0.132812 4.707031 0.140625 4.375 0.140625 Z M 8.28125 -13.296875 C 10.25 -13.316406 11.878906 -13.5625 13.171875 -14.03125 C 14.460938 -14.507812 15.421875 -15.132812 16.046875 -15.90625 C 16.671875 -16.675781 16.984375 -17.484375 16.984375 -18.328125 C 16.984375 -19.316406 16.515625 -20.070312 15.578125 -20.59375 C 14.640625 -21.125 13.097656 -21.390625 10.953125 -21.390625 C 10.367188 -21.390625 9.851562 -21.382812 9.40625 -21.375 C 8.96875 -21.363281 8.519531 -21.332031 8.0625 -21.28125 C 7.601562 -21.257812 7.269531 -21.128906 7.0625 -20.890625 C 6.863281 -20.648438 6.738281 -20.347656 6.6875 -19.984375 C 6.59375 -19.304688 6.546875 -18.441406 6.546875 -17.390625 C 6.546875 -16.347656 6.59375 -15.367188 6.6875 -14.453125 C 6.757812 -13.640625 7.289062 -13.253906 8.28125 -13.296875 Z M 8.28125 -13.296875 "/></g></g></g><g fill="#3b28cc" fill-opacity="1"><g transform="translate(53.914906, 74.640002)"><g><path d="M 10.765625 0.296875 C 8.835938 0.296875 7.109375 -0.0703125 5.578125 -0.8125 C 4.046875 -1.550781 2.84375 -2.660156 1.96875 -4.140625 C 1.09375 -5.617188 0.65625 -7.46875 0.65625 -9.6875 C 0.65625 -11.851562 1.085938 -13.703125 1.953125 -15.234375 C 2.816406 -16.765625 4.015625 -17.929688 5.546875 -18.734375 C 7.078125 -19.546875 8.816406 -19.953125 10.765625 -19.953125 C 12.722656 -19.953125 14.453125 -19.546875 15.953125 -18.734375 C 17.460938 -17.929688 18.648438 -16.765625 19.515625 -15.234375 C 20.378906 -13.703125 20.8125 -11.851562 20.8125 -9.6875 C 20.8125 -7.46875 20.378906 -5.617188 19.515625 -4.140625 C 18.648438 -2.660156 17.457031 -1.550781 15.9375 -0.8125 C 14.414062 -0.0703125 12.691406 0.296875 10.765625 0.296875 Z M 10.765625 -3.96875 C 12.191406 -3.96875 13.367188 -4.472656 14.296875 -5.484375 C 15.222656 -6.503906 15.6875 -7.960938 15.6875 -9.859375 C 15.6875 -11.671875 15.226562 -13.09375 14.3125 -14.125 C 13.394531 -15.164062 12.210938 -15.6875 10.765625 -15.6875 C 9.296875 -15.6875 8.109375 -15.164062 7.203125 -14.125 C 6.304688 -13.09375 5.859375 -11.671875 5.859375 -9.859375 C 5.859375 -7.960938 6.320312 -6.503906 7.25 -5.484375 C 8.175781 -4.472656 9.347656 -3.96875 10.765625 -3.96875 Z M 10.765625 -3.96875 "/></g></g></g><g fill="#3b28cc" fill-opacity="1"><g transform="translate(75.383385, 74.640002)"><g><path d="M 3.6875 0.140625 C 3.488281 0.140625 3.1875 0.128906 2.78125 0.109375 C 2.375 0.0859375 2.015625 0.0507812 1.703125 0 C 1.484375 -0.0507812 1.296875 -0.160156 1.140625 -0.328125 C 0.984375 -0.492188 0.90625 -0.722656 0.90625 -1.015625 C 0.90625 -3.109375 0.910156 -4.960938 0.921875 -6.578125 C 0.929688 -8.191406 0.945312 -9.664062 0.96875 -11 C 1 -12.34375 1.039062 -13.632812 1.09375 -14.875 C 1.15625 -16.113281 1.238281 -17.40625 1.34375 -18.75 C 1.414062 -19.28125 1.675781 -19.582031 2.125 -19.65625 C 2.394531 -19.707031 2.707031 -19.742188 3.0625 -19.765625 C 3.425781 -19.796875 3.765625 -19.8125 4.078125 -19.8125 C 4.367188 -19.8125 4.726562 -19.796875 5.15625 -19.765625 C 5.59375 -19.742188 5.921875 -19.707031 6.140625 -19.65625 C 6.429688 -19.613281 6.65625 -19.5 6.8125 -19.3125 C 6.96875 -19.132812 7.007812 -18.925781 6.9375 -18.6875 C 6.820312 -18.226562 6.71875 -17.816406 6.625 -17.453125 C 6.539062 -17.085938 6.5 -16.664062 6.5 -16.1875 C 6.5 -15.832031 6.59375 -15.625 6.78125 -15.5625 C 6.976562 -15.5 7.148438 -15.660156 7.296875 -16.046875 C 7.878906 -17.421875 8.707031 -18.40625 9.78125 -19 C 10.851562 -19.601562 12.050781 -19.90625 13.375 -19.90625 C 13.925781 -19.90625 14.503906 -19.835938 15.109375 -19.703125 C 15.710938 -19.578125 16.207031 -19.40625 16.59375 -19.1875 C 17.070312 -18.925781 17.3125 -18.554688 17.3125 -18.078125 C 17.3125 -17.328125 17.304688 -16.628906 17.296875 -15.984375 C 17.285156 -15.347656 17.253906 -14.644531 17.203125 -13.875 C 17.179688 -13.414062 16.992188 -13.140625 16.640625 -13.046875 C 16.296875 -12.953125 15.988281 -13.046875 15.71875 -13.328125 C 15.070312 -13.890625 14.390625 -14.269531 13.671875 -14.46875 C 12.960938 -14.675781 12.25 -14.78125 11.53125 -14.78125 C 10.632812 -14.78125 9.796875 -14.53125 9.015625 -14.03125 C 8.234375 -13.539062 7.597656 -12.832031 7.109375 -11.90625 C 6.628906 -10.976562 6.390625 -9.863281 6.390625 -8.5625 C 6.390625 -7.644531 6.421875 -6.695312 6.484375 -5.71875 C 6.546875 -4.75 6.613281 -3.847656 6.6875 -3.015625 C 6.757812 -2.179688 6.804688 -1.515625 6.828125 -1.015625 C 6.847656 -0.703125 6.769531 -0.457031 6.59375 -0.28125 C 6.414062 -0.113281 6.21875 -0.0078125 6 0.03125 C 5.738281 0.0625 5.382812 0.0859375 4.9375 0.109375 C 4.488281 0.128906 4.070312 0.140625 3.6875 0.140625 Z M 3.6875 0.140625 "/></g></g></g><g fill="#3b28cc" fill-opacity="1"><g transform="translate(93.30993, 74.640002)"><g/></g></g><g fill="#3b28cc" fill-opacity="1"><g transform="translate(103.032191, 74.640002)"><g><path d="M 8.890625 0.296875 C 6.140625 0.296875 4.125 -0.570312 2.84375 -2.3125 C 1.570312 -4.050781 0.9375 -6.398438 0.9375 -9.359375 C 0.9375 -10.734375 0.976562 -12.140625 1.0625 -13.578125 C 1.144531 -15.023438 1.273438 -16.71875 1.453125 -18.65625 C 1.472656 -19.226562 1.757812 -19.578125 2.3125 -19.703125 C 2.601562 -19.742188 2.925781 -19.773438 3.28125 -19.796875 C 3.644531 -19.828125 3.910156 -19.84375 4.078125 -19.84375 C 4.316406 -19.84375 4.671875 -19.828125 5.140625 -19.796875 C 5.617188 -19.773438 6.023438 -19.742188 6.359375 -19.703125 C 6.597656 -19.648438 6.800781 -19.539062 6.96875 -19.375 C 7.144531 -19.207031 7.207031 -18.976562 7.15625 -18.6875 C 7.03125 -17.84375 6.898438 -16.921875 6.765625 -15.921875 C 6.640625 -14.921875 6.535156 -13.9375 6.453125 -12.96875 C 6.367188 -12.007812 6.328125 -11.179688 6.328125 -10.484375 C 6.328125 -8.554688 6.695312 -7.039062 7.4375 -5.9375 C 8.1875 -4.84375 9.394531 -4.296875 11.0625 -4.296875 C 12.363281 -4.296875 13.410156 -4.878906 14.203125 -6.046875 C 14.992188 -7.222656 15.390625 -8.785156 15.390625 -10.734375 C 15.390625 -11.796875 15.335938 -13.046875 15.234375 -14.484375 C 15.128906 -15.929688 14.953125 -17.320312 14.703125 -18.65625 C 14.660156 -18.9375 14.722656 -19.164062 14.890625 -19.34375 C 15.054688 -19.53125 15.25 -19.648438 15.46875 -19.703125 C 15.726562 -19.742188 16.078125 -19.773438 16.515625 -19.796875 C 16.953125 -19.828125 17.3125 -19.84375 17.59375 -19.84375 C 17.9375 -19.84375 18.285156 -19.828125 18.640625 -19.796875 C 19.003906 -19.773438 19.34375 -19.742188 19.65625 -19.703125 C 20.164062 -19.628906 20.457031 -19.28125 20.53125 -18.65625 C 20.675781 -16.550781 20.785156 -14.707031 20.859375 -13.125 C 20.929688 -11.550781 20.984375 -10.109375 21.015625 -8.796875 C 21.046875 -7.484375 21.054688 -6.207031 21.046875 -4.96875 C 21.035156 -3.726562 21.03125 -2.382812 21.03125 -0.9375 C 21.03125 -0.40625 20.789062 -0.0820312 20.3125 0.03125 C 20.070312 0.0820312 19.785156 0.117188 19.453125 0.140625 C 19.128906 0.171875 18.8125 0.1875 18.5 0.1875 C 18.1875 0.1875 17.847656 0.164062 17.484375 0.125 C 17.128906 0.09375 16.78125 0.0625 16.4375 0.03125 C 16.195312 -0.0078125 16 -0.117188 15.84375 -0.296875 C 15.6875 -0.484375 15.632812 -0.707031 15.6875 -0.96875 C 15.726562 -1.3125 15.753906 -1.640625 15.765625 -1.953125 C 15.785156 -2.265625 15.796875 -2.539062 15.796875 -2.78125 C 15.796875 -3.1875 15.71875 -3.398438 15.5625 -3.421875 C 15.40625 -3.453125 15.226562 -3.300781 15.03125 -2.96875 C 14.257812 -1.832031 13.375 -1.003906 12.375 -0.484375 C 11.375 0.0351562 10.210938 0.296875 8.890625 0.296875 Z M 8.890625 0.296875 "/></g></g></g><g fill="#3b28cc" fill-opacity="1"><g transform="translate(124.970515, 74.640002)"><g><path d="M 3.609375 0.140625 C 3.421875 0.140625 3.117188 0.132812 2.703125 0.125 C 2.296875 0.113281 1.9375 0.0703125 1.625 0 C 1.4375 -0.0507812 1.265625 -0.164062 1.109375 -0.34375 C 0.953125 -0.519531 0.875 -0.753906 0.875 -1.046875 C 0.875 -3.265625 0.878906 -5.179688 0.890625 -6.796875 C 0.898438 -8.410156 0.921875 -9.867188 0.953125 -11.171875 C 0.992188 -12.472656 1.039062 -13.722656 1.09375 -14.921875 C 1.15625 -16.128906 1.238281 -17.40625 1.34375 -18.75 C 1.414062 -19.28125 1.675781 -19.582031 2.125 -19.65625 C 2.582031 -19.757812 3.195312 -19.8125 3.96875 -19.8125 C 4.28125 -19.8125 4.617188 -19.796875 4.984375 -19.765625 C 5.347656 -19.742188 5.648438 -19.707031 5.890625 -19.65625 C 6.128906 -19.613281 6.328125 -19.519531 6.484375 -19.375 C 6.640625 -19.226562 6.695312 -19.019531 6.65625 -18.75 C 6.582031 -18.34375 6.507812 -17.976562 6.4375 -17.65625 C 6.363281 -17.332031 6.328125 -17.035156 6.328125 -16.765625 C 6.328125 -16.359375 6.410156 -16.125 6.578125 -16.0625 C 6.742188 -16 6.910156 -16.160156 7.078125 -16.546875 C 7.585938 -17.609375 8.304688 -18.441406 9.234375 -19.046875 C 10.160156 -19.648438 11.128906 -19.953125 12.140625 -19.953125 C 13.222656 -19.953125 14.207031 -19.703125 15.09375 -19.203125 C 15.988281 -18.710938 16.691406 -17.972656 17.203125 -16.984375 C 17.660156 -15.898438 18.144531 -15.890625 18.65625 -16.953125 C 19.175781 -17.867188 19.898438 -18.597656 20.828125 -19.140625 C 21.753906 -19.679688 22.832031 -19.953125 24.0625 -19.953125 C 25.269531 -19.953125 26.378906 -19.601562 27.390625 -18.90625 C 28.398438 -18.207031 29.222656 -17.175781 29.859375 -15.8125 C 30.503906 -14.445312 30.863281 -12.78125 30.9375 -10.8125 C 30.988281 -9.476562 31.046875 -7.96875 31.109375 -6.28125 C 31.179688 -4.601562 31.21875 -2.859375 31.21875 -1.046875 C 31.21875 -0.734375 31.140625 -0.492188 30.984375 -0.328125 C 30.828125 -0.160156 30.628906 -0.0507812 30.390625 0 C 30.078125 0.0507812 29.757812 0.0859375 29.4375 0.109375 C 29.113281 0.128906 28.851562 0.140625 28.65625 0.140625 C 28.414062 0.140625 28.0625 0.132812 27.59375 0.125 C 27.125 0.113281 26.71875 0.0703125 26.375 0 C 26.132812 -0.0507812 25.925781 -0.160156 25.75 -0.328125 C 25.570312 -0.492188 25.492188 -0.722656 25.515625 -1.015625 C 25.585938 -1.898438 25.640625 -2.890625 25.671875 -3.984375 C 25.710938 -5.085938 25.738281 -6.148438 25.75 -7.171875 C 25.757812 -8.191406 25.753906 -9.019531 25.734375 -9.65625 C 25.710938 -11.3125 25.375 -12.613281 24.71875 -13.5625 C 24.070312 -14.519531 23.21875 -15 22.15625 -15 C 21.21875 -15 20.40625 -14.503906 19.71875 -13.515625 C 19.03125 -12.523438 18.6875 -11.140625 18.6875 -9.359375 C 18.6875 -8.128906 18.703125 -6.773438 18.734375 -5.296875 C 18.773438 -3.816406 18.84375 -2.398438 18.9375 -1.046875 C 18.988281 -0.734375 18.921875 -0.492188 18.734375 -0.328125 C 18.554688 -0.160156 18.335938 -0.0507812 18.078125 0 C 17.785156 0.0507812 17.46875 0.0859375 17.125 0.109375 C 16.789062 0.128906 16.515625 0.140625 16.296875 0.140625 C 16.054688 0.140625 15.703125 0.132812 15.234375 0.125 C 14.765625 0.113281 14.347656 0.0703125 13.984375 0 C 13.765625 -0.0507812 13.566406 -0.160156 13.390625 -0.328125 C 13.210938 -0.492188 13.132812 -0.722656 13.15625 -1.015625 C 13.207031 -1.953125 13.25 -2.9375 13.28125 -3.96875 C 13.3125 -5.007812 13.332031 -6.03125 13.34375 -7.03125 C 13.363281 -8.03125 13.359375 -8.90625 13.328125 -9.65625 C 13.304688 -11.3125 12.96875 -12.613281 12.3125 -13.5625 C 11.664062 -14.519531 10.816406 -15 9.765625 -15 C 8.796875 -15 7.976562 -14.492188 7.3125 -13.484375 C 6.65625 -12.472656 6.300781 -11.070312 6.25 -9.28125 C 6.207031 -7.9375 6.191406 -6.582031 6.203125 -5.21875 C 6.210938 -3.863281 6.253906 -2.460938 6.328125 -1.015625 C 6.347656 -0.722656 6.273438 -0.492188 6.109375 -0.328125 C 5.941406 -0.160156 5.75 -0.0507812 5.53125 0 C 5.238281 0.0507812 4.894531 0.0859375 4.5 0.109375 C 4.101562 0.128906 3.804688 0.140625 3.609375 0.140625 Z M 3.609375 0.140625 "/></g></g></g><g fill="#3b28cc" fill-opacity="1"><g transform="translate(157.028662, 74.640002)"><g/></g></g><g fill="#d90368" fill-opacity="1"><g transform="translate(166.753984, 74.640002)"><g><path d="M 4.375 0.140625 C 3.84375 0.140625 3.347656 0.128906 2.890625 0.109375 C 2.429688 0.0859375 2.109375 0.0507812 1.921875 0 C 1.316406 -0.125 1.015625 -0.4375 1.015625 -0.9375 C 1.015625 -2.019531 1.03125 -3.375 1.0625 -5 C 1.101562 -6.625 1.148438 -8.375 1.203125 -10.25 C 1.265625 -12.132812 1.328125 -14 1.390625 -15.84375 C 1.453125 -17.6875 1.507812 -19.375 1.5625 -20.90625 C 1.625 -22.4375 1.671875 -23.648438 1.703125 -24.546875 C 1.703125 -24.785156 1.785156 -24.984375 1.953125 -25.140625 C 2.117188 -25.296875 2.320312 -25.382812 2.5625 -25.40625 C 2.726562 -25.425781 3.160156 -25.441406 3.859375 -25.453125 C 4.566406 -25.472656 5.382812 -25.492188 6.3125 -25.515625 C 7.238281 -25.535156 8.15625 -25.550781 9.0625 -25.5625 C 9.976562 -25.582031 10.738281 -25.59375 11.34375 -25.59375 C 14.914062 -25.59375 17.648438 -25.109375 19.546875 -24.140625 C 21.453125 -23.179688 22.40625 -21.664062 22.40625 -19.59375 C 22.40625 -18.050781 21.820312 -16.613281 20.65625 -15.28125 C 19.488281 -13.957031 17.757812 -13.054688 15.46875 -12.578125 C 15.15625 -12.523438 14.992188 -12.394531 14.984375 -12.1875 C 14.972656 -11.988281 15.125 -11.84375 15.4375 -11.75 C 18.007812 -11.125 19.863281 -9.914062 21 -8.125 C 22.132812 -6.34375 22.703125 -3.957031 22.703125 -0.96875 C 22.703125 -0.6875 22.609375 -0.46875 22.421875 -0.3125 C 22.242188 -0.15625 22.019531 -0.0507812 21.75 0 C 21.363281 0.0507812 20.972656 0.0859375 20.578125 0.109375 C 20.179688 0.128906 19.863281 0.140625 19.625 0.140625 C 19.332031 0.140625 18.945312 0.128906 18.46875 0.109375 C 17.988281 0.0859375 17.554688 0.0507812 17.171875 0 C 16.898438 -0.0507812 16.664062 -0.15625 16.46875 -0.3125 C 16.28125 -0.46875 16.1875 -0.6875 16.1875 -0.96875 C 16.164062 -2.25 15.945312 -3.46875 15.53125 -4.625 C 15.125 -5.78125 14.570312 -6.8125 13.875 -7.71875 C 13.175781 -8.625 12.367188 -9.335938 11.453125 -9.859375 C 10.535156 -10.390625 9.570312 -10.65625 8.5625 -10.65625 C 8.03125 -10.65625 7.609375 -10.476562 7.296875 -10.125 C 6.984375 -9.78125 6.828125 -9.320312 6.828125 -8.75 C 6.828125 -7.351562 6.9375 -5.96875 7.15625 -4.59375 C 7.375 -3.21875 7.53125 -2.023438 7.625 -1.015625 C 7.675781 -0.742188 7.601562 -0.519531 7.40625 -0.34375 C 7.21875 -0.164062 6.988281 -0.0507812 6.71875 0 C 6.363281 0.0507812 5.984375 0.0859375 5.578125 0.109375 C 5.179688 0.128906 4.78125 0.140625 4.375 0.140625 Z M 8.59375 -14.5625 C 11.269531 -14.832031 13.332031 -15.300781 14.78125 -15.96875 C 16.226562 -16.644531 16.953125 -17.476562 16.953125 -18.46875 C 16.953125 -19.382812 16.46875 -20.050781 15.5 -20.46875 C 14.539062 -20.894531 13.046875 -21.109375 11.015625 -21.109375 C 10.441406 -21.109375 9.929688 -21.109375 9.484375 -21.109375 C 9.035156 -21.109375 8.582031 -21.082031 8.125 -21.03125 C 7.257812 -20.957031 6.789062 -20.523438 6.71875 -19.734375 C 6.695312 -19.203125 6.671875 -18.554688 6.640625 -17.796875 C 6.617188 -17.035156 6.644531 -16.34375 6.71875 -15.71875 C 6.769531 -15.1875 6.960938 -14.835938 7.296875 -14.671875 C 7.640625 -14.503906 8.070312 -14.46875 8.59375 -14.5625 Z M 8.59375 -14.5625 "/></g></g></g><g fill="#d90368" fill-opacity="1"><g transform="translate(190.390993, 74.640002)"><g><path d="M 3.90625 -21.546875 C 3.007812 -21.546875 2.28125 -21.785156 1.71875 -22.265625 C 1.15625 -22.742188 0.875 -23.359375 0.875 -24.109375 C 0.875 -24.878906 1.15625 -25.503906 1.71875 -25.984375 C 2.28125 -26.460938 3.007812 -26.703125 3.90625 -26.703125 C 4.820312 -26.703125 5.5625 -26.460938 6.125 -25.984375 C 6.6875 -25.503906 6.96875 -24.878906 6.96875 -24.109375 C 6.96875 -23.359375 6.6875 -22.742188 6.125 -22.265625 C 5.5625 -21.785156 4.820312 -21.546875 3.90625 -21.546875 Z M 3.96875 0.140625 C 3.78125 0.140625 3.46875 0.132812 3.03125 0.125 C 2.601562 0.113281 2.234375 0.0703125 1.921875 0 C 1.703125 -0.0507812 1.515625 -0.164062 1.359375 -0.34375 C 1.203125 -0.519531 1.125 -0.753906 1.125 -1.046875 C 1.125 -3.140625 1.128906 -4.988281 1.140625 -6.59375 C 1.148438 -8.195312 1.164062 -9.664062 1.1875 -11 C 1.21875 -12.34375 1.253906 -13.632812 1.296875 -14.875 C 1.347656 -16.113281 1.421875 -17.40625 1.515625 -18.75 C 1.535156 -19.070312 1.609375 -19.296875 1.734375 -19.421875 C 1.859375 -19.554688 2.039062 -19.632812 2.28125 -19.65625 C 2.539062 -19.707031 2.84375 -19.742188 3.1875 -19.765625 C 3.539062 -19.796875 3.816406 -19.8125 4.015625 -19.8125 C 4.179688 -19.8125 4.421875 -19.796875 4.734375 -19.765625 C 5.046875 -19.742188 5.320312 -19.707031 5.5625 -19.65625 C 5.800781 -19.613281 5.976562 -19.53125 6.09375 -19.40625 C 6.21875 -19.289062 6.296875 -19.070312 6.328125 -18.75 C 6.421875 -17.40625 6.488281 -16.113281 6.53125 -14.875 C 6.582031 -13.632812 6.617188 -12.34375 6.640625 -11 C 6.671875 -9.664062 6.691406 -8.191406 6.703125 -6.578125 C 6.710938 -4.960938 6.71875 -3.109375 6.71875 -1.015625 C 6.71875 -0.722656 6.640625 -0.492188 6.484375 -0.328125 C 6.328125 -0.160156 6.140625 -0.0507812 5.921875 0 C 5.609375 0.0507812 5.253906 0.0859375 4.859375 0.109375 C 4.460938 0.128906 4.164062 0.140625 3.96875 0.140625 Z M 3.96875 0.140625 "/></g></g></g><g fill="#d90368" fill-opacity="1"><g transform="translate(198.233851, 74.640002)"><g><path d="M 10.765625 0.296875 C 8.835938 0.296875 7.109375 -0.0703125 5.578125 -0.8125 C 4.046875 -1.550781 2.84375 -2.660156 1.96875 -4.140625 C 1.09375 -5.617188 0.65625 -7.46875 0.65625 -9.6875 C 0.65625 -11.851562 1.085938 -13.703125 1.953125 -15.234375 C 2.816406 -16.765625 4.015625 -17.929688 5.546875 -18.734375 C 7.078125 -19.546875 8.816406 -19.953125 10.765625 -19.953125 C 12.722656 -19.953125 14.453125 -19.546875 15.953125 -18.734375 C 17.460938 -17.929688 18.648438 -16.765625 19.515625 -15.234375 C 20.378906 -13.703125 20.8125 -11.851562 20.8125 -9.6875 C 20.8125 -7.46875 20.378906 -5.617188 19.515625 -4.140625 C 18.648438 -2.660156 17.457031 -1.550781 15.9375 -0.8125 C 14.414062 -0.0703125 12.691406 0.296875 10.765625 0.296875 Z M 10.765625 -3.96875 C 12.191406 -3.96875 13.367188 -4.472656 14.296875 -5.484375 C 15.222656 -6.503906 15.6875 -7.960938 15.6875 -9.859375 C 15.6875 -11.671875 15.226562 -13.09375 14.3125 -14.125 C 13.394531 -15.164062 12.210938 -15.6875 10.765625 -15.6875 C 9.296875 -15.6875 8.109375 -15.164062 7.203125 -14.125 C 6.304688 -13.09375 5.859375 -11.671875 5.859375 -9.859375 C 5.859375 -7.960938 6.320312 -6.503906 7.25 -5.484375 C 8.175781 -4.472656 9.347656 -3.96875 10.765625 -3.96875 Z M 10.765625 -3.96875 "/></g></g></g><g fill="#d90368" fill-opacity="1"><g transform="translate(219.702331, 74.640002)"><g/></g></g><g fill="#3b28cc" fill-opacity="1"><g transform="translate(229.425543, 74.640002)"><g><path d="M 3.609375 0.140625 C 3.421875 0.140625 3.117188 0.132812 2.703125 0.125 C 2.296875 0.113281 1.9375 0.0703125 1.625 0 C 1.4375 -0.0507812 1.265625 -0.164062 1.109375 -0.34375 C 0.953125 -0.519531 0.875 -0.753906 0.875 -1.046875 C 0.875 -3.265625 0.878906 -5.179688 0.890625 -6.796875 C 0.898438 -8.410156 0.921875 -9.867188 0.953125 -11.171875 C 0.992188 -12.472656 1.039062 -13.722656 1.09375 -14.921875 C 1.15625 -16.128906 1.238281 -17.40625 1.34375 -18.75 C 1.414062 -19.28125 1.675781 -19.582031 2.125 -19.65625 C 2.582031 -19.757812 3.195312 -19.8125 3.96875 -19.8125 C 4.28125 -19.8125 4.617188 -19.796875 4.984375 -19.765625 C 5.347656 -19.742188 5.648438 -19.707031 5.890625 -19.65625 C 6.128906 -19.613281 6.328125 -19.519531 6.484375 -19.375 C 6.640625 -19.226562 6.695312 -19.019531 6.65625 -18.75 C 6.582031 -18.34375 6.507812 -17.976562 6.4375 -17.65625 C 6.363281 -17.332031 6.328125 -17.035156 6.328125 -16.765625 C 6.328125 -16.359375 6.410156 -16.125 6.578125 -16.0625 C 6.742188 -16 6.910156 -16.160156 7.078125 -16.546875 C 7.585938 -17.609375 8.304688 -18.441406 9.234375 -19.046875 C 10.160156 -19.648438 11.128906 -19.953125 12.140625 -19.953125 C 13.222656 -19.953125 14.207031 -19.703125 15.09375 -19.203125 C 15.988281 -18.710938 16.691406 -17.972656 17.203125 -16.984375 C 17.660156 -15.898438 18.144531 -15.890625 18.65625 -16.953125 C 19.175781 -17.867188 19.898438 -18.597656 20.828125 -19.140625 C 21.753906 -19.679688 22.832031 -19.953125 24.0625 -19.953125 C 25.269531 -19.953125 26.378906 -19.601562 27.390625 -18.90625 C 28.398438 -18.207031 29.222656 -17.175781 29.859375 -15.8125 C 30.503906 -14.445312 30.863281 -12.78125 30.9375 -10.8125 C 30.988281 -9.476562 31.046875 -7.96875 31.109375 -6.28125 C 31.179688 -4.601562 31.21875 -2.859375 31.21875 -1.046875 C 31.21875 -0.734375 31.140625 -0.492188 30.984375 -0.328125 C 30.828125 -0.160156 30.628906 -0.0507812 30.390625 0 C 30.078125 0.0507812 29.757812 0.0859375 29.4375 0.109375 C 29.113281 0.128906 28.851562 0.140625 28.65625 0.140625 C 28.414062 0.140625 28.0625 0.132812 27.59375 0.125 C 27.125 0.113281 26.71875 0.0703125 26.375 0 C 26.132812 -0.0507812 25.925781 -0.160156 25.75 -0.328125 C 25.570312 -0.492188 25.492188 -0.722656 25.515625 -1.015625 C 25.585938 -1.898438 25.640625 -2.890625 25.671875 -3.984375 C 25.710938 -5.085938 25.738281 -6.148438 25.75 -7.171875 C 25.757812 -8.191406 25.753906 -9.019531 25.734375 -9.65625 C 25.710938 -11.3125 25.375 -12.613281 24.71875 -13.5625 C 24.070312 -14.519531 23.21875 -15 22.15625 -15 C 21.21875 -15 20.40625 -14.503906 19.71875 -13.515625 C 19.03125 -12.523438 18.6875 -11.140625 18.6875 -9.359375 C 18.6875 -8.128906 18.703125 -6.773438 18.734375 -5.296875 C 18.773438 -3.816406 18.84375 -2.398438 18.9375 -1.046875 C 18.988281 -0.734375 18.921875 -0.492188 18.734375 -0.328125 C 18.554688 -0.160156 18.335938 -0.0507812 18.078125 0 C 17.785156 0.0507812 17.46875 0.0859375 17.125 0.109375 C 16.789062 0.128906 16.515625 0.140625 16.296875 0.140625 C 16.054688 0.140625 15.703125 0.132812 15.234375 0.125 C 14.765625 0.113281 14.347656 0.0703125 13.984375 0 C 13.765625 -0.0507812 13.566406 -0.160156 13.390625 -0.328125 C 13.210938 -0.492188 13.132812 -0.722656 13.15625 -1.015625 C 13.207031 -1.953125 13.25 -2.9375 13.28125 -3.96875 C 13.3125 -5.007812 13.332031 -6.03125 13.34375 -7.03125 C 13.363281 -8.03125 13.359375 -8.90625 13.328125 -9.65625 C 13.304688 -11.3125 12.96875 -12.613281 12.3125 -13.5625 C 11.664062 -14.519531 10.816406 -15 9.765625 -15 C 8.796875 -15 7.976562 -14.492188 7.3125 -13.484375 C 6.65625 -12.472656 6.300781 -11.070312 6.25 -9.28125 C 6.207031 -7.9375 6.191406 -6.582031 6.203125 -5.21875 C 6.210938 -3.863281 6.253906 -2.460938 6.328125 -1.015625 C 6.347656 -0.722656 6.273438 -0.492188 6.109375 -0.328125 C 5.941406 -0.160156 5.75 -0.0507812 5.53125 0 C 5.238281 0.0507812 4.894531 0.0859375 4.5 0.109375 C 4.101562 0.128906 3.804688 0.140625 3.609375 0.140625 Z M 3.609375 0.140625 "/></g></g></g><g fill="#3b28cc" fill-opacity="1"><g transform="translate(261.48369, 74.640002)"><g><path d="M 6.765625 0.296875 C 4.929688 0.296875 3.453125 -0.132812 2.328125 -1 C 1.210938 -1.875 0.65625 -3.335938 0.65625 -5.390625 C 0.65625 -7.191406 1.296875 -8.613281 2.578125 -9.65625 C 3.867188 -10.707031 5.648438 -11.425781 7.921875 -11.8125 C 9.984375 -12.101562 11.4375 -12.398438 12.28125 -12.703125 C 13.125 -13.003906 13.546875 -13.476562 13.546875 -14.125 C 13.546875 -14.507812 13.28125 -14.867188 12.75 -15.203125 C 12.226562 -15.546875 11.328125 -15.71875 10.046875 -15.71875 C 8.960938 -15.71875 7.84375 -15.546875 6.6875 -15.203125 C 5.53125 -14.867188 4.519531 -14.316406 3.65625 -13.546875 C 3.382812 -13.160156 3.070312 -13.050781 2.71875 -13.21875 C 2.375 -13.394531 2.210938 -13.75 2.234375 -14.28125 C 2.265625 -14.539062 2.300781 -14.90625 2.34375 -15.375 C 2.394531 -15.84375 2.453125 -16.316406 2.515625 -16.796875 C 2.578125 -17.285156 2.617188 -17.648438 2.640625 -17.890625 C 2.710938 -18.460938 2.953125 -18.835938 3.359375 -19.015625 C 5.359375 -19.640625 7.523438 -19.953125 9.859375 -19.953125 C 12.628906 -19.953125 14.78125 -19.351562 16.3125 -18.15625 C 17.84375 -16.96875 18.726562 -15.0625 18.96875 -12.4375 C 19.039062 -11.519531 19.113281 -10.382812 19.1875 -9.03125 C 19.257812 -7.6875 19.332031 -6.3125 19.40625 -4.90625 C 19.476562 -3.507812 19.539062 -2.257812 19.59375 -1.15625 C 19.59375 -0.53125 19.253906 -0.15625 18.578125 -0.03125 C 18.335938 0.0390625 18.035156 0.0859375 17.671875 0.109375 C 17.304688 0.128906 16.957031 0.140625 16.625 0.140625 C 16.332031 0.140625 15.960938 0.128906 15.515625 0.109375 C 15.078125 0.0859375 14.710938 0.0390625 14.421875 -0.03125 C 14.109375 -0.0820312 13.851562 -0.222656 13.65625 -0.453125 C 13.46875 -0.679688 13.394531 -0.953125 13.4375 -1.265625 C 13.488281 -1.503906 13.546875 -1.816406 13.609375 -2.203125 C 13.671875 -2.585938 13.710938 -2.972656 13.734375 -3.359375 C 13.785156 -3.691406 13.707031 -3.890625 13.5 -3.953125 C 13.289062 -4.015625 13.113281 -3.890625 12.96875 -3.578125 C 12.414062 -2.398438 11.5625 -1.457031 10.40625 -0.75 C 9.25 -0.0507812 8.035156 0.296875 6.765625 0.296875 Z M 9.21875 -4.1875 C 9.820312 -4.1875 10.453125 -4.34375 11.109375 -4.65625 C 11.773438 -4.96875 12.335938 -5.421875 12.796875 -6.015625 C 13.253906 -6.609375 13.484375 -7.328125 13.484375 -8.171875 C 13.484375 -8.742188 13.304688 -9.21875 12.953125 -9.59375 C 12.609375 -9.96875 12.015625 -10.15625 11.171875 -10.15625 C 10.328125 -10.15625 9.519531 -10 8.75 -9.6875 C 7.976562 -9.375 7.347656 -8.945312 6.859375 -8.40625 C 6.378906 -7.863281 6.140625 -7.21875 6.140625 -6.46875 C 6.140625 -5.644531 6.378906 -5.054688 6.859375 -4.703125 C 7.347656 -4.359375 8.132812 -4.1875 9.21875 -4.1875 Z M 9.21875 -4.1875 "/></g></g></g><g fill="#3b28cc" fill-opacity="1"><g transform="translate(281.904046, 74.640002)"><g><path d="M 3.90625 -21.546875 C 3.007812 -21.546875 2.28125 -21.785156 1.71875 -22.265625 C 1.15625 -22.742188 0.875 -23.359375 0.875 -24.109375 C 0.875 -24.878906 1.15625 -25.503906 1.71875 -25.984375 C 2.28125 -26.460938 3.007812 -26.703125 3.90625 -26.703125 C 4.820312 -26.703125 5.5625 -26.460938 6.125 -25.984375 C 6.6875 -25.503906 6.96875 -24.878906 6.96875 -24.109375 C 6.96875 -23.359375 6.6875 -22.742188 6.125 -22.265625 C 5.5625 -21.785156 4.820312 -21.546875 3.90625 -21.546875 Z M 3.96875 0.140625 C 3.78125 0.140625 3.46875 0.132812 3.03125 0.125 C 2.601562 0.113281 2.234375 0.0703125 1.921875 0 C 1.703125 -0.0507812 1.515625 -0.164062 1.359375 -0.34375 C 1.203125 -0.519531 1.125 -0.753906 1.125 -1.046875 C 1.125 -3.140625 1.128906 -4.988281 1.140625 -6.59375 C 1.148438 -8.195312 1.164062 -9.664062 1.1875 -11 C 1.21875 -12.34375 1.253906 -13.632812 1.296875 -14.875 C 1.347656 -16.113281 1.421875 -17.40625 1.515625 -18.75 C 1.535156 -19.070312 1.609375 -19.296875 1.734375 -19.421875 C 1.859375 -19.554688 2.039062 -19.632812 2.28125 -19.65625 C 2.539062 -19.707031 2.84375 -19.742188 3.1875 -19.765625 C 3.539062 -19.796875 3.816406 -19.8125 4.015625 -19.8125 C 4.179688 -19.8125 4.421875 -19.796875 4.734375 -19.765625 C 5.046875 -19.742188 5.320312 -19.707031 5.5625 -19.65625 C 5.800781 -19.613281 5.976562 -19.53125 6.09375 -19.40625 C 6.21875 -19.289062 6.296875 -19.070312 6.328125 -18.75 C 6.421875 -17.40625 6.488281 -16.113281 6.53125 -14.875 C 6.582031 -13.632812 6.617188 -12.34375 6.640625 -11 C 6.671875 -9.664062 6.691406 -8.191406 6.703125 -6.578125 C 6.710938 -4.960938 6.71875 -3.109375 6.71875 -1.015625 C 6.71875 -0.722656 6.640625 -0.492188 6.484375 -0.328125 C 6.328125 -0.160156 6.140625 -0.0507812 5.921875 0 C 5.609375 0.0507812 5.253906 0.0859375 4.859375 0.109375 C 4.460938 0.128906 4.164062 0.140625 3.96875 0.140625 Z M 3.96875 0.140625 "/></g></g></g><g fill="#3b28cc" fill-opacity="1"><g transform="translate(289.746903, 74.640002)"><g><path d="M 9.65625 0.25 C 8.8125 0.25 7.894531 0.1875 6.90625 0.0625 C 5.914062 -0.0507812 4.953125 -0.203125 4.015625 -0.390625 C 3.078125 -0.585938 2.253906 -0.796875 1.546875 -1.015625 C 1.285156 -1.128906 1.070312 -1.289062 0.90625 -1.5 C 0.738281 -1.707031 0.664062 -1.96875 0.6875 -2.28125 C 0.738281 -2.882812 0.773438 -3.472656 0.796875 -4.046875 C 0.816406 -4.628906 0.84375 -5.21875 0.875 -5.8125 C 0.914062 -6.34375 1.097656 -6.648438 1.421875 -6.734375 C 1.753906 -6.816406 2.039062 -6.71875 2.28125 -6.4375 C 2.832031 -5.976562 3.503906 -5.5625 4.296875 -5.1875 C 5.097656 -4.8125 5.941406 -4.519531 6.828125 -4.3125 C 7.722656 -4.113281 8.566406 -4.015625 9.359375 -4.015625 C 10.585938 -4.015625 11.519531 -4.164062 12.15625 -4.46875 C 12.800781 -4.769531 13.125 -5.269531 13.125 -5.96875 C 13.125 -6.5 12.832031 -6.929688 12.25 -7.265625 C 11.675781 -7.597656 10.9375 -7.894531 10.03125 -8.15625 C 9.125 -8.425781 8.164062 -8.707031 7.15625 -9 C 6.144531 -9.289062 5.1875 -9.664062 4.28125 -10.125 C 3.375 -10.582031 2.628906 -11.160156 2.046875 -11.859375 C 1.472656 -12.554688 1.1875 -13.445312 1.1875 -14.53125 C 1.1875 -15.707031 1.566406 -16.691406 2.328125 -17.484375 C 3.085938 -18.285156 4.128906 -18.890625 5.453125 -19.296875 C 6.773438 -19.703125 8.28125 -19.90625 9.96875 -19.90625 C 10.863281 -19.90625 11.898438 -19.835938 13.078125 -19.703125 C 14.265625 -19.578125 15.28125 -19.382812 16.125 -19.125 C 16.75 -18.875 17.0625 -18.460938 17.0625 -17.890625 C 17.082031 -17.410156 17.09375 -16.921875 17.09375 -16.421875 C 17.09375 -15.929688 17.09375 -15.445312 17.09375 -14.96875 C 17.09375 -14.363281 16.9375 -14.023438 16.625 -13.953125 C 16.3125 -13.878906 16.019531 -13.960938 15.75 -14.203125 C 15.082031 -14.679688 14.253906 -15.078125 13.265625 -15.390625 C 12.273438 -15.703125 11.285156 -15.859375 10.296875 -15.859375 C 9.265625 -15.859375 8.382812 -15.695312 7.65625 -15.375 C 6.9375 -15.050781 6.578125 -14.613281 6.578125 -14.0625 C 6.578125 -13.570312 6.863281 -13.171875 7.4375 -12.859375 C 8.019531 -12.546875 8.757812 -12.265625 9.65625 -12.015625 C 10.5625 -11.765625 11.519531 -11.484375 12.53125 -11.171875 C 13.550781 -10.859375 14.507812 -10.460938 15.40625 -9.984375 C 16.3125 -9.515625 17.050781 -8.925781 17.625 -8.21875 C 18.207031 -7.507812 18.5 -6.601562 18.5 -5.5 C 18.5 -3.757812 17.742188 -2.363281 16.234375 -1.3125 C 14.734375 -0.269531 12.539062 0.25 9.65625 0.25 Z M 9.65625 0.25 "/></g></g></g><g fill="#3b28cc" fill-opacity="1"><g transform="translate(308.938417, 74.640002)"><g/></g></g><g fill="#d90368" fill-opacity="1"><g transform="translate(318.663095, 74.640002)"><g><path d="M 3.390625 -21.609375 C 2.503906 -21.609375 1.773438 -21.851562 1.203125 -22.34375 C 0.640625 -22.84375 0.359375 -23.46875 0.359375 -24.21875 C 0.359375 -24.988281 0.640625 -25.609375 1.203125 -26.078125 C 1.773438 -26.546875 2.503906 -26.78125 3.390625 -26.78125 C 4.304688 -26.78125 5.046875 -26.546875 5.609375 -26.078125 C 6.179688 -25.609375 6.46875 -24.988281 6.46875 -24.21875 C 6.46875 -23.46875 6.179688 -22.84375 5.609375 -22.34375 C 5.046875 -21.851562 4.304688 -21.609375 3.390625 -21.609375 Z M 0.03125 8.59375 C -0.539062 8.59375 -1.175781 8.519531 -1.875 8.375 C -2.570312 8.238281 -3.203125 8.050781 -3.765625 7.8125 C -4.191406 7.613281 -4.40625 7.265625 -4.40625 6.765625 C -4.40625 6.273438 -4.40625 5.726562 -4.40625 5.125 C -4.40625 4.53125 -4.394531 3.988281 -4.375 3.5 C -4.375 2.96875 -4.207031 2.65625 -3.875 2.5625 C -3.550781 2.46875 -3.257812 2.601562 -3 2.96875 C -2.738281 3.25 -2.40625 3.460938 -2 3.609375 C -1.601562 3.753906 -1.226562 3.828125 -0.875 3.828125 C -0.269531 3.828125 0.234375 3.566406 0.640625 3.046875 C 1.054688 2.535156 1.273438 1.867188 1.296875 1.046875 C 1.347656 -0.515625 1.375 -2.179688 1.375 -3.953125 C 1.375 -5.722656 1.351562 -7.492188 1.3125 -9.265625 C 1.28125 -11.035156 1.210938 -12.726562 1.109375 -14.34375 C 1.015625 -15.957031 0.910156 -17.40625 0.796875 -18.6875 C 0.773438 -18.976562 0.847656 -19.203125 1.015625 -19.359375 C 1.179688 -19.515625 1.375 -19.613281 1.59375 -19.65625 C 1.851562 -19.707031 2.171875 -19.742188 2.546875 -19.765625 C 2.921875 -19.796875 3.273438 -19.8125 3.609375 -19.8125 C 3.921875 -19.8125 4.269531 -19.796875 4.65625 -19.765625 C 5.039062 -19.742188 5.34375 -19.707031 5.5625 -19.65625 C 6.070312 -19.539062 6.335938 -19.21875 6.359375 -18.6875 C 6.554688 -15.625 6.664062 -12.484375 6.6875 -9.265625 C 6.707031 -6.046875 6.695312 -2.609375 6.65625 1.046875 C 6.625 2.804688 6.296875 4.238281 5.671875 5.34375 C 5.046875 6.457031 4.238281 7.273438 3.25 7.796875 C 2.257812 8.328125 1.1875 8.59375 0.03125 8.59375 Z M 0.03125 8.59375 "/></g></g></g><g fill="#d90368" fill-opacity="1"><g transform="translate(326.216817, 74.640002)"><g><path d="M 8.890625 0.296875 C 6.140625 0.296875 4.125 -0.570312 2.84375 -2.3125 C 1.570312 -4.050781 0.9375 -6.398438 0.9375 -9.359375 C 0.9375 -10.734375 0.976562 -12.140625 1.0625 -13.578125 C 1.144531 -15.023438 1.273438 -16.71875 1.453125 -18.65625 C 1.472656 -19.226562 1.757812 -19.578125 2.3125 -19.703125 C 2.601562 -19.742188 2.925781 -19.773438 3.28125 -19.796875 C 3.644531 -19.828125 3.910156 -19.84375 4.078125 -19.84375 C 4.316406 -19.84375 4.671875 -19.828125 5.140625 -19.796875 C 5.617188 -19.773438 6.023438 -19.742188 6.359375 -19.703125 C 6.597656 -19.648438 6.800781 -19.539062 6.96875 -19.375 C 7.144531 -19.207031 7.207031 -18.976562 7.15625 -18.6875 C 7.03125 -17.84375 6.898438 -16.921875 6.765625 -15.921875 C 6.640625 -14.921875 6.535156 -13.9375 6.453125 -12.96875 C 6.367188 -12.007812 6.328125 -11.179688 6.328125 -10.484375 C 6.328125 -8.554688 6.695312 -7.039062 7.4375 -5.9375 C 8.1875 -4.84375 9.394531 -4.296875 11.0625 -4.296875 C 12.363281 -4.296875 13.410156 -4.878906 14.203125 -6.046875 C 14.992188 -7.222656 15.390625 -8.785156 15.390625 -10.734375 C 15.390625 -11.796875 15.335938 -13.046875 15.234375 -14.484375 C 15.128906 -15.929688 14.953125 -17.320312 14.703125 -18.65625 C 14.660156 -18.9375 14.722656 -19.164062 14.890625 -19.34375 C 15.054688 -19.53125 15.25 -19.648438 15.46875 -19.703125 C 15.726562 -19.742188 16.078125 -19.773438 16.515625 -19.796875 C 16.953125 -19.828125 17.3125 -19.84375 17.59375 -19.84375 C 17.9375 -19.84375 18.285156 -19.828125 18.640625 -19.796875 C 19.003906 -19.773438 19.34375 -19.742188 19.65625 -19.703125 C 20.164062 -19.628906 20.457031 -19.28125 20.53125 -18.65625 C 20.675781 -16.550781 20.785156 -14.707031 20.859375 -13.125 C 20.929688 -11.550781 20.984375 -10.109375 21.015625 -8.796875 C 21.046875 -7.484375 21.054688 -6.207031 21.046875 -4.96875 C 21.035156 -3.726562 21.03125 -2.382812 21.03125 -0.9375 C 21.03125 -0.40625 20.789062 -0.0820312 20.3125 0.03125 C 20.070312 0.0820312 19.785156 0.117188 19.453125 0.140625 C 19.128906 0.171875 18.8125 0.1875 18.5 0.1875 C 18.1875 0.1875 17.847656 0.164062 17.484375 0.125 C 17.128906 0.09375 16.78125 0.0625 16.4375 0.03125 C 16.195312 -0.0078125 16 -0.117188 15.84375 -0.296875 C 15.6875 -0.484375 15.632812 -0.707031 15.6875 -0.96875 C 15.726562 -1.3125 15.753906 -1.640625 15.765625 -1.953125 C 15.785156 -2.265625 15.796875 -2.539062 15.796875 -2.78125 C 15.796875 -3.1875 15.71875 -3.398438 15.5625 -3.421875 C 15.40625 -3.453125 15.226562 -3.300781 15.03125 -2.96875 C 14.257812 -1.832031 13.375 -1.003906 12.375 -0.484375 C 11.375 0.0351562 10.210938 0.296875 8.890625 0.296875 Z M 8.890625 0.296875 "/></g></g></g><g fill="#d90368" fill-opacity="1"><g transform="translate(348.155141, 74.640002)"><g><path d="M 9.65625 0.25 C 8.8125 0.25 7.894531 0.1875 6.90625 0.0625 C 5.914062 -0.0507812 4.953125 -0.203125 4.015625 -0.390625 C 3.078125 -0.585938 2.253906 -0.796875 1.546875 -1.015625 C 1.285156 -1.128906 1.070312 -1.289062 0.90625 -1.5 C 0.738281 -1.707031 0.664062 -1.96875 0.6875 -2.28125 C 0.738281 -2.882812 0.773438 -3.472656 0.796875 -4.046875 C 0.816406 -4.628906 0.84375 -5.21875 0.875 -5.8125 C 0.914062 -6.34375 1.097656 -6.648438 1.421875 -6.734375 C 1.753906 -6.816406 2.039062 -6.71875 2.28125 -6.4375 C 2.832031 -5.976562 3.503906 -5.5625 4.296875 -5.1875 C 5.097656 -4.8125 5.941406 -4.519531 6.828125 -4.3125 C 7.722656 -4.113281 8.566406 -4.015625 9.359375 -4.015625 C 10.585938 -4.015625 11.519531 -4.164062 12.15625 -4.46875 C 12.800781 -4.769531 13.125 -5.269531 13.125 -5.96875 C 13.125 -6.5 12.832031 -6.929688 12.25 -7.265625 C 11.675781 -7.597656 10.9375 -7.894531 10.03125 -8.15625 C 9.125 -8.425781 8.164062 -8.707031 7.15625 -9 C 6.144531 -9.289062 5.1875 -9.664062 4.28125 -10.125 C 3.375 -10.582031 2.628906 -11.160156 2.046875 -11.859375 C 1.472656 -12.554688 1.1875 -13.445312 1.1875 -14.53125 C 1.1875 -15.707031 1.566406 -16.691406 2.328125 -17.484375 C 3.085938 -18.285156 4.128906 -18.890625 5.453125 -19.296875 C 6.773438 -19.703125 8.28125 -19.90625 9.96875 -19.90625 C 10.863281 -19.90625 11.898438 -19.835938 13.078125 -19.703125 C 14.265625 -19.578125 15.28125 -19.382812 16.125 -19.125 C 16.75 -18.875 17.0625 -18.460938 17.0625 -17.890625 C 17.082031 -17.410156 17.09375 -16.921875 17.09375 -16.421875 C 17.09375 -15.929688 17.09375 -15.445312 17.09375 -14.96875 C 17.09375 -14.363281 16.9375 -14.023438 16.625 -13.953125 C 16.3125 -13.878906 16.019531 -13.960938 15.75 -14.203125 C 15.082031 -14.679688 14.253906 -15.078125 13.265625 -15.390625 C 12.273438 -15.703125 11.285156 -15.859375 10.296875 -15.859375 C 9.265625 -15.859375 8.382812 -15.695312 7.65625 -15.375 C 6.9375 -15.050781 6.578125 -14.613281 6.578125 -14.0625 C 6.578125 -13.570312 6.863281 -13.171875 7.4375 -12.859375 C 8.019531 -12.546875 8.757812 -12.265625 9.65625 -12.015625 C 10.5625 -11.765625 11.519531 -11.484375 12.53125 -11.171875 C 13.550781 -10.859375 14.507812 -10.460938 15.40625 -9.984375 C 16.3125 -9.515625 17.050781 -8.925781 17.625 -8.21875 C 18.207031 -7.507812 18.5 -6.601562 18.5 -5.5 C 18.5 -3.757812 17.742188 -2.363281 16.234375 -1.3125 C 14.734375 -0.269531 12.539062 0.25 9.65625 0.25 Z M 9.65625 0.25 "/></g></g></g><g fill="#d90368" fill-opacity="1"><g transform="translate(367.346655, 74.640002)"><g><path d="M 11.015625 0.296875 C 9.796875 0.296875 8.6875 0.0546875 7.6875 -0.421875 C 6.6875 -0.910156 5.890625 -1.632812 5.296875 -2.59375 C 4.703125 -3.5625 4.394531 -4.757812 4.375 -6.1875 C 4.375 -7.019531 4.382812 -7.96875 4.40625 -9.03125 C 4.425781 -10.09375 4.460938 -11.171875 4.515625 -12.265625 C 4.566406 -13.367188 4.640625 -14.410156 4.734375 -15.390625 C 4.753906 -15.585938 4.691406 -15.742188 4.546875 -15.859375 C 4.410156 -15.984375 4.253906 -16.046875 4.078125 -16.046875 C 3.648438 -16.046875 3.207031 -16.046875 2.75 -16.046875 C 2.289062 -16.046875 1.84375 -16.035156 1.40625 -16.015625 C 1.144531 -15.984375 0.914062 -16.070312 0.71875 -16.28125 C 0.53125 -16.488281 0.4375 -16.722656 0.4375 -16.984375 L 0.4375 -18.6875 C 0.4375 -18.945312 0.53125 -19.171875 0.71875 -19.359375 C 0.914062 -19.554688 1.144531 -19.65625 1.40625 -19.65625 L 4.078125 -19.65625 C 4.515625 -19.65625 4.734375 -19.882812 4.734375 -20.34375 C 4.734375 -20.800781 4.742188 -21.273438 4.765625 -21.765625 C 4.796875 -22.265625 4.832031 -22.742188 4.875 -23.203125 C 4.945312 -23.804688 5.25 -24.144531 5.78125 -24.21875 C 6.09375 -24.257812 6.398438 -24.289062 6.703125 -24.3125 C 7.003906 -24.34375 7.300781 -24.359375 7.59375 -24.359375 C 7.90625 -24.359375 8.203125 -24.34375 8.484375 -24.3125 C 8.773438 -24.289062 9.078125 -24.257812 9.390625 -24.21875 C 9.640625 -24.1875 9.859375 -24.082031 10.046875 -23.90625 C 10.242188 -23.726562 10.316406 -23.492188 10.265625 -23.203125 C 10.242188 -22.722656 10.203125 -22.257812 10.140625 -21.8125 C 10.078125 -21.363281 10.046875 -20.890625 10.046875 -20.390625 C 10.046875 -19.898438 10.265625 -19.65625 10.703125 -19.65625 C 11.472656 -19.65625 12.359375 -19.660156 13.359375 -19.671875 C 14.359375 -19.691406 15.226562 -19.710938 15.96875 -19.734375 C 16.238281 -19.734375 16.46875 -19.632812 16.65625 -19.4375 C 16.851562 -19.25 16.953125 -19.019531 16.953125 -18.75 L 16.953125 -16.8125 C 16.953125 -16.539062 16.851562 -16.300781 16.65625 -16.09375 C 16.46875 -15.894531 16.238281 -15.804688 15.96875 -15.828125 C 15.65625 -15.878906 15.1875 -15.914062 14.5625 -15.9375 C 13.9375 -15.957031 13.3125 -15.976562 12.6875 -16 C 12.0625 -16.03125 11.578125 -16.035156 11.234375 -16.015625 C 10.367188 -16.015625 9.878906 -15.566406 9.765625 -14.671875 C 9.660156 -13.421875 9.609375 -12.082031 9.609375 -10.65625 C 9.609375 -9.238281 9.625 -8 9.65625 -6.9375 C 9.695312 -6 9.957031 -5.332031 10.4375 -4.9375 C 10.925781 -4.539062 11.519531 -4.34375 12.21875 -4.34375 C 12.507812 -4.34375 12.90625 -4.394531 13.40625 -4.5 C 13.914062 -4.601562 14.414062 -4.734375 14.90625 -4.890625 C 15.40625 -5.046875 15.757812 -5.195312 15.96875 -5.34375 C 16.28125 -5.6875 16.601562 -5.769531 16.9375 -5.59375 C 17.28125 -5.425781 17.441406 -5.09375 17.421875 -4.59375 C 17.421875 -4.0625 17.414062 -3.570312 17.40625 -3.125 C 17.394531 -2.675781 17.390625 -2.210938 17.390625 -1.734375 C 17.359375 -1.179688 17.140625 -0.804688 16.734375 -0.609375 C 16.296875 -0.421875 15.722656 -0.253906 15.015625 -0.109375 C 14.304688 0.0351562 13.585938 0.140625 12.859375 0.203125 C 12.140625 0.265625 11.523438 0.296875 11.015625 0.296875 Z M 11.015625 0.296875 "/></g></g></g><g fill="#d90368" fill-opacity="1"><g transform="translate(385.200909, 74.640002)"><g><path d="M 10.765625 0.296875 C 8.835938 0.296875 7.109375 -0.0703125 5.578125 -0.8125 C 4.046875 -1.550781 2.84375 -2.660156 1.96875 -4.140625 C 1.09375 -5.617188 0.65625 -7.46875 0.65625 -9.6875 C 0.65625 -11.851562 1.085938 -13.703125 1.953125 -15.234375 C 2.816406 -16.765625 4.015625 -17.929688 5.546875 -18.734375 C 7.078125 -19.546875 8.816406 -19.953125 10.765625 -19.953125 C 12.722656 -19.953125 14.453125 -19.546875 15.953125 -18.734375 C 17.460938 -17.929688 18.648438 -16.765625 19.515625 -15.234375 C 20.378906 -13.703125 20.8125 -11.851562 20.8125 -9.6875 C 20.8125 -7.46875 20.378906 -5.617188 19.515625 -4.140625 C 18.648438 -2.660156 17.457031 -1.550781 15.9375 -0.8125 C 14.414062 -0.0703125 12.691406 0.296875 10.765625 0.296875 Z M 10.765625 -3.96875 C 12.191406 -3.96875 13.367188 -4.472656 14.296875 -5.484375 C 15.222656 -6.503906 15.6875 -7.960938 15.6875 -9.859375 C 15.6875 -11.671875 15.226562 -13.09375 14.3125 -14.125 C 13.394531 -15.164062 12.210938 -15.6875 10.765625 -15.6875 C 9.296875 -15.6875 8.109375 -15.164062 7.203125 -14.125 C 6.304688 -13.09375 5.859375 -11.671875 5.859375 -9.859375 C 5.859375 -7.960938 6.320312 -6.503906 7.25 -5.484375 C 8.175781 -4.472656 9.347656 -3.96875 10.765625 -3.96875 Z M 10.765625 -3.96875 "/></g></g></g><g fill="#3b28cc" fill-opacity="1"><g transform="translate(406.672691, 74.640002)"><g><path d="M 4.265625 -25.59375 C 4.453125 -25.59375 4.742188 -25.578125 5.140625 -25.546875 C 5.546875 -25.523438 5.894531 -25.488281 6.1875 -25.4375 C 6.707031 -25.363281 6.96875 -25.078125 6.96875 -24.578125 C 6.96875 -22.691406 6.957031 -21.023438 6.9375 -19.578125 C 6.914062 -18.140625 6.878906 -16.820312 6.828125 -15.625 C 6.785156 -14.4375 6.734375 -13.289062 6.671875 -12.1875 C 6.609375 -11.09375 6.53125 -9.945312 6.4375 -8.75 C 6.40625 -8.476562 6.316406 -8.28125 6.171875 -8.15625 C 6.035156 -8.039062 5.847656 -7.960938 5.609375 -7.921875 C 5.359375 -7.890625 5.113281 -7.863281 4.875 -7.84375 C 4.632812 -7.820312 4.429688 -7.8125 4.265625 -7.8125 C 4.097656 -7.8125 3.875 -7.820312 3.59375 -7.84375 C 3.320312 -7.863281 3.050781 -7.890625 2.78125 -7.921875 C 2.539062 -7.960938 2.351562 -8.039062 2.21875 -8.15625 C 2.09375 -8.28125 2.003906 -8.476562 1.953125 -8.75 C 1.859375 -9.945312 1.78125 -11.09375 1.71875 -12.1875 C 1.65625 -13.289062 1.597656 -14.4375 1.546875 -15.625 C 1.503906 -16.820312 1.46875 -18.132812 1.4375 -19.5625 C 1.414062 -21 1.40625 -22.660156 1.40625 -24.546875 C 1.40625 -24.804688 1.484375 -25.015625 1.640625 -25.171875 C 1.796875 -25.328125 1.984375 -25.414062 2.203125 -25.4375 C 2.515625 -25.488281 2.878906 -25.523438 3.296875 -25.546875 C 3.722656 -25.578125 4.046875 -25.59375 4.265625 -25.59375 Z M 4.125 0.296875 C 3.113281 0.296875 2.273438 0.00390625 1.609375 -0.578125 C 0.941406 -1.160156 0.609375 -1.976562 0.609375 -3.03125 C 0.609375 -4.09375 0.941406 -4.910156 1.609375 -5.484375 C 2.273438 -6.066406 3.113281 -6.359375 4.125 -6.359375 C 5.15625 -6.359375 6 -6.066406 6.65625 -5.484375 C 7.320312 -4.910156 7.65625 -4.082031 7.65625 -3 C 7.65625 -1.96875 7.316406 -1.160156 6.640625 -0.578125 C 5.972656 0.00390625 5.132812 0.296875 4.125 0.296875 Z M 4.125 0.296875 "/></g></g></g><g fill="#3b28cc" fill-opacity="1"><g transform="translate(3.87931, 122.619098)"><g><path d="M 13.328125 0.25 C 10.898438 0.25 8.734375 -0.15625 6.828125 -0.96875 C 4.921875 -1.789062 3.425781 -3.082031 2.34375 -4.84375 C 1.257812 -6.601562 0.71875 -8.890625 0.71875 -11.703125 C 0.71875 -14.546875 1.25 -17.003906 2.3125 -19.078125 C 3.375 -21.148438 4.835938 -22.753906 6.703125 -23.890625 C 8.566406 -25.023438 10.71875 -25.59375 13.15625 -25.59375 C 14.625 -25.59375 16.082031 -25.40625 17.53125 -25.03125 C 18.976562 -24.65625 20.21875 -24.210938 21.25 -23.703125 C 21.632812 -23.460938 21.800781 -23.066406 21.75 -22.515625 C 21.75 -22.347656 21.726562 -22.015625 21.6875 -21.515625 C 21.65625 -21.023438 21.625 -20.476562 21.59375 -19.875 C 21.5625 -19.269531 21.523438 -18.710938 21.484375 -18.203125 C 21.453125 -17.703125 21.421875 -17.359375 21.390625 -17.171875 C 21.367188 -16.785156 21.179688 -16.566406 20.828125 -16.515625 C 20.484375 -16.460938 20.210938 -16.628906 20.015625 -17.015625 C 19.367188 -18.203125 18.507812 -19.160156 17.4375 -19.890625 C 16.363281 -20.628906 14.910156 -21 13.078125 -21 C 11.828125 -21 10.679688 -20.648438 9.640625 -19.953125 C 8.609375 -19.253906 7.789062 -18.226562 7.1875 -16.875 C 6.582031 -15.53125 6.28125 -13.878906 6.28125 -11.921875 C 6.28125 -10.097656 6.597656 -8.628906 7.234375 -7.515625 C 7.878906 -6.410156 8.738281 -5.613281 9.8125 -5.125 C 10.882812 -4.644531 12.054688 -4.40625 13.328125 -4.40625 C 15.085938 -4.40625 16.640625 -4.753906 17.984375 -5.453125 C 19.335938 -6.148438 20.363281 -7.195312 21.0625 -8.59375 C 21.257812 -9.03125 21.554688 -9.210938 21.953125 -9.140625 C 22.347656 -9.066406 22.5625 -8.78125 22.59375 -8.28125 C 22.632812 -7.3125 22.679688 -6.335938 22.734375 -5.359375 C 22.785156 -4.390625 22.820312 -3.410156 22.84375 -2.421875 C 22.863281 -2.160156 22.804688 -1.925781 22.671875 -1.71875 C 22.546875 -1.507812 22.382812 -1.347656 22.1875 -1.234375 C 21.507812 -0.941406 20.632812 -0.679688 19.5625 -0.453125 C 18.5 -0.222656 17.40625 -0.0507812 16.28125 0.0625 C 15.15625 0.1875 14.171875 0.25 13.328125 0.25 Z M 13.328125 0.25 "/></g></g></g><g fill="#3b28cc" fill-opacity="1"><g transform="translate(27.552465, 122.619098)"><g><path d="M 10.765625 0.296875 C 8.835938 0.296875 7.109375 -0.0703125 5.578125 -0.8125 C 4.046875 -1.550781 2.84375 -2.660156 1.96875 -4.140625 C 1.09375 -5.617188 0.65625 -7.46875 0.65625 -9.6875 C 0.65625 -11.851562 1.085938 -13.703125 1.953125 -15.234375 C 2.816406 -16.765625 4.015625 -17.929688 5.546875 -18.734375 C 7.078125 -19.546875 8.816406 -19.953125 10.765625 -19.953125 C 12.722656 -19.953125 14.453125 -19.546875 15.953125 -18.734375 C 17.460938 -17.929688 18.648438 -16.765625 19.515625 -15.234375 C 20.378906 -13.703125 20.8125 -11.851562 20.8125 -9.6875 C 20.8125 -7.46875 20.378906 -5.617188 19.515625 -4.140625 C 18.648438 -2.660156 17.457031 -1.550781 15.9375 -0.8125 C 14.414062 -0.0703125 12.691406 0.296875 10.765625 0.296875 Z M 10.765625 -3.96875 C 12.191406 -3.96875 13.367188 -4.472656 14.296875 -5.484375 C 15.222656 -6.503906 15.6875 -7.960938 15.6875 -9.859375 C 15.6875 -11.671875 15.226562 -13.09375 14.3125 -14.125 C 13.394531 -15.164062 12.210938 -15.6875 10.765625 -15.6875 C 9.296875 -15.6875 8.109375 -15.164062 7.203125 -14.125 C 6.304688 -13.09375 5.859375 -11.671875 5.859375 -9.859375 C 5.859375 -7.960938 6.320312 -6.503906 7.25 -5.484375 C 8.175781 -4.472656 9.347656 -3.96875 10.765625 -3.96875 Z M 10.765625 -3.96875 "/></g></g></g><g fill="#3b28cc" fill-opacity="1"><g transform="translate(49.020945, 122.619098)"><g><path d="M 3.796875 0.140625 C 3.484375 0.140625 3.132812 0.128906 2.75 0.109375 C 2.363281 0.0859375 2.023438 0.0507812 1.734375 0 C 1.515625 -0.0507812 1.320312 -0.160156 1.15625 -0.328125 C 0.988281 -0.492188 0.914062 -0.734375 0.9375 -1.046875 C 0.9375 -3.242188 0.941406 -5.148438 0.953125 -6.765625 C 0.960938 -8.378906 0.992188 -9.832031 1.046875 -11.125 C 1.097656 -12.425781 1.160156 -13.679688 1.234375 -14.890625 C 1.304688 -16.097656 1.410156 -17.375 1.546875 -18.71875 C 1.617188 -19.269531 1.882812 -19.582031 2.34375 -19.65625 C 2.613281 -19.707031 2.90625 -19.742188 3.21875 -19.765625 C 3.53125 -19.796875 3.84375 -19.8125 4.15625 -19.8125 C 4.488281 -19.8125 4.820312 -19.796875 5.15625 -19.765625 C 5.5 -19.742188 5.84375 -19.707031 6.1875 -19.65625 C 6.425781 -19.632812 6.625 -19.53125 6.78125 -19.34375 C 6.9375 -19.164062 6.976562 -18.945312 6.90625 -18.6875 C 6.8125 -18.375 6.734375 -18.0625 6.671875 -17.75 C 6.609375 -17.4375 6.566406 -17.15625 6.546875 -16.90625 C 6.515625 -16.5 6.578125 -16.273438 6.734375 -16.234375 C 6.890625 -16.203125 7.078125 -16.359375 7.296875 -16.703125 C 8.140625 -17.859375 9.050781 -18.6875 10.03125 -19.1875 C 11.007812 -19.695312 12.125 -19.953125 13.375 -19.953125 C 14.84375 -19.953125 16.148438 -19.566406 17.296875 -18.796875 C 18.441406 -18.023438 19.351562 -16.921875 20.03125 -15.484375 C 20.71875 -14.046875 21.097656 -12.34375 21.171875 -10.375 C 21.222656 -9.4375 21.265625 -8.523438 21.296875 -7.640625 C 21.335938 -6.765625 21.367188 -5.800781 21.390625 -4.75 C 21.421875 -3.707031 21.4375 -2.472656 21.4375 -1.046875 C 21.4375 -0.734375 21.359375 -0.492188 21.203125 -0.328125 C 21.046875 -0.160156 20.832031 -0.0507812 20.5625 0 C 20.269531 0.0507812 19.929688 0.0859375 19.546875 0.109375 C 19.160156 0.128906 18.875 0.140625 18.6875 0.140625 C 18.46875 0.140625 18.132812 0.128906 17.6875 0.109375 C 17.238281 0.0859375 16.847656 0.0507812 16.515625 0 C 16.273438 -0.0507812 16.0625 -0.160156 15.875 -0.328125 C 15.695312 -0.492188 15.625 -0.722656 15.65625 -1.015625 C 15.75 -1.859375 15.816406 -2.78125 15.859375 -3.78125 C 15.910156 -4.78125 15.945312 -5.75 15.96875 -6.6875 C 16 -7.625 16 -8.40625 15.96875 -9.03125 C 15.945312 -10.957031 15.5 -12.492188 14.625 -13.640625 C 13.757812 -14.785156 12.59375 -15.359375 11.125 -15.359375 C 9.726562 -15.359375 8.578125 -14.78125 7.671875 -13.625 C 6.773438 -12.46875 6.328125 -10.914062 6.328125 -8.96875 C 6.347656 -7.925781 6.378906 -6.675781 6.421875 -5.21875 C 6.472656 -3.757812 6.585938 -2.359375 6.765625 -1.015625 C 6.804688 -0.722656 6.734375 -0.492188 6.546875 -0.328125 C 6.367188 -0.160156 6.160156 -0.0507812 5.921875 0 C 5.660156 0.0507812 5.3125 0.0859375 4.875 0.109375 C 4.445312 0.128906 4.085938 0.140625 3.796875 0.140625 Z M 3.796875 0.140625 "/></g></g></g><g fill="#3b28cc" fill-opacity="1"><g transform="translate(71.284549, 122.619098)"><g><path d="M 11.015625 0.296875 C 9.796875 0.296875 8.6875 0.0546875 7.6875 -0.421875 C 6.6875 -0.910156 5.890625 -1.632812 5.296875 -2.59375 C 4.703125 -3.5625 4.394531 -4.757812 4.375 -6.1875 C 4.375 -7.019531 4.382812 -7.96875 4.40625 -9.03125 C 4.425781 -10.09375 4.460938 -11.171875 4.515625 -12.265625 C 4.566406 -13.367188 4.640625 -14.410156 4.734375 -15.390625 C 4.753906 -15.585938 4.691406 -15.742188 4.546875 -15.859375 C 4.410156 -15.984375 4.253906 -16.046875 4.078125 -16.046875 C 3.648438 -16.046875 3.207031 -16.046875 2.75 -16.046875 C 2.289062 -16.046875 1.84375 -16.035156 1.40625 -16.015625 C 1.144531 -15.984375 0.914062 -16.070312 0.71875 -16.28125 C 0.53125 -16.488281 0.4375 -16.722656 0.4375 -16.984375 L 0.4375 -18.6875 C 0.4375 -18.945312 0.53125 -19.171875 0.71875 -19.359375 C 0.914062 -19.554688 1.144531 -19.65625 1.40625 -19.65625 L 4.078125 -19.65625 C 4.515625 -19.65625 4.734375 -19.882812 4.734375 -20.34375 C 4.734375 -20.800781 4.742188 -21.273438 4.765625 -21.765625 C 4.796875 -22.265625 4.832031 -22.742188 4.875 -23.203125 C 4.945312 -23.804688 5.25 -24.144531 5.78125 -24.21875 C 6.09375 -24.257812 6.398438 -24.289062 6.703125 -24.3125 C 7.003906 -24.34375 7.300781 -24.359375 7.59375 -24.359375 C 7.90625 -24.359375 8.203125 -24.34375 8.484375 -24.3125 C 8.773438 -24.289062 9.078125 -24.257812 9.390625 -24.21875 C 9.640625 -24.1875 9.859375 -24.082031 10.046875 -23.90625 C 10.242188 -23.726562 10.316406 -23.492188 10.265625 -23.203125 C 10.242188 -22.722656 10.203125 -22.257812 10.140625 -21.8125 C 10.078125 -21.363281 10.046875 -20.890625 10.046875 -20.390625 C 10.046875 -19.898438 10.265625 -19.65625 10.703125 -19.65625 C 11.472656 -19.65625 12.359375 -19.660156 13.359375 -19.671875 C 14.359375 -19.691406 15.226562 -19.710938 15.96875 -19.734375 C 16.238281 -19.734375 16.46875 -19.632812 16.65625 -19.4375 C 16.851562 -19.25 16.953125 -19.019531 16.953125 -18.75 L 16.953125 -16.8125 C 16.953125 -16.539062 16.851562 -16.300781 16.65625 -16.09375 C 16.46875 -15.894531 16.238281 -15.804688 15.96875 -15.828125 C 15.65625 -15.878906 15.1875 -15.914062 14.5625 -15.9375 C 13.9375 -15.957031 13.3125 -15.976562 12.6875 -16 C 12.0625 -16.03125 11.578125 -16.035156 11.234375 -16.015625 C 10.367188 -16.015625 9.878906 -15.566406 9.765625 -14.671875 C 9.660156 -13.421875 9.609375 -12.082031 9.609375 -10.65625 C 9.609375 -9.238281 9.625 -8 9.65625 -6.9375 C 9.695312 -6 9.957031 -5.332031 10.4375 -4.9375 C 10.925781 -4.539062 11.519531 -4.34375 12.21875 -4.34375 C 12.507812 -4.34375 12.90625 -4.394531 13.40625 -4.5 C 13.914062 -4.601562 14.414062 -4.734375 14.90625 -4.890625 C 15.40625 -5.046875 15.757812 -5.195312 15.96875 -5.34375 C 16.28125 -5.6875 16.601562 -5.769531 16.9375 -5.59375 C 17.28125 -5.425781 17.441406 -5.09375 17.421875 -4.59375 C 17.421875 -4.0625 17.414062 -3.570312 17.40625 -3.125 C 17.394531 -2.675781 17.390625 -2.210938 17.390625 -1.734375 C 17.359375 -1.179688 17.140625 -0.804688 16.734375 -0.609375 C 16.296875 -0.421875 15.722656 -0.253906 15.015625 -0.109375 C 14.304688 0.0351562 13.585938 0.140625 12.859375 0.203125 C 12.140625 0.265625 11.523438 0.296875 11.015625 0.296875 Z M 11.015625 0.296875 "/></g></g></g><g fill="#3b28cc" fill-opacity="1"><g transform="translate(89.138804, 122.619098)"><g><path d="M 3.6875 0.140625 C 3.488281 0.140625 3.1875 0.128906 2.78125 0.109375 C 2.375 0.0859375 2.015625 0.0507812 1.703125 0 C 1.484375 -0.0507812 1.296875 -0.160156 1.140625 -0.328125 C 0.984375 -0.492188 0.90625 -0.722656 0.90625 -1.015625 C 0.90625 -3.109375 0.910156 -4.960938 0.921875 -6.578125 C 0.929688 -8.191406 0.945312 -9.664062 0.96875 -11 C 1 -12.34375 1.039062 -13.632812 1.09375 -14.875 C 1.15625 -16.113281 1.238281 -17.40625 1.34375 -18.75 C 1.414062 -19.28125 1.675781 -19.582031 2.125 -19.65625 C 2.394531 -19.707031 2.707031 -19.742188 3.0625 -19.765625 C 3.425781 -19.796875 3.765625 -19.8125 4.078125 -19.8125 C 4.367188 -19.8125 4.726562 -19.796875 5.15625 -19.765625 C 5.59375 -19.742188 5.921875 -19.707031 6.140625 -19.65625 C 6.429688 -19.613281 6.65625 -19.5 6.8125 -19.3125 C 6.96875 -19.132812 7.007812 -18.925781 6.9375 -18.6875 C 6.820312 -18.226562 6.71875 -17.816406 6.625 -17.453125 C 6.539062 -17.085938 6.5 -16.664062 6.5 -16.1875 C 6.5 -15.832031 6.59375 -15.625 6.78125 -15.5625 C 6.976562 -15.5 7.148438 -15.660156 7.296875 -16.046875 C 7.878906 -17.421875 8.707031 -18.40625 9.78125 -19 C 10.851562 -19.601562 12.050781 -19.90625 13.375 -19.90625 C 13.925781 -19.90625 14.503906 -19.835938 15.109375 -19.703125 C 15.710938 -19.578125 16.207031 -19.40625 16.59375 -19.1875 C 17.070312 -18.925781 17.3125 -18.554688 17.3125 -18.078125 C 17.3125 -17.328125 17.304688 -16.628906 17.296875 -15.984375 C 17.285156 -15.347656 17.253906 -14.644531 17.203125 -13.875 C 17.179688 -13.414062 16.992188 -13.140625 16.640625 -13.046875 C 16.296875 -12.953125 15.988281 -13.046875 15.71875 -13.328125 C 15.070312 -13.890625 14.390625 -14.269531 13.671875 -14.46875 C 12.960938 -14.675781 12.25 -14.78125 11.53125 -14.78125 C 10.632812 -14.78125 9.796875 -14.53125 9.015625 -14.03125 C 8.234375 -13.539062 7.597656 -12.832031 7.109375 -11.90625 C 6.628906 -10.976562 6.390625 -9.863281 6.390625 -8.5625 C 6.390625 -7.644531 6.421875 -6.695312 6.484375 -5.71875 C 6.546875 -4.75 6.613281 -3.847656 6.6875 -3.015625 C 6.757812 -2.179688 6.804688 -1.515625 6.828125 -1.015625 C 6.847656 -0.703125 6.769531 -0.457031 6.59375 -0.28125 C 6.414062 -0.113281 6.21875 -0.0078125 6 0.03125 C 5.738281 0.0625 5.382812 0.0859375 4.9375 0.109375 C 4.488281 0.128906 4.070312 0.140625 3.6875 0.140625 Z M 3.6875 0.140625 "/></g></g></g><g fill="#3b28cc" fill-opacity="1"><g transform="translate(107.065349, 122.619098)"><g><path d="M 6.765625 0.296875 C 4.929688 0.296875 3.453125 -0.132812 2.328125 -1 C 1.210938 -1.875 0.65625 -3.335938 0.65625 -5.390625 C 0.65625 -7.191406 1.296875 -8.613281 2.578125 -9.65625 C 3.867188 -10.707031 5.648438 -11.425781 7.921875 -11.8125 C 9.984375 -12.101562 11.4375 -12.398438 12.28125 -12.703125 C 13.125 -13.003906 13.546875 -13.476562 13.546875 -14.125 C 13.546875 -14.507812 13.28125 -14.867188 12.75 -15.203125 C 12.226562 -15.546875 11.328125 -15.71875 10.046875 -15.71875 C 8.960938 -15.71875 7.84375 -15.546875 6.6875 -15.203125 C 5.53125 -14.867188 4.519531 -14.316406 3.65625 -13.546875 C 3.382812 -13.160156 3.070312 -13.050781 2.71875 -13.21875 C 2.375 -13.394531 2.210938 -13.75 2.234375 -14.28125 C 2.265625 -14.539062 2.300781 -14.90625 2.34375 -15.375 C 2.394531 -15.84375 2.453125 -16.316406 2.515625 -16.796875 C 2.578125 -17.285156 2.617188 -17.648438 2.640625 -17.890625 C 2.710938 -18.460938 2.953125 -18.835938 3.359375 -19.015625 C 5.359375 -19.640625 7.523438 -19.953125 9.859375 -19.953125 C 12.628906 -19.953125 14.78125 -19.351562 16.3125 -18.15625 C 17.84375 -16.96875 18.726562 -15.0625 18.96875 -12.4375 C 19.039062 -11.519531 19.113281 -10.382812 19.1875 -9.03125 C 19.257812 -7.6875 19.332031 -6.3125 19.40625 -4.90625 C 19.476562 -3.507812 19.539062 -2.257812 19.59375 -1.15625 C 19.59375 -0.53125 19.253906 -0.15625 18.578125 -0.03125 C 18.335938 0.0390625 18.035156 0.0859375 17.671875 0.109375 C 17.304688 0.128906 16.957031 0.140625 16.625 0.140625 C 16.332031 0.140625 15.960938 0.128906 15.515625 0.109375 C 15.078125 0.0859375 14.710938 0.0390625 14.421875 -0.03125 C 14.109375 -0.0820312 13.851562 -0.222656 13.65625 -0.453125 C 13.46875 -0.679688 13.394531 -0.953125 13.4375 -1.265625 C 13.488281 -1.503906 13.546875 -1.816406 13.609375 -2.203125 C 13.671875 -2.585938 13.710938 -2.972656 13.734375 -3.359375 C 13.785156 -3.691406 13.707031 -3.890625 13.5 -3.953125 C 13.289062 -4.015625 13.113281 -3.890625 12.96875 -3.578125 C 12.414062 -2.398438 11.5625 -1.457031 10.40625 -0.75 C 9.25 -0.0507812 8.035156 0.296875 6.765625 0.296875 Z M 9.21875 -4.1875 C 9.820312 -4.1875 10.453125 -4.34375 11.109375 -4.65625 C 11.773438 -4.96875 12.335938 -5.421875 12.796875 -6.015625 C 13.253906 -6.609375 13.484375 -7.328125 13.484375 -8.171875 C 13.484375 -8.742188 13.304688 -9.21875 12.953125 -9.59375 C 12.609375 -9.96875 12.015625 -10.15625 11.171875 -10.15625 C 10.328125 -10.15625 9.519531 -10 8.75 -9.6875 C 7.976562 -9.375 7.347656 -8.945312 6.859375 -8.40625 C 6.378906 -7.863281 6.140625 -7.21875 6.140625 -6.46875 C 6.140625 -5.644531 6.378906 -5.054688 6.859375 -4.703125 C 7.347656 -4.359375 8.132812 -4.1875 9.21875 -4.1875 Z M 9.21875 -4.1875 "/></g></g></g><g fill="#3b28cc" fill-opacity="1"><g transform="translate(127.485704, 122.619098)"><g/></g></g><g fill="#3b28cc" fill-opacity="1"><g transform="translate(137.207965, 122.619098)"><g><path d="M 6.765625 0.296875 C 4.929688 0.296875 3.453125 -0.132812 2.328125 -1 C 1.210938 -1.875 0.65625 -3.335938 0.65625 -5.390625 C 0.65625 -7.191406 1.296875 -8.613281 2.578125 -9.65625 C 3.867188 -10.707031 5.648438 -11.425781 7.921875 -11.8125 C 9.984375 -12.101562 11.4375 -12.398438 12.28125 -12.703125 C 13.125 -13.003906 13.546875 -13.476562 13.546875 -14.125 C 13.546875 -14.507812 13.28125 -14.867188 12.75 -15.203125 C 12.226562 -15.546875 11.328125 -15.71875 10.046875 -15.71875 C 8.960938 -15.71875 7.84375 -15.546875 6.6875 -15.203125 C 5.53125 -14.867188 4.519531 -14.316406 3.65625 -13.546875 C 3.382812 -13.160156 3.070312 -13.050781 2.71875 -13.21875 C 2.375 -13.394531 2.210938 -13.75 2.234375 -14.28125 C 2.265625 -14.539062 2.300781 -14.90625 2.34375 -15.375 C 2.394531 -15.84375 2.453125 -16.316406 2.515625 -16.796875 C 2.578125 -17.285156 2.617188 -17.648438 2.640625 -17.890625 C 2.710938 -18.460938 2.953125 -18.835938 3.359375 -19.015625 C 5.359375 -19.640625 7.523438 -19.953125 9.859375 -19.953125 C 12.628906 -19.953125 14.78125 -19.351562 16.3125 -18.15625 C 17.84375 -16.96875 18.726562 -15.0625 18.96875 -12.4375 C 19.039062 -11.519531 19.113281 -10.382812 19.1875 -9.03125 C 19.257812 -7.6875 19.332031 -6.3125 19.40625 -4.90625 C 19.476562 -3.507812 19.539062 -2.257812 19.59375 -1.15625 C 19.59375 -0.53125 19.253906 -0.15625 18.578125 -0.03125 C 18.335938 0.0390625 18.035156 0.0859375 17.671875 0.109375 C 17.304688 0.128906 16.957031 0.140625 16.625 0.140625 C 16.332031 0.140625 15.960938 0.128906 15.515625 0.109375 C 15.078125 0.0859375 14.710938 0.0390625 14.421875 -0.03125 C 14.109375 -0.0820312 13.851562 -0.222656 13.65625 -0.453125 C 13.46875 -0.679688 13.394531 -0.953125 13.4375 -1.265625 C 13.488281 -1.503906 13.546875 -1.816406 13.609375 -2.203125 C 13.671875 -2.585938 13.710938 -2.972656 13.734375 -3.359375 C 13.785156 -3.691406 13.707031 -3.890625 13.5 -3.953125 C 13.289062 -4.015625 13.113281 -3.890625 12.96875 -3.578125 C 12.414062 -2.398438 11.5625 -1.457031 10.40625 -0.75 C 9.25 -0.0507812 8.035156 0.296875 6.765625 0.296875 Z M 9.21875 -4.1875 C 9.820312 -4.1875 10.453125 -4.34375 11.109375 -4.65625 C 11.773438 -4.96875 12.335938 -5.421875 12.796875 -6.015625 C 13.253906 -6.609375 13.484375 -7.328125 13.484375 -8.171875 C 13.484375 -8.742188 13.304688 -9.21875 12.953125 -9.59375 C 12.609375 -9.96875 12.015625 -10.15625 11.171875 -10.15625 C 10.328125 -10.15625 9.519531 -10 8.75 -9.6875 C 7.976562 -9.375 7.347656 -8.945312 6.859375 -8.40625 C 6.378906 -7.863281 6.140625 -7.21875 6.140625 -6.46875 C 6.140625 -5.644531 6.378906 -5.054688 6.859375 -4.703125 C 7.347656 -4.359375 8.132812 -4.1875 9.21875 -4.1875 Z M 9.21875 -4.1875 "/></g></g></g><g fill="#3b28cc" fill-opacity="1"><g transform="translate(157.628312, 122.619098)"><g/></g></g><g fill="#3b28cc" fill-opacity="1"><g transform="translate(167.350582, 122.619098)"><g><path d="M 11.390625 0.140625 C 10.734375 0.140625 9.953125 0.140625 9.046875 0.140625 C 8.148438 0.140625 7.222656 0.132812 6.265625 0.125 C 5.316406 0.113281 4.457031 0.09375 3.6875 0.0625 C 2.914062 0.0390625 2.347656 0.0195312 1.984375 0 C 1.335938 -0.0507812 1.015625 -0.351562 1.015625 -0.90625 C 1.015625 -2.707031 1.03125 -4.644531 1.0625 -6.71875 C 1.101562 -8.789062 1.148438 -10.882812 1.203125 -13 C 1.265625 -15.125 1.34375 -17.164062 1.4375 -19.125 C 1.539062 -21.09375 1.640625 -22.875 1.734375 -24.46875 C 1.753906 -24.726562 1.859375 -24.925781 2.046875 -25.0625 C 2.242188 -25.195312 2.460938 -25.273438 2.703125 -25.296875 C 2.992188 -25.316406 3.488281 -25.335938 4.1875 -25.359375 C 4.882812 -25.390625 5.671875 -25.410156 6.546875 -25.421875 C 7.429688 -25.429688 8.304688 -25.4375 9.171875 -25.4375 C 10.046875 -25.4375 10.785156 -25.4375 11.390625 -25.4375 C 12.296875 -25.4375 13.265625 -25.4375 14.296875 -25.4375 C 15.335938 -25.4375 16.351562 -25.425781 17.34375 -25.40625 C 18.332031 -25.382812 19.203125 -25.347656 19.953125 -25.296875 C 20.503906 -25.242188 20.816406 -24.957031 20.890625 -24.4375 C 20.910156 -24.144531 20.9375 -23.71875 20.96875 -23.15625 C 21.007812 -22.601562 21.039062 -22.019531 21.0625 -21.40625 C 21.09375 -20.789062 21.117188 -20.21875 21.140625 -19.6875 C 21.160156 -19.164062 21.171875 -18.757812 21.171875 -18.46875 C 21.203125 -17.988281 21.035156 -17.703125 20.671875 -17.609375 C 20.304688 -17.523438 19.992188 -17.703125 19.734375 -18.140625 C 19.078125 -19.148438 18.109375 -19.90625 16.828125 -20.40625 C 15.554688 -20.914062 13.863281 -21.171875 11.75 -21.171875 C 10.207031 -21.171875 8.90625 -20.945312 7.84375 -20.5 C 6.78125 -20.0625 6.25 -19.3125 6.25 -18.25 L 6.25 -17.921875 C 6.25 -17.179688 6.609375 -16.59375 7.328125 -16.15625 C 8.054688 -15.71875 9.109375 -15.5 10.484375 -15.5 C 11.421875 -15.5 12.472656 -15.53125 13.640625 -15.59375 C 14.804688 -15.65625 15.828125 -15.734375 16.703125 -15.828125 C 16.960938 -15.878906 17.191406 -15.8125 17.390625 -15.625 C 17.597656 -15.445312 17.703125 -15.226562 17.703125 -14.96875 L 17.703125 -11.640625 C 17.703125 -11.253906 17.566406 -11.019531 17.296875 -10.9375 C 17.035156 -10.851562 16.75 -10.941406 16.4375 -11.203125 C 15.789062 -11.660156 14.929688 -11.972656 13.859375 -12.140625 C 12.785156 -12.304688 11.753906 -12.378906 10.765625 -12.359375 C 9.972656 -12.359375 9.226562 -12.257812 8.53125 -12.0625 C 7.832031 -11.875 7.269531 -11.550781 6.84375 -11.09375 C 6.425781 -10.632812 6.21875 -10.019531 6.21875 -9.25 L 6.21875 -8.28125 C 6.21875 -7.289062 6.523438 -6.5 7.140625 -5.90625 C 7.753906 -5.320312 8.550781 -4.898438 9.53125 -4.640625 C 10.519531 -4.390625 11.570312 -4.265625 12.6875 -4.265625 C 14.28125 -4.265625 15.582031 -4.398438 16.59375 -4.671875 C 17.601562 -4.953125 18.429688 -5.394531 19.078125 -6 C 19.734375 -6.601562 20.328125 -7.382812 20.859375 -8.34375 C 21.046875 -8.757812 21.332031 -8.945312 21.71875 -8.90625 C 22.101562 -8.875 22.320312 -8.613281 22.375 -8.125 C 22.414062 -7.789062 22.460938 -7.285156 22.515625 -6.609375 C 22.566406 -5.941406 22.609375 -5.21875 22.640625 -4.4375 C 22.679688 -3.664062 22.71875 -2.941406 22.75 -2.265625 C 22.789062 -1.597656 22.820312 -1.097656 22.84375 -0.765625 C 22.84375 -0.304688 22.585938 -0.0507812 22.078125 0 C 21.453125 0.0195312 20.679688 0.0390625 19.765625 0.0625 C 18.847656 0.09375 17.878906 0.113281 16.859375 0.125 C 15.835938 0.132812 14.84375 0.140625 13.875 0.140625 C 12.914062 0.140625 12.085938 0.140625 11.390625 0.140625 Z M 11.390625 0.140625 "/></g></g></g><g fill="#3b28cc" fill-opacity="1"><g transform="translate(190.987582, 122.619098)"><g><path d="M 3.96875 0.140625 C 3.707031 0.140625 3.351562 0.128906 2.90625 0.109375 C 2.457031 0.0859375 2.09375 0.0507812 1.8125 0 C 1.28125 -0.125 1.015625 -0.460938 1.015625 -1.015625 C 1.015625 -3.109375 1.023438 -5.28125 1.046875 -7.53125 C 1.066406 -9.789062 1.09375 -12.003906 1.125 -14.171875 C 1.164062 -16.335938 1.226562 -18.363281 1.3125 -20.25 C 1.40625 -22.144531 1.5 -23.769531 1.59375 -25.125 C 1.664062 -25.644531 1.96875 -25.941406 2.5 -26.015625 C 2.757812 -26.066406 3.054688 -26.101562 3.390625 -26.125 C 3.734375 -26.15625 4.050781 -26.171875 4.34375 -26.171875 C 4.675781 -26.171875 5.070312 -26.15625 5.53125 -26.125 C 5.988281 -26.101562 6.335938 -26.066406 6.578125 -26.015625 C 6.835938 -25.992188 7.046875 -25.878906 7.203125 -25.671875 C 7.359375 -25.472656 7.414062 -25.238281 7.375 -24.96875 C 7.175781 -23.457031 7.007812 -21.679688 6.875 -19.640625 C 6.75 -17.609375 6.65625 -15.484375 6.59375 -13.265625 C 6.53125 -11.046875 6.515625 -8.875 6.546875 -6.75 C 6.585938 -4.632812 6.671875 -2.722656 6.796875 -1.015625 C 6.816406 -0.722656 6.75 -0.484375 6.59375 -0.296875 C 6.4375 -0.117188 6.238281 -0.0078125 6 0.03125 C 5.707031 0.0625 5.363281 0.0859375 4.96875 0.109375 C 4.570312 0.128906 4.238281 0.140625 3.96875 0.140625 Z M 3.96875 0.140625 "/></g></g></g><g fill="#3b28cc" fill-opacity="1"><g transform="translate(199.300302, 122.619098)"><g><path d="M 3.90625 -21.546875 C 3.007812 -21.546875 2.28125 -21.785156 1.71875 -22.265625 C 1.15625 -22.742188 0.875 -23.359375 0.875 -24.109375 C 0.875 -24.878906 1.15625 -25.503906 1.71875 -25.984375 C 2.28125 -26.460938 3.007812 -26.703125 3.90625 -26.703125 C 4.820312 -26.703125 5.5625 -26.460938 6.125 -25.984375 C 6.6875 -25.503906 6.96875 -24.878906 6.96875 -24.109375 C 6.96875 -23.359375 6.6875 -22.742188 6.125 -22.265625 C 5.5625 -21.785156 4.820312 -21.546875 3.90625 -21.546875 Z M 3.96875 0.140625 C 3.78125 0.140625 3.46875 0.132812 3.03125 0.125 C 2.601562 0.113281 2.234375 0.0703125 1.921875 0 C 1.703125 -0.0507812 1.515625 -0.164062 1.359375 -0.34375 C 1.203125 -0.519531 1.125 -0.753906 1.125 -1.046875 C 1.125 -3.140625 1.128906 -4.988281 1.140625 -6.59375 C 1.148438 -8.195312 1.164062 -9.664062 1.1875 -11 C 1.21875 -12.34375 1.253906 -13.632812 1.296875 -14.875 C 1.347656 -16.113281 1.421875 -17.40625 1.515625 -18.75 C 1.535156 -19.070312 1.609375 -19.296875 1.734375 -19.421875 C 1.859375 -19.554688 2.039062 -19.632812 2.28125 -19.65625 C 2.539062 -19.707031 2.84375 -19.742188 3.1875 -19.765625 C 3.539062 -19.796875 3.816406 -19.8125 4.015625 -19.8125 C 4.179688 -19.8125 4.421875 -19.796875 4.734375 -19.765625 C 5.046875 -19.742188 5.320312 -19.707031 5.5625 -19.65625 C 5.800781 -19.613281 5.976562 -19.53125 6.09375 -19.40625 C 6.21875 -19.289062 6.296875 -19.070312 6.328125 -18.75 C 6.421875 -17.40625 6.488281 -16.113281 6.53125 -14.875 C 6.582031 -13.632812 6.617188 -12.34375 6.640625 -11 C 6.671875 -9.664062 6.691406 -8.191406 6.703125 -6.578125 C 6.710938 -4.960938 6.71875 -3.109375 6.71875 -1.015625 C 6.71875 -0.722656 6.640625 -0.492188 6.484375 -0.328125 C 6.328125 -0.160156 6.140625 -0.0507812 5.921875 0 C 5.609375 0.0507812 5.253906 0.0859375 4.859375 0.109375 C 4.460938 0.128906 4.164062 0.140625 3.96875 0.140625 Z M 3.96875 0.140625 "/></g></g></g><g fill="#3b28cc" fill-opacity="1"><g transform="translate(207.143159, 122.619098)"><g><path d="M 11.015625 0.296875 C 9.796875 0.296875 8.6875 0.0546875 7.6875 -0.421875 C 6.6875 -0.910156 5.890625 -1.632812 5.296875 -2.59375 C 4.703125 -3.5625 4.394531 -4.757812 4.375 -6.1875 C 4.375 -7.019531 4.382812 -7.96875 4.40625 -9.03125 C 4.425781 -10.09375 4.460938 -11.171875 4.515625 -12.265625 C 4.566406 -13.367188 4.640625 -14.410156 4.734375 -15.390625 C 4.753906 -15.585938 4.691406 -15.742188 4.546875 -15.859375 C 4.410156 -15.984375 4.253906 -16.046875 4.078125 -16.046875 C 3.648438 -16.046875 3.207031 -16.046875 2.75 -16.046875 C 2.289062 -16.046875 1.84375 -16.035156 1.40625 -16.015625 C 1.144531 -15.984375 0.914062 -16.070312 0.71875 -16.28125 C 0.53125 -16.488281 0.4375 -16.722656 0.4375 -16.984375 L 0.4375 -18.6875 C 0.4375 -18.945312 0.53125 -19.171875 0.71875 -19.359375 C 0.914062 -19.554688 1.144531 -19.65625 1.40625 -19.65625 L 4.078125 -19.65625 C 4.515625 -19.65625 4.734375 -19.882812 4.734375 -20.34375 C 4.734375 -20.800781 4.742188 -21.273438 4.765625 -21.765625 C 4.796875 -22.265625 4.832031 -22.742188 4.875 -23.203125 C 4.945312 -23.804688 5.25 -24.144531 5.78125 -24.21875 C 6.09375 -24.257812 6.398438 -24.289062 6.703125 -24.3125 C 7.003906 -24.34375 7.300781 -24.359375 7.59375 -24.359375 C 7.90625 -24.359375 8.203125 -24.34375 8.484375 -24.3125 C 8.773438 -24.289062 9.078125 -24.257812 9.390625 -24.21875 C 9.640625 -24.1875 9.859375 -24.082031 10.046875 -23.90625 C 10.242188 -23.726562 10.316406 -23.492188 10.265625 -23.203125 C 10.242188 -22.722656 10.203125 -22.257812 10.140625 -21.8125 C 10.078125 -21.363281 10.046875 -20.890625 10.046875 -20.390625 C 10.046875 -19.898438 10.265625 -19.65625 10.703125 -19.65625 C 11.472656 -19.65625 12.359375 -19.660156 13.359375 -19.671875 C 14.359375 -19.691406 15.226562 -19.710938 15.96875 -19.734375 C 16.238281 -19.734375 16.46875 -19.632812 16.65625 -19.4375 C 16.851562 -19.25 16.953125 -19.019531 16.953125 -18.75 L 16.953125 -16.8125 C 16.953125 -16.539062 16.851562 -16.300781 16.65625 -16.09375 C 16.46875 -15.894531 16.238281 -15.804688 15.96875 -15.828125 C 15.65625 -15.878906 15.1875 -15.914062 14.5625 -15.9375 C 13.9375 -15.957031 13.3125 -15.976562 12.6875 -16 C 12.0625 -16.03125 11.578125 -16.035156 11.234375 -16.015625 C 10.367188 -16.015625 9.878906 -15.566406 9.765625 -14.671875 C 9.660156 -13.421875 9.609375 -12.082031 9.609375 -10.65625 C 9.609375 -9.238281 9.625 -8 9.65625 -6.9375 C 9.695312 -6 9.957031 -5.332031 10.4375 -4.9375 C 10.925781 -4.539062 11.519531 -4.34375 12.21875 -4.34375 C 12.507812 -4.34375 12.90625 -4.394531 13.40625 -4.5 C 13.914062 -4.601562 14.414062 -4.734375 14.90625 -4.890625 C 15.40625 -5.046875 15.757812 -5.195312 15.96875 -5.34375 C 16.28125 -5.6875 16.601562 -5.769531 16.9375 -5.59375 C 17.28125 -5.425781 17.441406 -5.09375 17.421875 -4.59375 C 17.421875 -4.0625 17.414062 -3.570312 17.40625 -3.125 C 17.394531 -2.675781 17.390625 -2.210938 17.390625 -1.734375 C 17.359375 -1.179688 17.140625 -0.804688 16.734375 -0.609375 C 16.296875 -0.421875 15.722656 -0.253906 15.015625 -0.109375 C 14.304688 0.0351562 13.585938 0.140625 12.859375 0.203125 C 12.140625 0.265625 11.523438 0.296875 11.015625 0.296875 Z M 11.015625 0.296875 "/></g></g></g><g fill="#3b28cc" fill-opacity="1"><g transform="translate(224.997414, 122.619098)"><g><path d="M 11.171875 0.296875 C 9.046875 0.296875 7.191406 -0.101562 5.609375 -0.90625 C 4.035156 -1.71875 2.816406 -2.894531 1.953125 -4.4375 C 1.085938 -5.988281 0.65625 -7.859375 0.65625 -10.046875 C 0.65625 -12.171875 1.066406 -13.96875 1.890625 -15.4375 C 2.722656 -16.90625 3.863281 -18.023438 5.3125 -18.796875 C 6.757812 -19.566406 8.398438 -19.953125 10.234375 -19.953125 C 12.785156 -19.953125 14.847656 -19.378906 16.421875 -18.234375 C 18.003906 -17.085938 18.796875 -15.40625 18.796875 -13.1875 C 18.796875 -12.007812 18.472656 -10.96875 17.828125 -10.0625 C 17.191406 -9.15625 16.347656 -8.457031 15.296875 -7.96875 C 14.253906 -7.476562 13.128906 -7.234375 11.921875 -7.234375 C 10.929688 -7.234375 9.972656 -7.316406 9.046875 -7.484375 C 8.117188 -7.648438 7.304688 -7.925781 6.609375 -8.3125 C 6.253906 -8.550781 5.988281 -8.566406 5.8125 -8.359375 C 5.644531 -8.160156 5.679688 -7.890625 5.921875 -7.546875 C 6.210938 -6.878906 6.675781 -6.28125 7.3125 -5.75 C 7.957031 -5.21875 8.6875 -4.800781 9.5 -4.5 C 10.320312 -4.195312 11.144531 -4.046875 11.96875 -4.046875 C 12.90625 -4.046875 13.898438 -4.25 14.953125 -4.65625 C 16.015625 -5.070312 16.882812 -5.59375 17.5625 -6.21875 C 17.832031 -6.550781 18.113281 -6.660156 18.40625 -6.546875 C 18.707031 -6.441406 18.875 -6.148438 18.90625 -5.671875 C 18.945312 -5.140625 18.972656 -4.597656 18.984375 -4.046875 C 19.003906 -3.492188 19.023438 -2.953125 19.046875 -2.421875 C 19.046875 -1.960938 18.890625 -1.640625 18.578125 -1.453125 C 17.679688 -0.847656 16.539062 -0.40625 15.15625 -0.125 C 13.769531 0.15625 12.441406 0.296875 11.171875 0.296875 Z M 10.515625 -10.015625 C 11.554688 -10.015625 12.375 -10.269531 12.96875 -10.78125 C 13.570312 -11.300781 13.875 -12.007812 13.875 -12.90625 C 13.875 -13.84375 13.597656 -14.578125 13.046875 -15.109375 C 12.492188 -15.640625 11.578125 -15.90625 10.296875 -15.90625 C 9.578125 -15.90625 8.867188 -15.753906 8.171875 -15.453125 C 7.472656 -15.148438 6.898438 -14.71875 6.453125 -14.15625 C 6.003906 -13.601562 5.78125 -12.929688 5.78125 -12.140625 C 5.78125 -11.660156 6.046875 -11.253906 6.578125 -10.921875 C 7.109375 -10.597656 7.738281 -10.363281 8.46875 -10.21875 C 9.207031 -10.082031 9.890625 -10.015625 10.515625 -10.015625 Z M 10.515625 -10.015625 "/></g></g></g><g fill="#3b28cc" fill-opacity="1"><g transform="translate(244.731062, 122.619098)"><g><path d="M 3.4375 3.765625 L 2.78125 2.96875 C 2.394531 2.550781 2.441406 2.148438 2.921875 1.765625 C 3.117188 1.617188 3.28125 1.457031 3.40625 1.28125 C 3.539062 1.101562 3.660156 0.941406 3.765625 0.796875 C 3.859375 0.671875 3.882812 0.546875 3.84375 0.421875 C 3.8125 0.304688 3.695312 0.25 3.5 0.25 C 2.757812 0.320312 2.09375 0.0507812 1.5 -0.5625 C 0.90625 -1.175781 0.609375 -2 0.609375 -3.03125 C 0.609375 -4.09375 0.945312 -4.910156 1.625 -5.484375 C 2.300781 -6.066406 3.15625 -6.359375 4.1875 -6.359375 C 5.25 -6.359375 6.101562 -5.984375 6.75 -5.234375 C 7.40625 -4.492188 7.734375 -3.519531 7.734375 -2.3125 C 7.734375 -0.863281 7.425781 0.398438 6.8125 1.484375 C 6.195312 2.566406 5.46875 3.410156 4.625 4.015625 C 4.40625 4.160156 4.1875 4.203125 3.96875 4.140625 C 3.757812 4.078125 3.582031 3.953125 3.4375 3.765625 Z M 3.4375 3.765625 "/></g></g></g><g fill="#3b28cc" fill-opacity="1"><g transform="translate(253.079918, 122.619098)"><g/></g></g><g fill="#3b28cc" fill-opacity="1"><g transform="translate(262.802188, 122.619098)"><g><path d="M 3.546875 8.453125 C 3.367188 8.453125 3.078125 8.429688 2.671875 8.390625 C 2.265625 8.359375 1.925781 8.332031 1.65625 8.3125 C 1.15625 8.238281 0.90625 7.9375 0.90625 7.40625 C 0.90625 5.914062 0.910156 4.117188 0.921875 2.015625 C 0.929688 -0.078125 0.96875 -2.320312 1.03125 -4.71875 C 1.09375 -7.113281 1.164062 -9.507812 1.25 -11.90625 C 1.332031 -14.300781 1.445312 -16.550781 1.59375 -18.65625 C 1.632812 -19.25 1.921875 -19.582031 2.453125 -19.65625 C 2.742188 -19.707031 3.09375 -19.742188 3.5 -19.765625 C 3.914062 -19.796875 4.207031 -19.8125 4.375 -19.8125 C 4.539062 -19.8125 4.859375 -19.796875 5.328125 -19.765625 C 5.796875 -19.742188 6.164062 -19.707031 6.4375 -19.65625 C 6.675781 -19.632812 6.875 -19.53125 7.03125 -19.34375 C 7.1875 -19.164062 7.238281 -18.9375 7.1875 -18.65625 C 7.144531 -18.40625 7.097656 -18.144531 7.046875 -17.875 C 6.992188 -17.613281 6.957031 -17.378906 6.9375 -17.171875 C 6.914062 -16.804688 6.988281 -16.597656 7.15625 -16.546875 C 7.320312 -16.503906 7.488281 -16.640625 7.65625 -16.953125 C 8.3125 -17.835938 9.164062 -18.554688 10.21875 -19.109375 C 11.28125 -19.671875 12.351562 -19.953125 13.4375 -19.953125 C 14.957031 -19.953125 16.300781 -19.578125 17.46875 -18.828125 C 18.644531 -18.078125 19.5625 -16.96875 20.21875 -15.5 C 20.882812 -14.03125 21.21875 -12.1875 21.21875 -9.96875 C 21.21875 -7.832031 20.859375 -5.988281 20.140625 -4.4375 C 19.429688 -2.894531 18.46875 -1.71875 17.25 -0.90625 C 16.039062 -0.101562 14.675781 0.296875 13.15625 0.296875 C 11.875 0.296875 10.679688 0 9.578125 -0.59375 C 8.472656 -1.1875 7.617188 -2 7.015625 -3.03125 C 6.847656 -3.34375 6.679688 -3.46875 6.515625 -3.40625 C 6.359375 -3.351562 6.269531 -3.144531 6.25 -2.78125 C 6.226562 -2.101562 6.222656 -1.304688 6.234375 -0.390625 C 6.242188 0.515625 6.265625 1.445312 6.296875 2.40625 C 6.335938 3.375 6.390625 4.289062 6.453125 5.15625 C 6.515625 6.03125 6.582031 6.769531 6.65625 7.375 C 6.695312 7.632812 6.628906 7.84375 6.453125 8 C 6.273438 8.15625 6.0625 8.257812 5.8125 8.3125 C 5.550781 8.332031 5.15625 8.359375 4.625 8.390625 C 4.09375 8.429688 3.734375 8.453125 3.546875 8.453125 Z M 11.234375 -4.046875 C 12.660156 -4.046875 13.820312 -4.554688 14.71875 -5.578125 C 15.625 -6.609375 16.078125 -8.015625 16.078125 -9.796875 C 16.078125 -11.648438 15.617188 -13.09375 14.703125 -14.125 C 13.785156 -15.164062 12.628906 -15.6875 11.234375 -15.6875 C 9.890625 -15.6875 8.742188 -15.164062 7.796875 -14.125 C 6.859375 -13.09375 6.390625 -11.648438 6.390625 -9.796875 C 6.390625 -8.015625 6.847656 -6.609375 7.765625 -5.578125 C 8.679688 -4.554688 9.835938 -4.046875 11.234375 -4.046875 Z M 11.234375 -4.046875 "/></g></g></g><g fill="#3b28cc" fill-opacity="1"><g transform="translate(284.668239, 122.619098)"><g><path d="M 11.171875 0.296875 C 9.046875 0.296875 7.191406 -0.101562 5.609375 -0.90625 C 4.035156 -1.71875 2.816406 -2.894531 1.953125 -4.4375 C 1.085938 -5.988281 0.65625 -7.859375 0.65625 -10.046875 C 0.65625 -12.171875 1.066406 -13.96875 1.890625 -15.4375 C 2.722656 -16.90625 3.863281 -18.023438 5.3125 -18.796875 C 6.757812 -19.566406 8.398438 -19.953125 10.234375 -19.953125 C 12.785156 -19.953125 14.847656 -19.378906 16.421875 -18.234375 C 18.003906 -17.085938 18.796875 -15.40625 18.796875 -13.1875 C 18.796875 -12.007812 18.472656 -10.96875 17.828125 -10.0625 C 17.191406 -9.15625 16.347656 -8.457031 15.296875 -7.96875 C 14.253906 -7.476562 13.128906 -7.234375 11.921875 -7.234375 C 10.929688 -7.234375 9.972656 -7.316406 9.046875 -7.484375 C 8.117188 -7.648438 7.304688 -7.925781 6.609375 -8.3125 C 6.253906 -8.550781 5.988281 -8.566406 5.8125 -8.359375 C 5.644531 -8.160156 5.679688 -7.890625 5.921875 -7.546875 C 6.210938 -6.878906 6.675781 -6.28125 7.3125 -5.75 C 7.957031 -5.21875 8.6875 -4.800781 9.5 -4.5 C 10.320312 -4.195312 11.144531 -4.046875 11.96875 -4.046875 C 12.90625 -4.046875 13.898438 -4.25 14.953125 -4.65625 C 16.015625 -5.070312 16.882812 -5.59375 17.5625 -6.21875 C 17.832031 -6.550781 18.113281 -6.660156 18.40625 -6.546875 C 18.707031 -6.441406 18.875 -6.148438 18.90625 -5.671875 C 18.945312 -5.140625 18.972656 -4.597656 18.984375 -4.046875 C 19.003906 -3.492188 19.023438 -2.953125 19.046875 -2.421875 C 19.046875 -1.960938 18.890625 -1.640625 18.578125 -1.453125 C 17.679688 -0.847656 16.539062 -0.40625 15.15625 -0.125 C 13.769531 0.15625 12.441406 0.296875 11.171875 0.296875 Z M 10.515625 -10.015625 C 11.554688 -10.015625 12.375 -10.269531 12.96875 -10.78125 C 13.570312 -11.300781 13.875 -12.007812 13.875 -12.90625 C 13.875 -13.84375 13.597656 -14.578125 13.046875 -15.109375 C 12.492188 -15.640625 11.578125 -15.90625 10.296875 -15.90625 C 9.578125 -15.90625 8.867188 -15.753906 8.171875 -15.453125 C 7.472656 -15.148438 6.898438 -14.71875 6.453125 -14.15625 C 6.003906 -13.601562 5.78125 -12.929688 5.78125 -12.140625 C 5.78125 -11.660156 6.046875 -11.253906 6.578125 -10.921875 C 7.109375 -10.597656 7.738281 -10.363281 8.46875 -10.21875 C 9.207031 -10.082031 9.890625 -10.015625 10.515625 -10.015625 Z M 10.515625 -10.015625 "/></g></g></g><g fill="#3b28cc" fill-opacity="1"><g transform="translate(304.401906, 122.619098)"><g><path d="M 3.96875 0.140625 C 3.707031 0.140625 3.351562 0.128906 2.90625 0.109375 C 2.457031 0.0859375 2.09375 0.0507812 1.8125 0 C 1.28125 -0.125 1.015625 -0.460938 1.015625 -1.015625 C 1.015625 -3.109375 1.023438 -5.28125 1.046875 -7.53125 C 1.066406 -9.789062 1.09375 -12.003906 1.125 -14.171875 C 1.164062 -16.335938 1.226562 -18.363281 1.3125 -20.25 C 1.40625 -22.144531 1.5 -23.769531 1.59375 -25.125 C 1.664062 -25.644531 1.96875 -25.941406 2.5 -26.015625 C 2.757812 -26.066406 3.054688 -26.101562 3.390625 -26.125 C 3.734375 -26.15625 4.050781 -26.171875 4.34375 -26.171875 C 4.675781 -26.171875 5.070312 -26.15625 5.53125 -26.125 C 5.988281 -26.101562 6.335938 -26.066406 6.578125 -26.015625 C 6.835938 -25.992188 7.046875 -25.878906 7.203125 -25.671875 C 7.359375 -25.472656 7.414062 -25.238281 7.375 -24.96875 C 7.175781 -23.457031 7.007812 -21.679688 6.875 -19.640625 C 6.75 -17.609375 6.65625 -15.484375 6.59375 -13.265625 C 6.53125 -11.046875 6.515625 -8.875 6.546875 -6.75 C 6.585938 -4.632812 6.671875 -2.722656 6.796875 -1.015625 C 6.816406 -0.722656 6.75 -0.484375 6.59375 -0.296875 C 6.4375 -0.117188 6.238281 -0.0078125 6 0.03125 C 5.707031 0.0625 5.363281 0.0859375 4.96875 0.109375 C 4.570312 0.128906 4.238281 0.140625 3.96875 0.140625 Z M 3.96875 0.140625 "/></g></g></g><g fill="#3b28cc" fill-opacity="1"><g transform="translate(312.714626, 122.619098)"><g><path d="M 10.765625 0.296875 C 8.835938 0.296875 7.109375 -0.0703125 5.578125 -0.8125 C 4.046875 -1.550781 2.84375 -2.660156 1.96875 -4.140625 C 1.09375 -5.617188 0.65625 -7.46875 0.65625 -9.6875 C 0.65625 -11.851562 1.085938 -13.703125 1.953125 -15.234375 C 2.816406 -16.765625 4.015625 -17.929688 5.546875 -18.734375 C 7.078125 -19.546875 8.816406 -19.953125 10.765625 -19.953125 C 12.722656 -19.953125 14.453125 -19.546875 15.953125 -18.734375 C 17.460938 -17.929688 18.648438 -16.765625 19.515625 -15.234375 C 20.378906 -13.703125 20.8125 -11.851562 20.8125 -9.6875 C 20.8125 -7.46875 20.378906 -5.617188 19.515625 -4.140625 C 18.648438 -2.660156 17.457031 -1.550781 15.9375 -0.8125 C 14.414062 -0.0703125 12.691406 0.296875 10.765625 0.296875 Z M 10.765625 -3.96875 C 12.191406 -3.96875 13.367188 -4.472656 14.296875 -5.484375 C 15.222656 -6.503906 15.6875 -7.960938 15.6875 -9.859375 C 15.6875 -11.671875 15.226562 -13.09375 14.3125 -14.125 C 13.394531 -15.164062 12.210938 -15.6875 10.765625 -15.6875 C 9.296875 -15.6875 8.109375 -15.164062 7.203125 -14.125 C 6.304688 -13.09375 5.859375 -11.671875 5.859375 -9.859375 C 5.859375 -7.960938 6.320312 -6.503906 7.25 -5.484375 C 8.175781 -4.472656 9.347656 -3.96875 10.765625 -3.96875 Z M 10.765625 -3.96875 "/></g></g></g><g fill="#3b28cc" fill-opacity="1"><g transform="translate(334.183123, 122.619098)"><g/></g></g><g fill="#d90368" fill-opacity="1"><g transform="translate(343.913054, 122.619098)"><g><path d="M 4.375 0.140625 C 3.84375 0.140625 3.34375 0.117188 2.875 0.078125 C 2.40625 0.046875 2.070312 0.0195312 1.875 0 C 1.300781 -0.125 1.015625 -0.4375 1.015625 -0.9375 C 1.015625 -2.457031 1.023438 -4.085938 1.046875 -5.828125 C 1.066406 -7.578125 1.101562 -9.351562 1.15625 -11.15625 C 1.207031 -12.96875 1.253906 -14.710938 1.296875 -16.390625 C 1.347656 -18.066406 1.410156 -19.597656 1.484375 -20.984375 C 1.554688 -22.367188 1.628906 -23.519531 1.703125 -24.4375 C 1.742188 -24.957031 2.019531 -25.242188 2.53125 -25.296875 C 3.175781 -25.347656 4.003906 -25.394531 5.015625 -25.4375 C 6.035156 -25.488281 7.070312 -25.523438 8.125 -25.546875 C 9.1875 -25.578125 10.117188 -25.59375 10.921875 -25.59375 C 14.523438 -25.59375 17.316406 -25.019531 19.296875 -23.875 C 21.273438 -22.726562 22.265625 -21.09375 22.265625 -18.96875 C 22.265625 -17.09375 21.644531 -15.441406 20.40625 -14.015625 C 19.164062 -12.597656 17.429688 -11.503906 15.203125 -10.734375 C 12.972656 -9.960938 10.363281 -9.601562 7.375 -9.65625 C 6.769531 -9.601562 6.46875 -9.128906 6.46875 -8.234375 C 6.46875 -7.296875 6.550781 -6.375 6.71875 -5.46875 C 6.882812 -4.570312 7.0625 -3.742188 7.25 -2.984375 C 7.445312 -2.222656 7.5625 -1.578125 7.59375 -1.046875 C 7.613281 -0.785156 7.53125 -0.550781 7.34375 -0.34375 C 7.164062 -0.132812 6.945312 -0.0078125 6.6875 0.03125 C 6.351562 0.0820312 5.96875 0.113281 5.53125 0.125 C 5.09375 0.132812 4.707031 0.140625 4.375 0.140625 Z M 8.28125 -13.296875 C 10.25 -13.316406 11.878906 -13.5625 13.171875 -14.03125 C 14.460938 -14.507812 15.421875 -15.132812 16.046875 -15.90625 C 16.671875 -16.675781 16.984375 -17.484375 16.984375 -18.328125 C 16.984375 -19.316406 16.515625 -20.070312 15.578125 -20.59375 C 14.640625 -21.125 13.097656 -21.390625 10.953125 -21.390625 C 10.367188 -21.390625 9.851562 -21.382812 9.40625 -21.375 C 8.96875 -21.363281 8.519531 -21.332031 8.0625 -21.28125 C 7.601562 -21.257812 7.269531 -21.128906 7.0625 -20.890625 C 6.863281 -20.648438 6.738281 -20.347656 6.6875 -19.984375 C 6.59375 -19.304688 6.546875 -18.441406 6.546875 -17.390625 C 6.546875 -16.347656 6.59375 -15.367188 6.6875 -14.453125 C 6.757812 -13.640625 7.289062 -13.253906 8.28125 -13.296875 Z M 8.28125 -13.296875 "/></g></g></g><g fill="#d90368" fill-opacity="1"><g transform="translate(366.82722, 122.619098)"><g><path d="M 10.765625 0.296875 C 8.835938 0.296875 7.109375 -0.0703125 5.578125 -0.8125 C 4.046875 -1.550781 2.84375 -2.660156 1.96875 -4.140625 C 1.09375 -5.617188 0.65625 -7.46875 0.65625 -9.6875 C 0.65625 -11.851562 1.085938 -13.703125 1.953125 -15.234375 C 2.816406 -16.765625 4.015625 -17.929688 5.546875 -18.734375 C 7.078125 -19.546875 8.816406 -19.953125 10.765625 -19.953125 C 12.722656 -19.953125 14.453125 -19.546875 15.953125 -18.734375 C 17.460938 -17.929688 18.648438 -16.765625 19.515625 -15.234375 C 20.378906 -13.703125 20.8125 -11.851562 20.8125 -9.6875 C 20.8125 -7.46875 20.378906 -5.617188 19.515625 -4.140625 C 18.648438 -2.660156 17.457031 -1.550781 15.9375 -0.8125 C 14.414062 -0.0703125 12.691406 0.296875 10.765625 0.296875 Z M 10.765625 -3.96875 C 12.191406 -3.96875 13.367188 -4.472656 14.296875 -5.484375 C 15.222656 -6.503906 15.6875 -7.960938 15.6875 -9.859375 C 15.6875 -11.671875 15.226562 -13.09375 14.3125 -14.125 C 13.394531 -15.164062 12.210938 -15.6875 10.765625 -15.6875 C 9.296875 -15.6875 8.109375 -15.164062 7.203125 -14.125 C 6.304688 -13.09375 5.859375 -11.671875 5.859375 -9.859375 C 5.859375 -7.960938 6.320312 -6.503906 7.25 -5.484375 C 8.175781 -4.472656 9.347656 -3.96875 10.765625 -3.96875 Z M 10.765625 -3.96875 "/></g></g></g><g fill="#d90368" fill-opacity="1"><g transform="translate(388.295699, 122.619098)"><g><path d="M 11.015625 0.140625 C 10.679688 0.140625 10.257812 0.132812 9.75 0.125 C 9.25 0.113281 8.804688 0.0703125 8.421875 0 C 8.222656 -0.0507812 8.023438 -0.140625 7.828125 -0.265625 C 7.640625 -0.398438 7.5 -0.539062 7.40625 -0.6875 C 6.488281 -2.28125 5.601562 -4.046875 4.75 -5.984375 C 3.894531 -7.921875 3.117188 -9.960938 2.421875 -12.109375 C 1.722656 -14.253906 1.109375 -16.398438 0.578125 -18.546875 C 0.503906 -18.804688 0.535156 -19.050781 0.671875 -19.28125 C 0.804688 -19.507812 1.03125 -19.632812 1.34375 -19.65625 C 1.601562 -19.707031 1.941406 -19.742188 2.359375 -19.765625 C 2.785156 -19.796875 3.117188 -19.8125 3.359375 -19.8125 C 3.554688 -19.8125 3.929688 -19.796875 4.484375 -19.765625 C 5.035156 -19.742188 5.441406 -19.707031 5.703125 -19.65625 C 6.160156 -19.582031 6.441406 -19.304688 6.546875 -18.828125 C 6.734375 -16.203125 7.210938 -13.757812 7.984375 -11.5 C 8.753906 -9.25 9.515625 -7.34375 10.265625 -5.78125 C 10.503906 -5.320312 10.75 -5.09375 11 -5.09375 C 11.257812 -5.09375 11.507812 -5.320312 11.75 -5.78125 C 12.25 -6.84375 12.757812 -8.0625 13.28125 -9.4375 C 13.800781 -10.8125 14.257812 -12.289062 14.65625 -13.875 C 15.050781 -15.46875 15.3125 -17.117188 15.4375 -18.828125 C 15.53125 -19.304688 15.804688 -19.582031 16.265625 -19.65625 C 16.554688 -19.707031 16.960938 -19.742188 17.484375 -19.765625 C 18.015625 -19.796875 18.390625 -19.8125 18.609375 -19.8125 C 18.898438 -19.8125 19.25 -19.796875 19.65625 -19.765625 C 20.070312 -19.742188 20.398438 -19.707031 20.640625 -19.65625 C 20.972656 -19.632812 21.195312 -19.507812 21.3125 -19.28125 C 21.4375 -19.050781 21.460938 -18.804688 21.390625 -18.546875 C 20.503906 -15.265625 19.484375 -12.066406 18.328125 -8.953125 C 17.171875 -5.847656 15.90625 -3.09375 14.53125 -0.6875 C 14.4375 -0.539062 14.296875 -0.398438 14.109375 -0.265625 C 13.929688 -0.140625 13.742188 -0.0507812 13.546875 0 C 13.160156 0.0703125 12.710938 0.113281 12.203125 0.125 C 11.703125 0.132812 11.304688 0.140625 11.015625 0.140625 Z M 11.015625 0.140625 "/></g></g></g><g fill="#d90368" fill-opacity="1"><g transform="translate(410.270168, 122.619098)"><g><path d="M 10.765625 0.296875 C 8.835938 0.296875 7.109375 -0.0703125 5.578125 -0.8125 C 4.046875 -1.550781 2.84375 -2.660156 1.96875 -4.140625 C 1.09375 -5.617188 0.65625 -7.46875 0.65625 -9.6875 C 0.65625 -11.851562 1.085938 -13.703125 1.953125 -15.234375 C 2.816406 -16.765625 4.015625 -17.929688 5.546875 -18.734375 C 7.078125 -19.546875 8.816406 -19.953125 10.765625 -19.953125 C 12.722656 -19.953125 14.453125 -19.546875 15.953125 -18.734375 C 17.460938 -17.929688 18.648438 -16.765625 19.515625 -15.234375 C 20.378906 -13.703125 20.8125 -11.851562 20.8125 -9.6875 C 20.8125 -7.46875 20.378906 -5.617188 19.515625 -4.140625 C 18.648438 -2.660156 17.457031 -1.550781 15.9375 -0.8125 C 14.414062 -0.0703125 12.691406 0.296875 10.765625 0.296875 Z M 10.765625 -3.96875 C 12.191406 -3.96875 13.367188 -4.472656 14.296875 -5.484375 C 15.222656 -6.503906 15.6875 -7.960938 15.6875 -9.859375 C 15.6875 -11.671875 15.226562 -13.09375 14.3125 -14.125 C 13.394531 -15.164062 12.210938 -15.6875 10.765625 -15.6875 C 9.296875 -15.6875 8.109375 -15.164062 7.203125 -14.125 C 6.304688 -13.09375 5.859375 -11.671875 5.859375 -9.859375 C 5.859375 -7.960938 6.320312 -6.503906 7.25 -5.484375 C 8.175781 -4.472656 9.347656 -3.96875 10.765625 -3.96875 Z M 10.765625 -3.96875 "/></g></g></g><g fill="#3b28cc" fill-opacity="1"><g transform="translate(431.739373, 122.619098)"><g><path d="M 4.265625 -25.59375 C 4.453125 -25.59375 4.742188 -25.578125 5.140625 -25.546875 C 5.546875 -25.523438 5.894531 -25.488281 6.1875 -25.4375 C 6.707031 -25.363281 6.96875 -25.078125 6.96875 -24.578125 C 6.96875 -22.691406 6.957031 -21.023438 6.9375 -19.578125 C 6.914062 -18.140625 6.878906 -16.820312 6.828125 -15.625 C 6.785156 -14.4375 6.734375 -13.289062 6.671875 -12.1875 C 6.609375 -11.09375 6.53125 -9.945312 6.4375 -8.75 C 6.40625 -8.476562 6.316406 -8.28125 6.171875 -8.15625 C 6.035156 -8.039062 5.847656 -7.960938 5.609375 -7.921875 C 5.359375 -7.890625 5.113281 -7.863281 4.875 -7.84375 C 4.632812 -7.820312 4.429688 -7.8125 4.265625 -7.8125 C 4.097656 -7.8125 3.875 -7.820312 3.59375 -7.84375 C 3.320312 -7.863281 3.050781 -7.890625 2.78125 -7.921875 C 2.539062 -7.960938 2.351562 -8.039062 2.21875 -8.15625 C 2.09375 -8.28125 2.003906 -8.476562 1.953125 -8.75 C 1.859375 -9.945312 1.78125 -11.09375 1.71875 -12.1875 C 1.65625 -13.289062 1.597656 -14.4375 1.546875 -15.625 C 1.503906 -16.820312 1.46875 -18.132812 1.4375 -19.5625 C 1.414062 -21 1.40625 -22.660156 1.40625 -24.546875 C 1.40625 -24.804688 1.484375 -25.015625 1.640625 -25.171875 C 1.796875 -25.328125 1.984375 -25.414062 2.203125 -25.4375 C 2.515625 -25.488281 2.878906 -25.523438 3.296875 -25.546875 C 3.722656 -25.578125 4.046875 -25.59375 4.265625 -25.59375 Z M 4.125 0.296875 C 3.113281 0.296875 2.273438 0.00390625 1.609375 -0.578125 C 0.941406 -1.160156 0.609375 -1.976562 0.609375 -3.03125 C 0.609375 -4.09375 0.941406 -4.910156 1.609375 -5.484375 C 2.273438 -6.066406 3.113281 -6.359375 4.125 -6.359375 C 5.15625 -6.359375 6 -6.066406 6.65625 -5.484375 C 7.320312 -4.910156 7.65625 -4.082031 7.65625 -3 C 7.65625 -1.96875 7.316406 -1.160156 6.640625 -0.578125 C 5.972656 0.00390625 5.132812 0.296875 4.125 0.296875 Z M 4.125 0.296875 "/></g></g></g></svg>