<svg xmlns="http://www.w3.org/2000/svg" xmlns:xlink="http://www.w3.org/1999/xlink" width="768" zoomAndPan="magnify" viewBox="0 0 576 648.749997" height="865" preserveAspectRatio="xMidYMid meet" version="1.0"><defs><g/></defs><g fill="#3b28cc" fill-opacity="1"><g transform="translate(40.008883, 152.48808)"><g><path d="M 5.59375 0.1875 C 4.914062 0.1875 4.273438 0.160156 3.671875 0.109375 C 3.066406 0.0664062 2.644531 0.03125 2.40625 0 C 1.664062 -0.15625 1.296875 -0.554688 1.296875 -1.203125 C 1.296875 -3.140625 1.3125 -5.222656 1.34375 -7.453125 C 1.375 -9.691406 1.421875 -11.960938 1.484375 -14.265625 C 1.546875 -16.578125 1.601562 -18.804688 1.65625 -20.953125 C 1.71875 -23.097656 1.796875 -25.054688 1.890625 -26.828125 C 1.984375 -28.597656 2.078125 -30.066406 2.171875 -31.234375 C 2.234375 -31.910156 2.585938 -32.28125 3.234375 -32.34375 C 4.066406 -32.40625 5.128906 -32.46875 6.421875 -32.53125 C 7.710938 -32.59375 9.035156 -32.640625 10.390625 -32.671875 C 11.742188 -32.703125 12.929688 -32.71875 13.953125 -32.71875 C 18.578125 -32.71875 22.148438 -31.984375 24.671875 -30.515625 C 27.203125 -29.054688 28.46875 -26.96875 28.46875 -24.25 C 28.46875 -21.851562 27.671875 -19.742188 26.078125 -17.921875 C 24.492188 -16.109375 22.273438 -14.707031 19.421875 -13.71875 C 16.578125 -12.738281 13.242188 -12.28125 9.421875 -12.34375 C 8.648438 -12.28125 8.265625 -11.675781 8.265625 -10.53125 C 8.265625 -9.332031 8.375 -8.15625 8.59375 -7 C 8.8125 -5.84375 9.039062 -4.78125 9.28125 -3.8125 C 9.53125 -2.84375 9.671875 -2.019531 9.703125 -1.34375 C 9.734375 -1 9.632812 -0.695312 9.40625 -0.4375 C 9.175781 -0.175781 8.890625 -0.015625 8.546875 0.046875 C 8.117188 0.109375 7.625 0.144531 7.0625 0.15625 C 6.507812 0.175781 6.019531 0.1875 5.59375 0.1875 Z M 10.578125 -17 C 13.109375 -17.03125 15.195312 -17.34375 16.84375 -17.9375 C 18.488281 -18.539062 19.710938 -19.335938 20.515625 -20.328125 C 21.316406 -21.316406 21.71875 -22.347656 21.71875 -23.421875 C 21.71875 -24.679688 21.113281 -25.648438 19.90625 -26.328125 C 18.707031 -27.015625 16.738281 -27.359375 14 -27.359375 C 13.257812 -27.359375 12.601562 -27.347656 12.03125 -27.328125 C 11.46875 -27.316406 10.890625 -27.28125 10.296875 -27.21875 C 9.710938 -27.1875 9.289062 -27.015625 9.03125 -26.703125 C 8.769531 -26.398438 8.609375 -26.015625 8.546875 -25.546875 C 8.421875 -24.679688 8.359375 -23.578125 8.359375 -22.234375 C 8.359375 -20.898438 8.421875 -19.648438 8.546875 -18.484375 C 8.640625 -17.429688 9.316406 -16.9375 10.578125 -17 Z M 10.578125 -17 "/></g></g></g><g fill="#3b28cc" fill-opacity="1"><g transform="translate(69.300283, 152.48808)"><g><path d="M 13.765625 0.375 C 11.304688 0.375 9.097656 -0.09375 7.140625 -1.03125 C 5.179688 -1.976562 3.640625 -3.394531 2.515625 -5.28125 C 1.390625 -7.175781 0.828125 -9.539062 0.828125 -12.375 C 0.828125 -15.15625 1.378906 -17.519531 2.484375 -19.46875 C 3.597656 -21.425781 5.132812 -22.921875 7.09375 -23.953125 C 9.050781 -24.984375 11.273438 -25.5 13.765625 -25.5 C 16.265625 -25.5 18.472656 -24.984375 20.390625 -23.953125 C 22.316406 -22.921875 23.832031 -21.425781 24.9375 -19.46875 C 26.050781 -17.519531 26.609375 -15.15625 26.609375 -12.375 C 26.609375 -9.539062 26.050781 -7.175781 24.9375 -5.28125 C 23.832031 -3.394531 22.3125 -1.976562 20.375 -1.03125 C 18.4375 -0.09375 16.234375 0.375 13.765625 0.375 Z M 13.765625 -5.078125 C 15.585938 -5.078125 17.085938 -5.722656 18.265625 -7.015625 C 19.453125 -8.316406 20.046875 -10.179688 20.046875 -12.609375 C 20.046875 -14.921875 19.460938 -16.738281 18.296875 -18.0625 C 17.128906 -19.382812 15.617188 -20.046875 13.765625 -20.046875 C 11.890625 -20.046875 10.375 -19.382812 9.21875 -18.0625 C 8.0625 -16.738281 7.484375 -14.921875 7.484375 -12.609375 C 7.484375 -10.179688 8.078125 -8.316406 9.265625 -7.015625 C 10.453125 -5.722656 11.953125 -5.078125 13.765625 -5.078125 Z M 13.765625 -5.078125 "/></g></g></g><g fill="#3b28cc" fill-opacity="1"><g transform="translate(96.743647, 152.48808)"><g><path d="M 4.71875 0.1875 C 4.46875 0.1875 4.078125 0.171875 3.546875 0.140625 C 3.023438 0.109375 2.566406 0.0625 2.171875 0 C 1.890625 -0.0625 1.648438 -0.195312 1.453125 -0.40625 C 1.253906 -0.625 1.15625 -0.921875 1.15625 -1.296875 C 1.15625 -3.972656 1.160156 -6.34375 1.171875 -8.40625 C 1.191406 -10.46875 1.21875 -12.351562 1.25 -14.0625 C 1.28125 -15.78125 1.332031 -17.429688 1.40625 -19.015625 C 1.488281 -20.597656 1.585938 -22.253906 1.703125 -23.984375 C 1.796875 -24.660156 2.132812 -25.046875 2.71875 -25.140625 C 3.0625 -25.203125 3.460938 -25.242188 3.921875 -25.265625 C 4.390625 -25.296875 4.820312 -25.3125 5.21875 -25.3125 C 5.59375 -25.3125 6.054688 -25.296875 6.609375 -25.265625 C 7.160156 -25.242188 7.578125 -25.203125 7.859375 -25.140625 C 8.222656 -25.078125 8.503906 -24.925781 8.703125 -24.6875 C 8.910156 -24.457031 8.96875 -24.191406 8.875 -23.890625 C 8.71875 -23.304688 8.582031 -22.78125 8.46875 -22.3125 C 8.363281 -21.851562 8.3125 -21.316406 8.3125 -20.703125 C 8.3125 -20.234375 8.4375 -19.960938 8.6875 -19.890625 C 8.9375 -19.816406 9.148438 -20.023438 9.328125 -20.515625 C 10.066406 -22.265625 11.117188 -23.523438 12.484375 -24.296875 C 13.859375 -25.066406 15.394531 -25.453125 17.09375 -25.453125 C 17.800781 -25.453125 18.539062 -25.367188 19.3125 -25.203125 C 20.082031 -25.035156 20.710938 -24.8125 21.203125 -24.53125 C 21.816406 -24.195312 22.125 -23.722656 22.125 -23.109375 C 22.125 -22.148438 22.113281 -21.257812 22.09375 -20.4375 C 22.082031 -19.625 22.050781 -18.722656 22 -17.734375 C 21.96875 -17.148438 21.726562 -16.796875 21.28125 -16.671875 C 20.832031 -16.554688 20.4375 -16.679688 20.09375 -17.046875 C 19.257812 -17.753906 18.390625 -18.238281 17.484375 -18.5 C 16.578125 -18.757812 15.660156 -18.890625 14.734375 -18.890625 C 13.597656 -18.890625 12.53125 -18.570312 11.53125 -17.9375 C 10.53125 -17.3125 9.71875 -16.40625 9.09375 -15.21875 C 8.476562 -14.03125 8.171875 -12.609375 8.171875 -10.953125 C 8.171875 -9.773438 8.207031 -8.5625 8.28125 -7.3125 C 8.363281 -6.070312 8.453125 -4.921875 8.546875 -3.859375 C 8.640625 -2.796875 8.703125 -1.941406 8.734375 -1.296875 C 8.765625 -0.890625 8.660156 -0.578125 8.421875 -0.359375 C 8.191406 -0.148438 7.941406 -0.015625 7.671875 0.046875 C 7.328125 0.078125 6.867188 0.109375 6.296875 0.140625 C 5.734375 0.171875 5.207031 0.1875 4.71875 0.1875 Z M 4.71875 0.1875 "/></g></g></g><g fill="#3b28cc" fill-opacity="1"><g transform="translate(119.659323, 152.48808)"><g/></g></g><g fill="#3b28cc" fill-opacity="1"><g transform="translate(132.087383, 152.48808)"><g><path d="M 11.359375 0.375 C 7.847656 0.375 5.273438 -0.734375 3.640625 -2.953125 C 2.015625 -5.171875 1.203125 -8.175781 1.203125 -11.96875 C 1.203125 -13.71875 1.253906 -15.515625 1.359375 -17.359375 C 1.472656 -19.210938 1.632812 -21.375 1.84375 -23.84375 C 1.875 -24.582031 2.242188 -25.03125 2.953125 -25.1875 C 3.328125 -25.238281 3.742188 -25.28125 4.203125 -25.3125 C 4.660156 -25.34375 5 -25.359375 5.21875 -25.359375 C 5.53125 -25.359375 5.984375 -25.34375 6.578125 -25.3125 C 7.179688 -25.28125 7.695312 -25.238281 8.125 -25.1875 C 8.4375 -25.125 8.695312 -24.984375 8.90625 -24.765625 C 9.125 -24.546875 9.203125 -24.253906 9.140625 -23.890625 C 8.992188 -22.804688 8.832031 -21.625 8.65625 -20.34375 C 8.488281 -19.070312 8.347656 -17.816406 8.234375 -16.578125 C 8.128906 -15.347656 8.078125 -14.289062 8.078125 -13.40625 C 8.078125 -10.9375 8.554688 -9 9.515625 -7.59375 C 10.472656 -6.195312 12.015625 -5.5 14.140625 -5.5 C 15.804688 -5.5 17.144531 -6.242188 18.15625 -7.734375 C 19.175781 -9.234375 19.6875 -11.226562 19.6875 -13.71875 C 19.6875 -15.070312 19.613281 -16.671875 19.46875 -18.515625 C 19.332031 -20.367188 19.109375 -22.144531 18.796875 -23.84375 C 18.742188 -24.207031 18.820312 -24.503906 19.03125 -24.734375 C 19.25 -24.972656 19.5 -25.125 19.78125 -25.1875 C 20.113281 -25.238281 20.554688 -25.28125 21.109375 -25.3125 C 21.671875 -25.34375 22.132812 -25.359375 22.5 -25.359375 C 22.925781 -25.359375 23.367188 -25.34375 23.828125 -25.3125 C 24.296875 -25.28125 24.734375 -25.238281 25.140625 -25.1875 C 25.785156 -25.09375 26.15625 -24.644531 26.25 -23.84375 C 26.425781 -21.164062 26.5625 -18.816406 26.65625 -16.796875 C 26.75 -14.773438 26.816406 -12.925781 26.859375 -11.25 C 26.910156 -9.570312 26.925781 -7.9375 26.90625 -6.34375 C 26.894531 -4.757812 26.890625 -3.046875 26.890625 -1.203125 C 26.890625 -0.523438 26.582031 -0.109375 25.96875 0.046875 C 25.65625 0.109375 25.289062 0.15625 24.875 0.1875 C 24.457031 0.21875 24.050781 0.234375 23.65625 0.234375 C 23.257812 0.234375 22.828125 0.207031 22.359375 0.15625 C 21.898438 0.113281 21.453125 0.078125 21.015625 0.046875 C 20.710938 -0.015625 20.457031 -0.160156 20.25 -0.390625 C 20.050781 -0.617188 19.984375 -0.90625 20.046875 -1.25 C 20.109375 -1.675781 20.144531 -2.085938 20.15625 -2.484375 C 20.175781 -2.890625 20.1875 -3.25 20.1875 -3.5625 C 20.1875 -4.082031 20.085938 -4.359375 19.890625 -4.390625 C 19.691406 -4.421875 19.46875 -4.21875 19.21875 -3.78125 C 18.226562 -2.332031 17.09375 -1.273438 15.8125 -0.609375 C 14.539062 0.046875 13.054688 0.375 11.359375 0.375 Z M 11.359375 0.375 "/></g></g></g><g fill="#3b28cc" fill-opacity="1"><g transform="translate(160.131354, 152.48808)"><g><path d="M 4.625 0.1875 C 4.375 0.1875 3.988281 0.175781 3.46875 0.15625 C 2.945312 0.144531 2.484375 0.09375 2.078125 0 C 1.828125 -0.0625 1.601562 -0.207031 1.40625 -0.4375 C 1.207031 -0.664062 1.109375 -0.96875 1.109375 -1.34375 C 1.109375 -4.175781 1.113281 -6.625 1.125 -8.6875 C 1.144531 -10.75 1.175781 -12.609375 1.21875 -14.265625 C 1.269531 -15.929688 1.332031 -17.535156 1.40625 -19.078125 C 1.488281 -20.617188 1.585938 -22.253906 1.703125 -23.984375 C 1.796875 -24.660156 2.132812 -25.046875 2.71875 -25.140625 C 3.3125 -25.253906 4.097656 -25.3125 5.078125 -25.3125 C 5.484375 -25.3125 5.914062 -25.296875 6.375 -25.265625 C 6.832031 -25.242188 7.21875 -25.203125 7.53125 -25.140625 C 7.84375 -25.078125 8.097656 -24.953125 8.296875 -24.765625 C 8.492188 -24.578125 8.5625 -24.316406 8.5 -23.984375 C 8.40625 -23.453125 8.3125 -22.976562 8.21875 -22.5625 C 8.125 -22.15625 8.078125 -21.78125 8.078125 -21.4375 C 8.078125 -20.914062 8.1875 -20.613281 8.40625 -20.53125 C 8.625 -20.457031 8.84375 -20.664062 9.0625 -21.15625 C 9.707031 -22.507812 10.617188 -23.570312 11.796875 -24.34375 C 12.984375 -25.113281 14.226562 -25.5 15.53125 -25.5 C 16.914062 -25.5 18.175781 -25.179688 19.3125 -24.546875 C 20.445312 -23.921875 21.34375 -22.976562 22 -21.71875 C 22.582031 -20.332031 23.195312 -20.316406 23.84375 -21.671875 C 24.519531 -22.835938 25.453125 -23.765625 26.640625 -24.453125 C 27.828125 -25.148438 29.203125 -25.5 30.765625 -25.5 C 32.304688 -25.5 33.722656 -25.050781 35.015625 -24.15625 C 36.316406 -23.269531 37.375 -21.957031 38.1875 -20.21875 C 39 -18.476562 39.453125 -16.34375 39.546875 -13.8125 C 39.609375 -12.125 39.6875 -10.203125 39.78125 -8.046875 C 39.875 -5.890625 39.921875 -3.65625 39.921875 -1.34375 C 39.921875 -0.9375 39.816406 -0.625 39.609375 -0.40625 C 39.410156 -0.195312 39.160156 -0.0625 38.859375 0 C 38.453125 0.0625 38.039062 0.109375 37.625 0.140625 C 37.21875 0.171875 36.890625 0.1875 36.640625 0.1875 C 36.328125 0.1875 35.867188 0.175781 35.265625 0.15625 C 34.671875 0.144531 34.160156 0.09375 33.734375 0 C 33.421875 -0.0625 33.148438 -0.195312 32.921875 -0.40625 C 32.691406 -0.625 32.59375 -0.921875 32.625 -1.296875 C 32.71875 -2.429688 32.785156 -3.695312 32.828125 -5.09375 C 32.867188 -6.5 32.894531 -7.859375 32.90625 -9.171875 C 32.925781 -10.484375 32.921875 -11.539062 32.890625 -12.34375 C 32.859375 -14.46875 32.425781 -16.132812 31.59375 -17.34375 C 30.769531 -18.5625 29.679688 -19.171875 28.328125 -19.171875 C 27.117188 -19.171875 26.078125 -18.539062 25.203125 -17.28125 C 24.328125 -16.019531 23.890625 -14.25 23.890625 -11.96875 C 23.890625 -10.394531 23.910156 -8.660156 23.953125 -6.765625 C 24.003906 -4.867188 24.085938 -3.0625 24.203125 -1.34375 C 24.265625 -0.9375 24.179688 -0.625 23.953125 -0.40625 C 23.722656 -0.195312 23.441406 -0.0625 23.109375 0 C 22.734375 0.0625 22.328125 0.109375 21.890625 0.140625 C 21.460938 0.171875 21.113281 0.1875 20.84375 0.1875 C 20.53125 0.1875 20.070312 0.175781 19.46875 0.15625 C 18.875 0.144531 18.34375 0.09375 17.875 0 C 17.601562 -0.0625 17.347656 -0.195312 17.109375 -0.40625 C 16.878906 -0.625 16.78125 -0.921875 16.8125 -1.296875 C 16.875 -2.492188 16.925781 -3.753906 16.96875 -5.078125 C 17.019531 -6.398438 17.050781 -7.703125 17.0625 -8.984375 C 17.082031 -10.265625 17.078125 -11.382812 17.046875 -12.34375 C 17.015625 -14.46875 16.582031 -16.132812 15.75 -17.34375 C 14.914062 -18.5625 13.820312 -19.171875 12.46875 -19.171875 C 11.238281 -19.171875 10.195312 -18.523438 9.34375 -17.234375 C 8.5 -15.941406 8.050781 -14.15625 8 -11.875 C 7.9375 -10.144531 7.910156 -8.410156 7.921875 -6.671875 C 7.941406 -4.929688 7.992188 -3.140625 8.078125 -1.296875 C 8.109375 -0.921875 8.015625 -0.625 7.796875 -0.40625 C 7.585938 -0.195312 7.34375 -0.0625 7.0625 0 C 6.695312 0.0625 6.257812 0.109375 5.75 0.140625 C 5.238281 0.171875 4.863281 0.1875 4.625 0.1875 Z M 4.625 0.1875 "/></g></g></g><g fill="#3b28cc" fill-opacity="1"><g transform="translate(201.111593, 152.48808)"><g/></g></g><g fill="#d90368" fill-opacity="1"><g transform="translate(213.543565, 152.48808)"><g><path d="M 5.59375 0.1875 C 4.914062 0.1875 4.28125 0.171875 3.6875 0.140625 C 3.101562 0.109375 2.691406 0.0625 2.453125 0 C 1.679688 -0.15625 1.296875 -0.554688 1.296875 -1.203125 C 1.296875 -2.585938 1.316406 -4.316406 1.359375 -6.390625 C 1.410156 -8.472656 1.472656 -10.710938 1.546875 -13.109375 C 1.617188 -15.515625 1.691406 -17.894531 1.765625 -20.25 C 1.847656 -22.613281 1.925781 -24.769531 2 -26.71875 C 2.082031 -28.675781 2.140625 -30.226562 2.171875 -31.375 C 2.171875 -31.675781 2.273438 -31.925781 2.484375 -32.125 C 2.703125 -32.332031 2.96875 -32.453125 3.28125 -32.484375 C 3.5 -32.515625 4.050781 -32.535156 4.9375 -32.546875 C 5.832031 -32.566406 6.875 -32.59375 8.0625 -32.625 C 9.25 -32.65625 10.425781 -32.675781 11.59375 -32.6875 C 12.769531 -32.707031 13.738281 -32.71875 14.5 -32.71875 C 19.0625 -32.71875 22.554688 -32.097656 24.984375 -30.859375 C 27.421875 -29.628906 28.640625 -27.691406 28.640625 -25.046875 C 28.640625 -23.066406 27.894531 -21.226562 26.40625 -19.53125 C 24.914062 -17.84375 22.707031 -16.691406 19.78125 -16.078125 C 19.375 -16.015625 19.160156 -15.851562 19.140625 -15.59375 C 19.128906 -15.332031 19.328125 -15.140625 19.734375 -15.015625 C 23.023438 -14.210938 25.394531 -12.671875 26.84375 -10.390625 C 28.289062 -8.117188 29.015625 -5.070312 29.015625 -1.25 C 29.015625 -0.875 28.898438 -0.585938 28.671875 -0.390625 C 28.441406 -0.191406 28.15625 -0.0625 27.8125 0 C 27.320312 0.0625 26.820312 0.109375 26.3125 0.140625 C 25.800781 0.171875 25.394531 0.1875 25.09375 0.1875 C 24.71875 0.1875 24.222656 0.171875 23.609375 0.140625 C 22.992188 0.109375 22.441406 0.0625 21.953125 0 C 21.609375 -0.0625 21.3125 -0.191406 21.0625 -0.390625 C 20.820312 -0.585938 20.703125 -0.875 20.703125 -1.25 C 20.671875 -2.882812 20.390625 -4.4375 19.859375 -5.90625 C 19.335938 -7.382812 18.628906 -8.703125 17.734375 -9.859375 C 16.847656 -11.015625 15.816406 -11.929688 14.640625 -12.609375 C 13.472656 -13.285156 12.242188 -13.625 10.953125 -13.625 C 10.273438 -13.625 9.734375 -13.398438 9.328125 -12.953125 C 8.929688 -12.515625 8.734375 -11.925781 8.734375 -11.1875 C 8.734375 -9.394531 8.867188 -7.617188 9.140625 -5.859375 C 9.421875 -4.109375 9.625 -2.585938 9.75 -1.296875 C 9.8125 -0.953125 9.71875 -0.664062 9.46875 -0.4375 C 9.226562 -0.207031 8.9375 -0.0625 8.59375 0 C 8.132812 0.0625 7.648438 0.109375 7.140625 0.140625 C 6.628906 0.171875 6.113281 0.1875 5.59375 0.1875 Z M 11 -18.625 C 14.414062 -18.957031 17.046875 -19.554688 18.890625 -20.421875 C 20.742188 -21.285156 21.671875 -22.347656 21.671875 -23.609375 C 21.671875 -24.773438 21.050781 -25.628906 19.8125 -26.171875 C 18.582031 -26.710938 16.675781 -26.984375 14.09375 -26.984375 C 13.351562 -26.984375 12.695312 -26.984375 12.125 -26.984375 C 11.5625 -26.984375 10.984375 -26.953125 10.390625 -26.890625 C 9.285156 -26.796875 8.6875 -26.242188 8.59375 -25.234375 C 8.5625 -24.546875 8.53125 -23.71875 8.5 -22.75 C 8.46875 -21.78125 8.5 -20.894531 8.59375 -20.09375 C 8.65625 -19.414062 8.898438 -18.96875 9.328125 -18.75 C 9.765625 -18.539062 10.320312 -18.5 11 -18.625 Z M 11 -18.625 "/></g></g></g><g fill="#d90368" fill-opacity="1"><g transform="translate(243.758983, 152.48808)"><g><path d="M 4.984375 -27.53125 C 3.847656 -27.53125 2.914062 -27.835938 2.1875 -28.453125 C 1.46875 -29.078125 1.109375 -29.863281 1.109375 -30.8125 C 1.109375 -31.800781 1.46875 -32.601562 2.1875 -33.21875 C 2.914062 -33.832031 3.847656 -34.140625 4.984375 -34.140625 C 6.160156 -34.140625 7.109375 -33.832031 7.828125 -33.21875 C 8.554688 -32.601562 8.921875 -31.800781 8.921875 -30.8125 C 8.921875 -29.863281 8.554688 -29.078125 7.828125 -28.453125 C 7.109375 -27.835938 6.160156 -27.53125 4.984375 -27.53125 Z M 5.078125 0.1875 C 4.835938 0.1875 4.4375 0.175781 3.875 0.15625 C 3.320312 0.144531 2.847656 0.09375 2.453125 0 C 2.171875 -0.0625 1.929688 -0.207031 1.734375 -0.4375 C 1.535156 -0.664062 1.4375 -0.96875 1.4375 -1.34375 C 1.4375 -4.019531 1.441406 -6.378906 1.453125 -8.421875 C 1.472656 -10.472656 1.5 -12.351562 1.53125 -14.0625 C 1.5625 -15.78125 1.601562 -17.429688 1.65625 -19.015625 C 1.71875 -20.597656 1.8125 -22.253906 1.9375 -23.984375 C 1.96875 -24.378906 2.0625 -24.660156 2.21875 -24.828125 C 2.375 -25.003906 2.601562 -25.109375 2.90625 -25.140625 C 3.25 -25.203125 3.644531 -25.242188 4.09375 -25.265625 C 4.539062 -25.296875 4.882812 -25.3125 5.125 -25.3125 C 5.34375 -25.3125 5.648438 -25.296875 6.046875 -25.265625 C 6.453125 -25.242188 6.804688 -25.203125 7.109375 -25.140625 C 7.421875 -25.078125 7.65625 -24.96875 7.8125 -24.8125 C 7.96875 -24.65625 8.054688 -24.378906 8.078125 -23.984375 C 8.203125 -22.253906 8.296875 -20.597656 8.359375 -19.015625 C 8.421875 -17.429688 8.46875 -15.78125 8.5 -14.0625 C 8.53125 -12.351562 8.550781 -10.46875 8.5625 -8.40625 C 8.582031 -6.34375 8.59375 -3.972656 8.59375 -1.296875 C 8.59375 -0.921875 8.492188 -0.625 8.296875 -0.40625 C 8.097656 -0.195312 7.859375 -0.0625 7.578125 0 C 7.179688 0.0625 6.726562 0.109375 6.21875 0.140625 C 5.707031 0.171875 5.328125 0.1875 5.078125 0.1875 Z M 5.078125 0.1875 "/></g></g></g><g fill="#d90368" fill-opacity="1"><g transform="translate(253.784583, 152.48808)"><g><path d="M 13.765625 0.375 C 11.304688 0.375 9.097656 -0.09375 7.140625 -1.03125 C 5.179688 -1.976562 3.640625 -3.394531 2.515625 -5.28125 C 1.390625 -7.175781 0.828125 -9.539062 0.828125 -12.375 C 0.828125 -15.15625 1.378906 -17.519531 2.484375 -19.46875 C 3.597656 -21.425781 5.132812 -22.921875 7.09375 -23.953125 C 9.050781 -24.984375 11.273438 -25.5 13.765625 -25.5 C 16.265625 -25.5 18.472656 -24.984375 20.390625 -23.953125 C 22.316406 -22.921875 23.832031 -21.425781 24.9375 -19.46875 C 26.050781 -17.519531 26.609375 -15.15625 26.609375 -12.375 C 26.609375 -9.539062 26.050781 -7.175781 24.9375 -5.28125 C 23.832031 -3.394531 22.3125 -1.976562 20.375 -1.03125 C 18.4375 -0.09375 16.234375 0.375 13.765625 0.375 Z M 13.765625 -5.078125 C 15.585938 -5.078125 17.085938 -5.722656 18.265625 -7.015625 C 19.453125 -8.316406 20.046875 -10.179688 20.046875 -12.609375 C 20.046875 -14.921875 19.460938 -16.738281 18.296875 -18.0625 C 17.128906 -19.382812 15.617188 -20.046875 13.765625 -20.046875 C 11.890625 -20.046875 10.375 -19.382812 9.21875 -18.0625 C 8.0625 -16.738281 7.484375 -14.921875 7.484375 -12.609375 C 7.484375 -10.179688 8.078125 -8.316406 9.265625 -7.015625 C 10.453125 -5.722656 11.953125 -5.078125 13.765625 -5.078125 Z M 13.765625 -5.078125 "/></g></g></g><g fill="#d90368" fill-opacity="1"><g transform="translate(281.227948, 152.48808)"><g/></g></g><g fill="#3b28cc" fill-opacity="1"><g transform="translate(293.657224, 152.48808)"><g><path d="M 4.625 0.1875 C 4.375 0.1875 3.988281 0.175781 3.46875 0.15625 C 2.945312 0.144531 2.484375 0.09375 2.078125 0 C 1.828125 -0.0625 1.601562 -0.207031 1.40625 -0.4375 C 1.207031 -0.664062 1.109375 -0.96875 1.109375 -1.34375 C 1.109375 -4.175781 1.113281 -6.625 1.125 -8.6875 C 1.144531 -10.75 1.175781 -12.609375 1.21875 -14.265625 C 1.269531 -15.929688 1.332031 -17.535156 1.40625 -19.078125 C 1.488281 -20.617188 1.585938 -22.253906 1.703125 -23.984375 C 1.796875 -24.660156 2.132812 -25.046875 2.71875 -25.140625 C 3.3125 -25.253906 4.097656 -25.3125 5.078125 -25.3125 C 5.484375 -25.3125 5.914062 -25.296875 6.375 -25.265625 C 6.832031 -25.242188 7.21875 -25.203125 7.53125 -25.140625 C 7.84375 -25.078125 8.097656 -24.953125 8.296875 -24.765625 C 8.492188 -24.578125 8.5625 -24.316406 8.5 -23.984375 C 8.40625 -23.453125 8.3125 -22.976562 8.21875 -22.5625 C 8.125 -22.15625 8.078125 -21.78125 8.078125 -21.4375 C 8.078125 -20.914062 8.1875 -20.613281 8.40625 -20.53125 C 8.625 -20.457031 8.84375 -20.664062 9.0625 -21.15625 C 9.707031 -22.507812 10.617188 -23.570312 11.796875 -24.34375 C 12.984375 -25.113281 14.226562 -25.5 15.53125 -25.5 C 16.914062 -25.5 18.175781 -25.179688 19.3125 -24.546875 C 20.445312 -23.921875 21.34375 -22.976562 22 -21.71875 C 22.582031 -20.332031 23.195312 -20.316406 23.84375 -21.671875 C 24.519531 -22.835938 25.453125 -23.765625 26.640625 -24.453125 C 27.828125 -25.148438 29.203125 -25.5 30.765625 -25.5 C 32.304688 -25.5 33.722656 -25.050781 35.015625 -24.15625 C 36.316406 -23.269531 37.375 -21.957031 38.1875 -20.21875 C 39 -18.476562 39.453125 -16.34375 39.546875 -13.8125 C 39.609375 -12.125 39.6875 -10.203125 39.78125 -8.046875 C 39.875 -5.890625 39.921875 -3.65625 39.921875 -1.34375 C 39.921875 -0.9375 39.816406 -0.625 39.609375 -0.40625 C 39.410156 -0.195312 39.160156 -0.0625 38.859375 0 C 38.453125 0.0625 38.039062 0.109375 37.625 0.140625 C 37.21875 0.171875 36.890625 0.1875 36.640625 0.1875 C 36.328125 0.1875 35.867188 0.175781 35.265625 0.15625 C 34.671875 0.144531 34.160156 0.09375 33.734375 0 C 33.421875 -0.0625 33.148438 -0.195312 32.921875 -0.40625 C 32.691406 -0.625 32.59375 -0.921875 32.625 -1.296875 C 32.71875 -2.429688 32.785156 -3.695312 32.828125 -5.09375 C 32.867188 -6.5 32.894531 -7.859375 32.90625 -9.171875 C 32.925781 -10.484375 32.921875 -11.539062 32.890625 -12.34375 C 32.859375 -14.46875 32.425781 -16.132812 31.59375 -17.34375 C 30.769531 -18.5625 29.679688 -19.171875 28.328125 -19.171875 C 27.117188 -19.171875 26.078125 -18.539062 25.203125 -17.28125 C 24.328125 -16.019531 23.890625 -14.25 23.890625 -11.96875 C 23.890625 -10.394531 23.910156 -8.660156 23.953125 -6.765625 C 24.003906 -4.867188 24.085938 -3.0625 24.203125 -1.34375 C 24.265625 -0.9375 24.179688 -0.625 23.953125 -0.40625 C 23.722656 -0.195312 23.441406 -0.0625 23.109375 0 C 22.734375 0.0625 22.328125 0.109375 21.890625 0.140625 C 21.460938 0.171875 21.113281 0.1875 20.84375 0.1875 C 20.53125 0.1875 20.070312 0.175781 19.46875 0.15625 C 18.875 0.144531 18.34375 0.09375 17.875 0 C 17.601562 -0.0625 17.347656 -0.195312 17.109375 -0.40625 C 16.878906 -0.625 16.78125 -0.921875 16.8125 -1.296875 C 16.875 -2.492188 16.925781 -3.753906 16.96875 -5.078125 C 17.019531 -6.398438 17.050781 -7.703125 17.0625 -8.984375 C 17.082031 -10.265625 17.078125 -11.382812 17.046875 -12.34375 C 17.015625 -14.46875 16.582031 -16.132812 15.75 -17.34375 C 14.914062 -18.5625 13.820312 -19.171875 12.46875 -19.171875 C 11.238281 -19.171875 10.195312 -18.523438 9.34375 -17.234375 C 8.5 -15.941406 8.050781 -14.15625 8 -11.875 C 7.9375 -10.144531 7.910156 -8.410156 7.921875 -6.671875 C 7.941406 -4.929688 7.992188 -3.140625 8.078125 -1.296875 C 8.109375 -0.921875 8.015625 -0.625 7.796875 -0.40625 C 7.585938 -0.195312 7.34375 -0.0625 7.0625 0 C 6.695312 0.0625 6.257812 0.109375 5.75 0.140625 C 5.238281 0.171875 4.863281 0.1875 4.625 0.1875 Z M 4.625 0.1875 "/></g></g></g><g fill="#3b28cc" fill-opacity="1"><g transform="translate(334.637463, 152.48808)"><g><path d="M 8.640625 0.375 C 6.296875 0.375 4.40625 -0.175781 2.96875 -1.28125 C 1.539062 -2.394531 0.828125 -4.265625 0.828125 -6.890625 C 0.828125 -9.191406 1.648438 -11.015625 3.296875 -12.359375 C 4.953125 -13.703125 7.226562 -14.617188 10.125 -15.109375 C 12.769531 -15.472656 14.628906 -15.847656 15.703125 -16.234375 C 16.785156 -16.617188 17.328125 -17.226562 17.328125 -18.0625 C 17.328125 -18.550781 16.988281 -19.007812 16.3125 -19.4375 C 15.632812 -19.875 14.476562 -20.09375 12.84375 -20.09375 C 11.457031 -20.09375 10.023438 -19.875 8.546875 -19.4375 C 7.066406 -19.007812 5.773438 -18.304688 4.671875 -17.328125 C 4.328125 -16.835938 3.929688 -16.695312 3.484375 -16.90625 C 3.035156 -17.125 2.828125 -17.570312 2.859375 -18.25 C 2.890625 -18.59375 2.9375 -19.0625 3 -19.65625 C 3.0625 -20.257812 3.128906 -20.867188 3.203125 -21.484375 C 3.285156 -22.097656 3.34375 -22.5625 3.375 -22.875 C 3.46875 -23.613281 3.773438 -24.085938 4.296875 -24.296875 C 6.847656 -25.097656 9.617188 -25.5 12.609375 -25.5 C 16.148438 -25.5 18.898438 -24.738281 20.859375 -23.21875 C 22.816406 -21.695312 23.945312 -19.253906 24.25 -15.890625 C 24.34375 -14.722656 24.4375 -13.273438 24.53125 -11.546875 C 24.625 -9.828125 24.71875 -8.070312 24.8125 -6.28125 C 24.90625 -4.5 24.984375 -2.898438 25.046875 -1.484375 C 25.046875 -0.679688 24.613281 -0.203125 23.75 -0.046875 C 23.4375 0.046875 23.050781 0.109375 22.59375 0.140625 C 22.132812 0.171875 21.6875 0.1875 21.25 0.1875 C 20.882812 0.1875 20.414062 0.171875 19.84375 0.140625 C 19.269531 0.109375 18.800781 0.046875 18.4375 -0.046875 C 18.03125 -0.109375 17.703125 -0.285156 17.453125 -0.578125 C 17.210938 -0.867188 17.125 -1.210938 17.1875 -1.609375 C 17.25 -1.921875 17.316406 -2.320312 17.390625 -2.8125 C 17.472656 -3.3125 17.53125 -3.804688 17.5625 -4.296875 C 17.625 -4.722656 17.519531 -4.972656 17.25 -5.046875 C 16.988281 -5.128906 16.769531 -4.972656 16.59375 -4.578125 C 15.882812 -3.066406 14.789062 -1.863281 13.3125 -0.96875 C 11.832031 -0.0703125 10.273438 0.375 8.640625 0.375 Z M 11.78125 -5.359375 C 12.550781 -5.359375 13.359375 -5.554688 14.203125 -5.953125 C 15.054688 -6.359375 15.773438 -6.9375 16.359375 -7.6875 C 16.941406 -8.445312 17.234375 -9.363281 17.234375 -10.4375 C 17.234375 -11.175781 17.007812 -11.785156 16.5625 -12.265625 C 16.113281 -12.742188 15.351562 -12.984375 14.28125 -12.984375 C 13.195312 -12.984375 12.160156 -12.78125 11.171875 -12.375 C 10.191406 -11.976562 9.394531 -11.429688 8.78125 -10.734375 C 8.164062 -10.046875 7.859375 -9.222656 7.859375 -8.265625 C 7.859375 -7.222656 8.164062 -6.476562 8.78125 -6.03125 C 9.394531 -5.582031 10.394531 -5.359375 11.78125 -5.359375 Z M 11.78125 -5.359375 "/></g></g></g><g fill="#3b28cc" fill-opacity="1"><g transform="translate(360.741, 152.48808)"><g><path d="M 4.984375 -27.53125 C 3.847656 -27.53125 2.914062 -27.835938 2.1875 -28.453125 C 1.46875 -29.078125 1.109375 -29.863281 1.109375 -30.8125 C 1.109375 -31.800781 1.46875 -32.601562 2.1875 -33.21875 C 2.914062 -33.832031 3.847656 -34.140625 4.984375 -34.140625 C 6.160156 -34.140625 7.109375 -33.832031 7.828125 -33.21875 C 8.554688 -32.601562 8.921875 -31.800781 8.921875 -30.8125 C 8.921875 -29.863281 8.554688 -29.078125 7.828125 -28.453125 C 7.109375 -27.835938 6.160156 -27.53125 4.984375 -27.53125 Z M 5.078125 0.1875 C 4.835938 0.1875 4.4375 0.175781 3.875 0.15625 C 3.320312 0.144531 2.847656 0.09375 2.453125 0 C 2.171875 -0.0625 1.929688 -0.207031 1.734375 -0.4375 C 1.535156 -0.664062 1.4375 -0.96875 1.4375 -1.34375 C 1.4375 -4.019531 1.441406 -6.378906 1.453125 -8.421875 C 1.472656 -10.472656 1.5 -12.351562 1.53125 -14.0625 C 1.5625 -15.78125 1.601562 -17.429688 1.65625 -19.015625 C 1.71875 -20.597656 1.8125 -22.253906 1.9375 -23.984375 C 1.96875 -24.378906 2.0625 -24.660156 2.21875 -24.828125 C 2.375 -25.003906 2.601562 -25.109375 2.90625 -25.140625 C 3.25 -25.203125 3.644531 -25.242188 4.09375 -25.265625 C 4.539062 -25.296875 4.882812 -25.3125 5.125 -25.3125 C 5.34375 -25.3125 5.648438 -25.296875 6.046875 -25.265625 C 6.453125 -25.242188 6.804688 -25.203125 7.109375 -25.140625 C 7.421875 -25.078125 7.65625 -24.96875 7.8125 -24.8125 C 7.96875 -24.65625 8.054688 -24.378906 8.078125 -23.984375 C 8.203125 -22.253906 8.296875 -20.597656 8.359375 -19.015625 C 8.421875 -17.429688 8.46875 -15.78125 8.5 -14.0625 C 8.53125 -12.351562 8.550781 -10.46875 8.5625 -8.40625 C 8.582031 -6.34375 8.59375 -3.972656 8.59375 -1.296875 C 8.59375 -0.921875 8.492188 -0.625 8.296875 -0.40625 C 8.097656 -0.195312 7.859375 -0.0625 7.578125 0 C 7.179688 0.0625 6.726562 0.109375 6.21875 0.140625 C 5.707031 0.171875 5.328125 0.1875 5.078125 0.1875 Z M 5.078125 0.1875 "/></g></g></g><g fill="#3b28cc" fill-opacity="1"><g transform="translate(370.766601, 152.48808)"><g><path d="M 12.34375 0.328125 C 11.257812 0.328125 10.085938 0.25 8.828125 0.09375 C 7.566406 -0.0625 6.332031 -0.257812 5.125 -0.5 C 3.925781 -0.75 2.878906 -1.015625 1.984375 -1.296875 C 1.648438 -1.453125 1.375 -1.660156 1.15625 -1.921875 C 0.9375 -2.179688 0.84375 -2.507812 0.875 -2.90625 C 0.9375 -3.675781 0.984375 -4.429688 1.015625 -5.171875 C 1.046875 -5.910156 1.078125 -6.664062 1.109375 -7.4375 C 1.171875 -8.113281 1.410156 -8.503906 1.828125 -8.609375 C 2.242188 -8.722656 2.601562 -8.59375 2.90625 -8.21875 C 3.613281 -7.632812 4.472656 -7.101562 5.484375 -6.625 C 6.503906 -6.144531 7.582031 -5.773438 8.71875 -5.515625 C 9.863281 -5.253906 10.945312 -5.125 11.96875 -5.125 C 13.539062 -5.125 14.734375 -5.316406 15.546875 -5.703125 C 16.359375 -6.085938 16.765625 -6.726562 16.765625 -7.625 C 16.765625 -8.300781 16.394531 -8.851562 15.65625 -9.28125 C 14.914062 -9.71875 13.96875 -10.101562 12.8125 -10.4375 C 11.664062 -10.78125 10.441406 -11.132812 9.140625 -11.5 C 7.847656 -11.875 6.625 -12.351562 5.46875 -12.9375 C 4.320312 -13.519531 3.378906 -14.257812 2.640625 -15.15625 C 1.898438 -16.050781 1.53125 -17.191406 1.53125 -18.578125 C 1.53125 -20.085938 2.015625 -21.347656 2.984375 -22.359375 C 3.953125 -23.378906 5.28125 -24.148438 6.96875 -24.671875 C 8.664062 -25.191406 10.59375 -25.453125 12.75 -25.453125 C 13.894531 -25.453125 15.21875 -25.367188 16.71875 -25.203125 C 18.226562 -25.035156 19.523438 -24.78125 20.609375 -24.4375 C 21.410156 -24.132812 21.8125 -23.613281 21.8125 -22.875 C 21.84375 -22.257812 21.859375 -21.632812 21.859375 -21 C 21.859375 -20.363281 21.859375 -19.738281 21.859375 -19.125 C 21.859375 -18.351562 21.65625 -17.921875 21.25 -17.828125 C 20.851562 -17.742188 20.484375 -17.851562 20.140625 -18.15625 C 19.273438 -18.769531 18.210938 -19.273438 16.953125 -19.671875 C 15.691406 -20.078125 14.429688 -20.28125 13.171875 -20.28125 C 11.847656 -20.28125 10.722656 -20.070312 9.796875 -19.65625 C 8.867188 -19.238281 8.40625 -18.675781 8.40625 -17.96875 C 8.40625 -17.351562 8.773438 -16.84375 9.515625 -16.4375 C 10.253906 -16.039062 11.203125 -15.679688 12.359375 -15.359375 C 13.515625 -15.035156 14.738281 -14.671875 16.03125 -14.265625 C 17.320312 -13.867188 18.546875 -13.367188 19.703125 -12.765625 C 20.859375 -12.171875 21.804688 -11.414062 22.546875 -10.5 C 23.285156 -9.59375 23.65625 -8.429688 23.65625 -7.015625 C 23.65625 -4.804688 22.691406 -3.03125 20.765625 -1.6875 C 18.835938 -0.34375 16.03125 0.328125 12.34375 0.328125 Z M 12.34375 0.328125 "/></g></g></g><g fill="#3b28cc" fill-opacity="1"><g transform="translate(395.299299, 152.48808)"><g/></g></g><g fill="#d90368" fill-opacity="1"><g transform="translate(407.730448, 152.48808)"><g><path d="M 4.34375 -27.625 C 3.207031 -27.625 2.273438 -27.941406 1.546875 -28.578125 C 0.828125 -29.210938 0.46875 -30.003906 0.46875 -30.953125 C 0.46875 -31.941406 0.828125 -32.734375 1.546875 -33.328125 C 2.273438 -33.929688 3.207031 -34.234375 4.34375 -34.234375 C 5.507812 -34.234375 6.453125 -33.929688 7.171875 -33.328125 C 7.898438 -32.734375 8.265625 -31.941406 8.265625 -30.953125 C 8.265625 -30.003906 7.898438 -29.210938 7.171875 -28.578125 C 6.453125 -27.941406 5.507812 -27.625 4.34375 -27.625 Z M 0.046875 11 C -0.691406 11 -1.507812 10.90625 -2.40625 10.71875 C -3.300781 10.53125 -4.101562 10.285156 -4.8125 9.984375 C -5.363281 9.734375 -5.640625 9.285156 -5.640625 8.640625 C -5.640625 8.023438 -5.640625 7.332031 -5.640625 6.5625 C -5.640625 5.789062 -5.625 5.097656 -5.59375 4.484375 C -5.59375 3.804688 -5.382812 3.40625 -4.96875 3.28125 C -4.550781 3.15625 -4.171875 3.320312 -3.828125 3.78125 C -3.492188 4.15625 -3.070312 4.429688 -2.5625 4.609375 C -2.050781 4.796875 -1.566406 4.890625 -1.109375 4.890625 C -0.335938 4.890625 0.304688 4.554688 0.828125 3.890625 C 1.347656 3.234375 1.625 2.382812 1.65625 1.34375 C 1.71875 -0.65625 1.75 -2.785156 1.75 -5.046875 C 1.75 -7.316406 1.722656 -9.582031 1.671875 -11.84375 C 1.628906 -14.113281 1.546875 -16.28125 1.421875 -18.34375 C 1.304688 -20.40625 1.171875 -22.253906 1.015625 -23.890625 C 0.984375 -24.253906 1.070312 -24.535156 1.28125 -24.734375 C 1.5 -24.941406 1.75 -25.078125 2.03125 -25.140625 C 2.375 -25.203125 2.78125 -25.242188 3.25 -25.265625 C 3.726562 -25.296875 4.1875 -25.3125 4.625 -25.3125 C 5.019531 -25.3125 5.460938 -25.296875 5.953125 -25.265625 C 6.453125 -25.242188 6.835938 -25.203125 7.109375 -25.140625 C 7.753906 -24.984375 8.09375 -24.566406 8.125 -23.890625 C 8.375 -19.972656 8.515625 -15.957031 8.546875 -11.84375 C 8.578125 -7.738281 8.5625 -3.34375 8.5 1.34375 C 8.46875 3.59375 8.050781 5.425781 7.25 6.84375 C 6.445312 8.257812 5.414062 9.304688 4.15625 9.984375 C 2.894531 10.660156 1.523438 11 0.046875 11 Z M 0.046875 11 "/></g></g></g><g fill="#d90368" fill-opacity="1"><g transform="translate(417.386444, 152.48808)"><g><path d="M 11.359375 0.375 C 7.847656 0.375 5.273438 -0.734375 3.640625 -2.953125 C 2.015625 -5.171875 1.203125 -8.175781 1.203125 -11.96875 C 1.203125 -13.71875 1.253906 -15.515625 1.359375 -17.359375 C 1.472656 -19.210938 1.632812 -21.375 1.84375 -23.84375 C 1.875 -24.582031 2.242188 -25.03125 2.953125 -25.1875 C 3.328125 -25.238281 3.742188 -25.28125 4.203125 -25.3125 C 4.660156 -25.34375 5 -25.359375 5.21875 -25.359375 C 5.53125 -25.359375 5.984375 -25.34375 6.578125 -25.3125 C 7.179688 -25.28125 7.695312 -25.238281 8.125 -25.1875 C 8.4375 -25.125 8.695312 -24.984375 8.90625 -24.765625 C 9.125 -24.546875 9.203125 -24.253906 9.140625 -23.890625 C 8.992188 -22.804688 8.832031 -21.625 8.65625 -20.34375 C 8.488281 -19.070312 8.347656 -17.816406 8.234375 -16.578125 C 8.128906 -15.347656 8.078125 -14.289062 8.078125 -13.40625 C 8.078125 -10.9375 8.554688 -9 9.515625 -7.59375 C 10.472656 -6.195312 12.015625 -5.5 14.140625 -5.5 C 15.804688 -5.5 17.144531 -6.242188 18.15625 -7.734375 C 19.175781 -9.234375 19.6875 -11.226562 19.6875 -13.71875 C 19.6875 -15.070312 19.613281 -16.671875 19.46875 -18.515625 C 19.332031 -20.367188 19.109375 -22.144531 18.796875 -23.84375 C 18.742188 -24.207031 18.820312 -24.503906 19.03125 -24.734375 C 19.25 -24.972656 19.5 -25.125 19.78125 -25.1875 C 20.113281 -25.238281 20.554688 -25.28125 21.109375 -25.3125 C 21.671875 -25.34375 22.132812 -25.359375 22.5 -25.359375 C 22.925781 -25.359375 23.367188 -25.34375 23.828125 -25.3125 C 24.296875 -25.28125 24.734375 -25.238281 25.140625 -25.1875 C 25.785156 -25.09375 26.15625 -24.644531 26.25 -23.84375 C 26.425781 -21.164062 26.5625 -18.816406 26.65625 -16.796875 C 26.75 -14.773438 26.816406 -12.925781 26.859375 -11.25 C 26.910156 -9.570312 26.925781 -7.9375 26.90625 -6.34375 C 26.894531 -4.757812 26.890625 -3.046875 26.890625 -1.203125 C 26.890625 -0.523438 26.582031 -0.109375 25.96875 0.046875 C 25.65625 0.109375 25.289062 0.15625 24.875 0.1875 C 24.457031 0.21875 24.050781 0.234375 23.65625 0.234375 C 23.257812 0.234375 22.828125 0.207031 22.359375 0.15625 C 21.898438 0.113281 21.453125 0.078125 21.015625 0.046875 C 20.710938 -0.015625 20.457031 -0.160156 20.25 -0.390625 C 20.050781 -0.617188 19.984375 -0.90625 20.046875 -1.25 C 20.109375 -1.675781 20.144531 -2.085938 20.15625 -2.484375 C 20.175781 -2.890625 20.1875 -3.25 20.1875 -3.5625 C 20.1875 -4.082031 20.085938 -4.359375 19.890625 -4.390625 C 19.691406 -4.421875 19.46875 -4.21875 19.21875 -3.78125 C 18.226562 -2.332031 17.09375 -1.273438 15.8125 -0.609375 C 14.539062 0.046875 13.054688 0.375 11.359375 0.375 Z M 11.359375 0.375 "/></g></g></g><g fill="#d90368" fill-opacity="1"><g transform="translate(445.430415, 152.48808)"><g><path d="M 12.34375 0.328125 C 11.257812 0.328125 10.085938 0.25 8.828125 0.09375 C 7.566406 -0.0625 6.332031 -0.257812 5.125 -0.5 C 3.925781 -0.75 2.878906 -1.015625 1.984375 -1.296875 C 1.648438 -1.453125 1.375 -1.660156 1.15625 -1.921875 C 0.9375 -2.179688 0.84375 -2.507812 0.875 -2.90625 C 0.9375 -3.675781 0.984375 -4.429688 1.015625 -5.171875 C 1.046875 -5.910156 1.078125 -6.664062 1.109375 -7.4375 C 1.171875 -8.113281 1.410156 -8.503906 1.828125 -8.609375 C 2.242188 -8.722656 2.601562 -8.59375 2.90625 -8.21875 C 3.613281 -7.632812 4.472656 -7.101562 5.484375 -6.625 C 6.503906 -6.144531 7.582031 -5.773438 8.71875 -5.515625 C 9.863281 -5.253906 10.945312 -5.125 11.96875 -5.125 C 13.539062 -5.125 14.734375 -5.316406 15.546875 -5.703125 C 16.359375 -6.085938 16.765625 -6.726562 16.765625 -7.625 C 16.765625 -8.300781 16.394531 -8.851562 15.65625 -9.28125 C 14.914062 -9.71875 13.96875 -10.101562 12.8125 -10.4375 C 11.664062 -10.78125 10.441406 -11.132812 9.140625 -11.5 C 7.847656 -11.875 6.625 -12.351562 5.46875 -12.9375 C 4.320312 -13.519531 3.378906 -14.257812 2.640625 -15.15625 C 1.898438 -16.050781 1.53125 -17.191406 1.53125 -18.578125 C 1.53125 -20.085938 2.015625 -21.347656 2.984375 -22.359375 C 3.953125 -23.378906 5.28125 -24.148438 6.96875 -24.671875 C 8.664062 -25.191406 10.59375 -25.453125 12.75 -25.453125 C 13.894531 -25.453125 15.21875 -25.367188 16.71875 -25.203125 C 18.226562 -25.035156 19.523438 -24.78125 20.609375 -24.4375 C 21.410156 -24.132812 21.8125 -23.613281 21.8125 -22.875 C 21.84375 -22.257812 21.859375 -21.632812 21.859375 -21 C 21.859375 -20.363281 21.859375 -19.738281 21.859375 -19.125 C 21.859375 -18.351562 21.65625 -17.921875 21.25 -17.828125 C 20.851562 -17.742188 20.484375 -17.851562 20.140625 -18.15625 C 19.273438 -18.769531 18.210938 -19.273438 16.953125 -19.671875 C 15.691406 -20.078125 14.429688 -20.28125 13.171875 -20.28125 C 11.847656 -20.28125 10.722656 -20.070312 9.796875 -19.65625 C 8.867188 -19.238281 8.40625 -18.675781 8.40625 -17.96875 C 8.40625 -17.351562 8.773438 -16.84375 9.515625 -16.4375 C 10.253906 -16.039062 11.203125 -15.679688 12.359375 -15.359375 C 13.515625 -15.035156 14.738281 -14.671875 16.03125 -14.265625 C 17.320312 -13.867188 18.546875 -13.367188 19.703125 -12.765625 C 20.859375 -12.171875 21.804688 -11.414062 22.546875 -10.5 C 23.285156 -9.59375 23.65625 -8.429688 23.65625 -7.015625 C 23.65625 -4.804688 22.691406 -3.03125 20.765625 -1.6875 C 18.835938 -0.34375 16.03125 0.328125 12.34375 0.328125 Z M 12.34375 0.328125 "/></g></g></g><g fill="#d90368" fill-opacity="1"><g transform="translate(469.963112, 152.48808)"><g><path d="M 14.09375 0.375 C 12.519531 0.375 11.09375 0.0664062 9.8125 -0.546875 C 8.539062 -1.171875 7.523438 -2.097656 6.765625 -3.328125 C 6.015625 -4.554688 5.625 -6.082031 5.59375 -7.90625 C 5.59375 -8.976562 5.609375 -10.191406 5.640625 -11.546875 C 5.671875 -12.898438 5.71875 -14.273438 5.78125 -15.671875 C 5.84375 -17.078125 5.929688 -18.414062 6.046875 -19.6875 C 6.078125 -19.925781 6 -20.125 5.8125 -20.28125 C 5.632812 -20.4375 5.4375 -20.515625 5.21875 -20.515625 C 4.664062 -20.515625 4.097656 -20.515625 3.515625 -20.515625 C 2.929688 -20.515625 2.359375 -20.5 1.796875 -20.46875 C 1.460938 -20.4375 1.171875 -20.550781 0.921875 -20.8125 C 0.671875 -21.070312 0.546875 -21.375 0.546875 -21.71875 L 0.546875 -23.890625 C 0.546875 -24.222656 0.671875 -24.515625 0.921875 -24.765625 C 1.171875 -25.015625 1.460938 -25.140625 1.796875 -25.140625 L 5.21875 -25.140625 C 5.769531 -25.140625 6.046875 -25.429688 6.046875 -26.015625 C 6.046875 -26.597656 6.0625 -27.203125 6.09375 -27.828125 C 6.125 -28.460938 6.171875 -29.070312 6.234375 -29.65625 C 6.328125 -30.425781 6.710938 -30.859375 7.390625 -30.953125 C 7.796875 -31.015625 8.1875 -31.0625 8.5625 -31.09375 C 8.945312 -31.125 9.328125 -31.140625 9.703125 -31.140625 C 10.097656 -31.140625 10.476562 -31.125 10.84375 -31.09375 C 11.21875 -31.0625 11.609375 -31.015625 12.015625 -30.953125 C 12.316406 -30.921875 12.59375 -30.789062 12.84375 -30.5625 C 13.09375 -30.332031 13.1875 -30.03125 13.125 -29.65625 C 13.09375 -29.039062 13.035156 -28.445312 12.953125 -27.875 C 12.878906 -27.3125 12.84375 -26.707031 12.84375 -26.0625 C 12.84375 -25.445312 13.117188 -25.140625 13.671875 -25.140625 C 14.660156 -25.140625 15.789062 -25.144531 17.0625 -25.15625 C 18.34375 -25.175781 19.460938 -25.203125 20.421875 -25.234375 C 20.765625 -25.234375 21.054688 -25.109375 21.296875 -24.859375 C 21.546875 -24.609375 21.671875 -24.316406 21.671875 -23.984375 L 21.671875 -21.484375 C 21.671875 -21.140625 21.546875 -20.835938 21.296875 -20.578125 C 21.054688 -20.316406 20.765625 -20.203125 20.421875 -20.234375 C 20.023438 -20.296875 19.425781 -20.34375 18.625 -20.375 C 17.820312 -20.40625 17.019531 -20.4375 16.21875 -20.46875 C 15.414062 -20.5 14.800781 -20.5 14.375 -20.46875 C 13.257812 -20.46875 12.625 -19.898438 12.46875 -18.765625 C 12.351562 -17.160156 12.296875 -15.445312 12.296875 -13.625 C 12.296875 -11.8125 12.3125 -10.226562 12.34375 -8.875 C 12.394531 -7.664062 12.726562 -6.804688 13.34375 -6.296875 C 13.96875 -5.796875 14.722656 -5.546875 15.609375 -5.546875 C 15.984375 -5.546875 16.492188 -5.613281 17.140625 -5.75 C 17.785156 -5.882812 18.421875 -6.050781 19.046875 -6.25 C 19.679688 -6.457031 20.140625 -6.65625 20.421875 -6.84375 C 20.816406 -7.269531 21.226562 -7.375 21.65625 -7.15625 C 22.09375 -6.945312 22.296875 -6.519531 22.265625 -5.875 C 22.265625 -5.1875 22.253906 -4.554688 22.234375 -3.984375 C 22.222656 -3.421875 22.21875 -2.832031 22.21875 -2.21875 C 22.1875 -1.507812 21.910156 -1.03125 21.390625 -0.78125 C 20.835938 -0.539062 20.101562 -0.328125 19.1875 -0.140625 C 18.28125 0.046875 17.363281 0.175781 16.4375 0.25 C 15.519531 0.332031 14.738281 0.375 14.09375 0.375 Z M 14.09375 0.375 "/></g></g></g><g fill="#d90368" fill-opacity="1"><g transform="translate(492.786378, 152.48808)"><g><path d="M 13.765625 0.375 C 11.304688 0.375 9.097656 -0.09375 7.140625 -1.03125 C 5.179688 -1.976562 3.640625 -3.394531 2.515625 -5.28125 C 1.390625 -7.175781 0.828125 -9.539062 0.828125 -12.375 C 0.828125 -15.15625 1.378906 -17.519531 2.484375 -19.46875 C 3.597656 -21.425781 5.132812 -22.921875 7.09375 -23.953125 C 9.050781 -24.984375 11.273438 -25.5 13.765625 -25.5 C 16.265625 -25.5 18.472656 -24.984375 20.390625 -23.953125 C 22.316406 -22.921875 23.832031 -21.425781 24.9375 -19.46875 C 26.050781 -17.519531 26.609375 -15.15625 26.609375 -12.375 C 26.609375 -9.539062 26.050781 -7.175781 24.9375 -5.28125 C 23.832031 -3.394531 22.3125 -1.976562 20.375 -1.03125 C 18.4375 -0.09375 16.234375 0.375 13.765625 0.375 Z M 13.765625 -5.078125 C 15.585938 -5.078125 17.085938 -5.722656 18.265625 -7.015625 C 19.453125 -8.316406 20.046875 -10.179688 20.046875 -12.609375 C 20.046875 -14.921875 19.460938 -16.738281 18.296875 -18.0625 C 17.128906 -19.382812 15.617188 -20.046875 13.765625 -20.046875 C 11.890625 -20.046875 10.375 -19.382812 9.21875 -18.0625 C 8.0625 -16.738281 7.484375 -14.921875 7.484375 -12.609375 C 7.484375 -10.179688 8.078125 -8.316406 9.265625 -7.015625 C 10.453125 -5.722656 11.953125 -5.078125 13.765625 -5.078125 Z M 13.765625 -5.078125 "/></g></g></g><g fill="#3b28cc" fill-opacity="1"><g transform="translate(520.233964, 152.48808)"><g><path d="M 5.453125 -32.71875 C 5.703125 -32.71875 6.078125 -32.703125 6.578125 -32.671875 C 7.085938 -32.640625 7.53125 -32.59375 7.90625 -32.53125 C 8.582031 -32.4375 8.921875 -32.066406 8.921875 -31.421875 C 8.921875 -29.015625 8.90625 -26.882812 8.875 -25.03125 C 8.84375 -23.1875 8.796875 -21.503906 8.734375 -19.984375 C 8.671875 -18.460938 8.597656 -17 8.515625 -15.59375 C 8.441406 -14.1875 8.34375 -12.71875 8.21875 -11.1875 C 8.1875 -10.84375 8.078125 -10.59375 7.890625 -10.4375 C 7.710938 -10.28125 7.46875 -10.175781 7.15625 -10.125 C 6.851562 -10.09375 6.546875 -10.0625 6.234375 -10.03125 C 5.929688 -10 5.671875 -9.984375 5.453125 -9.984375 C 5.234375 -9.984375 4.945312 -10 4.59375 -10.03125 C 4.238281 -10.0625 3.894531 -10.09375 3.5625 -10.125 C 3.25 -10.175781 3.007812 -10.28125 2.84375 -10.4375 C 2.675781 -10.59375 2.5625 -10.84375 2.5 -11.1875 C 2.375 -12.71875 2.269531 -14.1875 2.1875 -15.59375 C 2.113281 -17 2.046875 -18.460938 1.984375 -19.984375 C 1.921875 -21.503906 1.875 -23.179688 1.84375 -25.015625 C 1.8125 -26.847656 1.796875 -28.96875 1.796875 -31.375 C 1.796875 -31.707031 1.894531 -31.972656 2.09375 -32.171875 C 2.300781 -32.378906 2.539062 -32.5 2.8125 -32.53125 C 3.21875 -32.59375 3.6875 -32.640625 4.21875 -32.671875 C 4.757812 -32.703125 5.171875 -32.71875 5.453125 -32.71875 Z M 5.265625 0.375 C 3.972656 0.375 2.898438 0.00390625 2.046875 -0.734375 C 1.203125 -1.472656 0.78125 -2.519531 0.78125 -3.875 C 0.78125 -5.226562 1.203125 -6.273438 2.046875 -7.015625 C 2.898438 -7.753906 3.972656 -8.125 5.265625 -8.125 C 6.585938 -8.125 7.671875 -7.753906 8.515625 -7.015625 C 9.367188 -6.273438 9.796875 -5.210938 9.796875 -3.828125 C 9.796875 -2.503906 9.363281 -1.472656 8.5 -0.734375 C 7.632812 0.00390625 6.554688 0.375 5.265625 0.375 Z M 5.265625 0.375 "/></g></g></g><g fill="#3b28cc" fill-opacity="1"><g transform="translate(5.339298, 213.82022)"><g><path d="M 17.046875 0.328125 C 13.929688 0.328125 11.15625 -0.191406 8.71875 -1.234375 C 6.289062 -2.285156 4.382812 -3.9375 3 -6.1875 C 1.613281 -8.4375 0.921875 -11.363281 0.921875 -14.96875 C 0.921875 -18.601562 1.597656 -21.742188 2.953125 -24.390625 C 4.304688 -27.046875 6.175781 -29.097656 8.5625 -30.546875 C 10.957031 -31.992188 13.707031 -32.71875 16.8125 -32.71875 C 18.695312 -32.71875 20.5625 -32.476562 22.40625 -32 C 24.257812 -31.519531 25.847656 -30.957031 27.171875 -30.3125 C 27.660156 -30 27.875 -29.488281 27.8125 -28.78125 C 27.8125 -28.570312 27.785156 -28.148438 27.734375 -27.515625 C 27.691406 -26.878906 27.644531 -26.175781 27.59375 -25.40625 C 27.550781 -24.632812 27.507812 -23.925781 27.46875 -23.28125 C 27.425781 -22.632812 27.390625 -22.191406 27.359375 -21.953125 C 27.328125 -21.453125 27.085938 -21.171875 26.640625 -21.109375 C 26.191406 -21.046875 25.84375 -21.265625 25.59375 -21.765625 C 24.757812 -23.273438 23.65625 -24.5 22.28125 -25.4375 C 20.914062 -26.375 19.0625 -26.84375 16.71875 -26.84375 C 15.125 -26.84375 13.660156 -26.394531 12.328125 -25.5 C 11.003906 -24.613281 9.957031 -23.304688 9.1875 -21.578125 C 8.425781 -19.847656 8.046875 -17.738281 8.046875 -15.25 C 8.046875 -12.90625 8.453125 -11.023438 9.265625 -9.609375 C 10.078125 -8.191406 11.164062 -7.175781 12.53125 -6.5625 C 13.90625 -5.945312 15.410156 -5.640625 17.046875 -5.640625 C 19.296875 -5.640625 21.28125 -6.082031 23 -6.96875 C 24.726562 -7.863281 26.039062 -9.207031 26.9375 -11 C 27.1875 -11.550781 27.5625 -11.78125 28.0625 -11.6875 C 28.570312 -11.59375 28.84375 -11.222656 28.875 -10.578125 C 28.9375 -9.347656 29 -8.109375 29.0625 -6.859375 C 29.125 -5.609375 29.171875 -4.351562 29.203125 -3.09375 C 29.234375 -2.757812 29.160156 -2.457031 28.984375 -2.1875 C 28.816406 -1.925781 28.613281 -1.722656 28.375 -1.578125 C 27.507812 -1.203125 26.390625 -0.867188 25.015625 -0.578125 C 23.648438 -0.285156 22.25 -0.0625 20.8125 0.09375 C 19.382812 0.25 18.128906 0.328125 17.046875 0.328125 Z M 17.046875 0.328125 "/></g></g></g><g fill="#3b28cc" fill-opacity="1"><g transform="translate(35.60092, 213.82022)"><g><path d="M 13.765625 0.375 C 11.304688 0.375 9.097656 -0.09375 7.140625 -1.03125 C 5.179688 -1.976562 3.640625 -3.394531 2.515625 -5.28125 C 1.390625 -7.175781 0.828125 -9.539062 0.828125 -12.375 C 0.828125 -15.15625 1.378906 -17.519531 2.484375 -19.46875 C 3.597656 -21.425781 5.132812 -22.921875 7.09375 -23.953125 C 9.050781 -24.984375 11.273438 -25.5 13.765625 -25.5 C 16.265625 -25.5 18.472656 -24.984375 20.390625 -23.953125 C 22.316406 -22.921875 23.832031 -21.425781 24.9375 -19.46875 C 26.050781 -17.519531 26.609375 -15.15625 26.609375 -12.375 C 26.609375 -9.539062 26.050781 -7.175781 24.9375 -5.28125 C 23.832031 -3.394531 22.3125 -1.976562 20.375 -1.03125 C 18.4375 -0.09375 16.234375 0.375 13.765625 0.375 Z M 13.765625 -5.078125 C 15.585938 -5.078125 17.085938 -5.722656 18.265625 -7.015625 C 19.453125 -8.316406 20.046875 -10.179688 20.046875 -12.609375 C 20.046875 -14.921875 19.460938 -16.738281 18.296875 -18.0625 C 17.128906 -19.382812 15.617188 -20.046875 13.765625 -20.046875 C 11.890625 -20.046875 10.375 -19.382812 9.21875 -18.0625 C 8.0625 -16.738281 7.484375 -14.921875 7.484375 -12.609375 C 7.484375 -10.179688 8.078125 -8.316406 9.265625 -7.015625 C 10.453125 -5.722656 11.953125 -5.078125 13.765625 -5.078125 Z M 13.765625 -5.078125 "/></g></g></g><g fill="#3b28cc" fill-opacity="1"><g transform="translate(63.044284, 213.82022)"><g><path d="M 4.84375 0.1875 C 4.445312 0.1875 4 0.171875 3.5 0.140625 C 3.007812 0.109375 2.582031 0.0625 2.21875 0 C 1.9375 -0.0625 1.6875 -0.195312 1.46875 -0.40625 C 1.257812 -0.625 1.171875 -0.9375 1.203125 -1.34375 C 1.203125 -4.144531 1.207031 -6.578125 1.21875 -8.640625 C 1.238281 -10.703125 1.28125 -12.5625 1.34375 -14.21875 C 1.40625 -15.882812 1.476562 -17.488281 1.5625 -19.03125 C 1.65625 -20.570312 1.796875 -22.207031 1.984375 -23.9375 C 2.078125 -24.644531 2.414062 -25.046875 3 -25.140625 C 3.34375 -25.203125 3.710938 -25.242188 4.109375 -25.265625 C 4.515625 -25.296875 4.914062 -25.3125 5.3125 -25.3125 C 5.738281 -25.3125 6.164062 -25.296875 6.59375 -25.265625 C 7.03125 -25.242188 7.46875 -25.203125 7.90625 -25.140625 C 8.207031 -25.109375 8.457031 -24.972656 8.65625 -24.734375 C 8.863281 -24.503906 8.921875 -24.222656 8.828125 -23.890625 C 8.703125 -23.484375 8.597656 -23.078125 8.515625 -22.671875 C 8.441406 -22.273438 8.390625 -21.925781 8.359375 -21.625 C 8.328125 -21.101562 8.410156 -20.816406 8.609375 -20.765625 C 8.816406 -20.722656 9.054688 -20.914062 9.328125 -21.34375 C 10.410156 -22.820312 11.570312 -23.882812 12.8125 -24.53125 C 14.0625 -25.175781 15.488281 -25.5 17.09375 -25.5 C 18.96875 -25.5 20.632812 -25.003906 22.09375 -24.015625 C 23.5625 -23.035156 24.734375 -21.628906 25.609375 -19.796875 C 26.492188 -17.960938 26.984375 -15.785156 27.078125 -13.265625 C 27.140625 -12.054688 27.191406 -10.890625 27.234375 -9.765625 C 27.285156 -8.640625 27.328125 -7.40625 27.359375 -6.0625 C 27.390625 -4.726562 27.40625 -3.15625 27.40625 -1.34375 C 27.40625 -0.9375 27.300781 -0.625 27.09375 -0.40625 C 26.894531 -0.195312 26.628906 -0.0625 26.296875 0 C 25.921875 0.0625 25.484375 0.109375 24.984375 0.140625 C 24.492188 0.171875 24.128906 0.1875 23.890625 0.1875 C 23.609375 0.1875 23.179688 0.171875 22.609375 0.140625 C 22.046875 0.109375 21.546875 0.0625 21.109375 0 C 20.804688 -0.0625 20.535156 -0.195312 20.296875 -0.40625 C 20.066406 -0.625 19.96875 -0.921875 20 -1.296875 C 20.125 -2.367188 20.21875 -3.546875 20.28125 -4.828125 C 20.34375 -6.109375 20.390625 -7.347656 20.421875 -8.546875 C 20.453125 -9.742188 20.453125 -10.742188 20.421875 -11.546875 C 20.390625 -14.015625 19.816406 -15.976562 18.703125 -17.4375 C 17.597656 -18.90625 16.109375 -19.640625 14.234375 -19.640625 C 12.441406 -19.640625 10.96875 -18.898438 9.8125 -17.421875 C 8.65625 -15.941406 8.078125 -13.953125 8.078125 -11.453125 C 8.109375 -10.128906 8.15625 -8.535156 8.21875 -6.671875 C 8.28125 -4.804688 8.421875 -3.015625 8.640625 -1.296875 C 8.703125 -0.921875 8.617188 -0.625 8.390625 -0.40625 C 8.160156 -0.195312 7.890625 -0.0625 7.578125 0 C 7.234375 0.0625 6.785156 0.109375 6.234375 0.140625 C 5.679688 0.171875 5.21875 0.1875 4.84375 0.1875 Z M 4.84375 0.1875 "/></g></g></g><g fill="#3b28cc" fill-opacity="1"><g transform="translate(91.504065, 213.82022)"><g><path d="M 14.09375 0.375 C 12.519531 0.375 11.09375 0.0664062 9.8125 -0.546875 C 8.539062 -1.171875 7.523438 -2.097656 6.765625 -3.328125 C 6.015625 -4.554688 5.625 -6.082031 5.59375 -7.90625 C 5.59375 -8.976562 5.609375 -10.191406 5.640625 -11.546875 C 5.671875 -12.898438 5.71875 -14.273438 5.78125 -15.671875 C 5.84375 -17.078125 5.929688 -18.414062 6.046875 -19.6875 C 6.078125 -19.925781 6 -20.125 5.8125 -20.28125 C 5.632812 -20.4375 5.4375 -20.515625 5.21875 -20.515625 C 4.664062 -20.515625 4.097656 -20.515625 3.515625 -20.515625 C 2.929688 -20.515625 2.359375 -20.5 1.796875 -20.46875 C 1.460938 -20.4375 1.171875 -20.550781 0.921875 -20.8125 C 0.671875 -21.070312 0.546875 -21.375 0.546875 -21.71875 L 0.546875 -23.890625 C 0.546875 -24.222656 0.671875 -24.515625 0.921875 -24.765625 C 1.171875 -25.015625 1.460938 -25.140625 1.796875 -25.140625 L 5.21875 -25.140625 C 5.769531 -25.140625 6.046875 -25.429688 6.046875 -26.015625 C 6.046875 -26.597656 6.0625 -27.203125 6.09375 -27.828125 C 6.125 -28.460938 6.171875 -29.070312 6.234375 -29.65625 C 6.328125 -30.425781 6.710938 -30.859375 7.390625 -30.953125 C 7.796875 -31.015625 8.1875 -31.0625 8.5625 -31.09375 C 8.945312 -31.125 9.328125 -31.140625 9.703125 -31.140625 C 10.097656 -31.140625 10.476562 -31.125 10.84375 -31.09375 C 11.21875 -31.0625 11.609375 -31.015625 12.015625 -30.953125 C 12.316406 -30.921875 12.59375 -30.789062 12.84375 -30.5625 C 13.09375 -30.332031 13.1875 -30.03125 13.125 -29.65625 C 13.09375 -29.039062 13.035156 -28.445312 12.953125 -27.875 C 12.878906 -27.3125 12.84375 -26.707031 12.84375 -26.0625 C 12.84375 -25.445312 13.117188 -25.140625 13.671875 -25.140625 C 14.660156 -25.140625 15.789062 -25.144531 17.0625 -25.15625 C 18.34375 -25.175781 19.460938 -25.203125 20.421875 -25.234375 C 20.765625 -25.234375 21.054688 -25.109375 21.296875 -24.859375 C 21.546875 -24.609375 21.671875 -24.316406 21.671875 -23.984375 L 21.671875 -21.484375 C 21.671875 -21.140625 21.546875 -20.835938 21.296875 -20.578125 C 21.054688 -20.316406 20.765625 -20.203125 20.421875 -20.234375 C 20.023438 -20.296875 19.425781 -20.34375 18.625 -20.375 C 17.820312 -20.40625 17.019531 -20.4375 16.21875 -20.46875 C 15.414062 -20.5 14.800781 -20.5 14.375 -20.46875 C 13.257812 -20.46875 12.625 -19.898438 12.46875 -18.765625 C 12.351562 -17.160156 12.296875 -15.445312 12.296875 -13.625 C 12.296875 -11.8125 12.3125 -10.226562 12.34375 -8.875 C 12.394531 -7.664062 12.726562 -6.804688 13.34375 -6.296875 C 13.96875 -5.796875 14.722656 -5.546875 15.609375 -5.546875 C 15.984375 -5.546875 16.492188 -5.613281 17.140625 -5.75 C 17.785156 -5.882812 18.421875 -6.050781 19.046875 -6.25 C 19.679688 -6.457031 20.140625 -6.65625 20.421875 -6.84375 C 20.816406 -7.269531 21.226562 -7.375 21.65625 -7.15625 C 22.09375 -6.945312 22.296875 -6.519531 22.265625 -5.875 C 22.265625 -5.1875 22.253906 -4.554688 22.234375 -3.984375 C 22.222656 -3.421875 22.21875 -2.832031 22.21875 -2.21875 C 22.1875 -1.507812 21.910156 -1.03125 21.390625 -0.78125 C 20.835938 -0.539062 20.101562 -0.328125 19.1875 -0.140625 C 18.28125 0.046875 17.363281 0.175781 16.4375 0.25 C 15.519531 0.332031 14.738281 0.375 14.09375 0.375 Z M 14.09375 0.375 "/></g></g></g><g fill="#3b28cc" fill-opacity="1"><g transform="translate(114.327331, 213.82022)"><g><path d="M 4.71875 0.1875 C 4.46875 0.1875 4.078125 0.171875 3.546875 0.140625 C 3.023438 0.109375 2.566406 0.0625 2.171875 0 C 1.890625 -0.0625 1.648438 -0.195312 1.453125 -0.40625 C 1.253906 -0.625 1.15625 -0.921875 1.15625 -1.296875 C 1.15625 -3.972656 1.160156 -6.34375 1.171875 -8.40625 C 1.191406 -10.46875 1.21875 -12.351562 1.25 -14.0625 C 1.28125 -15.78125 1.332031 -17.429688 1.40625 -19.015625 C 1.488281 -20.597656 1.585938 -22.253906 1.703125 -23.984375 C 1.796875 -24.660156 2.132812 -25.046875 2.71875 -25.140625 C 3.0625 -25.203125 3.460938 -25.242188 3.921875 -25.265625 C 4.390625 -25.296875 4.820312 -25.3125 5.21875 -25.3125 C 5.59375 -25.3125 6.054688 -25.296875 6.609375 -25.265625 C 7.160156 -25.242188 7.578125 -25.203125 7.859375 -25.140625 C 8.222656 -25.078125 8.503906 -24.925781 8.703125 -24.6875 C 8.910156 -24.457031 8.96875 -24.191406 8.875 -23.890625 C 8.71875 -23.304688 8.582031 -22.78125 8.46875 -22.3125 C 8.363281 -21.851562 8.3125 -21.316406 8.3125 -20.703125 C 8.3125 -20.234375 8.4375 -19.960938 8.6875 -19.890625 C 8.9375 -19.816406 9.148438 -20.023438 9.328125 -20.515625 C 10.066406 -22.265625 11.117188 -23.523438 12.484375 -24.296875 C 13.859375 -25.066406 15.394531 -25.453125 17.09375 -25.453125 C 17.800781 -25.453125 18.539062 -25.367188 19.3125 -25.203125 C 20.082031 -25.035156 20.710938 -24.8125 21.203125 -24.53125 C 21.816406 -24.195312 22.125 -23.722656 22.125 -23.109375 C 22.125 -22.148438 22.113281 -21.257812 22.09375 -20.4375 C 22.082031 -19.625 22.050781 -18.722656 22 -17.734375 C 21.96875 -17.148438 21.726562 -16.796875 21.28125 -16.671875 C 20.832031 -16.554688 20.4375 -16.679688 20.09375 -17.046875 C 19.257812 -17.753906 18.390625 -18.238281 17.484375 -18.5 C 16.578125 -18.757812 15.660156 -18.890625 14.734375 -18.890625 C 13.597656 -18.890625 12.53125 -18.570312 11.53125 -17.9375 C 10.53125 -17.3125 9.71875 -16.40625 9.09375 -15.21875 C 8.476562 -14.03125 8.171875 -12.609375 8.171875 -10.953125 C 8.171875 -9.773438 8.207031 -8.5625 8.28125 -7.3125 C 8.363281 -6.070312 8.453125 -4.921875 8.546875 -3.859375 C 8.640625 -2.796875 8.703125 -1.941406 8.734375 -1.296875 C 8.765625 -0.890625 8.660156 -0.578125 8.421875 -0.359375 C 8.191406 -0.148438 7.941406 -0.015625 7.671875 0.046875 C 7.328125 0.078125 6.867188 0.109375 6.296875 0.140625 C 5.734375 0.171875 5.207031 0.1875 4.71875 0.1875 Z M 4.71875 0.1875 "/></g></g></g><g fill="#3b28cc" fill-opacity="1"><g transform="translate(137.243006, 213.82022)"><g><path d="M 8.640625 0.375 C 6.296875 0.375 4.40625 -0.175781 2.96875 -1.28125 C 1.539062 -2.394531 0.828125 -4.265625 0.828125 -6.890625 C 0.828125 -9.191406 1.648438 -11.015625 3.296875 -12.359375 C 4.953125 -13.703125 7.226562 -14.617188 10.125 -15.109375 C 12.769531 -15.472656 14.628906 -15.847656 15.703125 -16.234375 C 16.785156 -16.617188 17.328125 -17.226562 17.328125 -18.0625 C 17.328125 -18.550781 16.988281 -19.007812 16.3125 -19.4375 C 15.632812 -19.875 14.476562 -20.09375 12.84375 -20.09375 C 11.457031 -20.09375 10.023438 -19.875 8.546875 -19.4375 C 7.066406 -19.007812 5.773438 -18.304688 4.671875 -17.328125 C 4.328125 -16.835938 3.929688 -16.695312 3.484375 -16.90625 C 3.035156 -17.125 2.828125 -17.570312 2.859375 -18.25 C 2.890625 -18.59375 2.9375 -19.0625 3 -19.65625 C 3.0625 -20.257812 3.128906 -20.867188 3.203125 -21.484375 C 3.285156 -22.097656 3.34375 -22.5625 3.375 -22.875 C 3.46875 -23.613281 3.773438 -24.085938 4.296875 -24.296875 C 6.847656 -25.097656 9.617188 -25.5 12.609375 -25.5 C 16.148438 -25.5 18.898438 -24.738281 20.859375 -23.21875 C 22.816406 -21.695312 23.945312 -19.253906 24.25 -15.890625 C 24.34375 -14.722656 24.4375 -13.273438 24.53125 -11.546875 C 24.625 -9.828125 24.71875 -8.070312 24.8125 -6.28125 C 24.90625 -4.5 24.984375 -2.898438 25.046875 -1.484375 C 25.046875 -0.679688 24.613281 -0.203125 23.75 -0.046875 C 23.4375 0.046875 23.050781 0.109375 22.59375 0.140625 C 22.132812 0.171875 21.6875 0.1875 21.25 0.1875 C 20.882812 0.1875 20.414062 0.171875 19.84375 0.140625 C 19.269531 0.109375 18.800781 0.046875 18.4375 -0.046875 C 18.03125 -0.109375 17.703125 -0.285156 17.453125 -0.578125 C 17.210938 -0.867188 17.125 -1.210938 17.1875 -1.609375 C 17.25 -1.921875 17.316406 -2.320312 17.390625 -2.8125 C 17.472656 -3.3125 17.53125 -3.804688 17.5625 -4.296875 C 17.625 -4.722656 17.519531 -4.972656 17.25 -5.046875 C 16.988281 -5.128906 16.769531 -4.972656 16.59375 -4.578125 C 15.882812 -3.066406 14.789062 -1.863281 13.3125 -0.96875 C 11.832031 -0.0703125 10.273438 0.375 8.640625 0.375 Z M 11.78125 -5.359375 C 12.550781 -5.359375 13.359375 -5.554688 14.203125 -5.953125 C 15.054688 -6.359375 15.773438 -6.9375 16.359375 -7.6875 C 16.941406 -8.445312 17.234375 -9.363281 17.234375 -10.4375 C 17.234375 -11.175781 17.007812 -11.785156 16.5625 -12.265625 C 16.113281 -12.742188 15.351562 -12.984375 14.28125 -12.984375 C 13.195312 -12.984375 12.160156 -12.78125 11.171875 -12.375 C 10.191406 -11.976562 9.394531 -11.429688 8.78125 -10.734375 C 8.164062 -10.046875 7.859375 -9.222656 7.859375 -8.265625 C 7.859375 -7.222656 8.164062 -6.476562 8.78125 -6.03125 C 9.394531 -5.582031 10.394531 -5.359375 11.78125 -5.359375 Z M 11.78125 -5.359375 "/></g></g></g><g fill="#3b28cc" fill-opacity="1"><g transform="translate(163.346544, 213.82022)"><g/></g></g><g fill="#3b28cc" fill-opacity="1"><g transform="translate(175.774604, 213.82022)"><g><path d="M 8.640625 0.375 C 6.296875 0.375 4.40625 -0.175781 2.96875 -1.28125 C 1.539062 -2.394531 0.828125 -4.265625 0.828125 -6.890625 C 0.828125 -9.191406 1.648438 -11.015625 3.296875 -12.359375 C 4.953125 -13.703125 7.226562 -14.617188 10.125 -15.109375 C 12.769531 -15.472656 14.628906 -15.847656 15.703125 -16.234375 C 16.785156 -16.617188 17.328125 -17.226562 17.328125 -18.0625 C 17.328125 -18.550781 16.988281 -19.007812 16.3125 -19.4375 C 15.632812 -19.875 14.476562 -20.09375 12.84375 -20.09375 C 11.457031 -20.09375 10.023438 -19.875 8.546875 -19.4375 C 7.066406 -19.007812 5.773438 -18.304688 4.671875 -17.328125 C 4.328125 -16.835938 3.929688 -16.695312 3.484375 -16.90625 C 3.035156 -17.125 2.828125 -17.570312 2.859375 -18.25 C 2.890625 -18.59375 2.9375 -19.0625 3 -19.65625 C 3.0625 -20.257812 3.128906 -20.867188 3.203125 -21.484375 C 3.285156 -22.097656 3.34375 -22.5625 3.375 -22.875 C 3.46875 -23.613281 3.773438 -24.085938 4.296875 -24.296875 C 6.847656 -25.097656 9.617188 -25.5 12.609375 -25.5 C 16.148438 -25.5 18.898438 -24.738281 20.859375 -23.21875 C 22.816406 -21.695312 23.945312 -19.253906 24.25 -15.890625 C 24.34375 -14.722656 24.4375 -13.273438 24.53125 -11.546875 C 24.625 -9.828125 24.71875 -8.070312 24.8125 -6.28125 C 24.90625 -4.5 24.984375 -2.898438 25.046875 -1.484375 C 25.046875 -0.679688 24.613281 -0.203125 23.75 -0.046875 C 23.4375 0.046875 23.050781 0.109375 22.59375 0.140625 C 22.132812 0.171875 21.6875 0.1875 21.25 0.1875 C 20.882812 0.1875 20.414062 0.171875 19.84375 0.140625 C 19.269531 0.109375 18.800781 0.046875 18.4375 -0.046875 C 18.03125 -0.109375 17.703125 -0.285156 17.453125 -0.578125 C 17.210938 -0.867188 17.125 -1.210938 17.1875 -1.609375 C 17.25 -1.921875 17.316406 -2.320312 17.390625 -2.8125 C 17.472656 -3.3125 17.53125 -3.804688 17.5625 -4.296875 C 17.625 -4.722656 17.519531 -4.972656 17.25 -5.046875 C 16.988281 -5.128906 16.769531 -4.972656 16.59375 -4.578125 C 15.882812 -3.066406 14.789062 -1.863281 13.3125 -0.96875 C 11.832031 -0.0703125 10.273438 0.375 8.640625 0.375 Z M 11.78125 -5.359375 C 12.550781 -5.359375 13.359375 -5.554688 14.203125 -5.953125 C 15.054688 -6.359375 15.773438 -6.9375 16.359375 -7.6875 C 16.941406 -8.445312 17.234375 -9.363281 17.234375 -10.4375 C 17.234375 -11.175781 17.007812 -11.785156 16.5625 -12.265625 C 16.113281 -12.742188 15.351562 -12.984375 14.28125 -12.984375 C 13.195312 -12.984375 12.160156 -12.78125 11.171875 -12.375 C 10.191406 -11.976562 9.394531 -11.429688 8.78125 -10.734375 C 8.164062 -10.046875 7.859375 -9.222656 7.859375 -8.265625 C 7.859375 -7.222656 8.164062 -6.476562 8.78125 -6.03125 C 9.394531 -5.582031 10.394531 -5.359375 11.78125 -5.359375 Z M 11.78125 -5.359375 "/></g></g></g><g fill="#3b28cc" fill-opacity="1"><g transform="translate(201.87813, 213.82022)"><g/></g></g><g fill="#3b28cc" fill-opacity="1"><g transform="translate(214.306201, 213.82022)"><g><path d="M 14.546875 0.1875 C 13.722656 0.1875 12.734375 0.1875 11.578125 0.1875 C 10.421875 0.1875 9.234375 0.175781 8.015625 0.15625 C 6.796875 0.144531 5.691406 0.125 4.703125 0.09375 C 3.722656 0.0625 3.003906 0.03125 2.546875 0 C 1.710938 -0.0625 1.296875 -0.445312 1.296875 -1.15625 C 1.296875 -3.46875 1.316406 -5.945312 1.359375 -8.59375 C 1.410156 -11.238281 1.472656 -13.914062 1.546875 -16.625 C 1.617188 -19.34375 1.71875 -21.957031 1.84375 -24.46875 C 1.96875 -26.976562 2.09375 -29.25 2.21875 -31.28125 C 2.25 -31.613281 2.382812 -31.863281 2.625 -32.03125 C 2.875 -32.207031 3.15625 -32.3125 3.46875 -32.34375 C 3.832031 -32.375 4.460938 -32.40625 5.359375 -32.4375 C 6.253906 -32.46875 7.265625 -32.488281 8.390625 -32.5 C 9.515625 -32.519531 10.628906 -32.53125 11.734375 -32.53125 C 12.847656 -32.53125 13.785156 -32.53125 14.546875 -32.53125 C 15.722656 -32.53125 16.972656 -32.53125 18.296875 -32.53125 C 19.617188 -32.53125 20.910156 -32.515625 22.171875 -32.484375 C 23.441406 -32.453125 24.550781 -32.40625 25.5 -32.34375 C 26.207031 -32.28125 26.609375 -31.910156 26.703125 -31.234375 C 26.734375 -30.859375 26.769531 -30.316406 26.8125 -29.609375 C 26.863281 -28.898438 26.90625 -28.15625 26.9375 -27.375 C 26.96875 -26.59375 27 -25.863281 27.03125 -25.1875 C 27.0625 -24.507812 27.078125 -23.984375 27.078125 -23.609375 C 27.109375 -22.992188 26.890625 -22.628906 26.421875 -22.515625 C 25.960938 -22.410156 25.566406 -22.632812 25.234375 -23.1875 C 24.398438 -24.488281 23.164062 -25.460938 21.53125 -26.109375 C 19.894531 -26.753906 17.722656 -27.078125 15.015625 -27.078125 C 13.046875 -27.078125 11.382812 -26.789062 10.03125 -26.21875 C 8.675781 -25.644531 8 -24.679688 8 -23.328125 L 8 -22.921875 C 8 -21.960938 8.457031 -21.207031 9.375 -20.65625 C 10.300781 -20.101562 11.644531 -19.828125 13.40625 -19.828125 C 14.601562 -19.828125 15.945312 -19.863281 17.4375 -19.9375 C 18.9375 -20.007812 20.238281 -20.109375 21.34375 -20.234375 C 21.6875 -20.296875 21.988281 -20.210938 22.25 -19.984375 C 22.507812 -19.753906 22.640625 -19.46875 22.640625 -19.125 L 22.640625 -14.875 C 22.640625 -14.382812 22.46875 -14.082031 22.125 -13.96875 C 21.789062 -13.863281 21.421875 -13.984375 21.015625 -14.328125 C 20.191406 -14.910156 19.09375 -15.304688 17.71875 -15.515625 C 16.34375 -15.734375 15.023438 -15.828125 13.765625 -15.796875 C 12.753906 -15.796875 11.800781 -15.671875 10.90625 -15.421875 C 10.007812 -15.179688 9.289062 -14.769531 8.75 -14.1875 C 8.21875 -13.601562 7.953125 -12.816406 7.953125 -11.828125 L 7.953125 -10.578125 C 7.953125 -9.316406 8.34375 -8.304688 9.125 -7.546875 C 9.90625 -6.796875 10.925781 -6.257812 12.1875 -5.9375 C 13.457031 -5.613281 14.800781 -5.453125 16.21875 -5.453125 C 18.25 -5.453125 19.910156 -5.628906 21.203125 -5.984375 C 22.492188 -6.335938 23.554688 -6.898438 24.390625 -7.671875 C 25.222656 -8.441406 25.976562 -9.441406 26.65625 -10.671875 C 26.90625 -11.191406 27.273438 -11.425781 27.765625 -11.375 C 28.253906 -11.332031 28.53125 -11.003906 28.59375 -10.390625 C 28.65625 -9.960938 28.71875 -9.316406 28.78125 -8.453125 C 28.84375 -7.585938 28.894531 -6.660156 28.9375 -5.671875 C 28.988281 -4.691406 29.035156 -3.769531 29.078125 -2.90625 C 29.128906 -2.039062 29.171875 -1.394531 29.203125 -0.96875 C 29.203125 -0.382812 28.878906 -0.0625 28.234375 0 C 27.429688 0.03125 26.441406 0.0625 25.265625 0.09375 C 24.097656 0.125 22.859375 0.144531 21.546875 0.15625 C 20.242188 0.175781 18.972656 0.1875 17.734375 0.1875 C 16.503906 0.1875 15.441406 0.1875 14.546875 0.1875 Z M 14.546875 0.1875 "/></g></g></g><g fill="#3b28cc" fill-opacity="1"><g transform="translate(244.521606, 213.82022)"><g><path d="M 5.078125 0.1875 C 4.742188 0.1875 4.289062 0.171875 3.71875 0.140625 C 3.144531 0.109375 2.675781 0.0625 2.3125 0 C 1.632812 -0.15625 1.296875 -0.585938 1.296875 -1.296875 C 1.296875 -3.972656 1.3125 -6.75 1.34375 -9.625 C 1.375 -12.507812 1.410156 -15.335938 1.453125 -18.109375 C 1.503906 -20.878906 1.582031 -23.472656 1.6875 -25.890625 C 1.789062 -28.316406 1.90625 -30.390625 2.03125 -32.109375 C 2.125 -32.785156 2.507812 -33.171875 3.1875 -33.265625 C 3.53125 -33.328125 3.914062 -33.375 4.34375 -33.40625 C 4.769531 -33.4375 5.171875 -33.453125 5.546875 -33.453125 C 5.972656 -33.453125 6.476562 -33.4375 7.0625 -33.40625 C 7.65625 -33.375 8.101562 -33.328125 8.40625 -33.265625 C 8.75 -33.234375 9.019531 -33.085938 9.21875 -32.828125 C 9.414062 -32.566406 9.484375 -32.265625 9.421875 -31.921875 C 9.179688 -29.984375 8.972656 -27.710938 8.796875 -25.109375 C 8.628906 -22.503906 8.503906 -19.785156 8.421875 -16.953125 C 8.347656 -14.117188 8.332031 -11.347656 8.375 -8.640625 C 8.425781 -5.929688 8.53125 -3.484375 8.6875 -1.296875 C 8.71875 -0.921875 8.628906 -0.617188 8.421875 -0.390625 C 8.222656 -0.160156 7.972656 -0.015625 7.671875 0.046875 C 7.296875 0.078125 6.851562 0.109375 6.34375 0.140625 C 5.84375 0.171875 5.421875 0.1875 5.078125 0.1875 Z M 5.078125 0.1875 "/></g></g></g><g fill="#3b28cc" fill-opacity="1"><g transform="translate(255.147836, 213.82022)"><g><path d="M 4.984375 -27.53125 C 3.847656 -27.53125 2.914062 -27.835938 2.1875 -28.453125 C 1.46875 -29.078125 1.109375 -29.863281 1.109375 -30.8125 C 1.109375 -31.800781 1.46875 -32.601562 2.1875 -33.21875 C 2.914062 -33.832031 3.847656 -34.140625 4.984375 -34.140625 C 6.160156 -34.140625 7.109375 -33.832031 7.828125 -33.21875 C 8.554688 -32.601562 8.921875 -31.800781 8.921875 -30.8125 C 8.921875 -29.863281 8.554688 -29.078125 7.828125 -28.453125 C 7.109375 -27.835938 6.160156 -27.53125 4.984375 -27.53125 Z M 5.078125 0.1875 C 4.835938 0.1875 4.4375 0.175781 3.875 0.15625 C 3.320312 0.144531 2.847656 0.09375 2.453125 0 C 2.171875 -0.0625 1.929688 -0.207031 1.734375 -0.4375 C 1.535156 -0.664062 1.4375 -0.96875 1.4375 -1.34375 C 1.4375 -4.019531 1.441406 -6.378906 1.453125 -8.421875 C 1.472656 -10.472656 1.5 -12.351562 1.53125 -14.0625 C 1.5625 -15.78125 1.601562 -17.429688 1.65625 -19.015625 C 1.71875 -20.597656 1.8125 -22.253906 1.9375 -23.984375 C 1.96875 -24.378906 2.0625 -24.660156 2.21875 -24.828125 C 2.375 -25.003906 2.601562 -25.109375 2.90625 -25.140625 C 3.25 -25.203125 3.644531 -25.242188 4.09375 -25.265625 C 4.539062 -25.296875 4.882812 -25.3125 5.125 -25.3125 C 5.34375 -25.3125 5.648438 -25.296875 6.046875 -25.265625 C 6.453125 -25.242188 6.804688 -25.203125 7.109375 -25.140625 C 7.421875 -25.078125 7.65625 -24.96875 7.8125 -24.8125 C 7.96875 -24.65625 8.054688 -24.378906 8.078125 -23.984375 C 8.203125 -22.253906 8.296875 -20.597656 8.359375 -19.015625 C 8.421875 -17.429688 8.46875 -15.78125 8.5 -14.0625 C 8.53125 -12.351562 8.550781 -10.46875 8.5625 -8.40625 C 8.582031 -6.34375 8.59375 -3.972656 8.59375 -1.296875 C 8.59375 -0.921875 8.492188 -0.625 8.296875 -0.40625 C 8.097656 -0.195312 7.859375 -0.0625 7.578125 0 C 7.179688 0.0625 6.726562 0.109375 6.21875 0.140625 C 5.707031 0.171875 5.328125 0.1875 5.078125 0.1875 Z M 5.078125 0.1875 "/></g></g></g><g fill="#3b28cc" fill-opacity="1"><g transform="translate(265.173437, 213.82022)"><g><path d="M 14.09375 0.375 C 12.519531 0.375 11.09375 0.0664062 9.8125 -0.546875 C 8.539062 -1.171875 7.523438 -2.097656 6.765625 -3.328125 C 6.015625 -4.554688 5.625 -6.082031 5.59375 -7.90625 C 5.59375 -8.976562 5.609375 -10.191406 5.640625 -11.546875 C 5.671875 -12.898438 5.71875 -14.273438 5.78125 -15.671875 C 5.84375 -17.078125 5.929688 -18.414062 6.046875 -19.6875 C 6.078125 -19.925781 6 -20.125 5.8125 -20.28125 C 5.632812 -20.4375 5.4375 -20.515625 5.21875 -20.515625 C 4.664062 -20.515625 4.097656 -20.515625 3.515625 -20.515625 C 2.929688 -20.515625 2.359375 -20.5 1.796875 -20.46875 C 1.460938 -20.4375 1.171875 -20.550781 0.921875 -20.8125 C 0.671875 -21.070312 0.546875 -21.375 0.546875 -21.71875 L 0.546875 -23.890625 C 0.546875 -24.222656 0.671875 -24.515625 0.921875 -24.765625 C 1.171875 -25.015625 1.460938 -25.140625 1.796875 -25.140625 L 5.21875 -25.140625 C 5.769531 -25.140625 6.046875 -25.429688 6.046875 -26.015625 C 6.046875 -26.597656 6.0625 -27.203125 6.09375 -27.828125 C 6.125 -28.460938 6.171875 -29.070312 6.234375 -29.65625 C 6.328125 -30.425781 6.710938 -30.859375 7.390625 -30.953125 C 7.796875 -31.015625 8.1875 -31.0625 8.5625 -31.09375 C 8.945312 -31.125 9.328125 -31.140625 9.703125 -31.140625 C 10.097656 -31.140625 10.476562 -31.125 10.84375 -31.09375 C 11.21875 -31.0625 11.609375 -31.015625 12.015625 -30.953125 C 12.316406 -30.921875 12.59375 -30.789062 12.84375 -30.5625 C 13.09375 -30.332031 13.1875 -30.03125 13.125 -29.65625 C 13.09375 -29.039062 13.035156 -28.445312 12.953125 -27.875 C 12.878906 -27.3125 12.84375 -26.707031 12.84375 -26.0625 C 12.84375 -25.445312 13.117188 -25.140625 13.671875 -25.140625 C 14.660156 -25.140625 15.789062 -25.144531 17.0625 -25.15625 C 18.34375 -25.175781 19.460938 -25.203125 20.421875 -25.234375 C 20.765625 -25.234375 21.054688 -25.109375 21.296875 -24.859375 C 21.546875 -24.609375 21.671875 -24.316406 21.671875 -23.984375 L 21.671875 -21.484375 C 21.671875 -21.140625 21.546875 -20.835938 21.296875 -20.578125 C 21.054688 -20.316406 20.765625 -20.203125 20.421875 -20.234375 C 20.023438 -20.296875 19.425781 -20.34375 18.625 -20.375 C 17.820312 -20.40625 17.019531 -20.4375 16.21875 -20.46875 C 15.414062 -20.5 14.800781 -20.5 14.375 -20.46875 C 13.257812 -20.46875 12.625 -19.898438 12.46875 -18.765625 C 12.351562 -17.160156 12.296875 -15.445312 12.296875 -13.625 C 12.296875 -11.8125 12.3125 -10.226562 12.34375 -8.875 C 12.394531 -7.664062 12.726562 -6.804688 13.34375 -6.296875 C 13.96875 -5.796875 14.722656 -5.546875 15.609375 -5.546875 C 15.984375 -5.546875 16.492188 -5.613281 17.140625 -5.75 C 17.785156 -5.882812 18.421875 -6.050781 19.046875 -6.25 C 19.679688 -6.457031 20.140625 -6.65625 20.421875 -6.84375 C 20.816406 -7.269531 21.226562 -7.375 21.65625 -7.15625 C 22.09375 -6.945312 22.296875 -6.519531 22.265625 -5.875 C 22.265625 -5.1875 22.253906 -4.554688 22.234375 -3.984375 C 22.222656 -3.421875 22.21875 -2.832031 22.21875 -2.21875 C 22.1875 -1.507812 21.910156 -1.03125 21.390625 -0.78125 C 20.835938 -0.539062 20.101562 -0.328125 19.1875 -0.140625 C 18.28125 0.046875 17.363281 0.175781 16.4375 0.25 C 15.519531 0.332031 14.738281 0.375 14.09375 0.375 Z M 14.09375 0.375 "/></g></g></g><g fill="#3b28cc" fill-opacity="1"><g transform="translate(287.996703, 213.82022)"><g><path d="M 14.28125 0.375 C 11.5625 0.375 9.191406 -0.140625 7.171875 -1.171875 C 5.160156 -2.203125 3.597656 -3.703125 2.484375 -5.671875 C 1.378906 -7.648438 0.828125 -10.039062 0.828125 -12.84375 C 0.828125 -15.550781 1.359375 -17.84375 2.421875 -19.71875 C 3.484375 -21.601562 4.9375 -23.035156 6.78125 -24.015625 C 8.632812 -25.003906 10.734375 -25.5 13.078125 -25.5 C 16.335938 -25.5 18.976562 -24.765625 21 -23.296875 C 23.019531 -21.835938 24.03125 -19.691406 24.03125 -16.859375 C 24.03125 -15.347656 23.617188 -14.015625 22.796875 -12.859375 C 21.984375 -11.710938 20.90625 -10.820312 19.5625 -10.1875 C 18.226562 -9.550781 16.789062 -9.234375 15.25 -9.234375 C 13.988281 -9.234375 12.765625 -9.34375 11.578125 -9.5625 C 10.390625 -9.78125 9.347656 -10.132812 8.453125 -10.625 C 7.992188 -10.9375 7.65625 -10.957031 7.4375 -10.6875 C 7.21875 -10.425781 7.265625 -10.082031 7.578125 -9.65625 C 7.941406 -8.789062 8.53125 -8.019531 9.34375 -7.34375 C 10.164062 -6.664062 11.097656 -6.132812 12.140625 -5.75 C 13.191406 -5.363281 14.242188 -5.171875 15.296875 -5.171875 C 16.492188 -5.171875 17.769531 -5.429688 19.125 -5.953125 C 20.476562 -6.484375 21.585938 -7.148438 22.453125 -7.953125 C 22.796875 -8.378906 23.160156 -8.519531 23.546875 -8.375 C 23.929688 -8.238281 24.140625 -7.863281 24.171875 -7.25 C 24.222656 -6.570312 24.253906 -5.878906 24.265625 -5.171875 C 24.285156 -4.460938 24.3125 -3.769531 24.34375 -3.09375 C 24.34375 -2.507812 24.144531 -2.09375 23.75 -1.84375 C 22.601562 -1.070312 21.144531 -0.507812 19.375 -0.15625 C 17.601562 0.195312 15.90625 0.375 14.28125 0.375 Z M 13.4375 -12.796875 C 14.769531 -12.796875 15.816406 -13.125 16.578125 -13.78125 C 17.347656 -14.445312 17.734375 -15.351562 17.734375 -16.5 C 17.734375 -17.695312 17.378906 -18.632812 16.671875 -19.3125 C 15.960938 -19.988281 14.796875 -20.328125 13.171875 -20.328125 C 12.242188 -20.328125 11.332031 -20.132812 10.4375 -19.75 C 9.550781 -19.363281 8.820312 -18.816406 8.25 -18.109375 C 7.675781 -17.398438 7.390625 -16.539062 7.390625 -15.53125 C 7.390625 -14.90625 7.726562 -14.382812 8.40625 -13.96875 C 9.082031 -13.5625 9.890625 -13.265625 10.828125 -13.078125 C 11.773438 -12.890625 12.644531 -12.796875 13.4375 -12.796875 Z M 13.4375 -12.796875 "/></g></g></g><g fill="#3b28cc" fill-opacity="1"><g transform="translate(313.222416, 213.82022)"><g><path d="M 4.390625 4.8125 L 3.5625 3.78125 C 3.0625 3.257812 3.125 2.753906 3.75 2.265625 C 3.988281 2.078125 4.191406 1.867188 4.359375 1.640625 C 4.535156 1.410156 4.6875 1.203125 4.8125 1.015625 C 4.925781 0.859375 4.957031 0.703125 4.90625 0.546875 C 4.863281 0.398438 4.722656 0.328125 4.484375 0.328125 C 3.523438 0.421875 2.664062 0.078125 1.90625 -0.703125 C 1.15625 -1.492188 0.78125 -2.550781 0.78125 -3.875 C 0.78125 -5.226562 1.210938 -6.273438 2.078125 -7.015625 C 2.941406 -7.753906 4.035156 -8.125 5.359375 -8.125 C 6.710938 -8.125 7.804688 -7.644531 8.640625 -6.6875 C 9.472656 -5.738281 9.890625 -4.492188 9.890625 -2.953125 C 9.890625 -1.109375 9.492188 0.503906 8.703125 1.890625 C 7.921875 3.273438 6.988281 4.351562 5.90625 5.125 C 5.632812 5.3125 5.359375 5.363281 5.078125 5.28125 C 4.804688 5.207031 4.578125 5.050781 4.390625 4.8125 Z M 4.390625 4.8125 "/></g></g></g><g fill="#3b28cc" fill-opacity="1"><g transform="translate(323.894839, 213.82022)"><g/></g></g><g fill="#3b28cc" fill-opacity="1"><g transform="translate(336.322911, 213.82022)"><g><path d="M 4.53125 10.8125 C 4.3125 10.8125 3.941406 10.785156 3.421875 10.734375 C 2.898438 10.691406 2.46875 10.65625 2.125 10.625 C 1.476562 10.53125 1.15625 10.144531 1.15625 9.46875 C 1.15625 7.5625 1.160156 5.265625 1.171875 2.578125 C 1.191406 -0.0976562 1.238281 -2.96875 1.3125 -6.03125 C 1.394531 -9.09375 1.488281 -12.15625 1.59375 -15.21875 C 1.695312 -18.289062 1.84375 -21.164062 2.03125 -23.84375 C 2.09375 -24.613281 2.460938 -25.046875 3.140625 -25.140625 C 3.515625 -25.203125 3.960938 -25.242188 4.484375 -25.265625 C 5.003906 -25.296875 5.375 -25.3125 5.59375 -25.3125 C 5.800781 -25.3125 6.207031 -25.296875 6.8125 -25.265625 C 7.414062 -25.242188 7.882812 -25.203125 8.21875 -25.140625 C 8.53125 -25.109375 8.785156 -24.972656 8.984375 -24.734375 C 9.179688 -24.503906 9.25 -24.207031 9.1875 -23.84375 C 9.132812 -23.53125 9.078125 -23.203125 9.015625 -22.859375 C 8.953125 -22.523438 8.90625 -22.222656 8.875 -21.953125 C 8.84375 -21.484375 8.929688 -21.21875 9.140625 -21.15625 C 9.359375 -21.09375 9.578125 -21.265625 9.796875 -21.671875 C 10.628906 -22.804688 11.722656 -23.726562 13.078125 -24.4375 C 14.429688 -25.144531 15.800781 -25.5 17.1875 -25.5 C 19.125 -25.5 20.835938 -25.019531 22.328125 -24.0625 C 23.828125 -23.113281 25 -21.695312 25.84375 -19.8125 C 26.695312 -17.9375 27.125 -15.582031 27.125 -12.75 C 27.125 -10.007812 26.664062 -7.648438 25.75 -5.671875 C 24.84375 -3.703125 23.613281 -2.203125 22.0625 -1.171875 C 20.507812 -0.140625 18.757812 0.375 16.8125 0.375 C 15.1875 0.375 13.664062 0 12.25 -0.75 C 10.832031 -1.507812 9.738281 -2.550781 8.96875 -3.875 C 8.75 -4.28125 8.539062 -4.441406 8.34375 -4.359375 C 8.144531 -4.285156 8.03125 -4.019531 8 -3.5625 C 7.96875 -2.695312 7.957031 -1.675781 7.96875 -0.5 C 7.988281 0.664062 8.019531 1.863281 8.0625 3.09375 C 8.101562 4.320312 8.160156 5.488281 8.234375 6.59375 C 8.316406 7.707031 8.40625 8.648438 8.5 9.421875 C 8.5625 9.765625 8.476562 10.035156 8.25 10.234375 C 8.019531 10.429688 7.75 10.5625 7.4375 10.625 C 7.101562 10.65625 6.59375 10.691406 5.90625 10.734375 C 5.226562 10.785156 4.769531 10.8125 4.53125 10.8125 Z M 14.375 -5.171875 C 16.1875 -5.171875 17.671875 -5.828125 18.828125 -7.140625 C 19.984375 -8.453125 20.5625 -10.242188 20.5625 -12.515625 C 20.5625 -14.890625 19.972656 -16.738281 18.796875 -18.0625 C 17.628906 -19.382812 16.15625 -20.046875 14.375 -20.046875 C 12.644531 -20.046875 11.175781 -19.382812 9.96875 -18.0625 C 8.769531 -16.738281 8.171875 -14.890625 8.171875 -12.515625 C 8.171875 -10.242188 8.753906 -8.453125 9.921875 -7.140625 C 11.097656 -5.828125 12.582031 -5.171875 14.375 -5.171875 Z M 14.375 -5.171875 "/></g></g></g><g fill="#3b28cc" fill-opacity="1"><g transform="translate(364.274495, 213.82022)"><g><path d="M 14.28125 0.375 C 11.5625 0.375 9.191406 -0.140625 7.171875 -1.171875 C 5.160156 -2.203125 3.597656 -3.703125 2.484375 -5.671875 C 1.378906 -7.648438 0.828125 -10.039062 0.828125 -12.84375 C 0.828125 -15.550781 1.359375 -17.84375 2.421875 -19.71875 C 3.484375 -21.601562 4.9375 -23.035156 6.78125 -24.015625 C 8.632812 -25.003906 10.734375 -25.5 13.078125 -25.5 C 16.335938 -25.5 18.976562 -24.765625 21 -23.296875 C 23.019531 -21.835938 24.03125 -19.691406 24.03125 -16.859375 C 24.03125 -15.347656 23.617188 -14.015625 22.796875 -12.859375 C 21.984375 -11.710938 20.90625 -10.820312 19.5625 -10.1875 C 18.226562 -9.550781 16.789062 -9.234375 15.25 -9.234375 C 13.988281 -9.234375 12.765625 -9.34375 11.578125 -9.5625 C 10.390625 -9.78125 9.347656 -10.132812 8.453125 -10.625 C 7.992188 -10.9375 7.65625 -10.957031 7.4375 -10.6875 C 7.21875 -10.425781 7.265625 -10.082031 7.578125 -9.65625 C 7.941406 -8.789062 8.53125 -8.019531 9.34375 -7.34375 C 10.164062 -6.664062 11.097656 -6.132812 12.140625 -5.75 C 13.191406 -5.363281 14.242188 -5.171875 15.296875 -5.171875 C 16.492188 -5.171875 17.769531 -5.429688 19.125 -5.953125 C 20.476562 -6.484375 21.585938 -7.148438 22.453125 -7.953125 C 22.796875 -8.378906 23.160156 -8.519531 23.546875 -8.375 C 23.929688 -8.238281 24.140625 -7.863281 24.171875 -7.25 C 24.222656 -6.570312 24.253906 -5.878906 24.265625 -5.171875 C 24.285156 -4.460938 24.3125 -3.769531 24.34375 -3.09375 C 24.34375 -2.507812 24.144531 -2.09375 23.75 -1.84375 C 22.601562 -1.070312 21.144531 -0.507812 19.375 -0.15625 C 17.601562 0.195312 15.90625 0.375 14.28125 0.375 Z M 13.4375 -12.796875 C 14.769531 -12.796875 15.816406 -13.125 16.578125 -13.78125 C 17.347656 -14.445312 17.734375 -15.351562 17.734375 -16.5 C 17.734375 -17.695312 17.378906 -18.632812 16.671875 -19.3125 C 15.960938 -19.988281 14.796875 -20.328125 13.171875 -20.328125 C 12.242188 -20.328125 11.332031 -20.132812 10.4375 -19.75 C 9.550781 -19.363281 8.820312 -18.816406 8.25 -18.109375 C 7.675781 -17.398438 7.390625 -16.539062 7.390625 -15.53125 C 7.390625 -14.90625 7.726562 -14.382812 8.40625 -13.96875 C 9.082031 -13.5625 9.890625 -13.265625 10.828125 -13.078125 C 11.773438 -12.890625 12.644531 -12.796875 13.4375 -12.796875 Z M 13.4375 -12.796875 "/></g></g></g><g fill="#3b28cc" fill-opacity="1"><g transform="translate(389.500231, 213.82022)"><g><path d="M 5.078125 0.1875 C 4.742188 0.1875 4.289062 0.171875 3.71875 0.140625 C 3.144531 0.109375 2.675781 0.0625 2.3125 0 C 1.632812 -0.15625 1.296875 -0.585938 1.296875 -1.296875 C 1.296875 -3.972656 1.3125 -6.75 1.34375 -9.625 C 1.375 -12.507812 1.410156 -15.335938 1.453125 -18.109375 C 1.503906 -20.878906 1.582031 -23.472656 1.6875 -25.890625 C 1.789062 -28.316406 1.90625 -30.390625 2.03125 -32.109375 C 2.125 -32.785156 2.507812 -33.171875 3.1875 -33.265625 C 3.53125 -33.328125 3.914062 -33.375 4.34375 -33.40625 C 4.769531 -33.4375 5.171875 -33.453125 5.546875 -33.453125 C 5.972656 -33.453125 6.476562 -33.4375 7.0625 -33.40625 C 7.65625 -33.375 8.101562 -33.328125 8.40625 -33.265625 C 8.75 -33.234375 9.019531 -33.085938 9.21875 -32.828125 C 9.414062 -32.566406 9.484375 -32.265625 9.421875 -31.921875 C 9.179688 -29.984375 8.972656 -27.710938 8.796875 -25.109375 C 8.628906 -22.503906 8.503906 -19.785156 8.421875 -16.953125 C 8.347656 -14.117188 8.332031 -11.347656 8.375 -8.640625 C 8.425781 -5.929688 8.53125 -3.484375 8.6875 -1.296875 C 8.71875 -0.921875 8.628906 -0.617188 8.421875 -0.390625 C 8.222656 -0.160156 7.972656 -0.015625 7.671875 0.046875 C 7.296875 0.078125 6.851562 0.109375 6.34375 0.140625 C 5.84375 0.171875 5.421875 0.1875 5.078125 0.1875 Z M 5.078125 0.1875 "/></g></g></g><g fill="#3b28cc" fill-opacity="1"><g transform="translate(400.126461, 213.82022)"><g><path d="M 13.765625 0.375 C 11.304688 0.375 9.097656 -0.09375 7.140625 -1.03125 C 5.179688 -1.976562 3.640625 -3.394531 2.515625 -5.28125 C 1.390625 -7.175781 0.828125 -9.539062 0.828125 -12.375 C 0.828125 -15.15625 1.378906 -17.519531 2.484375 -19.46875 C 3.597656 -21.425781 5.132812 -22.921875 7.09375 -23.953125 C 9.050781 -24.984375 11.273438 -25.5 13.765625 -25.5 C 16.265625 -25.5 18.472656 -24.984375 20.390625 -23.953125 C 22.316406 -22.921875 23.832031 -21.425781 24.9375 -19.46875 C 26.050781 -17.519531 26.609375 -15.15625 26.609375 -12.375 C 26.609375 -9.539062 26.050781 -7.175781 24.9375 -5.28125 C 23.832031 -3.394531 22.3125 -1.976562 20.375 -1.03125 C 18.4375 -0.09375 16.234375 0.375 13.765625 0.375 Z M 13.765625 -5.078125 C 15.585938 -5.078125 17.085938 -5.722656 18.265625 -7.015625 C 19.453125 -8.316406 20.046875 -10.179688 20.046875 -12.609375 C 20.046875 -14.921875 19.460938 -16.738281 18.296875 -18.0625 C 17.128906 -19.382812 15.617188 -20.046875 13.765625 -20.046875 C 11.890625 -20.046875 10.375 -19.382812 9.21875 -18.0625 C 8.0625 -16.738281 7.484375 -14.921875 7.484375 -12.609375 C 7.484375 -10.179688 8.078125 -8.316406 9.265625 -7.015625 C 10.453125 -5.722656 11.953125 -5.078125 13.765625 -5.078125 Z M 13.765625 -5.078125 "/></g></g></g><g fill="#3b28cc" fill-opacity="1"><g transform="translate(427.569849, 213.82022)"><g/></g></g><g fill="#d90368" fill-opacity="1"><g transform="translate(440.007713, 213.82022)"><g><path d="M 5.59375 0.1875 C 4.914062 0.1875 4.273438 0.160156 3.671875 0.109375 C 3.066406 0.0664062 2.644531 0.03125 2.40625 0 C 1.664062 -0.15625 1.296875 -0.554688 1.296875 -1.203125 C 1.296875 -3.140625 1.3125 -5.222656 1.34375 -7.453125 C 1.375 -9.691406 1.421875 -11.960938 1.484375 -14.265625 C 1.546875 -16.578125 1.601562 -18.804688 1.65625 -20.953125 C 1.71875 -23.097656 1.796875 -25.054688 1.890625 -26.828125 C 1.984375 -28.597656 2.078125 -30.066406 2.171875 -31.234375 C 2.234375 -31.910156 2.585938 -32.28125 3.234375 -32.34375 C 4.066406 -32.40625 5.128906 -32.46875 6.421875 -32.53125 C 7.710938 -32.59375 9.035156 -32.640625 10.390625 -32.671875 C 11.742188 -32.703125 12.929688 -32.71875 13.953125 -32.71875 C 18.578125 -32.71875 22.148438 -31.984375 24.671875 -30.515625 C 27.203125 -29.054688 28.46875 -26.96875 28.46875 -24.25 C 28.46875 -21.851562 27.671875 -19.742188 26.078125 -17.921875 C 24.492188 -16.109375 22.273438 -14.707031 19.421875 -13.71875 C 16.578125 -12.738281 13.242188 -12.28125 9.421875 -12.34375 C 8.648438 -12.28125 8.265625 -11.675781 8.265625 -10.53125 C 8.265625 -9.332031 8.375 -8.15625 8.59375 -7 C 8.8125 -5.84375 9.039062 -4.78125 9.28125 -3.8125 C 9.53125 -2.84375 9.671875 -2.019531 9.703125 -1.34375 C 9.734375 -1 9.632812 -0.695312 9.40625 -0.4375 C 9.175781 -0.175781 8.890625 -0.015625 8.546875 0.046875 C 8.117188 0.109375 7.625 0.144531 7.0625 0.15625 C 6.507812 0.175781 6.019531 0.1875 5.59375 0.1875 Z M 10.578125 -17 C 13.109375 -17.03125 15.195312 -17.34375 16.84375 -17.9375 C 18.488281 -18.539062 19.710938 -19.335938 20.515625 -20.328125 C 21.316406 -21.316406 21.71875 -22.347656 21.71875 -23.421875 C 21.71875 -24.679688 21.113281 -25.648438 19.90625 -26.328125 C 18.707031 -27.015625 16.738281 -27.359375 14 -27.359375 C 13.257812 -27.359375 12.601562 -27.347656 12.03125 -27.328125 C 11.46875 -27.316406 10.890625 -27.28125 10.296875 -27.21875 C 9.710938 -27.1875 9.289062 -27.015625 9.03125 -26.703125 C 8.769531 -26.398438 8.609375 -26.015625 8.546875 -25.546875 C 8.421875 -24.679688 8.359375 -23.578125 8.359375 -22.234375 C 8.359375 -20.898438 8.421875 -19.648438 8.546875 -18.484375 C 8.640625 -17.429688 9.316406 -16.9375 10.578125 -17 Z M 10.578125 -17 "/></g></g></g><g fill="#d90368" fill-opacity="1"><g transform="translate(469.299112, 213.82022)"><g><path d="M 13.765625 0.375 C 11.304688 0.375 9.097656 -0.09375 7.140625 -1.03125 C 5.179688 -1.976562 3.640625 -3.394531 2.515625 -5.28125 C 1.390625 -7.175781 0.828125 -9.539062 0.828125 -12.375 C 0.828125 -15.15625 1.378906 -17.519531 2.484375 -19.46875 C 3.597656 -21.425781 5.132812 -22.921875 7.09375 -23.953125 C 9.050781 -24.984375 11.273438 -25.5 13.765625 -25.5 C 16.265625 -25.5 18.472656 -24.984375 20.390625 -23.953125 C 22.316406 -22.921875 23.832031 -21.425781 24.9375 -19.46875 C 26.050781 -17.519531 26.609375 -15.15625 26.609375 -12.375 C 26.609375 -9.539062 26.050781 -7.175781 24.9375 -5.28125 C 23.832031 -3.394531 22.3125 -1.976562 20.375 -1.03125 C 18.4375 -0.09375 16.234375 0.375 13.765625 0.375 Z M 13.765625 -5.078125 C 15.585938 -5.078125 17.085938 -5.722656 18.265625 -7.015625 C 19.453125 -8.316406 20.046875 -10.179688 20.046875 -12.609375 C 20.046875 -14.921875 19.460938 -16.738281 18.296875 -18.0625 C 17.128906 -19.382812 15.617188 -20.046875 13.765625 -20.046875 C 11.890625 -20.046875 10.375 -19.382812 9.21875 -18.0625 C 8.0625 -16.738281 7.484375 -14.921875 7.484375 -12.609375 C 7.484375 -10.179688 8.078125 -8.316406 9.265625 -7.015625 C 10.453125 -5.722656 11.953125 -5.078125 13.765625 -5.078125 Z M 13.765625 -5.078125 "/></g></g></g><g fill="#d90368" fill-opacity="1"><g transform="translate(496.742477, 213.82022)"><g><path d="M 14.09375 0.1875 C 13.65625 0.1875 13.113281 0.175781 12.46875 0.15625 C 11.820312 0.144531 11.253906 0.09375 10.765625 0 C 10.515625 -0.0625 10.265625 -0.175781 10.015625 -0.34375 C 9.773438 -0.507812 9.59375 -0.6875 9.46875 -0.875 C 8.300781 -2.90625 7.171875 -5.160156 6.078125 -7.640625 C 4.984375 -10.117188 3.988281 -12.726562 3.09375 -15.46875 C 2.195312 -18.21875 1.410156 -20.960938 0.734375 -23.703125 C 0.640625 -24.035156 0.675781 -24.347656 0.84375 -24.640625 C 1.019531 -24.941406 1.304688 -25.109375 1.703125 -25.140625 C 2.046875 -25.203125 2.484375 -25.242188 3.015625 -25.265625 C 3.554688 -25.296875 3.984375 -25.3125 4.296875 -25.3125 C 4.546875 -25.3125 5.023438 -25.296875 5.734375 -25.265625 C 6.441406 -25.242188 6.960938 -25.203125 7.296875 -25.140625 C 7.878906 -25.046875 8.234375 -24.691406 8.359375 -24.078125 C 8.609375 -20.710938 9.222656 -17.585938 10.203125 -14.703125 C 11.191406 -11.828125 12.164062 -9.390625 13.125 -7.390625 C 13.425781 -6.804688 13.738281 -6.515625 14.0625 -6.515625 C 14.382812 -6.515625 14.703125 -6.804688 15.015625 -7.390625 C 15.660156 -8.742188 16.3125 -10.296875 16.96875 -12.046875 C 17.632812 -13.804688 18.222656 -15.703125 18.734375 -17.734375 C 19.242188 -19.773438 19.578125 -21.890625 19.734375 -24.078125 C 19.847656 -24.691406 20.203125 -25.046875 20.796875 -25.140625 C 21.160156 -25.203125 21.679688 -25.242188 22.359375 -25.265625 C 23.035156 -25.296875 23.515625 -25.3125 23.796875 -25.3125 C 24.160156 -25.3125 24.601562 -25.296875 25.125 -25.265625 C 25.65625 -25.242188 26.070312 -25.203125 26.375 -25.140625 C 26.8125 -25.109375 27.101562 -24.941406 27.25 -24.640625 C 27.40625 -24.347656 27.441406 -24.035156 27.359375 -23.703125 C 26.210938 -19.515625 24.898438 -15.429688 23.421875 -11.453125 C 21.941406 -7.484375 20.328125 -3.957031 18.578125 -0.875 C 18.453125 -0.6875 18.273438 -0.507812 18.046875 -0.34375 C 17.816406 -0.175781 17.578125 -0.0625 17.328125 0 C 16.835938 0.09375 16.265625 0.144531 15.609375 0.15625 C 14.960938 0.175781 14.457031 0.1875 14.09375 0.1875 Z M 14.09375 0.1875 "/></g></g></g><g fill="#d90368" fill-opacity="1"><g transform="translate(524.832652, 213.82022)"><g><path d="M 13.765625 0.375 C 11.304688 0.375 9.097656 -0.09375 7.140625 -1.03125 C 5.179688 -1.976562 3.640625 -3.394531 2.515625 -5.28125 C 1.390625 -7.175781 0.828125 -9.539062 0.828125 -12.375 C 0.828125 -15.15625 1.378906 -17.519531 2.484375 -19.46875 C 3.597656 -21.425781 5.132812 -22.921875 7.09375 -23.953125 C 9.050781 -24.984375 11.273438 -25.5 13.765625 -25.5 C 16.265625 -25.5 18.472656 -24.984375 20.390625 -23.953125 C 22.316406 -22.921875 23.832031 -21.425781 24.9375 -19.46875 C 26.050781 -17.519531 26.609375 -15.15625 26.609375 -12.375 C 26.609375 -9.539062 26.050781 -7.175781 24.9375 -5.28125 C 23.832031 -3.394531 22.3125 -1.976562 20.375 -1.03125 C 18.4375 -0.09375 16.234375 0.375 13.765625 0.375 Z M 13.765625 -5.078125 C 15.585938 -5.078125 17.085938 -5.722656 18.265625 -7.015625 C 19.453125 -8.316406 20.046875 -10.179688 20.046875 -12.609375 C 20.046875 -14.921875 19.460938 -16.738281 18.296875 -18.0625 C 17.128906 -19.382812 15.617188 -20.046875 13.765625 -20.046875 C 11.890625 -20.046875 10.375 -19.382812 9.21875 -18.0625 C 8.0625 -16.738281 7.484375 -14.921875 7.484375 -12.609375 C 7.484375 -10.179688 8.078125 -8.316406 9.265625 -7.015625 C 10.453125 -5.722656 11.953125 -5.078125 13.765625 -5.078125 Z M 13.765625 -5.078125 "/></g></g></g><g fill="#3b28cc" fill-opacity="1"><g transform="translate(552.276944, 213.82022)"><g><path d="M 5.453125 -32.71875 C 5.703125 -32.71875 6.078125 -32.703125 6.578125 -32.671875 C 7.085938 -32.640625 7.53125 -32.59375 7.90625 -32.53125 C 8.582031 -32.4375 8.921875 -32.066406 8.921875 -31.421875 C 8.921875 -29.015625 8.90625 -26.882812 8.875 -25.03125 C 8.84375 -23.1875 8.796875 -21.503906 8.734375 -19.984375 C 8.671875 -18.460938 8.597656 -17 8.515625 -15.59375 C 8.441406 -14.1875 8.34375 -12.71875 8.21875 -11.1875 C 8.1875 -10.84375 8.078125 -10.59375 7.890625 -10.4375 C 7.710938 -10.28125 7.46875 -10.175781 7.15625 -10.125 C 6.851562 -10.09375 6.546875 -10.0625 6.234375 -10.03125 C 5.929688 -10 5.671875 -9.984375 5.453125 -9.984375 C 5.234375 -9.984375 4.945312 -10 4.59375 -10.03125 C 4.238281 -10.0625 3.894531 -10.09375 3.5625 -10.125 C 3.25 -10.175781 3.007812 -10.28125 2.84375 -10.4375 C 2.675781 -10.59375 2.5625 -10.84375 2.5 -11.1875 C 2.375 -12.71875 2.269531 -14.1875 2.1875 -15.59375 C 2.113281 -17 2.046875 -18.460938 1.984375 -19.984375 C 1.921875 -21.503906 1.875 -23.179688 1.84375 -25.015625 C 1.8125 -26.847656 1.796875 -28.96875 1.796875 -31.375 C 1.796875 -31.707031 1.894531 -31.972656 2.09375 -32.171875 C 2.300781 -32.378906 2.539062 -32.5 2.8125 -32.53125 C 3.21875 -32.59375 3.6875 -32.640625 4.21875 -32.671875 C 4.757812 -32.703125 5.171875 -32.71875 5.453125 -32.71875 Z M 5.265625 0.375 C 3.972656 0.375 2.898438 0.00390625 2.046875 -0.734375 C 1.203125 -1.472656 0.78125 -2.519531 0.78125 -3.875 C 0.78125 -5.226562 1.203125 -6.273438 2.046875 -7.015625 C 2.898438 -7.753906 3.972656 -8.125 5.265625 -8.125 C 6.585938 -8.125 7.671875 -7.753906 8.515625 -7.015625 C 9.367188 -6.273438 9.796875 -5.210938 9.796875 -3.828125 C 9.796875 -2.503906 9.363281 -1.472656 8.5 -0.734375 C 7.632812 0.00390625 6.554688 0.375 5.265625 0.375 Z M 5.265625 0.375 "/></g></g></g></svg>