<svg xmlns="http://www.w3.org/2000/svg" xmlns:xlink="http://www.w3.org/1999/xlink" width="576" zoomAndPan="magnify" viewBox="0 0 432 712.499978" height="950" preserveAspectRatio="xMidYMid meet" version="1.0"><defs><clipPath id="631952f27d"><path d="M 0.152344 0 L 85.898438 0 L 85.898438 712 L 0.152344 712 Z M 0.152344 0 " clip-rule="nonzero"/></clipPath><clipPath id="98359ccc61"><path d="M 339.128906 0 L 431.847656 0 L 431.847656 712 L 339.128906 712 Z M 339.128906 0 " clip-rule="nonzero"/></clipPath></defs><g clip-path="url(#631952f27d)"><path fill="#d90368" d="M 77.320312 698.453125 C 59.386719 644.753906 48.417969 606.542969 38.902344 564.332031 C 27.882812 515.570312 23.359375 480.894531 22.683594 440.085938 C 22.007812 396 25.59375 361.429688 36.5625 307.78125 C 40.984375 286.15625 46.648438 261.046875 59.179688 207.65625 C 71.601562 154.683594 78.203125 121.933594 80.441406 101.660156 C 84.496094 65.632812 81.273438 29.035156 71.03125 -5.277344 L 69.160156 -11.671875 L -8.195312 -11.773438 L -85.601562 -11.929688 L -85.601562 723.925781 L 0.175781 723.925781 C 47.378906 723.925781 85.898438 723.875 85.847656 723.824219 C 85.792969 723.71875 81.949219 712.335938 77.320312 698.453125 Z M 77.320312 698.453125 " fill-opacity="1" fill-rule="nonzero"/></g><g clip-path="url(#98359ccc61)"><path fill="#fca311" d="M 347.703125 13.542969 C 365.640625 67.242188 376.609375 105.453125 386.121094 147.664062 C 397.144531 196.429688 401.667969 231.101562 402.34375 271.910156 C 403.019531 315.996094 399.429688 350.566406 388.460938 404.214844 C 384.042969 425.839844 378.375 450.949219 365.847656 504.339844 C 353.421875 557.3125 346.820312 590.0625 344.585938 610.339844 C 340.53125 646.363281 343.753906 682.960938 353.996094 717.273438 L 355.867188 723.667969 L 433.222656 723.769531 L 510.628906 723.925781 L 510.628906 -11.929688 L 424.851562 -11.929688 C 377.648438 -11.929688 339.128906 -11.878906 339.179688 -11.828125 C 339.230469 -11.722656 343.078125 -0.335938 347.703125 13.542969 Z M 347.703125 13.542969 " fill-opacity="1" fill-rule="nonzero"/></g></svg>