<svg xmlns="http://www.w3.org/2000/svg" xmlns:xlink="http://www.w3.org/1999/xlink" width="300" zoomAndPan="magnify" viewBox="0 0 224.87999 675.000002" height="900" preserveAspectRatio="xMidYMid meet" version="1.0"><defs><clipPath id="90828191a3"><path d="M 164.027344 0 L 224.652344 0 L 224.652344 674 L 164.027344 674 Z M 164.027344 0 " clip-rule="nonzero"/></clipPath><clipPath id="0f367e5ddc"><path d="M 0.105469 0 L 54.964844 0 L 54.964844 674 L 0.105469 674 Z M 0.105469 0 " clip-rule="nonzero"/></clipPath></defs><g clip-path="url(#90828191a3)"><path fill="#fca311" d="M 172.566406 12.492188 C 190.417969 65.945312 201.335938 103.980469 210.808594 146 C 221.777344 194.535156 226.277344 229.050781 226.953125 269.671875 C 227.625 313.554688 224.054688 347.964844 213.136719 401.367188 C 208.738281 422.894531 203.097656 447.886719 190.625 501.03125 C 178.257812 553.761719 171.6875 586.363281 169.460938 606.542969 C 165.425781 642.402344 168.632812 678.832031 178.828125 712.984375 L 180.691406 719.351562 L 257.6875 719.453125 L 334.738281 719.609375 L 334.738281 -12.863281 L 249.359375 -12.863281 C 202.371094 -12.863281 164.027344 -12.8125 164.078125 -12.761719 C 164.132812 -12.65625 167.960938 -1.324219 172.566406 12.492188 Z M 172.566406 12.492188 " fill-opacity="1" fill-rule="nonzero"/></g><g clip-path="url(#0f367e5ddc)"><path fill="#d90368" d="M 46.855469 658.925781 C 29.890625 608.136719 19.519531 572 10.519531 532.082031 C 0.0976562 485.964844 -4.179688 453.171875 -4.816406 414.578125 C -5.457031 372.886719 -2.066406 340.191406 8.308594 289.453125 C 12.488281 269 17.847656 245.253906 29.695312 194.761719 C 41.445312 144.664062 47.691406 113.691406 49.804688 94.515625 C 53.636719 60.445312 50.589844 25.835938 40.90625 -6.613281 L 39.136719 -12.660156 L -34.023438 -12.757812 L -107.226562 -12.90625 L -107.226562 683.015625 L -26.105469 683.015625 C 18.535156 683.015625 54.964844 682.964844 54.917969 682.917969 C 54.867188 682.816406 51.230469 672.050781 46.855469 658.925781 Z M 46.855469 658.925781 " fill-opacity="1" fill-rule="nonzero"/></g></svg>