<svg xmlns="http://www.w3.org/2000/svg" xmlns:xlink="http://www.w3.org/1999/xlink" width="600" zoomAndPan="magnify" viewBox="0 0 450 225" height="300" preserveAspectRatio="xMidYMid meet" version="1.0"><defs><clipPath id="28cb89ad40"><path d="M 0 0 L 450 0 L 450 102.25 L 0 102.25 Z M 0 0 " clip-rule="nonzero"/></clipPath></defs><g clip-path="url(#28cb89ad40)"><path fill="#fca311" d="M 10.953125 96.898438 C 44.460938 85.707031 68.304688 78.863281 94.644531 72.925781 C 125.070312 66.050781 146.707031 63.226562 172.171875 62.804688 C 199.679688 62.382812 221.253906 64.621094 254.730469 71.46875 C 268.222656 74.226562 283.890625 77.761719 317.207031 85.578125 C 350.261719 93.332031 370.699219 97.449219 383.347656 98.84375 C 405.828125 101.375 428.664062 99.363281 450.074219 92.972656 L 454.066406 91.804688 L 454.128906 43.539062 L 454.226562 -4.765625 L -4.945312 -4.765625 L -4.945312 48.761719 C -4.945312 78.214844 -4.910156 102.25 -4.878906 102.21875 C -4.8125 102.1875 2.289062 99.785156 10.953125 96.898438 Z M 10.953125 96.898438 " fill-opacity="1" fill-rule="nonzero"/></g></svg>